<svg width="238" height="29" viewBox="0 0 238 29" fill="none" xmlns="http://www.w3.org/2000/svg">
    <path d="M139.712 1.08717H141.239V27.559H139.712V1.08717ZM54.4483 20.2224V18.6943H65.0841V20.2224H54.4483ZM215.709 1.08717H217.235V27.559H215.709V1.08717ZM224.356 1.08717H219.271V2.61531H224.356C230.818 2.61531 235.978 7.85914 235.978 14.3231C235.978 20.7871 230.818 26.0309 224.356 26.0309H219.271V27.559H224.356C231.658 27.559 237.58 21.6321 237.58 14.3231C237.58 7.01412 231.658 1.08717 224.356 1.08717ZM14.4814 26.793C7.81034 26.793 2.47668 21.2096 2.47668 14.3192C2.47668 7.42873 7.81034 1.84532 14.4814 1.84532C18.4895 1.84532 22.0282 3.86704 24.2255 6.96674L25.4446 6.0467C22.9671 2.57582 18.9866 0.313232 14.4814 0.313232C6.96611 0.313232 0.875 6.57977 0.875 14.3113C0.875 22.0428 6.96611 28.3132 14.4814 28.3132C18.9866 28.3132 22.9671 26.0507 25.4446 22.5798L24.2255 21.6597C22.0282 24.7594 18.4855 26.7812 14.4814 26.7812V26.793ZM106.227 14.4495C110.55 14.4495 113.572 11.7012 113.572 7.76832C113.572 3.83545 110.55 1.08717 106.227 1.08717H97.2004V27.559H98.7272V14.4495H106.231H106.227ZM111.971 7.76832C111.971 11.5748 108.913 12.9253 106.227 12.9253H98.7232V2.61531H106.227C108.909 2.61531 111.971 3.96575 111.971 7.77227V7.76832ZM107.383 15.8868L106.069 16.6607L112.633 27.8157L113.947 27.0418L107.383 15.8868ZM173.465 20.2264V18.6982H184.101V20.2264H173.465ZM179.659 1.09112H177.912L166.672 27.2155L168.073 27.8196L178.787 2.86802L189.502 27.8196L190.902 27.2155L179.663 1.09112H179.659ZM60.642 1.09112H58.8943L47.655 27.2155L49.0555 27.8196L59.7701 2.89566L70.4848 27.8196L71.8853 27.2155L60.6459 1.09112H60.642Z" fill="#442EE0"/>
</svg>
