<?xml version="1.0" encoding="utf-8"?>
<!-- Generator: Adobe Illustrator 19.2.1, SVG Export Plug-In . SVG Version: 6.00 Build 0)  -->
<svg version="1.1" id="layer" xmlns="http://www.w3.org/2000/svg" xmlns:xlink="http://www.w3.org/1999/xlink" x="0px" y="0px"
	 viewBox="0 0 652 652" style="enable-background:new 0 0 652 652;" xml:space="preserve">
<path d="M64.5,322.1h26.4c-3.5,12-14.6,21.1-27.8,21.1c-15.8,0-29-12.9-29-29c0-15.8,12.9-29,29-29c12,0,22.3,7.3,26.7,17.9h7.9
	c-4.7-14.6-18.5-25.2-34.6-25.2c-19.9,0-36.3,16.4-36.3,36.3c0,19.9,16.4,36.3,36.3,36.3c11.4,0,22-5.9,28.1-14.1v12.6h6.7v-34.3
	H64.5L64.5,322.1L64.5,322.1z M110.2,280.2h7.3v68.6h-7.3V280.2z M323.8,280.2h7.3v68.6h-7.3V280.2z M155.3,344.1
	c-11.1,0-20.2-9.7-20.2-20.5c0-11.1,9.1-20.5,20.2-20.5s20.2,9.4,20.2,20.5C175.2,334.4,166.2,344.1,155.3,344.1 M155.3,295.7
	c-15.2,0-27.5,12.3-27.5,27.5c0,15.2,12.3,27.5,27.5,27.5c15.2,0,27.5-12.3,27.5-27.5C182.6,308,170.3,295.7,155.3,295.7
	 M218.6,344.1c-11.1,0-20.2-9.7-20.2-20.5c0-11.1,9.1-20.5,20.2-20.5c11.1,0,20.2,9.4,20.2,20.5
	C238.5,334.4,229.7,344.1,218.6,344.1 M218.9,295.4c-8.2,0-15.5,3.5-20.5,9.4v-24.6h-7.3v68.6h7.3V342c5,5.6,12.3,9.1,20.5,9.1
	c15.2,0,27.5-12.6,27.5-27.8C246.4,307.7,234.1,295.4,218.9,295.4 M283.6,344.1c-11.1,0-20.2-9.7-20.2-20.5
	c0-11.1,9.1-20.5,20.2-20.5s20.2,9.4,20.2,20.5C303.8,334.4,294.8,344.1,283.6,344.1 M303.8,304.8c-5-5.9-12.6-9.4-20.8-9.4
	c-15.5,0-27.8,12.6-27.8,27.8c0,15.5,12.6,27.8,27.8,27.8c8.2,0,15.8-3.5,20.8-9.4v7h7.3v-50.1h-7.3V304.8z M521.5,273.2h12.9v12
	h-12.9V273.2z M356.9,280.2h-11.7v57.7v10.8h38.4v-10.8h-26.7V280.2z M521.5,294.9h12.9v53.9h-12.9V294.9z M416.3,339.4
	c-8.5,0-15.5-7.3-15.5-16.7c0-9.1,7-16.7,15.5-16.7c8.5,0,15.5,7.3,15.5,16.7C431.9,332.1,424.8,339.4,416.3,339.4 M416.3,294.6
	c-15.5,0-28.1,12.6-28.1,28.1c0,15.5,12.6,28.1,28.1,28.1c15.5,0,28.1-12.6,28.1-28.1S431.9,294.6,416.3,294.6 M587.7,330.3
	c-2.6,5.6-7.9,9.1-13.8,9.1c-8.5,0-15.5-7.6-15.5-16.7c0-10,7-16.7,15.5-16.7c5.9,0,10.8,3.5,13.5,8.5h13.5
	c-3.5-11.4-14.4-19.9-27-19.9c-15.5,0-28.1,12.6-28.1,28.1c0,15.5,12.6,28.1,28.1,28.1c12.9,0,24-8.8,27.2-20.8h-13.5L587.7,330.3
	L587.7,330.3z M478.8,367.5c-5.9,0-11.1-2.9-14.6-7.6l-11.4,5.6c5.3,8.5,14.4,14.1,26.1,14.1c14.9,0,27.2-12,28.4-26.4h-12.6
	C493.4,361.4,487,367.5,478.8,367.5 M479.3,339.7c-8.5,0-15.5-7.3-15.5-16.7c0-9.1,7-16.7,15.5-16.7c8.5,0,15.5,7.3,15.5,16.7
	C494.9,332.4,488.1,339.7,479.3,339.7 M496,300.4c-4.7-3.2-10.3-5.3-16.4-5.3c-15.5,0-28.1,12.6-28.1,28.1
	c0,15.5,12.6,28.1,28.1,28.1c15.5,0,28.1-12.6,28.1-27.8v-28.7H496V300.4z M611.5,285.5c0-4.7,3.2-7.6,7.6-7.6s7.6,3.2,7.6,7.6
	s-3.2,7.6-7.6,7.6S611.5,289.9,611.5,285.5z M625.5,285.5c0-4.1-2.6-6.7-6.4-6.7c-3.5,0-6.4,2.6-6.4,6.7s2.6,6.7,6.4,6.7
	C622.6,291.9,625.5,289.3,625.5,285.5z M615.9,281.4h3.5c1.5,0,2.6,0.9,2.6,2.3c0,0.9-0.6,1.8-1.5,1.8l0,0c0.9,0.3,1.2,0.6,1.2,1.8
	c0,1.2,0,1.8,0.3,2.1l0,0h-1.5c-0.3,0-0.3-0.9-0.3-1.8c0-0.9-0.6-1.5-1.5-1.5h-1.5v3.2h-1.5V281.4L615.9,281.4z M617.9,284.9h1.8
	c0.9,0,1.5-0.6,1.5-1.2c0-0.6-0.3-1.2-1.2-1.2h-1.8v2.3H617.9z"/>
</svg>
