<svg xmlns="http://www.w3.org/2000/svg" height="800" width="1200" viewBox="-64.60194 -24.902575 559.88348 149.41545"><path d="M409.0509 16.3751H396.517V9.3833h34.1626v6.9918h-12.5375v35.1573h-9.0912zm-51.0347-6.9918h9.0361v16.8501h15.9215v-16.85h9.1536v42.149h-9.0398V33.049h-16.0353v18.4834h-9.0361zm-16.483 12.9413c-.0587-1.1047-.1175-2.6242-1.1672-4.2538-1.747-2.8004-5.065-3.2665-7.0505-3.2665-10.262 0-12.299 9.5646-12.299 16.0316 0 2.8554.4037 7.9901 3.4977 11.3117 2.0994 2.3306 4.8998 3.6152 9.906 3.6152 4.3786 0 5.8908-.5286 6.8854-.8148v-8.8673h-8.1663v-6.9918h17.1988V50.134c-2.6243.8735-6.9368 2.3306-15.3894 2.3306-9.616 0-14.5782-2.3306-17.8997-5.597-4.7236-4.6062-5.5898-11.3081-5.5898-15.738 0-14.927 9.3224-22.9134 22.0912-22.9134 5.421 0 11.0144 1.5158 14.3396 5.3035 2.8004 3.2041 2.9729 6.533 3.0353 8.805zM296.6424 9.266h9.0362v42.2665h-9.0362zm-30.6611 28.8004c0 1.9819-.1175 7.9864 7.6377 7.9864 4.8961 0 7.9865-2.3343 7.9865-5.8907 0-3.729-2.6206-4.3676-7.9865-5.6522-10.027-2.5104-15.5067-5.4833-15.5067-12.7688 0-6.9367 4.9511-13.0587 16.6702-13.0587 4.375 0 9.561.9873 12.71 4.9548 2.3894 3.0317 2.3894 6.4156 2.3894 7.814h-8.6802c-.1175-1.4608-.5909-6.4156-6.823-6.4156-4.1987 0-6.9404 2.2719-6.9404 5.7146 0 3.9088 3.0904 4.6061 9.1536 6.122 7.2891 1.747 14.457 3.7326 14.457 11.954 0 7.5753-6.298 13.6972-17.9547 13.6972-16.149 0-16.2665-10.3757-16.3216-14.457zM230.6 9.5558l8.6875 19.1844 8.86-19.1844h9.2673L243.189 36.1981v15.3343h-8.9187V36.0807L220.0482 9.5558zm-42.7142-.1725h28.2131v6.8744h-19.177v10.0308h17.9548v6.878H196.922v11.3704h19.823v6.9955h-28.8591zm-39.1248.1175h9.0361v18.1274l14.1084-18.2448h10.552l-15.4517 18.887 16.7913 23.262H172.548l-14.7507-21.4562v21.4562h-9.0361zm259.7815 72.7856c.066 1.6076.2569 4.5915 5.5824 4.5915 4.819 0 5.432-2.9839 5.432-4.14 0-2.6022-2.0884-3.1124-5.3329-3.9162-3.5308-.8662-5.1016-1.2552-6.2944-2.0516-1.8939-1.2883-2.4077-3.0206-2.4077-4.5658 0-4.7126 4.463-6.7716 8.8269-6.7716 1.5452 0 4.6612.257 6.522 2.2792 1.281 1.413 1.347 2.9876 1.4167 3.9492h-3.3436c-.1614-2.8885-2.6022-3.5308-4.8777-3.5308-3.2115 0-5.1383 1.4461-5.1383 3.751 0 2.0627 1.3506 2.7637 4.1694 3.4427 5.5237 1.413 6.133 1.5378 7.4836 2.4407 2.1507 1.413 2.3086 3.6629 2.3086 4.6208 0 4.1107-3.2078 7.223-9.1463 7.223-1.769 0-5.3585-.2899-7.1863-2.6315-1.3213-1.703-1.358-3.5638-1.358-4.6906zm-24.0474-16.406h14.5451v2.7307h-11.33v7.2267h10.7832v2.694h-10.7832v7.7075h11.5906v2.8224h-14.8057zm-12.3247 0h3.2115v23.1813h-3.2115zm-11.8072 5.7807c-.3523-2.1508-2.0883-3.6262-5.2374-3.6262-2.1765 0-4.0116.5762-5.2338 1.9562-2.0186 2.2499-2.47 5.2668-2.47 7.4506 0 1.9563.4184 5.2668 2.1177 7.2854 1.5158 1.736 3.8574 2.283 6.166 2.283 2.6316 0 4.3052-.5139 5.0429-.7415V79.398h-5.2998v-2.661h8.5113v11.4292c-1.3507.4477-4.3052 1.4093-8.2544 1.4093-4.2722 0-6.7716-1.2148-8.4122-2.8921-2.2755-2.3086-3.2445-5.553-3.2445-8.827 0-2.3085.5799-7.7662 4.9805-10.7207 2.283-1.5415 5.2962-1.6406 6.4523-1.6406 1.8278 0 4.6245.2275 6.8377 2.4774 1.3837 1.446 1.4754 2.7894 1.5415 3.6886zM321.8075 84.76c1.3176 1.637 3.3068 2.1178 5.1383 2.1178 1.8938 0 3.7877-.5138 5.1347-2.1177 1.8938-2.3086 2.0883-5.9715 2.0883-7.5424 0-5.2704-1.7323-9.2453-7.0322-9.2453-5.876 0-7.3808 4.7163-7.3808 9.4692 0 2.5361.4478 5.3255 2.0517 7.3185m-2.4408-16.373c2.4077-2.6022 5.5861-3.1123 7.7369-3.1123 6.423 0 10.4675 4.1106 10.4675 11.976 0 6.1623-2.4737 12.3577-10.7244 12.3577-7.8984 0-10.4639-5.6155-10.4639-11.976 0-2.6316.4478-6.5184 2.984-9.2454m-20.3222-2.5067h3.1821v20.3257h10.7868v2.8555h-13.9689zm-23.4014 18.8797c1.3176 1.637 3.3068 2.1177 5.142 2.1177 1.8938 0 3.784-.5138 5.1346-2.1177 1.8975-2.3086 2.0884-5.9715 2.0884-7.5424 0-5.2704-1.736-9.2453-7.0358-9.2453-5.8761 0-7.381 4.7163-7.381 9.4692 0 2.5361.4515 5.3255 2.0518 7.3185m-2.4407-16.373c2.4076-2.6022 5.5897-3.1123 7.7368-3.1123 6.423 0 10.4749 4.1106 10.4749 11.976 0 6.1623-2.4738 12.3577-10.7245 12.3577-7.9057 0-10.4712-5.6155-10.4712-11.976 0-2.6316.4478-6.5184 2.984-9.2454M244.09 65.8805h4.463L259.9492 85.05V65.8805h2.9509v23.1812h-4.107l-11.7815-19.6762v19.6762h-2.9215zm-23.9777 0v9.9573h11.0107v-9.9573h3.2152v23.1812h-3.2152V78.5978h-11.0107v10.4639h-3.2151V65.8805zm-12.8715 6.265c-.1322-.8074-.5469-4.0152-5.0062-4.0152-5.5898 0-6.5808 5.7146-6.5808 9.5683 0 4.3676 1.248 9.0802 6.544 9.0802 1.4131 0 2.7674-.3487 3.7584-1.3763.8368-.8992 1.0277-1.8902 1.1268-2.437h3.5307c-.4844 4.5547-4.6905 6.4485-8.6764 6.4485-8.148 0-9.7262-7.19-9.7262-11.6823 0-4.8815 1.8976-12.1706 10.1483-12.1706 3.2775 0 7.8983 1.3177 8.3204 6.5845h-3.439zm-35.282-6.265h14.5451v2.7306h-11.3337v7.2267h10.7868v2.694h-10.7868v7.7075h11.5906v2.8224h-14.802zm-16.4354 23.1812V68.6111h-7.7699v-2.7306h18.722v2.7306h-7.77v20.4506z" fill="#555"/><path d="M129.7283 51.4972c-1.024-.1579-3.182-1.2332-4.7272-7.1203-2.4738-9.4215-3.641-17.5034-7.8323-17.5034-4.1951 0-6.0963 8.0819-8.57 17.5034-1.4645 5.5714-3.006 7.1203-5.4797 7.1203-2.3196 0-4.7236-1.1341-8.2617-15.6977C91.767 23.0638 89.6604 0 79.2882 0 68.9088 0 65.8514 30.063 64.5155 35.8582c-1.6443 7.1423-5.7256 15.6426-10.8603 15.6426-5.1346 0-7.7919-5.9127-9.3297-12.2586-2.3526-9.7151-5.0282-23.7795-11.8549-23.7795-6.8303 0-9.0471 11.6457-12.0567 24.3668-1.7728 7.4983-4.6025 11.6713-9.5757 11.6713H0v.0477c1.4167.4221 4.2428 2.7637 4.9732 7.3001 1.7176 10.7061 3.0316 17.331 6.7679 17.331s5.0943-5.711 7.2597-14.6113c1.692-6.9735 4.3346-10.0161 7.491-10.0161 4.6392 0 6.823 5.6155 9.3591 16.3472 5.043 21.3792 6.1183 31.711 14.2442 31.711 8.0635 0 9.3224-10.3538 14.7434-31.711 2.36-9.2893 6.7605-16.3509 11.8952-16.3509 5.1347 0 8.8012 6.8413 10.6694 12.2953 4.0446 11.8255 5.9091 16.2775 10.3648 16.2775 4.452 0 6.9697-5.3438 10.897-18.2484 2.4736-8.1222 2.837-10.3244 10.1151-10.3244h10.9483v-.0514z" fill="#e90029"/></svg>