<svg version="1.2" baseProfile="tiny-ps" xmlns="http://www.w3.org/2000/svg" viewBox="0 0 1446 212" width="1446" height="212">
	<title>logo-black-svg</title>
	<style>
		tspan { white-space:pre }
		.shp0 { fill: #000000 } 
	</style>
	<g id="Layer">
		<g id="Layer">
			<g id="Layer">
				<g id="Layer">
					<g id="Layer">
						<path id="Layer" fill-rule="evenodd" class="shp0" d="M253.95 121.9L165.48 121.9C154.36 121.9 145.32 112.86 145.32 101.75L145.32 45.56C145.32 34.44 154.36 25.41 165.48 25.41L253.95 25.41C265.06 25.41 274.11 34.44 274.11 45.56L274.11 66.13C274.11 77.24 265.06 86.28 253.95 86.28L164.28 86.28L164.28 95.45C164.28 99.41 167.45 102.64 171.34 102.64L248.14 102.64C250.98 102.64 253.53 100.92 254.63 98.26L255.54 96.08L273.32 107.57L272.74 109.07C269.7 116.86 262.32 121.9 253.95 121.9ZM164.28 67.02L248.14 67.02C252.03 67.02 255.19 63.79 255.19 59.84L255.19 51.83C255.19 47.86 252.03 44.64 248.14 44.64L171.34 44.64C167.45 44.64 164.28 47.86 164.28 51.83L164.28 67.02Z" />
						<path id="Layer" fill-rule="evenodd" class="shp0" d="M253.95 121.9L165.48 121.9C154.36 121.9 145.32 112.86 145.32 101.75L145.32 45.56C145.32 34.44 154.36 25.41 165.48 25.41L253.95 25.41C265.06 25.41 274.11 34.44 274.11 45.56L274.11 66.13C274.11 77.24 265.06 86.28 253.95 86.28L164.28 86.28L164.28 95.45C164.28 99.41 167.45 102.64 171.34 102.64L248.14 102.64C250.98 102.64 253.53 100.92 254.63 98.26L255.54 96.08L273.32 107.57L272.74 109.07C269.7 116.86 262.32 121.9 253.95 121.9ZM164.28 67.02L248.14 67.02C252.03 67.02 255.19 63.79 255.19 59.84L255.19 51.83C255.19 47.86 252.03 44.64 248.14 44.64L171.34 44.64C167.45 44.64 164.28 47.86 164.28 51.83L164.28 67.02Z" />
						<path id="Layer" fill-rule="evenodd" class="shp0" d="M691.17 121.87L602.71 121.87C591.6 121.87 582.56 112.83 582.56 101.72L582.56 77.49C582.56 66.37 591.6 57.33 602.71 57.33L692.38 57.33L692.38 51.83C692.38 47.86 689.21 44.64 685.32 44.64L608.53 44.64C605.69 44.64 603.14 46.36 602.03 49.02L601.12 51.2L583.34 39.71L583.93 38.21C586.91 30.54 594.46 25.38 602.71 25.38L691.17 25.38C702.29 25.38 711.33 34.42 711.33 45.54L711.33 101.72C711.33 112.83 702.29 121.87 691.17 121.87ZM608.53 76.58C604.64 76.58 601.47 79.82 601.47 83.77L601.47 95.45C601.47 99.42 604.64 102.64 608.53 102.64L685.32 102.64C689.21 102.64 692.38 99.42 692.38 95.45L692.38 83.77C692.38 79.82 689.21 76.58 685.32 76.58L608.53 76.58Z" />
						<path id="Layer" fill-rule="evenodd" class="shp0" d="M1095.29 121.9L1006.84 121.9C995.72 121.9 986.68 112.86 986.68 101.75L986.68 45.56C986.68 34.44 995.72 25.41 1006.84 25.41L1095.29 25.41C1106.41 25.41 1115.45 34.44 1115.45 45.56L1115.45 66.13C1115.45 77.24 1106.41 86.28 1095.29 86.28L1005.64 86.28L1005.64 95.45C1005.64 99.41 1008.8 102.64 1012.69 102.64L1089.48 102.64C1092.32 102.64 1094.87 100.92 1095.97 98.26L1096.89 96.08L1114.67 107.57L1114.09 109.07C1111.04 116.86 1103.67 121.9 1095.29 121.9ZM1005.64 67.02L1089.48 67.02C1093.37 67.02 1096.54 63.79 1096.54 59.84L1096.54 51.83C1096.54 47.86 1093.37 44.64 1089.48 44.64L1012.69 44.64C1008.8 44.64 1005.64 47.86 1005.64 51.83L1005.64 67.02Z" />
						<path id="Layer" fill-rule="evenodd" class="shp0" d="M419.6 121.9L310.97 121.9C299.86 121.9 290.81 112.86 290.81 101.75L290.81 45.55C290.81 34.44 299.86 25.41 310.97 25.41L400.64 25.41L400.64 0.85L419.55 0.85L419.6 2.82L419.6 121.9ZM316.83 44.64C312.94 44.64 309.78 47.86 309.78 51.83L309.78 95.45C309.78 99.41 312.94 102.64 316.83 102.64L400.69 102.64L400.69 51.83C400.69 47.86 397.52 44.64 393.63 44.64L316.83 44.64Z" />
						<path id="Layer" fill-rule="evenodd" class="shp0" d="M419.6 121.9L310.97 121.9C299.86 121.9 290.81 112.86 290.81 101.75L290.81 45.55C290.81 34.44 299.86 25.41 310.97 25.41L400.64 25.41L400.64 0.85L419.55 0.85L419.6 2.82L419.6 121.9ZM316.83 44.64C312.94 44.64 309.78 47.86 309.78 51.83L309.78 95.45C309.78 99.41 312.94 102.64 316.83 102.64L400.69 102.64L400.69 51.83C400.69 47.86 397.52 44.64 393.63 44.64L316.83 44.64Z" />
						<path id="Layer" fill-rule="evenodd" class="shp0" d="M565.71 121.9L457.1 121.9C445.98 121.9 436.93 112.86 436.93 101.75L436.93 45.55C436.93 34.44 445.98 25.41 457.1 25.41L546.76 25.41L546.76 0.85L565.66 0.85L565.71 2.82L565.71 121.9ZM462.95 44.64C459.06 44.64 455.9 47.86 455.9 51.83L455.9 95.45C455.9 99.41 459.06 102.64 462.95 102.64L546.81 102.64L546.81 51.83C546.81 47.86 543.64 44.64 539.75 44.64L462.95 44.64Z" />
						<path id="Layer" class="shp0" d="M1402.69 121.86L1383.73 121.86L1383.73 51.83C1383.73 47.86 1380.57 44.64 1376.68 44.64L1299.88 44.64C1295.99 44.64 1292.82 47.86 1292.82 51.83L1292.82 121.82L1273.91 121.82L1273.91 0.86L1292.86 0.86L1292.86 25.41L1382.53 25.41C1393.65 25.41 1402.69 34.44 1402.69 45.56L1402.69 121.86Z" />
						<path id="Layer" class="shp0" d="M130.98 121.9L20.98 121.9C9.86 121.9 0.82 112.86 0.82 101.75L0.82 4.5L19.78 4.5L19.78 95.45C19.78 99.41 22.95 102.64 26.84 102.64L130.98 102.64L130.98 121.9Z" />
						<path id="Layer" class="shp0" d="M130.98 121.9L20.98 121.9C9.86 121.9 0.82 112.86 0.82 101.75L0.82 4.5L19.78 4.5L19.78 95.45C19.78 99.41 22.95 102.64 26.84 102.64L130.98 102.64L130.98 121.9Z" />
						<path id="Layer" class="shp0" d="M747.62 121.93L728.66 121.93L728.66 45.55C728.66 34.44 737.7 25.41 748.81 25.41L837.28 25.41C845.53 25.41 853.08 30.56 856.07 38.23L856.65 39.73L838.87 51.22L837.97 49.04C836.85 46.38 834.3 44.66 831.47 44.66L754.68 44.66C750.78 44.66 747.62 47.88 747.62 51.85L747.62 121.93Z" />
					</g>
					<path id="Layer" class="shp0" d="M932.49 122.08L913.23 122.08L913.23 22.72L861.15 22.72L861.15 4.45L984.19 4.45L984.19 22.72L932.49 22.72L932.49 122.08Z" />
					<path id="Layer" class="shp0" d="M1240.43 121.9L1151.96 121.9C1140.85 121.9 1131.8 112.86 1131.8 101.75L1131.8 45.52C1131.8 34.4 1140.85 25.36 1151.96 25.36L1240.43 25.36C1248.8 25.36 1256.18 30.4 1259.22 38.2L1259.81 39.7L1242.02 51.18L1241.11 49.01C1240 46.34 1237.45 44.62 1234.61 44.62L1157.8 44.62C1153.91 44.62 1150.75 47.85 1150.75 51.81L1150.75 95.45C1150.75 99.41 1153.91 102.64 1157.8 102.64L1234.61 102.64C1237.45 102.64 1240 100.92 1241.11 98.26L1242.02 96.09L1259.81 107.57L1259.22 109.07C1256.18 116.86 1248.8 121.9 1240.43 121.9Z" />
					<path id="Layer" fill-rule="evenodd" class="shp0" d="M1415.47 16.57L1415.47 16.48C1415.47 8.33 1422.1 1.49 1430.52 1.49C1438.94 1.49 1445.48 8.24 1445.48 16.4L1445.48 16.48C1445.48 24.64 1438.85 31.47 1430.43 31.47C1422.02 31.47 1415.47 24.72 1415.47 16.57ZM1444.23 16.48L1444.23 16.4C1444.23 8.81 1438.35 2.64 1430.52 2.64C1422.65 2.64 1416.71 8.9 1416.71 16.48L1416.71 16.57C1416.71 24.15 1422.6 30.32 1430.43 30.32C1438.31 30.32 1444.23 24.06 1444.23 16.48ZM1424.72 8.49L1431.51 8.49C1433.38 8.49 1434.99 9.06 1435.95 10.02C1436.61 10.68 1437.11 11.68 1437.11 12.84L1437.11 12.91C1437.11 15.36 1435.41 16.82 1432.96 17.27L1438.03 23.65L1435.7 23.65L1430.9 17.56L1426.5 17.56L1426.5 23.65L1424.72 23.65L1424.72 8.49ZM1431.22 15.9C1433.5 15.9 1435.25 14.91 1435.25 13.01L1435.25 12.91C1435.25 11.26 1433.8 10.19 1431.44 10.19L1426.5 10.19L1426.5 15.9L1431.22 15.9Z" />
				</g>
			</g>
			<g id="Layer">
				<path id="Layer" class="shp0" d="M21.31 186.16C21.31 184.76 20.81 183.69 19.83 182.94C18.84 182.2 17.07 181.41 14.51 180.58C11.94 179.75 9.91 178.93 8.42 178.13C4.35 175.92 2.31 172.96 2.31 169.23C2.31 167.29 2.85 165.56 3.95 164.04C5.04 162.52 6.61 161.34 8.65 160.48C10.7 159.63 12.99 159.2 15.54 159.2C18.1 159.2 20.39 159.67 22.39 160.59C24.39 161.52 25.95 162.83 27.06 164.52C28.17 166.21 28.72 168.14 28.72 170.29L21.33 170.29C21.33 168.65 20.81 167.37 19.78 166.46C18.74 165.55 17.29 165.09 15.42 165.09C13.61 165.09 12.21 165.47 11.2 166.24C10.2 167 9.7 168.01 9.7 169.25C9.7 170.42 10.29 171.4 11.46 172.19C12.64 172.97 14.37 173.71 16.65 174.4C20.85 175.67 23.92 177.24 25.84 179.11C27.76 180.98 28.72 183.32 28.72 186.11C28.72 189.21 27.55 191.65 25.2 193.41C22.85 195.18 19.69 196.06 15.71 196.06C12.95 196.06 10.44 195.56 8.17 194.55C5.91 193.54 4.18 192.15 2.99 190.39C1.79 188.64 1.2 186.6 1.2 184.29L8.62 184.29C8.62 188.24 10.98 190.22 15.71 190.22C17.47 190.22 18.84 189.87 19.83 189.15C20.81 188.44 21.31 187.44 21.31 186.16Z" />
				<path id="Layer" fill-rule="evenodd" class="shp0" d="M33.41 181.99C33.41 179.35 33.92 176.99 34.94 174.92C35.96 172.85 37.42 171.25 39.33 170.12C41.25 168.98 43.47 168.42 46 168.42C49.6 168.42 52.53 169.52 54.81 171.72C57.08 173.92 58.35 176.91 58.62 180.69L58.67 182.51C58.67 186.6 57.52 189.88 55.24 192.35C52.96 194.83 49.89 196.06 46.05 196.06C42.21 196.06 39.14 194.83 36.85 192.37C34.56 189.9 33.41 186.55 33.41 182.31L33.41 181.99ZM40.53 182.5C40.53 185.03 41.01 186.97 41.96 188.31C42.91 189.65 44.28 190.32 46.05 190.32C47.77 190.32 49.12 189.66 50.09 188.33C51.06 187.01 51.54 184.89 51.54 181.98C51.54 179.5 51.06 177.57 50.09 176.21C49.12 174.84 47.76 174.16 46 174.16C44.26 174.16 42.91 174.84 41.96 176.19C41.01 177.55 40.53 179.65 40.53 182.5Z" />
				<path id="Layer" class="shp0" d="M71.83 195.57L64.68 195.57L64.68 157.72L71.83 157.72L71.83 195.57Z" />
				<path id="Layer" class="shp0" d="M88.93 186.87L93.89 168.91L101.33 168.91L92.33 195.57L85.53 195.57L76.54 168.91L83.98 168.91L88.93 186.87Z" />
				<path id="Layer" class="shp0" d="M105.67 162.01C105.67 160.94 106.03 160.06 106.74 159.37C107.45 158.68 108.43 158.34 109.66 158.34C110.88 158.34 111.84 158.68 112.57 159.37C113.29 160.06 113.65 160.94 113.65 162.01C113.65 163.09 113.29 163.98 112.55 164.67C111.82 165.36 110.86 165.71 109.66 165.71C108.46 165.71 107.5 165.36 106.76 164.67C106.03 163.98 105.67 163.09 105.67 162.01ZM113.23 195.57L106.09 195.57L106.09 168.91L113.23 168.91L113.23 195.57Z" />
				<path id="Layer" class="shp0" d="M126.91 168.91L127.13 171.99C129.04 169.61 131.59 168.42 134.8 168.42C137.62 168.42 139.73 169.25 141.11 170.91C142.49 172.56 143.19 175.04 143.22 178.35L143.22 195.57L136.1 195.57L136.1 178.52C136.1 177.01 135.78 175.91 135.12 175.23C134.46 174.55 133.37 174.21 131.84 174.21C129.84 174.21 128.33 175.06 127.33 176.77L127.33 195.57L120.21 195.57L120.21 168.91L126.91 168.91Z" />
				<path id="Layer" fill-rule="evenodd" class="shp0" d="M148.85 182.04C148.85 177.95 149.82 174.66 151.77 172.16C153.71 169.67 156.34 168.42 159.64 168.42C162.56 168.42 164.84 169.42 166.46 171.42L166.76 168.91L173.22 168.91L173.22 194.68C173.22 197.02 172.69 199.04 171.63 200.77C170.57 202.49 169.08 203.81 167.16 204.71C165.23 205.62 162.98 206.07 160.4 206.07C158.45 206.07 156.54 205.68 154.69 204.9C152.83 204.12 151.43 203.11 150.47 201.88L153.63 197.54C155.4 199.53 157.55 200.52 160.08 200.52C161.97 200.52 163.44 200.02 164.49 199.01C165.54 198 166.07 196.56 166.07 194.71L166.07 193.28C164.43 195.13 162.27 196.06 159.59 196.06C156.39 196.06 153.8 194.81 151.82 192.3C149.84 189.8 148.85 186.48 148.85 182.34L148.85 182.04ZM155.97 182.57C155.97 184.99 156.45 186.89 157.42 188.26C158.39 189.63 159.72 190.32 161.41 190.32C163.58 190.32 165.13 189.51 166.07 187.88L166.07 176.65C165.12 175.02 163.58 174.21 161.46 174.21C159.75 174.21 158.41 174.91 157.43 176.3C156.46 177.7 155.97 179.79 155.97 182.57Z" />
				<path id="Layer" class="shp0" d="M222.41 183.62C222.13 187.48 220.7 190.52 218.13 192.74C215.56 194.96 212.17 196.06 207.97 196.06C203.37 196.06 199.75 194.52 197.11 191.42C194.48 188.32 193.16 184.07 193.16 178.67L193.16 176.47C193.16 173.02 193.77 169.99 194.98 167.36C196.2 164.73 197.94 162.71 200.19 161.31C202.45 159.9 205.08 159.2 208.07 159.2C212.21 159.2 215.54 160.31 218.07 162.53C220.6 164.75 222.06 167.86 222.46 171.87L215.06 171.87C214.88 169.55 214.24 167.87 213.13 166.83C212.02 165.79 210.33 165.26 208.07 165.26C205.6 165.26 203.76 166.15 202.54 167.91C201.31 169.68 200.68 172.42 200.65 176.13L200.65 178.84C200.65 182.72 201.24 185.55 202.41 187.34C203.59 189.13 205.44 190.03 207.97 190.03C210.25 190.03 211.96 189.5 213.08 188.46C214.21 187.42 214.85 185.8 215.02 183.62L222.41 183.62Z" />
				<path id="Layer" class="shp0" d="M243.04 175.59C242.07 175.46 241.21 175.39 240.47 175.39C237.78 175.39 236.01 176.3 235.18 178.13L235.18 195.57L228.06 195.57L228.06 168.91L234.78 168.91L234.98 172.09C236.41 169.64 238.39 168.42 240.92 168.42C241.71 168.42 242.45 168.52 243.13 168.74L243.04 175.59Z" />
				<path id="Layer" class="shp0" d="M247.67 162.01C247.67 160.94 248.03 160.06 248.75 159.37C249.46 158.68 250.43 158.34 251.67 158.34C252.88 158.34 253.85 158.68 254.57 159.37C255.29 160.06 255.66 160.94 255.66 162.01C255.66 163.09 255.29 163.98 254.56 164.67C253.83 165.36 252.86 165.71 251.67 165.71C250.47 165.71 249.5 165.36 248.77 164.67C248.04 163.98 247.67 163.09 247.67 162.01ZM255.24 195.57L248.09 195.57L248.09 168.91L255.24 168.91L255.24 195.57Z" />
				<path id="Layer" class="shp0" d="M270.89 162.36L270.89 168.91L275.45 168.91L275.45 174.13L270.89 174.13L270.89 187.44C270.89 188.42 271.08 189.13 271.46 189.56C271.83 189.98 272.56 190.2 273.62 190.2C274.41 190.2 275.11 190.14 275.72 190.03L275.72 195.42C274.32 195.85 272.88 196.06 271.41 196.06C266.41 196.06 263.87 193.54 263.77 188.5L263.77 174.13L259.88 174.13L259.88 168.91L263.77 168.91L263.77 162.36L270.89 162.36Z" />
				<path id="Layer" class="shp0" d="M280.63 162.01C280.63 160.94 280.98 160.06 281.7 159.37C282.41 158.68 283.39 158.34 284.62 158.34C285.83 158.34 286.8 158.68 287.53 159.37C288.25 160.06 288.61 160.94 288.61 162.01C288.61 163.09 288.25 163.98 287.51 164.67C286.78 165.36 285.82 165.71 284.62 165.71C283.42 165.71 282.45 165.36 281.72 164.67C280.99 163.98 280.63 163.09 280.63 162.01ZM288.19 195.57L281.05 195.57L281.05 168.91L288.19 168.91L288.19 195.57Z" />
				<path id="Layer" class="shp0" d="M306.41 190.32C307.72 190.32 308.79 189.96 309.61 189.24C310.43 188.52 310.86 187.55 310.89 186.36L317.57 186.36C317.55 188.16 317.06 189.82 316.09 191.32C315.12 192.82 313.79 193.99 312.11 194.82C310.43 195.65 308.57 196.06 306.53 196.06C302.72 196.06 299.71 194.85 297.51 192.43C295.31 190.01 294.21 186.66 294.21 182.39L294.21 181.92C294.21 177.81 295.3 174.54 297.49 172.09C299.67 169.64 302.67 168.42 306.48 168.42C309.81 168.42 312.49 169.37 314.5 171.26C316.51 173.16 317.54 175.69 317.57 178.84L310.89 178.84C310.86 177.45 310.43 176.33 309.61 175.46C308.79 174.59 307.7 174.16 306.36 174.16C304.7 174.16 303.45 174.76 302.6 175.97C301.75 177.18 301.33 179.14 301.33 181.86L301.33 182.6C301.33 185.35 301.75 187.32 302.59 188.52C303.42 189.72 304.7 190.32 306.41 190.32Z" />
				<path id="Layer" fill-rule="evenodd" class="shp0" d="M338.34 195.57C338.02 194.93 337.78 194.13 337.63 193.18C335.91 195.1 333.66 196.06 330.9 196.06C328.29 196.06 326.13 195.31 324.41 193.8C322.69 192.29 321.84 190.38 321.84 188.08C321.84 185.25 322.88 183.09 324.98 181.57C327.07 180.06 330.1 179.3 334.06 179.28L337.33 179.28L337.33 177.76C337.33 176.52 337.02 175.54 336.39 174.8C335.75 174.06 334.75 173.69 333.39 173.69C332.19 173.69 331.25 173.98 330.57 174.55C329.89 175.13 329.55 175.92 329.55 176.92L322.43 176.92C322.43 175.37 322.9 173.95 323.86 172.63C324.81 171.32 326.16 170.29 327.9 169.54C329.64 168.79 331.59 168.42 333.76 168.42C337.05 168.42 339.65 169.24 341.58 170.89C343.51 172.54 344.48 174.87 344.48 177.85L344.48 189.41C344.5 191.94 344.85 193.85 345.54 195.15L345.54 195.57L338.34 195.57ZM332.46 190.62C333.51 190.62 334.48 190.38 335.36 189.91C336.25 189.45 336.91 188.82 337.33 188.03L337.33 183.45L334.67 183.45C331.11 183.45 329.21 184.68 328.98 187.14L328.96 187.56C328.96 188.45 329.27 189.18 329.89 189.75C330.52 190.33 331.37 190.62 332.46 190.62Z" />
				<path id="Layer" class="shp0" d="M358.73 195.57L351.58 195.57L351.58 157.72L358.73 157.72L358.73 195.57Z" />
				<path id="Layer" class="shp0" d="M398.75 186.16C398.75 184.76 398.26 183.69 397.27 182.94C396.29 182.2 394.51 181.41 391.95 180.58C389.39 179.75 387.36 178.93 385.87 178.13C381.79 175.92 379.75 172.96 379.75 169.23C379.75 167.29 380.3 165.56 381.39 164.04C382.49 162.52 384.05 161.34 386.1 160.48C388.14 159.63 390.44 159.2 392.99 159.2C395.55 159.2 397.83 159.67 399.84 160.59C401.84 161.52 403.4 162.83 404.5 164.52C405.61 166.21 406.17 168.14 406.17 170.29L398.78 170.29C398.78 168.65 398.26 167.37 397.22 166.46C396.19 165.55 394.74 165.09 392.86 165.09C391.06 165.09 389.65 165.47 388.65 166.24C387.65 167 387.15 168.01 387.15 169.25C387.15 170.42 387.73 171.4 388.91 172.19C390.08 172.97 391.81 173.71 394.09 174.4C398.3 175.67 401.36 177.24 403.29 179.11C405.21 180.98 406.17 183.32 406.17 186.11C406.17 189.21 404.99 191.65 402.64 193.41C400.29 195.18 397.13 196.06 393.16 196.06C390.4 196.06 387.89 195.56 385.62 194.55C383.35 193.54 381.62 192.15 380.43 190.39C379.24 188.64 378.65 186.6 378.65 184.29L386.06 184.29C386.06 188.24 388.43 190.22 393.16 190.22C394.92 190.22 396.29 189.87 397.27 189.15C398.26 188.44 398.75 187.44 398.75 186.16Z" />
				<path id="Layer" fill-rule="evenodd" class="shp0" d="M424.23 196.06C420.32 196.06 417.14 194.86 414.69 192.46C412.23 190.07 411 186.87 411 182.88L411 182.19C411 179.51 411.52 177.12 412.55 175.01C413.59 172.9 415.06 171.27 416.95 170.13C418.85 168.99 421.01 168.42 423.45 168.42C427.09 168.42 429.96 169.57 432.06 171.87C434.15 174.17 435.2 177.43 435.2 181.65L435.2 184.56L418.22 184.56C418.45 186.3 419.15 187.69 420.3 188.74C421.46 189.8 422.93 190.32 424.7 190.32C427.45 190.32 429.59 189.33 431.13 187.34L434.63 191.26C433.56 192.77 432.12 193.95 430.3 194.79C428.47 195.64 426.45 196.06 424.23 196.06ZM423.42 174.16C422.01 174.16 420.86 174.64 419.98 175.59C419.1 176.55 418.54 177.92 418.3 179.7L428.2 179.7L428.2 179.13C428.17 177.55 427.74 176.32 426.92 175.46C426.1 174.59 424.93 174.16 423.42 174.16Z" />
				<path id="Layer" class="shp0" d="M447.06 168.91L447.28 171.99C449.18 169.61 451.74 168.42 454.94 168.42C457.77 168.42 459.87 169.25 461.25 170.91C462.63 172.56 463.33 175.04 463.37 178.35L463.37 195.57L456.25 195.57L456.25 178.52C456.25 177.01 455.92 175.91 455.26 175.23C454.6 174.55 453.51 174.21 451.98 174.21C449.98 174.21 448.48 175.06 447.47 176.77L447.47 195.57L440.35 195.57L440.35 168.91L447.06 168.91Z" />
				<path id="Layer" class="shp0" d="M484.46 188.2C484.46 187.33 484.03 186.65 483.17 186.14C482.31 185.64 480.92 185.2 479.02 184.8C472.68 183.47 469.51 180.78 469.51 176.72C469.51 174.36 470.49 172.38 472.45 170.79C474.42 169.21 476.98 168.42 480.15 168.42C483.54 168.42 486.24 169.21 488.27 170.81C490.3 172.4 491.31 174.47 491.31 177.02L484.19 177.02C484.19 176 483.86 175.16 483.21 174.49C482.55 173.82 481.52 173.49 480.13 173.49C478.93 173.49 478 173.76 477.34 174.3C476.69 174.85 476.36 175.54 476.36 176.38C476.36 177.16 476.73 177.8 477.48 178.29C478.23 178.77 479.49 179.19 481.26 179.54C483.04 179.89 484.53 180.29 485.75 180.74C489.51 182.12 491.39 184.51 491.39 187.91C491.39 190.34 490.34 192.3 488.26 193.81C486.17 195.31 483.48 196.06 480.18 196.06C477.94 196.06 475.96 195.66 474.23 194.87C472.49 194.07 471.13 192.98 470.15 191.59C469.16 190.2 468.67 188.7 468.67 187.09L475.42 187.09C475.49 188.36 475.96 189.33 476.83 190C477.7 190.68 478.86 191.01 480.32 191.01C481.69 191.01 482.72 190.75 483.42 190.23C484.12 189.72 484.46 189.04 484.46 188.2Z" />
				<path id="Layer" class="shp0" d="M497.18 162.01C497.18 160.94 497.54 160.06 498.25 159.37C498.97 158.68 499.94 158.34 501.17 158.34C502.39 158.34 503.36 158.68 504.08 159.37C504.8 160.06 505.17 160.94 505.17 162.01C505.17 163.09 504.8 163.98 504.07 164.67C503.34 165.36 502.37 165.71 501.17 165.71C499.98 165.71 499.01 165.36 498.28 164.67C497.55 163.98 497.18 163.09 497.18 162.01ZM504.75 195.57L497.6 195.57L497.6 168.91L504.75 168.91L504.75 195.57Z" />
				<path id="Layer" class="shp0" d="M518.43 168.91L518.65 171.99C520.55 169.61 523.11 168.42 526.31 168.42C529.14 168.42 531.24 169.25 532.62 170.91C534 172.56 534.71 175.04 534.74 178.35L534.74 195.57L527.62 195.57L527.62 178.52C527.62 177.01 527.29 175.91 526.63 175.23C525.97 174.55 524.88 174.21 523.35 174.21C521.35 174.21 519.85 175.06 518.85 176.77L518.85 195.57L511.72 195.57L511.72 168.91L518.43 168.91Z" />
				<path id="Layer" fill-rule="evenodd" class="shp0" d="M540.36 182.04C540.36 177.95 541.33 174.66 543.28 172.16C545.23 169.67 547.85 168.42 551.15 168.42C554.08 168.42 556.35 169.42 557.98 171.42L558.27 168.91L564.73 168.91L564.73 194.68C564.73 197.02 564.2 199.04 563.14 200.77C562.08 202.49 560.59 203.81 558.67 204.71C556.75 205.62 554.5 206.07 551.92 206.07C549.96 206.07 548.06 205.68 546.2 204.9C544.34 204.12 542.94 203.11 541.99 201.88L545.14 197.54C546.92 199.53 549.07 200.52 551.6 200.52C553.49 200.52 554.96 200.02 556.01 199.01C557.06 198 557.58 196.56 557.58 194.71L557.58 193.28C555.94 195.13 553.78 196.06 551.1 196.06C547.9 196.06 545.31 194.81 543.33 192.3C541.35 189.8 540.36 186.48 540.36 182.34L540.36 182.04ZM547.48 182.57C547.48 184.99 547.97 186.89 548.94 188.26C549.91 189.63 551.24 190.32 552.93 190.32C555.1 190.32 556.65 189.51 557.58 187.88L557.58 176.65C556.63 175.02 555.1 174.21 552.98 174.21C551.27 174.21 549.93 174.91 548.95 176.3C547.97 177.7 547.48 179.79 547.48 182.57Z" />
				<path id="Layer" class="shp0" d="M573.31 204.56L569.59 202.62L570.48 201.02C571.58 199.01 572.14 197.02 572.18 195.03L572.18 189.51L578.19 189.51L578.16 194.44C578.15 196.26 577.69 198.1 576.78 199.96C575.88 201.81 574.72 203.35 573.31 204.56Z" />
				<path id="Layer" class="shp0" d="M620.92 180.91L606.73 180.91L606.73 195.57L599.34 195.57L599.34 159.69L622.7 159.69L622.7 165.68L606.73 165.68L606.73 174.95L620.92 174.95L620.92 180.91Z" />
				<path id="Layer" class="shp0" d="M643.2 192.86C641.45 195 639.01 196.06 635.91 196.06C633.05 196.06 630.87 195.24 629.37 193.6C627.87 191.96 627.1 189.55 627.06 186.38L627.06 168.91L634.19 168.91L634.19 186.15C634.19 188.93 635.45 190.32 637.98 190.32C640.39 190.32 642.05 189.48 642.96 187.8L642.96 168.91L650.1 168.91L650.1 195.57L643.4 195.57L643.2 192.86Z" />
				<path id="Layer" class="shp0" d="M671.17 188.2C671.17 187.33 670.74 186.65 669.88 186.14C669.02 185.64 667.63 185.2 665.73 184.8C659.39 183.47 656.22 180.78 656.22 176.72C656.22 174.36 657.2 172.38 659.16 170.79C661.13 169.21 663.69 168.42 666.86 168.42C670.25 168.42 672.95 169.21 674.98 170.81C677.01 172.4 678.02 174.47 678.02 177.02L670.9 177.02C670.9 176 670.57 175.16 669.92 174.49C669.26 173.82 668.23 173.49 666.84 173.49C665.64 173.49 664.71 173.76 664.05 174.3C663.4 174.85 663.07 175.54 663.07 176.38C663.07 177.16 663.44 177.8 664.19 178.29C664.94 178.77 666.2 179.19 667.97 179.54C669.75 179.89 671.24 180.29 672.46 180.74C676.22 182.12 678.1 184.51 678.1 187.91C678.1 190.34 677.05 192.3 674.97 193.81C672.88 195.31 670.19 196.06 666.89 196.06C664.65 196.06 662.67 195.66 660.94 194.87C659.2 194.07 657.84 192.98 656.86 191.59C655.87 190.2 655.38 188.7 655.38 187.09L662.13 187.09C662.2 188.36 662.67 189.33 663.54 190C664.41 190.68 665.57 191.01 667.03 191.01C668.4 191.01 669.43 190.75 670.13 190.23C670.83 189.72 671.17 189.04 671.17 188.2Z" />
				<path id="Layer" class="shp0" d="M683.89 162.01C683.89 160.94 684.25 160.06 684.96 159.37C685.68 158.68 686.65 158.34 687.88 158.34C689.1 158.34 690.07 158.68 690.79 159.37C691.51 160.06 691.88 160.94 691.88 162.01C691.88 163.09 691.51 163.98 690.78 164.67C690.05 165.36 689.08 165.71 687.88 165.71C686.69 165.71 685.72 165.36 684.99 164.67C684.26 163.98 683.89 163.09 683.89 162.01ZM691.46 195.57L684.31 195.57L684.31 168.91L691.46 168.91L691.46 195.57Z" />
				<path id="Layer" fill-rule="evenodd" class="shp0" d="M697.47 181.99C697.47 179.35 697.98 176.99 699 174.92C700.02 172.85 701.49 171.25 703.4 170.12C705.31 168.98 707.54 168.42 710.07 168.42C713.66 168.42 716.6 169.52 718.88 171.72C721.15 173.92 722.42 176.91 722.68 180.69L722.73 182.51C722.73 186.6 721.59 189.88 719.3 192.35C717.02 194.83 713.96 196.06 710.11 196.06C706.27 196.06 703.2 194.83 700.91 192.37C698.62 189.9 697.47 186.55 697.47 182.31L697.47 181.99ZM704.6 182.5C704.6 185.03 705.07 186.97 706.02 188.31C706.98 189.65 708.34 190.32 710.11 190.32C711.84 190.32 713.19 189.66 714.16 188.33C715.13 187.01 715.61 184.89 715.61 181.98C715.61 179.5 715.13 177.57 714.16 176.21C713.19 174.84 711.82 174.16 710.07 174.16C708.32 174.16 706.98 174.84 706.02 176.19C705.07 177.55 704.6 179.65 704.6 182.5Z" />
				<path id="Layer" class="shp0" d="M734.93 168.91L735.15 171.99C737.06 169.61 739.61 168.42 742.82 168.42C745.64 168.42 747.74 169.25 749.13 170.91C750.5 172.56 751.21 175.04 751.24 178.35L751.24 195.57L744.12 195.57L744.12 178.52C744.12 177.01 743.79 175.91 743.14 175.23C742.48 174.55 741.39 174.21 739.86 174.21C737.86 174.21 736.35 175.06 735.35 176.77L735.35 195.57L728.23 195.57L728.23 168.91L734.93 168.91Z" />
				<path id="Layer" fill-rule="evenodd" class="shp0" d="M787.18 195.57C786.85 194.93 786.61 194.13 786.46 193.18C784.74 195.1 782.5 196.06 779.74 196.06C777.13 196.06 774.96 195.31 773.24 193.8C771.53 192.29 770.67 190.38 770.67 188.08C770.67 185.25 771.72 183.09 773.81 181.57C775.91 180.06 778.93 179.3 782.89 179.28L786.17 179.28L786.17 177.76C786.17 176.52 785.85 175.54 785.22 174.8C784.59 174.06 783.59 173.69 782.23 173.69C781.03 173.69 780.09 173.98 779.4 174.55C778.72 175.13 778.38 175.92 778.38 176.92L771.26 176.92C771.26 175.37 771.74 173.95 772.69 172.63C773.64 171.32 774.99 170.29 776.73 169.54C778.47 168.79 780.43 168.42 782.6 168.42C785.88 168.42 788.49 169.24 790.42 170.89C792.35 172.54 793.31 174.87 793.31 177.85L793.31 189.41C793.33 191.94 793.68 193.85 794.37 195.15L794.37 195.57L787.18 195.57ZM781.29 190.62C782.34 190.62 783.31 190.38 784.2 189.91C785.08 189.45 785.74 188.82 786.17 188.03L786.17 183.45L783.51 183.45C779.94 183.45 778.04 184.68 777.81 187.14L777.79 187.56C777.79 188.45 778.1 189.18 778.73 189.75C779.35 190.33 780.21 190.62 781.29 190.62Z" />
				<path id="Layer" class="shp0" d="M806.6 168.91L806.82 171.99C808.73 169.61 811.28 168.42 814.48 168.42C817.31 168.42 819.41 169.25 820.79 170.91C822.17 172.56 822.88 175.04 822.91 178.35L822.91 195.57L815.79 195.57L815.79 178.52C815.79 177.01 815.46 175.91 814.8 175.23C814.15 174.55 813.05 174.21 811.53 174.21C809.52 174.21 808.02 175.06 807.02 176.77L807.02 195.57L799.9 195.57L799.9 168.91L806.6 168.91Z" />
				<path id="Layer" fill-rule="evenodd" class="shp0" d="M828.46 182.04C828.46 177.89 829.39 174.58 831.26 172.11C833.12 169.65 835.67 168.42 838.91 168.42C841.5 168.42 843.65 169.39 845.34 171.32L845.34 157.72L852.48 157.72L852.48 195.57L846.05 195.57L845.71 192.74C843.93 194.96 841.65 196.06 838.86 196.06C835.72 196.06 833.2 194.83 831.31 192.35C829.41 189.88 828.46 186.45 828.46 182.04ZM835.58 182.57C835.58 185.07 836.02 186.99 836.89 188.32C837.76 189.66 839.02 190.32 840.68 190.32C842.88 190.32 844.44 189.39 845.34 187.53L845.34 177C844.45 175.14 842.92 174.21 840.73 174.21C837.3 174.21 835.58 177 835.58 182.57Z" />
				<path id="Layer" fill-rule="evenodd" class="shp0" d="M880.95 182.93L880.95 195.57L873.56 195.57L873.56 159.69L887.56 159.69C890.25 159.69 892.62 160.19 894.66 161.17C896.71 162.16 898.28 163.56 899.38 165.37C900.48 167.19 901.03 169.25 901.03 171.57C901.03 175.09 899.83 177.86 897.42 179.89C895.02 181.92 891.69 182.93 887.43 182.93L880.95 182.93ZM880.95 176.94L887.56 176.94C889.51 176.94 891 176.48 892.03 175.56C893.05 174.64 893.57 173.33 893.57 171.62C893.57 169.86 893.05 168.44 892.02 167.36C890.98 166.27 889.55 165.71 887.73 165.68L880.95 165.68L880.95 176.94Z" />
				<path id="Layer" fill-rule="evenodd" class="shp0" d="M918.85 196.06C914.94 196.06 911.76 194.86 909.3 192.46C906.85 190.07 905.62 186.87 905.62 182.88L905.62 182.19C905.62 179.51 906.14 177.12 907.17 175.01C908.21 172.9 909.68 171.27 911.57 170.13C913.47 168.99 915.63 168.42 918.06 168.42C921.71 168.42 924.58 169.57 926.68 171.87C928.77 174.17 929.82 177.43 929.82 181.65L929.82 184.56L912.84 184.56C913.07 186.3 913.77 187.69 914.92 188.74C916.08 189.8 917.55 190.32 919.32 190.32C922.06 190.32 924.21 189.33 925.75 187.34L929.25 191.26C928.18 192.77 926.74 193.95 924.91 194.79C923.09 195.64 921.07 196.06 918.85 196.06ZM918.04 174.16C916.63 174.16 915.48 174.64 914.6 175.59C913.72 176.55 913.16 177.92 912.92 179.7L922.82 179.7L922.82 179.13C922.79 177.55 922.36 176.32 921.54 175.46C920.72 174.59 919.55 174.16 918.04 174.16Z" />
				<path id="Layer" class="shp0" d="M950.1 175.59C949.13 175.46 948.28 175.39 947.54 175.39C944.84 175.39 943.08 176.3 942.24 178.13L942.24 195.57L935.12 195.57L935.12 168.91L941.85 168.91L942.04 172.09C943.47 169.64 945.45 168.42 947.98 168.42C948.77 168.42 949.51 168.52 950.2 168.74L950.1 175.59Z" />
				<path id="Layer" class="shp0" d="M965.41 190.32C966.72 190.32 967.79 189.96 968.61 189.24C969.43 188.52 969.86 187.55 969.89 186.36L976.57 186.36C976.55 188.16 976.06 189.82 975.09 191.32C974.12 192.82 972.8 193.99 971.11 194.82C969.43 195.65 967.57 196.06 965.53 196.06C961.72 196.06 958.71 194.85 956.51 192.43C954.31 190.01 953.21 186.66 953.21 182.39L953.21 181.92C953.21 177.81 954.3 174.54 956.49 172.09C958.67 169.64 961.67 168.42 965.48 168.42C968.82 168.42 971.49 169.37 973.5 171.26C975.52 173.16 976.54 175.69 976.57 178.84L969.89 178.84C969.86 177.45 969.43 176.33 968.61 175.46C967.79 174.59 966.71 174.16 965.36 174.16C963.7 174.16 962.45 174.76 961.6 175.97C960.76 177.18 960.33 179.14 960.33 181.86L960.33 182.6C960.33 185.35 960.75 187.32 961.59 188.52C962.43 189.72 963.7 190.32 965.41 190.32Z" />
				<path id="Layer" fill-rule="evenodd" class="shp0" d="M994.17 196.06C990.26 196.06 987.08 194.86 984.62 192.46C982.16 190.07 980.94 186.87 980.94 182.88L980.94 182.19C980.94 179.51 981.45 177.12 982.49 175.01C983.52 172.9 984.99 171.27 986.89 170.13C988.78 168.99 990.95 168.42 993.38 168.42C997.03 168.42 999.9 169.57 1001.99 171.87C1004.09 174.17 1005.13 177.43 1005.13 181.65L1005.13 184.56L988.16 184.56C988.38 186.3 989.08 187.69 990.24 188.74C991.4 189.8 992.86 190.32 994.64 190.32C997.38 190.32 999.52 189.33 1001.07 187.34L1004.57 191.26C1003.5 192.77 1002.05 193.95 1000.23 194.79C998.41 195.64 996.38 196.06 994.17 196.06ZM993.36 174.16C991.94 174.16 990.8 174.64 989.92 175.59C989.04 176.55 988.48 177.92 988.23 179.7L998.13 179.7L998.13 179.13C998.1 177.55 997.67 176.32 996.85 175.46C996.03 174.59 994.87 174.16 993.36 174.16Z" />
				<path id="Layer" fill-rule="evenodd" class="shp0" d="M1034.43 182.49C1034.43 186.59 1033.5 189.88 1031.64 192.35C1029.77 194.83 1027.25 196.06 1024.08 196.06C1021.39 196.06 1019.21 195.13 1017.55 193.25L1017.55 205.82L1010.43 205.82L1010.43 168.91L1017.04 168.91L1017.28 171.52C1019.01 169.45 1021.26 168.42 1024.04 168.42C1027.32 168.42 1029.88 169.63 1031.7 172.06C1033.52 174.49 1034.43 177.85 1034.43 182.12L1034.43 182.49ZM1027.31 181.97C1027.31 179.49 1026.87 177.57 1025.99 176.23C1025.12 174.88 1023.84 174.21 1022.16 174.21C1019.93 174.21 1018.39 175.06 1017.55 176.77L1017.55 187.69C1018.43 189.44 1019.98 190.32 1022.21 190.32C1025.61 190.32 1027.31 187.54 1027.31 181.97Z" />
				<path id="Layer" class="shp0" d="M1048.63 162.36L1048.63 168.91L1053.19 168.91L1053.19 174.13L1048.63 174.13L1048.63 187.44C1048.63 188.42 1048.82 189.13 1049.2 189.56C1049.57 189.98 1050.3 190.2 1051.37 190.2C1052.15 190.2 1052.85 190.14 1053.46 190.03L1053.46 195.42C1052.06 195.85 1050.63 196.06 1049.15 196.06C1044.15 196.06 1041.61 193.54 1041.51 188.5L1041.51 174.13L1037.62 174.13L1037.62 168.91L1041.51 168.91L1041.51 162.36L1048.63 162.36Z" />
				<path id="Layer" class="shp0" d="M1058.37 162.01C1058.37 160.94 1058.72 160.06 1059.44 159.37C1060.15 158.68 1061.13 158.34 1062.36 158.34C1063.57 158.34 1064.54 158.68 1065.27 159.37C1065.99 160.06 1066.35 160.94 1066.35 162.01C1066.35 163.09 1065.98 163.98 1065.25 164.67C1064.52 165.36 1063.56 165.71 1062.36 165.71C1061.16 165.71 1060.2 165.36 1059.46 164.67C1058.73 163.98 1058.37 163.09 1058.37 162.01ZM1065.93 195.57L1058.79 195.57L1058.79 168.91L1065.93 168.91L1065.93 195.57Z" />
				<path id="Layer" fill-rule="evenodd" class="shp0" d="M1071.95 181.99C1071.95 179.35 1072.46 176.99 1073.48 174.92C1074.49 172.85 1075.96 171.25 1077.88 170.12C1079.79 168.98 1082.01 168.42 1084.54 168.42C1088.14 168.42 1091.07 169.52 1093.35 171.72C1095.62 173.92 1096.89 176.91 1097.15 180.69L1097.21 182.51C1097.21 186.6 1096.06 189.88 1093.78 192.35C1091.5 194.83 1088.43 196.06 1084.59 196.06C1080.74 196.06 1077.68 194.83 1075.39 192.37C1073.09 189.9 1071.95 186.55 1071.95 182.31L1071.95 181.99ZM1079.07 182.5C1079.07 185.03 1079.54 186.97 1080.5 188.31C1081.45 189.65 1082.81 190.32 1084.59 190.32C1086.31 190.32 1087.66 189.66 1088.63 188.33C1089.6 187.01 1090.08 184.89 1090.08 181.98C1090.08 179.5 1089.6 177.57 1088.63 176.21C1087.66 174.84 1086.3 174.16 1084.54 174.16C1082.8 174.16 1081.45 174.84 1080.5 176.19C1079.54 177.55 1079.07 179.65 1079.07 182.5Z" />
				<path id="Layer" class="shp0" d="M1109.41 168.91L1109.63 171.99C1111.53 169.61 1114.09 168.42 1117.29 168.42C1120.12 168.42 1122.22 169.25 1123.6 170.91C1124.98 172.56 1125.69 175.04 1125.72 178.35L1125.72 195.57L1118.6 195.57L1118.6 178.52C1118.6 177.01 1118.27 175.91 1117.61 175.23C1116.96 174.55 1115.86 174.21 1114.33 174.21C1112.33 174.21 1110.83 175.06 1109.83 176.77L1109.83 195.57L1102.71 195.57L1102.71 168.91L1109.41 168.91Z" />
				<path id="Layer" class="shp0" d="M1174.84 183.62C1174.56 187.48 1173.13 190.52 1170.56 192.74C1167.99 194.96 1164.6 196.06 1160.4 196.06C1155.8 196.06 1152.18 194.52 1149.54 191.42C1146.91 188.32 1145.59 184.07 1145.59 178.67L1145.59 176.47C1145.59 173.02 1146.2 169.99 1147.41 167.36C1148.63 164.73 1150.36 162.71 1152.62 161.31C1154.88 159.9 1157.51 159.2 1160.49 159.2C1164.63 159.2 1167.97 160.31 1170.5 162.53C1173.03 164.75 1174.49 167.86 1174.88 171.87L1167.49 171.87C1167.31 169.55 1166.67 167.87 1165.56 166.83C1164.45 165.79 1162.76 165.26 1160.49 165.26C1158.03 165.26 1156.19 166.15 1154.96 167.91C1153.74 169.68 1153.11 172.42 1153.08 176.13L1153.08 178.84C1153.08 182.72 1153.67 185.55 1154.84 187.34C1156.01 189.13 1157.87 190.03 1160.4 190.03C1162.68 190.03 1164.38 189.5 1165.51 188.46C1166.63 187.42 1167.28 185.8 1167.44 183.62L1174.84 183.62Z" />
				<path id="Layer" class="shp0" d="M1187.43 171.82C1189.32 169.55 1191.69 168.42 1194.55 168.42C1200.33 168.42 1203.27 171.78 1203.35 178.49L1203.35 195.57L1196.23 195.57L1196.23 178.69C1196.23 177.16 1195.9 176.04 1195.24 175.3C1194.59 174.57 1193.49 174.21 1191.96 174.21C1189.88 174.21 1188.37 175.01 1187.43 176.62L1187.43 195.57L1180.31 195.57L1180.31 157.72L1187.43 157.72L1187.43 171.82Z" />
				<path id="Layer" fill-rule="evenodd" class="shp0" d="M1225.43 195.57C1225.1 194.93 1224.86 194.13 1224.71 193.18C1222.99 195.1 1220.75 196.06 1217.99 196.06C1215.38 196.06 1213.21 195.31 1211.5 193.8C1209.78 192.29 1208.92 190.38 1208.92 188.08C1208.92 185.25 1209.97 183.09 1212.06 181.57C1214.16 180.06 1217.18 179.3 1221.14 179.28L1224.42 179.28L1224.42 177.76C1224.42 176.52 1224.1 175.54 1223.47 174.8C1222.84 174.06 1221.84 173.69 1220.48 173.69C1219.28 173.69 1218.34 173.98 1217.66 174.55C1216.97 175.13 1216.63 175.92 1216.63 176.92L1209.51 176.92C1209.51 175.37 1209.99 173.95 1210.94 172.63C1211.89 171.32 1213.24 170.29 1214.98 169.54C1216.72 168.79 1218.68 168.42 1220.85 168.42C1224.13 168.42 1226.74 169.24 1228.67 170.89C1230.6 172.54 1231.57 174.87 1231.57 177.85L1231.57 189.41C1231.58 191.94 1231.94 193.85 1232.63 195.15L1232.63 195.57L1225.43 195.57ZM1219.54 190.62C1220.59 190.62 1221.56 190.38 1222.45 189.91C1223.34 189.45 1223.99 188.82 1224.42 188.03L1224.42 183.45L1221.76 183.45C1218.19 183.45 1216.3 184.68 1216.07 187.14L1216.04 187.56C1216.04 188.45 1216.35 189.18 1216.98 189.75C1217.6 190.33 1218.46 190.62 1219.54 190.62Z" />
				<path id="Layer" class="shp0" d="M1245.81 195.57L1238.67 195.57L1238.67 157.72L1245.81 157.72L1245.81 195.57Z" />
				<path id="Layer" class="shp0" d="M1260.45 195.57L1253.31 195.57L1253.31 157.72L1260.45 157.72L1260.45 195.57Z" />
				<path id="Layer" fill-rule="evenodd" class="shp0" d="M1279.85 196.06C1275.94 196.06 1272.76 194.86 1270.3 192.46C1267.85 190.07 1266.62 186.87 1266.62 182.88L1266.62 182.19C1266.62 179.51 1267.13 177.12 1268.17 175.01C1269.21 172.9 1270.67 171.27 1272.57 170.13C1274.46 168.99 1276.63 168.42 1279.06 168.42C1282.71 168.42 1285.58 169.57 1287.67 171.87C1289.77 174.17 1290.81 177.43 1290.81 181.65L1290.81 184.56L1273.84 184.56C1274.07 186.3 1274.76 187.69 1275.92 188.74C1277.08 189.8 1278.54 190.32 1280.32 190.32C1283.06 190.32 1285.21 189.33 1286.75 187.34L1290.25 191.26C1289.18 192.77 1287.73 193.95 1285.91 194.79C1284.09 195.64 1282.07 196.06 1279.85 196.06ZM1279.04 174.16C1277.62 174.16 1276.48 174.64 1275.6 175.59C1274.72 176.55 1274.16 177.92 1273.91 179.7L1283.82 179.7L1283.82 179.13C1283.78 177.55 1283.36 176.32 1282.54 175.46C1281.71 174.59 1280.55 174.16 1279.04 174.16Z" />
				<path id="Layer" class="shp0" d="M1302.67 168.91L1302.89 171.99C1304.8 169.61 1307.35 168.42 1310.55 168.42C1313.38 168.42 1315.48 169.25 1316.86 170.91C1318.24 172.56 1318.95 175.04 1318.98 178.35L1318.98 195.57L1311.86 195.57L1311.86 178.52C1311.86 177.01 1311.53 175.91 1310.88 175.23C1310.22 174.55 1309.13 174.21 1307.6 174.21C1305.59 174.21 1304.09 175.06 1303.09 176.77L1303.09 195.57L1295.97 195.57L1295.97 168.91L1302.67 168.91Z" />
				<path id="Layer" fill-rule="evenodd" class="shp0" d="M1324.6 182.04C1324.6 177.95 1325.58 174.66 1327.52 172.16C1329.47 169.67 1332.1 168.42 1335.4 168.42C1338.32 168.42 1340.6 169.42 1342.22 171.42L1342.52 168.91L1348.97 168.91L1348.97 194.68C1348.97 197.02 1348.44 199.04 1347.38 200.77C1346.32 202.49 1344.83 203.81 1342.91 204.71C1340.99 205.62 1338.74 206.07 1336.16 206.07C1334.21 206.07 1332.3 205.68 1330.44 204.9C1328.59 204.12 1327.18 203.11 1326.23 201.88L1329.38 197.54C1331.16 199.53 1333.31 200.52 1335.84 200.52C1337.73 200.52 1339.2 200.02 1340.25 199.01C1341.3 198 1341.83 196.56 1341.83 194.71L1341.83 193.28C1340.19 195.13 1338.03 196.06 1335.35 196.06C1332.14 196.06 1329.55 194.81 1327.57 192.3C1325.59 189.8 1324.6 186.48 1324.6 182.34L1324.6 182.04ZM1331.72 182.57C1331.72 184.99 1332.21 186.89 1333.18 188.26C1334.15 189.63 1335.48 190.32 1337.17 190.32C1339.34 190.32 1340.89 189.51 1341.83 187.88L1341.83 176.65C1340.88 175.02 1339.34 174.21 1337.22 174.21C1335.51 174.21 1334.17 174.91 1333.19 176.3C1332.21 177.7 1331.72 179.79 1331.72 182.57Z" />
				<path id="Layer" fill-rule="evenodd" class="shp0" d="M1367.97 196.06C1364.06 196.06 1360.88 194.86 1358.43 192.46C1355.97 190.07 1354.74 186.87 1354.74 182.88L1354.74 182.19C1354.74 179.51 1355.26 177.12 1356.29 175.01C1357.33 172.9 1358.8 171.27 1360.69 170.13C1362.59 168.99 1364.75 168.42 1367.19 168.42C1370.83 168.42 1373.7 169.57 1375.8 171.87C1377.89 174.17 1378.94 177.43 1378.94 181.65L1378.94 184.56L1361.96 184.56C1362.19 186.3 1362.89 187.69 1364.04 188.74C1365.2 189.8 1366.67 190.32 1368.44 190.32C1371.19 190.32 1373.33 189.33 1374.87 187.34L1378.37 191.26C1377.3 192.77 1375.86 193.95 1374.04 194.79C1372.21 195.64 1370.19 196.06 1367.97 196.06ZM1367.16 174.16C1365.75 174.16 1364.6 174.64 1363.72 175.59C1362.85 176.55 1362.28 177.92 1362.04 179.7L1371.94 179.7L1371.94 179.13C1371.91 177.55 1371.48 176.32 1370.66 175.46C1369.84 174.59 1368.67 174.16 1367.16 174.16Z" />
				<path id="Layer" class="shp0" d="M1398.68 188.2C1398.68 187.33 1398.25 186.65 1397.39 186.14C1396.52 185.64 1395.14 185.2 1393.23 184.8C1386.89 183.47 1383.72 180.78 1383.72 176.72C1383.72 174.36 1384.71 172.38 1386.67 170.79C1388.63 169.21 1391.2 168.42 1394.37 168.42C1397.75 168.42 1400.46 169.21 1402.49 170.81C1404.52 172.4 1405.53 174.47 1405.53 177.02L1398.41 177.02C1398.41 176 1398.08 175.16 1397.42 174.49C1396.77 173.82 1395.74 173.49 1394.34 173.49C1393.14 173.49 1392.21 173.76 1391.56 174.3C1390.9 174.85 1390.57 175.54 1390.57 176.38C1390.57 177.16 1390.95 177.8 1391.7 178.29C1392.44 178.77 1393.7 179.19 1395.48 179.54C1397.25 179.89 1398.75 180.29 1399.96 180.74C1403.72 182.12 1405.6 184.51 1405.6 187.91C1405.6 190.34 1404.56 192.3 1402.47 193.81C1400.39 195.31 1397.69 196.06 1394.39 196.06C1392.16 196.06 1390.18 195.66 1388.44 194.87C1386.71 194.07 1385.35 192.98 1384.36 191.59C1383.38 190.2 1382.88 188.7 1382.88 187.09L1389.64 187.09C1389.7 188.36 1390.17 189.33 1391.04 190C1391.91 190.68 1393.08 191.01 1394.54 191.01C1395.9 191.01 1396.93 190.75 1397.63 190.23C1398.33 189.72 1398.68 189.04 1398.68 188.2Z" />
			</g>
		</g>
	</g>
</svg>