<svg version="1.1" id="Layer_1" xmlns="http://www.w3.org/2000/svg" xmlns:xlink="http://www.w3.org/1999/xlink" x="0px" y="0px"
	 width="100%" viewBox="0 0 131 99" enable-background="new 0 0 131 99" xml:space="preserve">
<path fill="#000000" opacity="1.000000" stroke="none" 
	d="
M132.000000,35.000000 
	C132.000000,56.640163 132.000000,78.280327 132.000000,99.960243 
	C88.413284,99.960243 44.826523,99.960243 1.119880,99.960243 
	C1.119880,67.120674 1.119880,34.240768 1.119880,1.000000 
	C21.686163,1.000000 42.374424,1.000000 63.871330,1.247713 
	C64.229401,1.960395 63.861755,2.586878 63.316257,2.867005 
	C43.260078,13.166269 23.187408,23.433420 3.403390,33.558395 
	C3.403390,44.823025 3.403390,55.837009 3.403390,67.662170 
	C25.066883,56.531483 46.081860,45.733997 67.205139,34.880871 
	C67.205139,45.833778 67.205139,56.266926 67.205139,67.398933 
	C69.033264,66.684395 70.551376,66.237389 71.934319,65.527184 
	C82.375160,60.165359 92.760551,54.695045 103.220543,49.371166 
	C112.776390,44.507473 122.404007,39.784813 132.000000,35.000000 
z"/>
<path fill="#5C49F4" opacity="1.000000" stroke="none" 
	d="
M132.000000,34.531342 
	C122.404007,39.784813 112.776390,44.507473 103.220543,49.371166 
	C92.760551,54.695045 82.375160,60.165359 71.934319,65.527184 
	C70.551376,66.237389 69.033264,66.684395 67.205139,67.398933 
	C67.205139,56.266926 67.205139,45.833778 67.205139,34.880871 
	C46.081860,45.733997 25.066883,56.531483 3.403390,67.662170 
	C3.403390,55.837009 3.403390,44.823025 3.403390,33.558395 
	C23.187408,23.433420 43.260078,13.166269 63.316257,2.867005 
	C63.861755,2.586878 64.229401,1.960395 64.339989,1.247713 
	C65.388893,1.000000 66.777779,1.000000 68.570412,1.257880 
	C68.927208,1.681371 68.880257,1.846981 68.663048,2.385393 
	C68.606041,12.167995 68.719292,21.577797 68.826141,31.310875 
	C68.695389,31.921568 68.547844,32.202244 68.461128,32.500603 
	C68.435883,32.587421 68.637993,32.828304 68.645676,32.824326 
	C72.213135,30.977121 75.753258,29.076317 79.335999,27.259533 
	C94.710663,19.463150 110.110970,11.717079 125.451805,3.854847 
	C126.510765,3.312126 127.160149,1.970240 128.000000,1.000001 
	C129.317780,1.000000 130.635574,1.000000 132.000000,1.000000 
	C132.000000,12.020859 132.000000,23.041771 132.000000,34.531342 
z"/>
<path fill="#000000" opacity="1.000000" stroke="none" 
	d="
M68.833305,2.012591 
	C68.880257,1.846981 68.927208,1.681371 68.987076,1.257880 
	C88.354225,1.000000 107.708458,1.000000 127.531342,1.000001 
	C127.160149,1.970240 126.510765,3.312126 125.451805,3.854847 
	C110.110970,11.717079 94.710663,19.463150 79.335999,27.259533 
	C75.753258,29.076317 72.213135,30.977121 68.645676,32.824326 
	C68.637993,32.828304 68.435883,32.587421 68.461128,32.500603 
	C68.547844,32.202244 68.695389,31.921568 68.896423,30.847664 
	C68.926514,20.711647 68.879913,11.362120 68.833305,2.012591 
z"/>
<path fill="#624EEB" opacity="1.000000" stroke="none" 
	d="
M68.663048,2.385393 
	C68.879913,11.362120 68.926514,20.711647 68.902832,30.524387 
	C68.719292,21.577797 68.606041,12.167995 68.663048,2.385393 
z"/>
</svg>