<svg version="1.1" id="Layer_1" xmlns="http://www.w3.org/2000/svg" xmlns:xlink="http://www.w3.org/1999/xlink" x="0px" y="0px" viewBox="0 0 231.8 66.2" style="enable-background:new 0 0 231.8 66.2;" xml:space="preserve">
 <g>
  <path d="M31.8,0C26,0,21.5,2.2,17.3,6.3V1.6H0v63h17.3V27.5c0-6.1,4.9-10.9,10.9-10.9s10.9,4.9,10.9,10.9v37.1h17.3V27.9
		C56.6,11.2,46.6,0,31.8,0z">
  </path>
  <path d="M105.9,1.6v37.1c0,6.1-4.9,10.9-10.9,10.9c-6.1,0-10.9-4.9-10.9-10.9V1.6H66.7V38c0,17.1,11,28.2,28.1,28.2
		c16.8,0,28.5-11.6,28.5-28.2V1.6L105.9,1.6z">
  </path>
  <path d="M222.1,9.7c-12.9-12.9-33.8-12.9-46.8,0s-12.9,33.8,0,46.8s33.8,12.9,46.8,0S235,22.6,222.1,9.7z M212,35.3l-11.1,11.1
		c-4.1,4.1-11,4.5-15.5,0c-4.3-4.3-4.3-11.2,0-15.5l11.1-11.1c4.3-4.3,11.2-4.3,15.5,0C216.3,24.1,216.3,31,212,35.3z">
  </path>
  <path d="M162.6,0h-0.8c-16.8,0-28.5,11.6-28.5,28.2v36.4h17.3V27.5c0-6.1,5.1-10.9,11.1-10.9h0.8V0z">
  </path>
 </g>
</svg>