<?xml version="1.0" encoding="UTF-8"?>
<svg width="39.89616mm" height="25.16774mm" version="1.1" viewBox="0 0 39.89616 25.16774" xmlns="http://www.w3.org/2000/svg">
<title>Visteon logo</title>
<desc>American automotive electronics company</desc>
 <defs>
  <clipPath id="clipPath974">
   <path d="m0 926h2395v-926h-2395z"/>
  </clipPath>
  <clipPath id="clipPath980">
   <path d="M 0,926.04 H 2394.96 V 0 H 0 Z"/>
  </clipPath>
 </defs>
 <g transform="translate(-66.30561 -12.23511)">
  <g transform="matrix(.3527778 0 0 -.3527778 -383.7667 86.23293)" clip-path="url(#clipPath974)">
   <g clip-path="url(#clipPath980)">
    <g>
     <path d="m1333.828 175.685h1.912v11.003h-1.912z"/>
     <path d="m1385.671 186.942c-1.819 0-2.842-0.636-3.772-1.231v0.976h-1.912v-11.002h1.912v8.928c0.659 0.314 1.874 0.76 3.271 0.76 1.367 0 1.805-0.796 1.805-2.318v-7.37h1.912v3.101 4.8c0 1.565-0.741 3.356-3.216 3.356"/>
     <path d="m1349.374 186.641 0.409 2.751h1.503v-2.751h2.888v-1.366h-2.888v-5.957c0-2.021 0.184-2.483 1.356-2.483 0.869 0 1.218 0.138 1.841 0.277v-1.3c-0.768-0.384-1.477-0.594-2.313-0.594-2.02 0-2.796 1.299-2.796 3.295v6.762h-1.643v1.366h1.643"/>
     <path d="m1345.357 185.045v1.291c-0.804 0.349-1.647 0.541-2.94 0.541-1.735 0-3.696-0.778-3.696-2.927 0-1.659 1.055-2.358 2.097-2.925l1.399-0.746c0.843-0.455 1.713-0.959 1.713-1.995 0-1.028-0.657-1.534-1.999-1.534-1.442 0-2.086 0.165-3.226 0.356v-1.275c0.956-0.394 2.057-0.63 3.312-0.63 1.593 0 3.81 0.581 3.81 3.289 0 1.558-1.146 2.575-2.211 3.153l-1.628 0.876c-1.064 0.588-1.332 0.899-1.332 1.517 0 0.927 1.024 1.336 2.067 1.336 0.992 0 1.68-0.064 2.634-0.327"/>
     <path d="m1360.516 186.874c-1.805 0-4.815-1.331-4.815-6.23 0-4.9 3.557-5.422 5.398-5.422 1.466 0 2.292 0.192 3.467 0.63v1.26c-1.777-0.328-1.938-0.351-3.245-0.351-2.57 0-3.552 1.477-3.552 4.017v0.29h7.135v0.992c0 3.766-2.584 4.814-4.39 4.814zm-2.704-4.622c0.039 2.249 1.377 3.178 2.591 3.178 2.088 0 2.642-1.258 2.66-3.184l-5.251 6e-3"/>
     <path d="m1377.495 181.046c0-3.573-2.006-5.828-5.141-5.828-3.134 0-5.19 2.255-5.19 5.828s2.056 5.828 5.19 5.828c3.135 0 5.141-2.255 5.141-5.828zm-8.245 0c0-3.545 1.476-4.506 3.104-4.506 1.604 0 3.03 0.961 3.03 4.506 0 3.546-1.426 4.507-3.03 4.507-1.958 0-3.104-0.936-3.104-4.507"/>
     <path d="m1319.681 189.392 5.094-13.874h2.04l4.98 13.874h-2.039l-3.901-11.271-4.008 11.271h-2.166"/>
    </g>
    <g fill="#efa800">
     <path d="m1348.518 138.416c1.444 1e-3 2.152 0.985 1.582 2.199-0.571 1.214-2.206 2.198-3.654 2.197-1.447 0-2.156-0.984-1.582-2.198s2.21-2.198 3.654-2.198"/>
     <path d="m1341.18 138.867c1.428 0 2.124 0.973 1.556 2.173s-2.189 2.172-3.619 2.172c-1.431 0-2.128-0.974-1.556-2.173 0.571-1.2 2.191-2.173 3.619-2.172"/>
     <path d="m1333.548 140.205c1.382 1e-3 2.053 0.942 1.5 2.102-0.554 1.161-2.125 2.101-3.51 2.1-1.384 0-2.056-0.941-1.499-2.101 0.557-1.161 2.127-2.101 3.509-2.101"/>
     <path d="m1325.748 142.482c1.27 1e-3 1.884 0.865 1.372 1.93-0.512 1.066-1.959 1.93-3.232 1.929-1.272 0-1.887-0.864-1.372-1.93 0.514-1.066 1.961-1.929 3.232-1.929"/>
     <path d="m1317.971 145.562c1.145 0 1.697 0.778 1.233 1.737s-1.771 1.737-2.917 1.736c-1.147 0-1.699-0.778-1.233-1.737s1.772-1.736 2.917-1.736"/>
     <path d="m1310.389 149.342c1.033 0 1.529 0.7 1.109 1.563-0.421 0.863-1.599 1.563-2.633 1.563s-1.531-0.701-1.109-1.563c0.422-0.864 1.601-1.563 2.633-1.563"/>
     <path d="m1303.148 153.747c0.931 0 1.378 0.63 0.998 1.407s-1.444 1.406-2.377 1.406-1.379-0.63-0.998-1.407c0.382-0.777 1.446-1.407 2.377-1.406"/>
     <path d="m1296.395 158.697c0.839 0 1.242 0.568 0.898 1.267s-1.304 1.266-2.145 1.265c-0.841 0-1.244-0.567-0.899-1.266 0.345-0.7 1.306-1.266 2.146-1.266"/>
     <path d="m1290.173 164.288c0.632 0 0.934 0.425 0.675 0.949-0.258 0.525-0.981 0.95-1.613 0.949-0.633 0-0.935-0.425-0.676-0.949 0.26-0.524 0.982-0.949 1.614-0.949"/>
     <path d="m1284.74 170.156c0.475 0 0.703 0.319 0.508 0.712s-0.738 0.712-1.214 0.712c-0.475 0-0.703-0.319-0.508-0.712 0.195-0.394 0.738-0.712 1.214-0.712"/>
     <path d="m1280.208 176.207c0.358 0 0.529 0.239 0.383 0.534s-0.555 0.534-0.913 0.534c-0.357 0-0.528-0.239-0.382-0.534 0.147-0.296 0.555-0.534 0.912-0.534"/>
     <path d="m1276.714 182.213c0.34 0 0.504 0.227 0.365 0.507-0.139 0.281-0.528 0.508-0.869 0.508-0.34 0-0.504-0.228-0.365-0.508s0.528-0.507 0.869-0.507"/>
     <path d="m1355.437 138.844c-1.443 1e-3 -3.073 0.984-3.641 2.196-0.567 1.213 0.145 2.195 1.591 2.195 1.446-1e-3 3.076-0.984 3.64-2.196 0.565-1.213-0.147-2.195-1.59-2.195"/>
     <path d="m1361.796 140.205c-1.382 1e-3 -2.94 0.942-3.478 2.102-0.54 1.161 0.146 2.101 1.53 2.1 1.385 0 2.943-0.941 3.479-2.101 0.537-1.161-0.149-2.101-1.531-2.101"/>
     <path d="m1367.454 142.482c-1.27 1e-3 -2.699 0.865-3.191 1.93-0.491 1.066 0.143 1.93 1.415 1.929 1.274 0 2.702-0.864 3.191-1.93s-0.145-1.929-1.415-1.929"/>
     <path d="m1372.33 145.562c-1.146 0-2.43 0.778-2.869 1.737-0.44 0.959 0.134 1.737 1.282 1.736 1.147 0 2.432-0.778 2.869-1.737s-0.137-1.736-1.282-1.736"/>
     <path d="m1376.351 149.342c-1.033 0-2.188 0.7-2.58 1.563-0.393 0.863 0.127 1.563 1.161 1.563s2.189-0.701 2.581-1.563c0.391-0.864-0.129-1.563-1.162-1.563"/>
     <path d="m1379.444 153.747c-0.932 0-1.971 0.63-2.323 1.407-0.351 0.777 0.12 1.406 1.053 1.406 0.932 0 1.972-0.63 2.323-1.407 0.35-0.777-0.121-1.407-1.053-1.406"/>
     <path d="m1382.644 164.727c0.412 0.115 0.494 0.519 0.184 0.904-0.311 0.384-0.897 0.603-1.31 0.488-0.412-0.115-0.494-0.52-0.183-0.904 0.311-0.385 0.897-0.604 1.309-0.488"/>
     <path d="m1381.641 159.011c0.652 0.084 0.89 0.617 0.531 1.19-0.358 0.574-1.178 0.971-1.83 0.887s-0.89-0.617-0.531-1.191c0.359-0.573 1.179-0.97 1.83-0.886"/>
     <path d="m1382.277 170.328c0.339 0 0.512 0.228 0.387 0.508s-0.501 0.507-0.84 0.507-0.512-0.227-0.387-0.507c0.126-0.281 0.501-0.508 0.84-0.508"/>
     <path d="m1337.285 193.227c-0.092-0.095-0.031-0.261 0.136-0.372 0.166-0.111 0.375-0.124 0.467-0.03s0.031 0.26-0.135 0.371-0.376 0.124-0.468 0.031"/>
     <path d="m1314.088 198.926c-0.515-0.136-0.616-0.63-0.224-1.103 0.391-0.473 1.125-0.746 1.64-0.61s0.616 0.63 0.225 1.104c-0.39 0.473-1.125 0.746-1.641 0.609"/>
     <path d="m1316.632 199.372c-0.499-0.131-0.597-0.609-0.219-1.067s1.089-0.722 1.587-0.591c0.499 0.132 0.597 0.61 0.22 1.068-0.378 0.458-1.089 0.722-1.588 0.59"/>
     <path d="m1319.398 199.483c-0.473-0.125-0.566-0.578-0.209-1.011 0.357-0.434 1.031-0.685 1.503-0.56 0.473 0.125 0.566 0.578 0.209 1.011-0.357 0.434-1.03 0.685-1.503 0.56"/>
     <path d="m1322.348 199.226c-0.426-0.112-0.511-0.52-0.19-0.911 0.321-0.39 0.927-0.615 1.352-0.503 0.425 0.113 0.51 0.52 0.189 0.911-0.321 0.39-0.926 0.615-1.351 0.503"/>
     <path d="m1325.381 198.653c-0.383-0.101-0.46-0.468-0.171-0.82 0.289-0.351 0.832-0.553 1.216-0.452 0.382 0.101 0.459 0.468 0.171 0.819s-0.833 0.554-1.216 0.453"/>
     <path d="m1328.438 197.774c-0.345-0.091-0.415-0.421-0.155-0.737 0.259-0.316 0.748-0.499 1.093-0.408 0.344 0.091 0.414 0.421 0.155 0.738-0.259 0.316-0.749 0.498-1.093 0.407"/>
     <path d="m1331.456 196.608c-0.31-0.082-0.372-0.379-0.139-0.663 0.233-0.285 0.673-0.449 0.983-0.367 0.309 0.082 0.372 0.379 0.14 0.663-0.233 0.285-0.673 0.449-0.984 0.367"/>
     <path d="m1334.428 195.11c-0.24-0.063-0.289-0.294-0.109-0.515 0.181-0.222 0.523-0.35 0.764-0.286s0.29 0.295 0.109 0.516-0.522 0.349-0.764 0.285"/>
     <path d="m1311.854 198.111c0.499 0.132 1.21-0.133 1.589-0.591 0.378-0.458 0.28-0.936-0.218-1.067-0.498-0.132-1.209 0.133-1.587 0.591-0.379 0.458-0.283 0.935 0.216 1.067"/>
     <path d="m1309.932 196.985c0.472 0.124 1.146-0.127 1.505-0.561 0.358-0.434 0.267-0.886-0.205-1.011-0.471-0.124-1.145 0.127-1.504 0.56-0.359 0.434-0.268 0.887 0.204 1.012"/>
     <path d="m1308.394 195.541c0.424 0.113 1.03-0.113 1.354-0.504 0.323-0.39 0.242-0.797-0.182-0.909-0.425-0.113-1.031 0.113-1.354 0.504-0.324 0.39-0.242 0.798 0.182 0.909"/>
     <path d="m1307.233 193.858c0.381 0.101 0.927-0.102 1.218-0.453 0.291-0.352 0.218-0.719-0.163-0.819-0.381-0.101-0.926 0.102-1.218 0.453-0.291 0.352-0.219 0.718 0.163 0.819"/>
     <path d="m1306.472 191.967c0.343 0.091 0.834-0.092 1.096-0.408 0.262-0.317 0.197-0.647-0.146-0.737-0.343-0.091-0.833 0.092-1.095 0.408-0.263 0.316-0.198 0.646 0.145 0.737"/>
     <path d="m1306.126 189.906c0.308 0.081 0.749-0.083 0.986-0.368 0.236-0.284 0.177-0.581-0.131-0.663s-0.749 0.083-0.985 0.367c-0.236 0.285-0.178 0.582 0.13 0.664"/>
     <path d="m1306.205 187.712c0.277 0.074 0.674-0.074 0.886-0.33 0.213-0.256 0.161-0.524-0.116-0.597-0.277-0.074-0.674 0.074-0.886 0.331-0.213 0.256-0.161 0.523 0.116 0.596"/>
     <path d="m1306.766 185.361c0.208 0.056 0.505-0.056 0.665-0.248 0.159-0.192 0.12-0.392-0.087-0.448-0.208-0.055-0.505 0.056-0.664 0.248-0.16 0.192-0.121 0.393 0.086 0.448"/>
     <path d="m1307.722 182.99c0.155 0.042 0.378-0.041 0.498-0.186 0.119-0.144 0.09-0.294-0.065-0.335-0.155-0.042-0.378 0.041-0.498 0.185s-0.091 0.295 0.065 0.336"/>
     <path d="m1339.84 191.343c-0.087-0.09-0.03-0.248 0.128-0.353s0.357-0.118 0.444-0.029c0.087 0.09 0.03 0.248-0.128 0.353s-0.357 0.118-0.444 0.029"/>
     <path d="m1308.934 180.635c-0.085-0.09-0.024-0.247 0.135-0.353 0.16-0.105 0.357-0.118 0.442-0.028 0.085 0.089 0.025 0.247-0.134 0.352-0.16 0.106-0.358 0.118-0.443 0.029"/>
     <path d="m1310.599 178.39c-0.08-0.085-0.023-0.235 0.128-0.335s0.339-0.112 0.419-0.027c0.081 0.085 0.024 0.235-0.127 0.335s-0.339 0.112-0.42 0.027"/>
     <path d="m1307.08 199.12c-0.442-0.3-0.318-0.931 0.278-1.41 0.597-0.479 1.439-0.623 1.882-0.323s0.319 0.932-0.277 1.41c-0.596 0.479-1.439 0.624-1.883 0.323"/>
     <path d="m1309.373 200.325c-0.43-0.291-0.311-0.901 0.266-1.365 0.576-0.463 1.391-0.603 1.821-0.312 0.43 0.29 0.311 0.901-0.265 1.364-0.577 0.464-1.393 0.604-1.822 0.313"/>
     <path d="m1312.035 201.177c-0.408-0.275-0.295-0.854 0.25-1.293 0.546-0.439 1.318-0.572 1.726-0.296 0.408 0.275 0.296 0.854-0.249 1.293-0.546 0.439-1.319 0.571-1.727 0.296"/>
     <path d="m1315.045 201.625c-0.367-0.247-0.267-0.768 0.224-1.163 0.49-0.395 1.186-0.514 1.553-0.267 0.368 0.248 0.268 0.769-0.222 1.164-0.491 0.395-1.187 0.514-1.555 0.266"/>
     <path d="m1318.283 201.709c-0.331-0.223-0.242-0.692 0.199-1.048 0.441-0.355 1.067-0.462 1.398-0.239s0.242 0.692-0.199 1.047-1.067 0.463-1.398 0.24"/>
     <path d="m1321.681 201.425c-0.298-0.201-0.218-0.623 0.178-0.943 0.397-0.32 0.96-0.416 1.258-0.216 0.298 0.201 0.219 0.623-0.178 0.943-0.396 0.32-0.959 0.417-1.258 0.216"/>
     <path d="m1325.173 200.78c-0.269-0.181-0.198-0.561 0.159-0.849 0.356-0.288 0.862-0.375 1.131-0.194 0.268 0.181 0.197 0.561-0.159 0.848-0.356 0.288-0.863 0.375-1.131 0.195"/>
     <path d="m1328.688 199.781c-0.242-0.162-0.178-0.504 0.141-0.763 0.321-0.259 0.776-0.337 1.018-0.175 0.242 0.163 0.179 0.505-0.142 0.764-0.32 0.259-0.776 0.337-1.017 0.174"/>
     <path d="m1305.26 197.543c0.429 0.291 1.244 0.15 1.821-0.314 0.577-0.463 0.696-1.074 0.269-1.364-0.429-0.29-1.244-0.15-1.821 0.313s-0.698 1.075-0.269 1.365"/>
     <path d="m1303.888 195.664c0.406 0.275 1.178 0.142 1.724-0.297 0.547-0.439 0.662-1.018 0.256-1.293-0.405-0.275-1.176-0.142-1.723 0.297s-0.662 1.017-0.257 1.293"/>
     <path d="m1303.035 193.495c0.365 0.248 1.059 0.128 1.551-0.267s0.596-0.916 0.232-1.163c-0.364-0.248-1.058-0.128-1.55 0.267s-0.597 0.916-0.233 1.163"/>
     <path d="m1302.66 191.128c0.327 0.223 0.952 0.115 1.394-0.24 0.443-0.356 0.537-0.825 0.211-1.047-0.328-0.223-0.952-0.116-1.394 0.24-0.443 0.356-0.538 0.825-0.211 1.047"/>
     <path d="m1302.77 188.61c0.294 0.201 0.855 0.103 1.254-0.216 0.398-0.321 0.483-0.742 0.189-0.943-0.293-0.2-0.854-0.103-1.253 0.216-0.398 0.321-0.484 0.743-0.19 0.943"/>
     <path d="m1303.36 185.99c0.264 0.18 0.768 0.093 1.127-0.195s0.435-0.668 0.171-0.848c-0.263-0.181-0.768-0.093-1.126 0.195-0.359 0.287-0.436 0.667-0.172 0.848"/>
     <path d="m1304.423 183.317c0.237 0.163 0.691 0.085 1.014-0.175 0.322-0.259 0.391-0.601 0.154-0.763s-0.69-0.084-1.013 0.175c-0.322 0.259-0.391 0.601-0.155 0.763"/>
     <path d="m1306.026 180.576c0.178 0.122 0.518 0.063 0.759-0.132 0.242-0.194 0.294-0.45 0.117-0.572-0.178-0.122-0.517-0.063-0.759 0.131-0.242 0.195-0.294 0.451-0.117 0.573"/>
     <path d="m1308.021 177.913c0.132 0.091 0.387 0.047 0.568-0.098 0.181-0.147 0.22-0.339 0.087-0.43s-0.387-0.047-0.568 0.099c-0.181 0.145-0.22 0.338-0.087 0.429"/>
     <path d="m1332.664 197.672c0.3-0.039 0.495 0.115 0.436 0.346-0.058 0.23-0.35 0.449-0.65 0.488s-0.496-0.116-0.437-0.346 0.351-0.449 0.651-0.488"/>
     <path d="m1335.901 196.21c0.219-0.051 0.387 0.036 0.376 0.195-0.01 0.159-0.196 0.33-0.414 0.381-0.219 0.052-0.388-0.035-0.377-0.195 0.011-0.159 0.197-0.329 0.415-0.381"/>
     <path d="m1338.983 194.337c0.208-0.049 0.368 0.034 0.358 0.185s-0.187 0.313-0.394 0.362c-0.208 0.049-0.368-0.034-0.357-0.185 0.01-0.151 0.186-0.313 0.393-0.362"/>
     <path d="m1313.237 172.585c0.195-0.046 0.344 0.032 0.332 0.176-0.013 0.143-0.182 0.298-0.378 0.344s-0.345-0.032-0.332-0.176c0.012-0.143 0.181-0.297 0.378-0.344"/>
     <path d="m1310.622 174.9c0.206-0.049 0.363 0.033 0.35 0.185-0.013 0.151-0.192 0.313-0.398 0.362-0.207 0.049-0.364-0.034-0.351-0.185 0.014-0.151 0.193-0.313 0.399-0.362"/>
     <path d="m1298.623 193.453c-0.11-0.567 0.485-1.281 1.329-1.596s1.619-0.11 1.73 0.457c0.112 0.567-0.483 1.282-1.327 1.597-0.846 0.314-1.621 0.109-1.732-0.458"/>
     <path d="m1299.471 195.96c-0.108-0.549 0.467-1.241 1.285-1.545 0.818-0.305 1.569-0.107 1.677 0.442 0.109 0.549-0.466 1.241-1.284 1.545s-1.569 0.106-1.678-0.442"/>
     <path d="m1300.892 198.2c-0.103-0.52 0.442-1.175 1.216-1.464 0.776-0.288 1.488-0.1 1.592 0.42s-0.44 1.175-1.216 1.464c-0.775 0.288-1.488 0.1-1.592-0.42"/>
     <path d="m1302.908 200.107c-0.094-0.468 0.396-1.058 1.094-1.317 0.697-0.26 1.339-0.091 1.434 0.377 0.094 0.468-0.395 1.058-1.093 1.317-0.698 0.26-1.34 0.091-1.435-0.377"/>
     <path d="m1305.396 201.671c-0.086-0.421 0.354-0.952 0.982-1.186 0.628-0.233 1.207-0.081 1.292 0.34 0.086 0.421-0.353 0.952-0.982 1.185-0.628 0.234-1.207 0.082-1.292-0.339"/>
     <path d="m1308.304 202.86c-0.077-0.379 0.318-0.857 0.883-1.067s1.086-0.073 1.164 0.306-0.316 0.857-0.882 1.067c-0.565 0.21-1.087 0.073-1.165-0.306"/>
     <path d="m1311.575 203.653c-0.071-0.342 0.284-0.772 0.793-0.961 0.508-0.189 0.978-0.066 1.049 0.275s-0.284 0.771-0.793 0.96c-0.508 0.19-0.978 0.067-1.049-0.274"/>
     <path d="m1315.146 204.027c-0.064-0.307 0.255-0.694 0.712-0.864 0.458-0.17 0.881-0.06 0.945 0.247 0.065 0.307-0.254 0.694-0.712 0.865-0.457 0.17-0.88 0.059-0.945-0.248"/>
     <path d="m1319.071 203.93c-0.049-0.231 0.189-0.521 0.532-0.649 0.343-0.127 0.66-0.044 0.709 0.186s-0.19 0.52-0.533 0.648c-0.342 0.128-0.66 0.045-0.708-0.185"/>
     <path d="m1323.102 203.421c-0.037-0.173 0.142-0.391 0.399-0.486 0.257-0.096 0.495-0.034 0.532 0.139s-0.142 0.39-0.399 0.486-0.495 0.033-0.532-0.139"/>
     <path d="m1327.173 202.502c-0.027-0.129 0.106-0.292 0.298-0.364 0.193-0.072 0.371-0.025 0.4 0.105 0.027 0.129-0.106 0.292-0.299 0.364s-0.371 0.025-0.399-0.105"/>
     <path d="m1298.44 190.702c0.107 0.549 0.856 0.747 1.673 0.442s1.391-0.997 1.285-1.545c-0.108-0.549-0.856-0.747-1.673-0.442-0.816 0.305-1.392 0.997-1.285 1.545"/>
     <path d="m1298.847 187.785c0.101 0.52 0.809 0.707 1.583 0.418 0.773-0.288 1.318-0.944 1.217-1.463-0.101-0.52-0.809-0.708-1.582-0.419s-1.318 0.944-1.218 1.464"/>
     <path d="m1299.886 184.748c0.09 0.467 0.727 0.636 1.422 0.376s1.185-0.85 1.095-1.317c-0.091-0.468-0.727-0.637-1.421-0.377-0.695 0.26-1.186 0.85-1.096 1.318"/>
     <path d="m1301.452 181.683c0.08 0.421 0.652 0.572 1.277 0.338 0.625-0.233 1.065-0.764 0.985-1.185-0.081-0.421-0.653-0.573-1.277-0.339-0.625 0.234-1.066 0.765-0.985 1.186"/>
     <path d="m1303.511 178.651c0.072 0.379 0.586 0.515 1.148 0.305 0.561-0.211 0.958-0.688 0.885-1.067-0.072-0.379-0.586-0.516-1.147-0.305-0.561 0.21-0.958 0.688-0.886 1.067"/>
     <path d="m1306.021 175.712c0.065 0.341 0.526 0.464 1.031 0.274 0.505-0.189 0.861-0.619 0.797-0.96-0.066-0.341-0.527-0.464-1.032-0.275-0.504 0.19-0.861 0.62-0.796 0.961"/>
     <path d="m1308.936 172.924c0.059 0.307 0.473 0.417 0.927 0.247 0.453-0.171 0.774-0.557 0.715-0.864-0.058-0.307-0.473-0.418-0.926-0.247-0.454 0.17-0.775 0.557-0.716 0.864"/>
     <path d="m1312.321 170.297c0.044 0.23 0.355 0.313 0.694 0.185 0.34-0.128 0.58-0.418 0.536-0.648s-0.354-0.313-0.694-0.185c-0.34 0.127-0.58 0.418-0.536 0.648"/>
     <path d="m1315.945 167.946c0.033 0.172 0.266 0.235 0.521 0.139 0.254-0.096 0.434-0.314 0.401-0.487-0.033-0.172-0.266-0.235-0.52-0.138-0.255 0.095-0.435 0.313-0.402 0.486"/>
     <path d="m1319.752 165.915c0.025 0.129 0.199 0.176 0.39 0.104 0.19-0.072 0.325-0.235 0.3-0.365-0.025-0.129-0.199-0.176-0.39-0.104s-0.325 0.235-0.3 0.365"/>
     <path d="m1331.136 201.215c-0.026-0.123 0.1-0.278 0.283-0.346s0.352-0.024 0.379 0.099c0.026 0.123-0.1 0.278-0.283 0.346-0.182 0.069-0.352 0.024-0.379-0.099"/>
     <path d="m1323.599 164.254c-0.024-0.123 0.104-0.278 0.285-0.346s0.346-0.024 0.37 0.099-0.104 0.278-0.285 0.346c-0.18 0.069-0.346 0.024-0.37-0.099"/>
     <path d="m1294.994 186.294c0.229-0.737 1.183-1.42 2.132-1.526 0.948-0.107 1.532 0.404 1.305 1.141-0.228 0.737-1.182 1.421-2.132 1.527-0.949 0.106-1.533-0.406-1.305-1.142"/>
     <path d="m1294.307 189.668c0.221-0.713 1.145-1.374 2.065-1.477 0.919-0.102 1.485 0.392 1.266 1.105-0.22 0.713-1.144 1.374-2.064 1.477s-1.488-0.392-1.267-1.105"/>
     <path d="m1294.293 192.905c0.209-0.676 1.085-1.302 1.957-1.399s1.41 0.371 1.203 1.047c-0.208 0.675-1.084 1.301-1.956 1.399-0.873 0.097-1.413-0.372-1.204-1.047"/>
     <path d="m1295.016 195.926c0.187-0.608 0.975-1.172 1.762-1.259 0.785-0.088 1.271 0.334 1.085 0.942-0.186 0.607-0.975 1.171-1.761 1.259-0.787 0.087-1.273-0.335-1.086-0.942"/>
     <path d="m1296.369 198.679c0.168-0.547 0.877-1.054 1.585-1.133 0.709-0.079 1.148 0.301 0.981 0.848-0.167 0.546-0.877 1.054-1.585 1.133-0.709 0.078-1.148-0.301-0.981-0.848"/>
     <path d="m1298.328 201.109c0.15-0.492 0.788-0.948 1.426-1.019s1.034 0.27 0.885 0.763c-0.149 0.492-0.788 0.949-1.426 1.02s-1.035-0.271-0.885-0.764"/>
     <path d="m1300.852 203.171c0.134-0.443 0.708-0.855 1.283-0.918 0.575-0.064 0.932 0.244 0.799 0.686-0.134 0.444-0.708 0.855-1.283 0.918-0.575 0.064-0.933-0.243-0.799-0.686"/>
     <path d="m1303.899 204.817c0.119-0.398 0.636-0.769 1.153-0.826 0.518-0.057 0.84 0.22 0.721 0.618-0.119 0.399-0.636 0.769-1.153 0.826-0.518 0.058-0.841-0.219-0.721-0.618"/>
     <path d="m1307.548 206c0.089-0.3 0.476-0.577 0.864-0.62 0.389-0.043 0.631 0.165 0.542 0.464s-0.476 0.576-0.864 0.619c-0.389 0.044-0.631-0.164-0.542-0.463"/>
     <path d="m1311.539 206.713c0.066-0.224 0.356-0.432 0.648-0.464 0.291-0.033 0.473 0.123 0.407 0.347-0.067 0.225-0.356 0.433-0.648 0.465-0.291 0.032-0.473-0.123-0.407-0.348"/>
     <path d="m1315.808 206.938c0.049-0.168 0.267-0.324 0.485-0.349 0.218-0.024 0.355 0.093 0.306 0.261s-0.267 0.324-0.485 0.349c-0.218 0.024-0.356-0.093-0.306-0.261"/>
     <path d="m1296.417 182.843c-0.221 0.712 0.344 1.207 1.262 1.103 0.916-0.103 1.839-0.764 2.059-1.477 0.219-0.713-0.345-1.207-1.261-1.104-0.917 0.103-1.839 0.765-2.06 1.478"/>
     <path d="m1298.481 179.373c-0.21 0.676 0.325 1.144 1.192 1.046 0.868-0.097 1.74-0.724 1.949-1.4 0.208-0.675-0.326-1.143-1.192-1.045-0.867 0.097-1.74 0.724-1.949 1.399"/>
     <path d="m1301.176 175.971c-0.189 0.607 0.291 1.029 1.071 0.941 0.779-0.088 1.563-0.652 1.751-1.26s-0.292-1.029-1.07-0.941c-0.779 0.088-1.563 0.652-1.752 1.26"/>
     <path d="m1304.359 172.71c-0.169 0.547 0.262 0.926 0.962 0.847 0.701-0.079 1.406-0.587 1.574-1.134 0.169-0.547-0.262-0.926-0.962-0.847-0.699 0.079-1.405 0.587-1.574 1.134"/>
     <path d="m1307.966 169.656c-0.152 0.493 0.235 0.834 0.864 0.763 0.63-0.071 1.263-0.528 1.414-1.021 0.152-0.492-0.235-0.833-0.864-0.762s-1.262 0.528-1.414 1.02"/>
     <path d="m1311.923 166.87c-0.137 0.443 0.211 0.75 0.777 0.686 0.565-0.065 1.135-0.475 1.27-0.919 0.136-0.443-0.212-0.75-0.777-0.686s-1.134 0.476-1.27 0.919"/>
     <path d="m1316.156 164.407c-0.123 0.399 0.191 0.676 0.699 0.618s1.02-0.428 1.141-0.827c0.122-0.399-0.191-0.675-0.699-0.617s-1.02 0.427-1.141 0.826"/>
     <path d="m1320.72 162.304c-0.091 0.299 0.144 0.506 0.525 0.463s0.763-0.321 0.854-0.62-0.144-0.506-0.525-0.463c-0.38 0.043-0.762 0.321-0.854 0.62"/>
     <path d="m1325.344 160.623c-0.068 0.224 0.107 0.38 0.393 0.348 0.285-0.033 0.572-0.241 0.639-0.465 0.068-0.225-0.108-0.38-0.393-0.348-0.285 0.033-0.572 0.241-0.639 0.465"/>
     <path d="m1329.95 159.402c-0.051 0.168 0.081 0.285 0.295 0.26 0.214-0.024 0.428-0.18 0.479-0.348 0.051-0.169-0.081-0.285-0.296-0.261-0.213 0.024-0.428 0.181-0.478 0.349"/>
     <path d="m1320.184 206.685c0.047-0.159 0.253-0.308 0.461-0.331 0.207-0.023 0.337 0.088 0.291 0.248-0.047 0.16-0.253 0.308-0.46 0.331-0.208 0.023-0.338-0.087-0.292-0.248"/>
     <path d="m1334.393 158.663c0.046-0.152 0.239-0.293 0.432-0.315s0.312 0.084 0.266 0.235c-0.045 0.152-0.238 0.293-0.431 0.315s-0.313-0.083-0.267-0.235"/>
     <path d="m1297.179 174.593c0.684-0.822 1.952-1.298 2.832-1.064 0.881 0.234 1.041 1.09 0.359 1.912-0.683 0.822-1.953 1.298-2.835 1.064-0.881-0.235-1.041-1.091-0.356-1.912"/>
     <path d="m1294.35 178.492c0.663-0.795 1.892-1.256 2.746-1.03 0.854 0.227 1.01 1.055 0.348 1.851-0.662 0.795-1.892 1.255-2.748 1.029-0.854-0.227-1.009-1.055-0.346-1.85"/>
     <path d="m1292.181 182.48c0.628-0.753 1.795-1.19 2.606-0.975 0.81 0.215 0.959 1 0.331 1.753s-1.795 1.19-2.607 0.974c-0.812-0.214-0.959-0.998-0.33-1.752"/>
     <path d="m1290.781 186.482c0.567-0.677 1.618-1.07 2.349-0.877 0.732 0.193 0.867 0.899 0.301 1.577-0.565 0.679-1.617 1.071-2.349 0.878-0.733-0.193-0.867-0.9-0.301-1.578"/>
     <path d="m1290.098 190.394c0.51-0.61 1.458-0.964 2.117-0.79 0.66 0.174 0.783 0.81 0.274 1.42s-1.457 0.964-2.118 0.79c-0.66-0.174-0.782-0.81-0.273-1.42"/>
     <path d="m1290.15 194.137c0.458-0.549 1.312-0.868 1.907-0.711s0.707 0.729 0.249 1.278-1.312 0.867-1.908 0.711c-0.596-0.157-0.707-0.729-0.248-1.278"/>
     <path d="m1290.935 197.638c0.413-0.494 1.182-0.781 1.719-0.639 0.537 0.141 0.638 0.655 0.226 1.15-0.412 0.494-1.182 0.78-1.719 0.639s-0.638-0.656-0.226-1.15"/>
     <path d="m1292.452 200.826c0.37-0.444 1.063-0.702 1.547-0.575 0.485 0.127 0.577 0.59 0.207 1.034-0.371 0.445-1.064 0.703-1.549 0.576-0.484-0.127-0.576-0.59-0.205-1.035"/>
     <path d="m1294.803 203.671c0.277-0.333 0.797-0.526 1.161-0.431s0.434 0.442 0.157 0.776-0.798 0.527-1.162 0.432-0.434-0.443-0.156-0.777"/>
     <path d="m1297.771 206.069c0.208-0.25 0.597-0.395 0.871-0.324 0.274 0.072 0.327 0.333 0.119 0.582-0.208 0.251-0.598 0.396-0.872 0.324-0.273-0.071-0.326-0.331-0.118-0.582"/>
     <path d="m1301.314 207.972c0.155-0.188 0.447-0.297 0.653-0.243 0.205 0.053 0.246 0.249 0.09 0.437-0.155 0.187-0.448 0.296-0.654 0.242-0.204-0.053-0.245-0.249-0.089-0.436"/>
     <path d="m1305.276 209.33c0.148-0.178 0.425-0.281 0.621-0.231 0.195 0.051 0.234 0.237 0.087 0.415-0.148 0.178-0.426 0.281-0.621 0.231-0.195-0.051-0.234-0.237-0.087-0.415"/>
     <path d="m1300.69 170.875c-0.661 0.795-0.506 1.623 0.346 1.849 0.853 0.226 2.079-0.235 2.738-1.03s0.503-1.623-0.348-1.849-2.076 0.235-2.736 1.03"/>
     <path d="m1304.736 167.388c-0.624 0.753-0.477 1.538 0.329 1.752s1.965-0.223 2.589-0.976c0.623-0.753 0.476-1.538-0.329-1.752s-1.964 0.223-2.589 0.976"/>
     <path d="m1309.28 164.227c-0.561 0.677-0.428 1.383 0.296 1.576s1.766-0.2 2.326-0.879c0.559-0.678 0.426-1.383-0.298-1.576-0.723-0.193-1.763 0.2-2.324 0.879"/>
     <path d="m1314.14 161.43c-0.503 0.611-0.383 1.246 0.268 1.419 0.651 0.174 1.587-0.18 2.089-0.79 0.503-0.61 0.383-1.246-0.268-1.419-0.65-0.174-1.585 0.18-2.089 0.79"/>
     <path d="m1319.223 159.057c-0.452 0.549-0.343 1.121 0.242 1.277 0.586 0.156 1.426-0.162 1.877-0.712 0.451-0.549 0.342-1.121-0.243-1.277-0.584-0.156-1.424 0.163-1.876 0.712"/>
     <path d="m1324.428 157.151c-0.405 0.494-0.307 1.009 0.22 1.15 0.527 0.14 1.282-0.146 1.687-0.641 0.404-0.494 0.306-1.009-0.22-1.149-0.527-0.141-1.282 0.146-1.687 0.64"/>
     <path d="m1329.658 155.757c-0.364 0.444-0.275 0.908 0.199 1.034 0.474 0.127 1.153-0.132 1.516-0.576 0.363-0.445 0.274-0.908-0.2-1.035-0.473-0.126-1.152 0.132-1.515 0.577"/>
     <path d="m1334.94 154.937c-0.272 0.333-0.204 0.681 0.151 0.776 0.356 0.094 0.864-0.099 1.135-0.433 0.272-0.333 0.205-0.68-0.151-0.776-0.355-0.094-0.863 0.099-1.135 0.433"/>
     <path d="m1340.002 154.665c-0.204 0.25-0.152 0.51 0.115 0.581 0.266 0.072 0.647-0.074 0.85-0.324 0.204-0.25 0.152-0.51-0.114-0.582-0.267-0.071-0.648 0.074-0.851 0.325"/>
     <path d="m1344.758 154.954c-0.152 0.188-0.113 0.383 0.087 0.437 0.2 0.053 0.486-0.056 0.638-0.243 0.152-0.188 0.113-0.384-0.088-0.437-0.2-0.053-0.485 0.056-0.637 0.243"/>
     <path d="m1349.068 155.776c0.137-0.169 0.395-0.267 0.575-0.219 0.181 0.048 0.216 0.225 0.079 0.394-0.136 0.169-0.394 0.268-0.575 0.219-0.181-0.048-0.216-0.225-0.079-0.394"/>
     <path d="m1310.547 158.613c1.173-0.687 2.519-0.678 3.007 0.021s-0.066 1.823-1.239 2.511c-1.174 0.687-2.522 0.678-3.011-0.021-0.488-0.699 0.069-1.823 1.243-2.511"/>
     <path d="m1305.291 162.075c1.138-0.665 2.442-0.656 2.915 0.021 0.472 0.676-0.066 1.764-1.203 2.429-1.139 0.666-2.446 0.657-2.919-0.02-0.473-0.676 0.069-1.764 1.207-2.43"/>
     <path d="m1300.459 165.955c1.08-0.631 2.319-0.622 2.767 0.019 0.448 0.64-0.063 1.671-1.144 2.301-1.081 0.631-2.321 0.622-2.77-0.019-0.448-0.64 0.066-1.671 1.147-2.301"/>
     <path d="m1296.193 170.208c0.975-0.567 2.092-0.559 2.496 0.017 0.404 0.577-0.057 1.505-1.032 2.072s-2.093 0.56-2.498-0.017c-0.404-0.577 0.06-1.505 1.034-2.072"/>
     <path d="m1292.536 174.682c0.879-0.511 1.887-0.504 2.251 0.015 0.365 0.519-0.051 1.354-0.93 1.865-0.879 0.51-1.888 0.503-2.252-0.016-0.365-0.519 0.052-1.354 0.931-1.864"/>
     <path d="m1289.566 179.287c0.793-0.459 1.701-0.454 2.031 0.014 0.329 0.467-0.046 1.218-0.839 1.678-0.792 0.459-1.702 0.453-2.031-0.014-0.33-0.467 0.047-1.218 0.839-1.678"/>
     <path d="m1287.344 183.933c0.715-0.413 1.534-0.408 1.832 0.013 0.297 0.42-0.04 1.096-0.754 1.51-0.715 0.413-1.535 0.408-1.833-0.013-0.297-0.42 0.041-1.096 0.755-1.51"/>
     <path d="m1285.929 188.53c0.644-0.373 1.384-0.367 1.653 0.011 0.268 0.378-0.035 0.987-0.679 1.359s-1.384 0.367-1.653-0.011 0.036-0.987 0.679-1.359"/>
     <path d="m1285.43 193.088c0.483-0.279 1.039-0.275 1.242 8e-3 0.202 0.285-0.025 0.741-0.509 1.02-0.483 0.279-1.039 0.275-1.242-8e-3 -0.202-0.284 0.026-0.741 0.509-1.02"/>
     <path d="m1285.768 197.381c0.362-0.21 0.78-0.207 0.933 6e-3 0.152 0.213-0.018 0.555-0.381 0.764-0.363 0.21-0.78 0.207-0.933-6e-3s0.018-0.555 0.381-0.764"/>
     <path d="m1286.954 201.329c0.272-0.157 0.586-0.155 0.701 5e-3 0.115 0.159-0.012 0.416-0.285 0.573-0.272 0.157-0.586 0.155-0.701-5e-3 -0.115-0.159 0.012-0.416 0.285-0.573"/>
     <path d="m1288.916 204.795c0.258-0.149 0.557-0.147 0.667 5e-3 0.11 0.151-0.01 0.395-0.269 0.545-0.259 0.149-0.558 0.147-0.668-5e-3s0.011-0.395 0.27-0.545"/>
     <path d="m1316.166 155.7c-1.132 0.666-1.668 1.754-1.195 2.429 0.473 0.676 1.777 0.685 2.91 0.019s1.666-1.754 1.192-2.43c-0.473-0.676-1.774-0.684-2.907-0.018"/>
     <path d="m1322.01 153.32c-1.071 0.632-1.576 1.662-1.127 2.302 0.449 0.641 1.683 0.648 2.754 0.018 1.07-0.631 1.573-1.662 1.124-2.302-0.45-0.64-1.68-0.648-2.751-0.018"/>
     <path d="m1327.975 151.577c-0.961 0.568-1.413 1.495-1.009 2.071 0.406 0.577 1.514 0.584 2.476 0.016 0.962-0.567 1.412-1.495 1.007-2.071-0.405-0.577-1.512-0.583-2.474-0.016"/>
     <path d="m1333.897 150.436c-0.863 0.511-1.268 1.345-0.902 1.864 0.365 0.519 1.362 0.525 2.226 0.014s1.267-1.345 0.901-1.864c-0.365-0.519-1.361-0.525-2.225-0.014"/>
     <path d="m1339.663 149.921c-0.776 0.46-1.138 1.211-0.808 1.678s1.227 0.472 2.003 0.012c0.776-0.459 1.137-1.211 0.807-1.678-0.33-0.466-1.226-0.472-2.002-0.012"/>
     <path d="m1345.164 150.041c-0.697 0.413-1.021 1.089-0.723 1.51 0.299 0.42 1.106 0.425 1.803 0.011s1.021-1.09 0.722-1.51c-0.298-0.42-1.105-0.425-1.802-0.011"/>
     <path d="m1350.296 150.801c-0.627 0.372-0.917 0.981-0.648 1.359 0.27 0.378 0.997 0.383 1.624 0.01 0.626-0.372 0.916-0.981 0.646-1.359s-0.996-0.383-1.622-0.01"/>
     <path d="m1355.033 152.291c-0.47 0.279-0.686 0.736-0.483 1.02 0.203 0.283 0.749 0.287 1.218 7e-3 0.469-0.279 0.685-0.735 0.482-1.019-0.203-0.283-0.748-0.287-1.217-8e-3"/>
     <path d="m1359.187 154.349c-0.353 0.209-0.514 0.551-0.361 0.764 0.154 0.213 0.563 0.215 0.915 6e-3 0.351-0.21 0.512-0.552 0.359-0.765s-0.562-0.215-0.913-5e-3"/>
     <path d="m1362.678 156.947c-0.263 0.157-0.384 0.414-0.268 0.573 0.115 0.16 0.423 0.162 0.686 5e-3 0.264-0.157 0.384-0.414 0.269-0.573-0.115-0.16-0.423-0.162-0.687-5e-3"/>
     <path d="m1365.394 159.943c0.237-0.141 0.515-0.14 0.62 5e-3 0.105 0.144 0 0.376-0.242 0.517-0.238 0.142-0.516 0.14-0.62-4e-3 -0.105-0.144 0-0.376 0.242-0.518"/>
     <path d="m1332.347 145.489c1.44-0.312 2.491 0.311 2.35 1.392s-1.424 2.211-2.866 2.523c-1.442 0.313-2.496-0.31-2.352-1.392 0.143-1.081 1.428-2.21 2.868-2.523"/>
     <path d="m1325.619 147.357c1.395-0.302 2.412 0.301 2.272 1.347-0.139 1.046-1.384 2.14-2.782 2.442-1.397 0.302-2.416-0.301-2.275-1.347 0.142-1.046 1.389-2.14 2.785-2.442"/>
     <path d="m1318.895 149.94c1.324-0.286 2.288 0.285 2.153 1.276-0.134 0.991-1.318 2.027-2.643 2.313-1.327 0.287-2.292-0.285-2.156-1.276 0.137-0.991 1.322-2.026 2.646-2.313"/>
     <path d="m1312.324 153.245c1.194-0.258 2.061 0.256 1.939 1.148-0.123 0.893-1.191 1.824-2.387 2.082s-2.065-0.256-1.941-1.148c0.125-0.892 1.194-1.825 2.389-2.082"/>
     <path d="m1306.05 157.099c1.077-0.232 1.859 0.231 1.747 1.034-0.112 0.802-1.076 1.642-2.155 1.873-1.078 0.232-1.861-0.23-1.748-1.033s1.079-1.642 2.156-1.874"/>
     <path d="m1300.199 161.427c0.972-0.209 1.677 0.208 1.575 0.93-0.101 0.722-0.972 1.477-1.944 1.686-0.973 0.209-1.679-0.207-1.576-0.93 0.102-0.723 0.974-1.477 1.945-1.686"/>
     <path d="m1294.887 166.142c0.877-0.188 1.513 0.187 1.421 0.838-0.092 0.65-0.878 1.329-1.755 1.517-0.878 0.188-1.514-0.187-1.421-0.837 0.092-0.651 0.878-1.33 1.755-1.518"/>
     <path d="m1290.229 171.158c0.791-0.169 1.365 0.168 1.281 0.753-0.082 0.586-0.791 1.197-1.582 1.366-0.792 0.17-1.366-0.168-1.282-0.753 0.083-0.585 0.792-1.197 1.583-1.366"/>
     <path d="m1286.302 176.535c0.595-0.127 1.026 0.126 0.964 0.565s-0.595 0.897-1.19 1.024-1.027-0.126-0.964-0.565c0.062-0.439 0.596-0.898 1.19-1.024"/>
     <path d="m1283.224 181.954c0.447-0.095 0.772 0.095 0.726 0.424-0.047 0.329-0.447 0.673-0.894 0.768-0.448 0.095-0.773-0.095-0.726-0.424s0.447-0.673 0.894-0.768"/>
     <path d="m1281.07 187.325c0.336-0.071 0.58 0.071 0.546 0.318-0.035 0.247-0.335 0.505-0.672 0.577-0.336 0.071-0.58-0.072-0.545-0.318 0.034-0.247 0.335-0.505 0.671-0.577"/>
     <path d="m1279.893 192.442c0.32-0.068 0.553 0.067 0.521 0.302-0.033 0.234-0.319 0.479-0.638 0.547-0.321 0.068-0.554-0.067-0.521-0.302 0.032-0.234 0.318-0.479 0.638-0.547"/>
     <path d="m1338.967 144.458c-1.391 0.303-2.63 1.397-2.765 2.443s0.886 1.648 2.28 1.345c1.394-0.302 2.631-1.396 2.764-2.442s-0.887-1.649-2.279-1.346"/>
     <path d="m1345.36 144.196c-1.318 0.287-2.488 1.323-2.612 2.314-0.125 0.991 0.844 1.562 2.164 1.275 1.319-0.288 2.488-1.324 2.61-2.315 0.123-0.991-0.845-1.561-2.162-1.274"/>
     <path d="m1351.382 144.774c-1.185 0.258-2.235 1.191-2.344 2.083-0.11 0.891 0.765 1.405 1.952 1.147 1.186-0.259 2.235-1.191 2.343-2.083 0.107-0.892-0.765-1.405-1.951-1.147"/>
     <path d="m1356.934 146.075c-1.067 0.233-2.01 1.072-2.106 1.875s0.693 1.265 1.761 1.032c1.068-0.232 2.01-1.072 2.104-1.874 0.095-0.803-0.693-1.265-1.759-1.033"/>
     <path d="m1361.908 148.075c-0.961 0.209-1.807 0.965-1.891 1.687-0.084 0.723 0.628 1.138 1.589 0.929s1.807-0.964 1.89-1.687c0.083-0.722-0.628-1.138-1.588-0.929"/>
     <path d="m1366.214 150.733c-0.865 0.188-1.625 0.868-1.698 1.518-0.074 0.65 0.569 1.024 1.434 0.836 0.866-0.188 1.626-0.868 1.698-1.518 0.073-0.65-0.569-1.025-1.434-0.836"/>
     <path d="m1369.764 154.004c-0.78 0.17-1.463 0.782-1.528 1.367-0.063 0.585 0.517 0.922 1.296 0.752 0.78-0.169 1.463-0.781 1.527-1.366s-0.517-0.922-1.295-0.753"/>
     <path d="m1374.714 162.235c0.303 0.136 0.306 0.491 0.01 0.794-0.299 0.302-0.789 0.437-1.092 0.302-0.303-0.136-0.305-0.491 0-0.794 0.301-0.302 0.789-0.437 1.092-0.302"/>
     <path d="m1372.951 157.84c0.477 0.128 0.575 0.593 0.219 1.038-0.356 0.446-1.032 0.702-1.509 0.574s-0.574-0.593-0.218-1.038c0.357-0.445 1.032-0.702 1.508-0.574"/>
     <path d="m1375.185 167.177c0.298-0.064 0.521 0.064 0.498 0.287s-0.283 0.455-0.581 0.52c-0.298 0.064-0.521-0.064-0.498-0.287s0.283-0.456 0.581-0.52"/>
    </g>
   </g>
  </g>
 </g>
</svg>