<?xml version="1.0" encoding="utf-8"?>
<!-- Generator: Adobe Illustrator 19.2.1, SVG Export Plug-In . SVG Version: 6.00 Build 0)  -->
<svg version="1.1" id="layer" xmlns="http://www.w3.org/2000/svg" xmlns:xlink="http://www.w3.org/1999/xlink" x="0px" y="0px"
	 viewBox="0 0 652 652" style="enable-background:new 0 0 652 652;" xml:space="preserve">
<style type="text/css">
	.st0{fill:#1A1A1A;}
</style>
<g>
	<path class="st0" d="M456.4,308.2c-0.1-10-1.5-21.3-11.2-31.1s-21.1-11.1-31.1-11.2c-8.7-0.1-17.8-0.1-26.5,0
		c-10,0.1-21.4,1.5-31.1,11.2s-11.1,21.1-11.2,31.1c-0.1,8.7-0.1,17.8,0,26.5c0.1,10,1.5,21.3,11.2,31.1s21.1,11.1,31.1,11.2
		c8.7,0.1,17.8,0.1,26.5,0c10-0.1,21.4-1.5,31.1-11.2s11.1-21.1,11.2-31.1C456.5,326,456.5,317,456.4,308.2z M442.5,336.2
		c-0.1,6.4-0.9,13.6-7.2,19.8c-6.2,6.2-13.4,7.1-19.8,7.2c-9.7,0.1-19.7,0.1-29.4,0c-6.4-0.1-13.6-0.9-19.8-7.2s-7.1-13.4-7.2-19.8
		c-0.1-9.7-0.1-19.7,0-29.4c0.1-6.4,0.9-13.6,7.2-19.8s13.4-7.1,19.8-7.2c9.7-0.1,19.7-0.1,29.4,0c6.4,0.1,13.6,0.9,19.8,7.2
		c6.2,6.2,7.2,13.4,7.2,19.8C442.6,316.5,442.6,326.5,442.5,336.2z M296.7,308.2c-0.1-10-1.5-21.3-11.2-31.1
		c-9.8-9.8-21.1-11.1-31.1-11.2c-8.7-0.1-17.8-0.1-26.5,0c-10,0.1-21.3,1.5-31.1,11.2c-9.8,9.8-11.1,21.1-11.2,31.1
		c-0.1,8.7-0.1,17.8,0,26.5c0.1,10,1.5,21.3,11.2,31.1c9.8,9.8,21.1,11.1,31.1,11.2c8.7,0.1,17.8,0.1,26.5,0
		c10-0.1,21.3-1.5,31.1-11.2s11.2-21.1,11.2-31.1C296.8,326,296.8,317,296.7,308.2z M282.9,336.2c-0.1,6.4-0.9,13.6-7.2,19.8
		s-13.4,7.1-19.9,7.2c-9.7,0.1-19.7,0.1-29.4,0c-6.4-0.1-13.6-0.9-19.8-7.2c-6.2-6.2-7.1-13.4-7.2-19.8c-0.1-9.7-0.1-19.7,0-29.4
		c0.1-6.4,1-13.6,7.2-19.8c6.2-6.2,13.4-7.1,19.8-7.2c9.7-0.1,19.7-0.1,29.4,0c6.4,0.1,13.6,0.9,19.9,7.2c6.2,6.2,7.1,13.4,7.2,19.8
		C283,316.5,283,326.5,282.9,336.2z M118.2,280.7L24,354c-1.8,1.5-2.9,3.7-3,6v9.3c0.1,4.3,3.6,7.7,7.8,7.8h101.5
		c1.1,0,1.9-0.9,1.9-1.9v-10.1c0-1.1-0.9-1.9-1.9-1.9H35.2c-0.2,0-0.3-0.1-0.3-0.3v-0.2c0-0.2,0.1-0.3,0.2-0.4l94.2-73.2
		c1.8-1.5,2.9-3.7,3-6v-9.4c-0.1-4.3-3.6-7.7-7.8-7.8H22.9c-1.1,0-1.9,0.9-1.9,1.9v10c0,1.1,0.9,1.9,1.9,1.9h95.1 M526.8,375.9
		L565,332c0.1-0.1,0.2-0.1,0.3-0.1c0.1,0,0.2,0.1,0.3,0.1l38.3,43.8c0.7,0.8,1.7,1.2,2.8,1.3h12.4c0.6,0.1,1.2-0.3,1.5-0.9
		s0.1-1.3-0.3-1.7l-45.9-52.6c-0.1-0.2-0.1-0.4,0-0.6l46.1-52.8c0.5-0.4,0.6-1.1,0.3-1.7s-0.9-1-1.5-0.9h-12.4c-1.1,0-2,0.5-2.8,1.3
		l-38.5,44.1c-0.1,0.1-0.2,0.1-0.3,0.1c-0.1,0-0.2-0.1-0.3-0.1l-38.5-44.1c-0.7-0.8-1.7-1.2-2.8-1.3h-12.4c-0.6-0.1-1.2,0.3-1.5,0.9
		c-0.3,0.6-0.1,1.3,0.3,1.7l46.1,52.8c0.2,0.2,0.2,0.4,0,0.6l-45.9,52.6c-0.5,0.4-0.6,1.1-0.3,1.7c0.3,0.6,0.9,1,1.5,0.9H524
		C525,377.1,526,376.6,526.8,375.9L526.8,375.9z"/>
</g>
</svg>
