<?xml version="1.0" encoding="utf-8"?>
<!-- Generator: Adobe Illustrator 19.0.0, SVG Export Plug-In . SVG Version: 6.00 Build 0)  -->
<svg version="1.1" id="Layer_1" xmlns="http://www.w3.org/2000/svg" xmlns:xlink="http://www.w3.org/1999/xlink" x="0px" y="0px"
	 viewBox="0 0 500 500" style="enable-background:new 0 0 500 500;" xml:space="preserve">
<style type="text/css">
	.st0{fill:#00EB00;}
</style>
<g id="XMLID_1_">
	<path id="XMLID_5_" class="st0" d="M328.4,77c-27.7,0-48.3,8.9-65.7,23.9c-23.1,19.9-29.4,49.5-29.4,83.1v117.4
		c0,19.6-1,23.8-1,33.4c0,14.7,9.6,21.8,20.3,21.8c10.7,0,20.4-6.9,20.4-21.8c0-10.7-1-15.5-1-33.4V184.1c0-24.3,2.6-42.4,15.4-54.2
		c10.6-9.7,23.4-15.5,40.9-15.5c34.4,0,61,25.3,61,58.1c0,39.1-28.4,58.3-60.1,58.3c-10.2,0-9.5-0.5-17.7-0.5
		c-11.6,0-20.6,8-20.6,19.7c0,12.6,9,20.2,20.6,20.2c6,0,8.8-1,18.7-1c38.8,0,63,22.7,63,59.3c0,34.5-26.3,57.1-59,57.1
		c-19.1,0-31-6.3-40.1-13.1c-4-3-8.4-4.7-13.2-4.7c-10.3,0-17.7,7.6-17.7,18.2c0,7.1,4.7,14.3,10,18.4
		c13.7,10.5,35.5,18.7,61.1,18.7c52.2,0,98.3-38,98.3-95.5c0-42.8-22.8-68.2-42.9-78.2c23.5-15,38.6-43.1,38.6-77.3
		C428.2,117.8,385.3,77,328.4,77z M168.7,78c-57.6,0-99.3,40.3-99.3,94.5c0,39.1,15.7,62.6,38,77.3C82,266.2,67.5,293.6,67.5,328
		c0,56.3,40.5,95,99.8,95c27.7,0,49.8-8.7,63.5-19.2c5.2-4,9.9-11.3,9.9-18.4c0-10.5-7.3-18.2-17.6-18.2c-3.7,0-8.3,1.3-13.3,4.8
		c-11,7.6-25.2,13.5-42.5,13.5c-38.6,0-60.5-23.1-60.5-57.6c0-36.9,28.2-59.3,63.5-59.3c11.8,0,15.9,1.5,24.2,1.5
		c11.7,0,20.2-8.5,20.2-20.2c0-11.7-8.5-19.7-20.2-19.7c-8.3,0-14.5,1-24.2,1c-37.4,0-61.5-24.3-61.5-58.8c0-32.7,25.6-57.1,60-57.1
		c12.6,0,22.4,3.6,31.9,8.7c4.1,2.2,8.7,3.7,12.5,3.7c10.5,0,18.5-8,18.5-18.6c0-7.1-4.4-13.4-9.9-16.9
		C208.2,83.7,190.5,78,168.7,78z"/>
</g>
</svg>
