<?xml version="1.0" encoding="UTF-8"?>
<svg xmlns="http://www.w3.org/2000/svg" xmlns:xlink="http://www.w3.org/1999/xlink" width="3200" height="3200" viewBox="0 0 3200 3200">
<path fill-rule="nonzero" fill="rgb(0%, 72.459412%, 94.921875%)" fill-opacity="1" d="M 2533.710938 1600 C 2533.710938 2115.671875 2115.679688 2533.710938 1600 2533.710938 C 1352.359375 2533.710938 1114.871094 2435.339844 939.765625 2260.234375 C 764.660156 2085.128906 666.289062 1847.640625 666.289062 1600 C 666.289062 1352.359375 764.660156 1114.871094 939.765625 939.769531 C 1114.871094 764.660156 1352.359375 666.289062 1600 666.289062 C 2115.679688 666.289062 2533.710938 1084.328125 2533.710938 1600 "/>
<path fill-rule="nonzero" fill="rgb(100%, 100%, 100%)" fill-opacity="1" d="M 1765.890625 961.390625 L 1234.371094 1064.519531 L 1234.371094 2119.609375 L 1765.890625 2238.609375 L 1765.890625 2155.25 L 1937.859375 2155.25 C 1953.191406 2155.25 1965.628906 2142.808594 1965.628906 2127.480469 L 1965.628906 1072.519531 C 1965.621094 1057.191406 1953.191406 1044.761719 1937.859375 1044.75 L 1765.890625 1044.75 Z M 1765.890625 1100.289062 L 1910.089844 1100.289062 L 1910.089844 2099.71875 L 1765.890625 2099.71875 Z M 1680.140625 1528.910156 C 1708.300781 1528.910156 1731.128906 1551.738281 1731.128906 1579.890625 C 1731.128906 1608.050781 1708.300781 1630.878906 1680.140625 1630.878906 C 1651.988281 1630.878906 1629.160156 1608.050781 1629.160156 1579.890625 C 1629.160156 1551.738281 1651.988281 1528.910156 1680.140625 1528.910156 "/>
<path fill-rule="nonzero" fill="rgb(0%, 62.304688%, 64.256287%)" fill-opacity="1" d="M 1965.628906 1072.519531 L 1965.628906 2127.480469 C 1965.628906 2142.808594 1953.191406 2155.238281 1937.859375 2155.25 L 1765.890625 2155.25 L 1765.890625 2238.609375 L 1234.371094 2119.609375 L 1646.25 2532.074219 C 2132.101562 2507.476562 2517.648438 2113.96875 2532.328125 1627.71875 L 1965.628906 1072.519531 "/>
</svg>
