<svg data-name="Layer 1" id="Layer_1" preserveaspectratio="xMinYMid meet" viewBox="0 0 263.47 72.85" xmlns="http://www.w3.org/2000/svg" xmlns:xlink="http://www.w3.org/1999/xlink"><defs><style>.cls-1{fill:#54585b;}.cls-2{fill:#f78f2c;}.cls-3{fill:#d6522b;}.cls-4{fill:url(#linear-gradient);}</style><linearGradient gradientTransform="matrix(1, 0, 0, -1, -250, 348.57)" gradientUnits="userSpaceOnUse" id="linear-gradient" x1="288.25" x2="322.6" y1="318.86" y2="318.86"><stop offset="0" stop-color="#f78f2c"></stop><stop offset="0.13" stop-color="#f78f2c" stop-opacity="0.79"></stop><stop offset="0.3" stop-color="#f78f2c" stop-opacity="0.55"></stop><stop offset="0.46" stop-color="#f78f2c" stop-opacity="0.36"></stop><stop offset="0.62" stop-color="#f78f2c" stop-opacity="0.2"></stop><stop offset="0.76" stop-color="#f78f2c" stop-opacity="0.09"></stop><stop offset="0.88" stop-color="#f78f2c" stop-opacity="0.02"></stop><stop offset="0.97" stop-color="#f78f2c" stop-opacity="0"></stop></linearGradient></defs><title>jama-logo-primary</title><g id="Jama-logo-primary-gradient-lightbg-w"><path class="cls-1" d="M87.68,70a23.51,23.51,0,0,0,5.35.71c4,0,7.35-1,7.35-4.57,0-5.93-12.73-4.05-12.73-11.81,0-4.21,3.49-6.24,8.47-6.24a27.11,27.11,0,0,1,5.38.66l-.15,2.13a21.94,21.94,0,0,0-5.28-.71c-2.85,0-6,.6-6,4,0,5.79,12.73,4.27,12.73,11.57,0,5.23-4.41,7-9.38,7a32,32,0,0,1-5.78-.61ZM118,48.13c7.35,0,11.11,5,11.11,12.37S125.31,72.83,118,72.83s-11.06-5-11.06-12.33S110.65,48.13,118,48.13ZM118,70.8c5,0,8.67-3.13,8.67-10.3S123,50.21,118,50.21s-8.73,3.13-8.73,10.29S113,70.8,118,70.8Zm32.81-22.07V42.24l2-.35h.2v6.84h7.72v2h-7.67V67.71c0,2.94,1.88,3.09,3.4,3.09a12.81,12.81,0,0,0,3.3-.61l.2,2a17.36,17.36,0,0,1-4.18.66c-2.79,0-5-.66-5-6.34V48.72Zm34.88,24-6.44-21.46-6.45,21.46H170l-6.27-24h2.43l5.38,21.43,6.39-21.43h2.84l6.39,21.43h.1l5.38-21.43H195l-6.33,24Zm20-13.09,7.51-1V56.49c0-4.82-2.61-6.28-6.14-6.28a19.73,19.73,0,0,0-6.74,1.43l-.26-2.14a24.63,24.63,0,0,1,7.36-1.37c4.41,0,8,2,8,8.37V72.17l-1.82.36h-.36V69.34h-.05c-2.54,1.93-5,3.35-8.27,3.35a6,6,0,0,1-6.27-6.34c0-3.15,1.95-6,7-6.76Zm-.05,11.11c2.38,0,5-1.32,7.55-3.3v-7L206,61.45c-3.35.52-4.92,2.28-4.92,4.77a4.31,4.31,0,0,0,4.62,4.48Zm16.72,1.52V48.79l1.77-.46h.31l.1,4.7c2.28-3.6,5-4.51,8-4.51.25,0,.53,0,.81,0v.71l0,1.52h-.53c-3.09,0-5.68.91-8.16,5.07V72.21Zm15.16-11.5c0,6.5,3.13,10,9.43,10a17.08,17.08,0,0,0,6.9-1.48v2.24a23.05,23.05,0,0,1-7.36,1.32c-7.1,0-11.41-4.11-11.41-12.58,0-7.1,4.26-12.13,10.55-12.13s9,4.42,9,9.41a19.46,19.46,0,0,1-.25,3.14Zm0-2h14.57c0-.25.06-.6.06-1,0-4.26-1.88-7.56-6.65-7.56-4,0-7.46,2.88-8,8.51ZM137.93,44.53c0-5.48,3.51-7.51,6.9-7.51.48,0,.95,0,1.43.07L146.6,35c-.52,0-1.1-.08-1.77-.08-4.61,0-9.33,2.94-9.13,10v3.81l-3.13.46V50.7h3.13V72.21h2.23V50.72h8.32v-2h-8.32ZM124.72,23.94a.94.94,0,0,1-.81.92l-4.29.56a.42.42,0,0,1-.47-.37.13.13,0,0,1,0-.06V22.27H119a12.4,12.4,0,0,1-7.92,3.09,6.46,6.46,0,0,1-6.49-6.84c0-5.94,5.27-6.8,8.93-7.32l5.22-.71V9.27C118.73,6,117.42,5,114.37,5a24.5,24.5,0,0,0-6.79,1.23.93.93,0,0,1-1.17-.59,1.42,1.42,0,0,1,0-.2l-.3-2.89a.9.9,0,0,1,.62-1A29.76,29.76,0,0,1,115.12.19c5.83,0,9.58,2.33,9.58,9.29Zm-6-9.73-4.92.78c-1.47.2-3,.81-3,3a2.63,2.63,0,0,0,2.74,2.83,9.77,9.77,0,0,0,5.22-2.18Zm74.52,9.73a.94.94,0,0,1-.81.92l-4.3.58a.43.43,0,0,1-.48-.37V22.3h-.15a12.43,12.43,0,0,1-7.92,3.09,6.46,6.46,0,0,1-6.49-6.85c0-5.93,5.27-6.79,8.93-7.31l5.22-.71V9.3c0-3.25-1.32-4.31-4.36-4.31a24.86,24.86,0,0,0-6.79,1.22.91.91,0,0,1-1.16-.58.73.73,0,0,1-.05-.2l-.3-2.89a.93.93,0,0,1,.63-1A30,30,0,0,1,183.64.22c5.84,0,9.59,2.33,9.59,9.28Zm-6-9.73-4.92.78c-1.47.2-3,.81-3,3A2.63,2.63,0,0,0,182,20.87a9.77,9.77,0,0,0,5.22-2.18Zm-19-5.94V24a.93.93,0,0,1-.92.93h-4.14a.93.93,0,0,1-.92-.93V9.69c0-3.4-1.22-4.47-3.2-4.47a13,13,0,0,0-6.34,2.44V24a.93.93,0,0,1-.93.93h-4.13a.93.93,0,0,1-.92-.93V9.69c0-3.4-1.22-4.47-3.2-4.47a12.84,12.84,0,0,0-6.34,2.39V24a.93.93,0,0,1-.93.93h-4.18a.93.93,0,0,1-.92-.93V1.76A.92.92,0,0,1,132,.84l3.89-.61a.6.6,0,0,1,.68.5v0l.33,2.56c2.68-1.77,5.63-3.09,8.21-3.09,2.79,0,5.33,1,6.6,3.66l.71-.46C155.06,1.65,158,.23,160.59.23,165.46.2,168.24,3.6,168.24,8.27ZM88.93,33.8a.77.77,0,0,0,.89.44c8.72-2.18,10-7.09,10-12.59V1a.77.77,0,0,0-.77-.76H99L94.73.76a.77.77,0,0,0-.67.76V22c0,3.58-.53,6.13-6,7.94a.76.76,0,0,0-.48,1l0,.08Zm172,18.74h.63l-.76-1.32.06,0a1.17,1.17,0,0,0,.49-.89c0-.58-.43-.92-1.16-.92H259v3.17h.52V51.35h.67Zm-1.33-2.77h.61a.53.53,0,0,1,.56.48v0a.75.75,0,0,1-.25.6l0,0h-.9Zm.53-2a3.27,3.27,0,1,0-.27,6.53h.27a3.27,3.27,0,0,0,.26-6.53Zm0,6a2.71,2.71,0,1,1,2.7-2.72h0a2.67,2.67,0,0,1-2.63,2.72h-.07Z"></path><path class="cls-2" d="M0,59a.56.56,0,0,0,.65.44l.07,0C17.15,50,27.24,44.75,31.41,35.2A33.29,33.29,0,0,0,34.3,20.74V.57A.58.58,0,0,0,33.73,0a.55.55,0,0,0-.29.08l-1.74,1a.55.55,0,0,0-.28.49V20.75A32.32,32.32,0,0,1,28.83,34C24.92,43,14.72,47.86.57,56.12a1.12,1.12,0,0,0-.57.94Z"></path><path class="cls-2" d="M19.38,8.47a.64.64,0,0,0-.33.58L19,19.77c.1,12.3-8.36,16.23-18.43,22a1.09,1.09,0,0,0-.52,1v2a.39.39,0,0,0,.38.39.41.41,0,0,0,.19-.05C13,38.07,22,34.05,21.9,18.87L22,7.63a.39.39,0,0,0-.39-.38.46.46,0,0,0-.2,0Z"></path><path class="cls-2" d="M0,51.91v-2a1.1,1.1,0,0,1,.55-1c13.86-7.9,20-11.22,23-19.16,1.78-4.83,1.79-8.12,1.67-24.36a.69.69,0,0,1,.33-.6l2-1.19a.39.39,0,0,1,.53.13.46.46,0,0,1,.05.2c0,16.66.42,20.66-1.85,26.83C22.64,40.48,14.39,44.3.57,52.25a.39.39,0,0,1-.52-.15A.45.45,0,0,1,0,51.91Z"></path><path class="cls-3" d="M70.23,64,56,72.1a.67.67,0,0,1-.67,0l-8.52-4.85c-7.7-4.42-14.07-3.87-20.82,0l-8.52,4.87a.72.72,0,0,1-.67,0L2.57,64.06a.58.58,0,0,1-.22-.78.77.77,0,0,1,.22-.22c18.6-10.58,24-14.88,33.8-14.81h0c9.82-.06,15.68,4.43,33.85,14.81a.59.59,0,0,1,0,1Z"></path><path class="cls-3" d="M72.58,42.78a1.12,1.12,0,0,0-.53-1C65.68,38.1,60,35.2,56.63,30.43c-3.59-5.14-3-9.3-3.08-21.45a.69.69,0,0,0-.33-.59L39.17.08a.57.57,0,0,0-.78.19.53.53,0,0,0-.09.3c0,23.2-.66,26.51,2.89,34.63C45.37,44.74,55.46,50,71.88,59.38a.56.56,0,0,0,.71-.36s0,0,0-.06Z"></path><path class="cls-4" d="M72.58,42.78a1.12,1.12,0,0,0-.53-1C65.68,38.1,60,35.2,56.63,30.43c-3.59-5.14-3-9.3-3.08-21.45a.69.69,0,0,0-.33-.59L39.17.08a.57.57,0,0,0-.78.19.53.53,0,0,0-.09.3c0,23.2-.66,26.51,2.89,34.63C45.37,44.74,55.46,50,71.88,59.38a.56.56,0,0,0,.71-.36s0,0,0-.06Z"></path></g></svg>