<?xml version="1.0" encoding="utf-8"?>
<!-- Generator: Adobe Illustrator 19.0.0, SVG Export Plug-In . SVG Version: 6.00 Build 0)  -->
<svg version="1.1" id="layer" xmlns="http://www.w3.org/2000/svg" xmlns:xlink="http://www.w3.org/1999/xlink" x="0px" y="0px"
	 viewBox="-153 -46 652 652" style="enable-background:new -153 -46 652 652;" xml:space="preserve">
<style type="text/css">
	.st0{clip-path:url(#SVGID_2_);fill:url(#SVGID_3_);}
	.st1{fill:#00499D;}
</style>
<g>
	<defs>
		<path id="SVGID_1_" d="M-126.9,268.6l0.5,4.4l104.9,0.5v-5.4L-126.9,268.6z M9.4,268l0.1,5.7l140.6,0.6l4.3-6.9L9.4,268z"/>
	</defs>
	<clipPath id="SVGID_2_">
		<use xlink:href="#SVGID_1_"  style="overflow:visible;"/>
	</clipPath>
	
		<linearGradient id="SVGID_3_" gradientUnits="userSpaceOnUse" x1="-131.7605" y1="707.2019" x2="-125.9528" y2="707.2019" gradientTransform="matrix(48.4383 0 0 -48.4383 6255.3311 34526.457)">
		<stop  offset="0" style="stop-color:#FFFFFF"/>
		<stop  offset="0.6" style="stop-color:#00499D"/>
		<stop  offset="1" style="stop-color:#00499D"/>
	</linearGradient>
	<rect x="-126.9" y="267.3" class="st0" width="281.3" height="6.9"/>
</g>
<path class="st1" d="M319.8,275c-0.7-2.7-1.1-5.5-1.4-8.4l139.8-0.6c-0.4,2.9-0.6,7.5-0.8,13.8c-0.2,6.3-0.3,14.6-0.3,24.9
	c0,2.5,0,5.1,0.1,7.7c0.1,2.6,0.1,5.2,0.1,7.7c-3.7,1-8.4,2.1-14,3.1c-5.6,1.1-11.5,2-17.8,2.7c-6.3,0.7-12.6,1.3-18.9,1.9
	c-6.3,0.6-12,0.9-17.2,0.9c-15.8,0-30-1.4-42.7-4.1c-12.7-2.7-23.5-7-32.3-12.7s-15.7-12.9-20.5-21.4c-4.8-8.5-7.2-18.4-7.2-29.6
	c0-10.8,2.5-20.5,7.4-28.9c5-8.5,12-15.6,21-21.5c9-5.9,20-10.3,32.8-13.4c12.9-3.1,27.1-4.6,42.7-4.6c9,0,17.1,0.4,24.1,1.1
	c7,0.7,13.2,1.6,18.6,2.8c5.4,1.1,10.2,2.4,14.2,3.6c4.1,1.3,7.7,2.5,10.9,3.6c-5.8,8.5-6.5,17-6.5,17c-1.9-1.6-2.9-2.3-2.9-2.3
	c-2.7-2.3-6-4.6-10-6.9c-4-2.3-8.4-4.3-13.3-6c-4.9-1.7-10.3-3.1-16.2-4.2c-5.9-1.1-12.3-1.6-19-1.6c-11,0-21.2,1.2-30.7,3.6
	c-9.5,2.4-17.7,6.1-24.7,11.2c-7,5-12.5,11.4-16.5,19.1c-4,7.7-6,16.8-6,27.4c0,9.3,1.8,17.7,5.3,25.2c3.5,7.5,8.7,13.8,15.6,19
	c6.8,5.2,15.2,9.1,25,11.9c9.8,2.8,21,4.2,33.4,4.2c3.7,0,7.6-0.1,11.7-0.4c4.1-0.3,8-0.6,11.8-1.1c3.8-0.5,7.4-1.1,10.6-1.9
	c3.3-0.8,6.1-1.6,8.4-2.7c0.2-3.8,0.3-7.6,0.4-11.5c0.1-3.8,0.1-7.7,0.1-11.6c0-4.5-0.1-8.9-0.4-13.4c-0.1-1.2-0.1-2.3-0.2-3.3
	L319.8,275 M227.5,261.6l23,0c-3.7-6.3-7.3-12.6-11-19c-5.1-8.8-10-17.5-14.9-26.1c-4.9-8.6-9.4-16.6-13.6-24h-5
	c-13.6,22.8-27.1,45.2-40.5,67.2c-13.4,22-27.2,44.2-41.3,66.4c3-0.3,6.2-0.4,9.7-0.4s6.7,0.1,9.7,0.4c2.3-5.8,5.7-13.3,10.2-22.2
	c4.5-9,14.5-27.2,20.1-37.1l28.5-48.5L227.5,261.6z M269,293c-2.5-4.2-5.1-8.6-7.8-13.2l-23.5,0.3c1.9,3.6,3.8,7,4.8,8.9
	c2.6,4.6,5.2,9.2,7.7,13.7c2.5,4.5,4.8,8.9,6.9,13c2.1,4.1,3.7,7.7,5,10.6c2.4-0.3,4.7-0.4,6.9-0.4h6.9h6.9c2.2,0,4.5,0.1,6.9,0.4
	c-2.3-3.1-5.2-7.5-8.8-13.4C277.4,307.1,273.4,300.4,269,293 M175.5,274.4l107.5,0.5c-0.5-2.6-0.8-5.3-1.1-8.1l-102.4,0.5
	L175.5,274.4z M93.7,278.9H72.2c0,7.9-0.2,15.7-0.6,23.4c-0.4,8.1-0.9,16.2-1.4,24.1c4-0.3,8.3-0.4,12.8-0.4s8.8,0.1,12.8,0.4
	c-0.5-7.9-1-15.9-1.4-24.1C93.9,294.6,93.7,286.8,93.7,278.9 M150.3,195.2c-11.5,0.3-22.7,0.5-33.7,0.7c-11,0.2-22.2,0.3-33.7,0.3
	s-22.7-0.1-33.7-0.3c-11-0.2-22.2-0.4-33.7-0.7c0.9,2.5,1.3,4.5,1.3,5.9c0,1.8-0.4,3.8-1.3,6.1c3.7-0.4,7.8-0.7,12.4-1
	c4.6-0.2,9.4-0.5,14.4-0.7c5-0.2,9.9-0.3,14.9-0.4c5-0.1,9.7-0.1,14.2-0.1c0.5,13.1,0.8,26.3,0.8,39.5v18.1h21.4v-18.1
	c0-13.2,0.3-26.4,0.8-39.5c4.5,0,9.3,0,14.2,0.1c5,0.1,9.9,0.2,14.9,0.4c5,0.2,9.8,0.4,14.4,0.7c4.6,0.3,8.8,0.6,12.4,1
	c-0.9-2.3-1.3-4.3-1.3-5.9C149,199.7,149.5,197.7,150.3,195.2 M4.6,300.5c-3.9,85.7-109.4,61.7-114.3,61.2V352
	c19.6,8.4,41.7,6,41.7,6c51.7-5.9,50.4-57.3,50.4-57.3h0v-56.1c0-8.4-0.2-16.6-0.7-24.7c-0.3-5.7-0.6-11.5-1-17.3
	c-34-0.2-60,2.6-60,2.6c1.4-5,0.2-10,0.2-10H6c-0.5,8.4-1,16.6-1.4,24.7c-0.4,8.1-0.7,16.3-0.7,24.7c0,5.7,0,11.6,0.1,17.8
	c0.1,6.1,0.2,12.1,0.3,18C4.4,286.3,4.5,295.1,4.6,300.5 M70.6,341.9h10v21.2h6.2v-21.2h10.1v-5H70.6V341.9z M110.4,351.9h10.1v-4.8
	h-10.1v-5.4h17.3v-4.8h-23.5v26.2H128v-5.2h-17.5V351.9z M155.7,336.9h-13.1c-4.5,0-6,1.4-6,5.7v14.8c0,4.3,1.4,5.7,6,5.7h13.1
	c4.5,0,6-1.4,6-5.7v-3.5h-6.2v4h-12.7v-16.1h12.7v3.4h6.2v-2.7C161.7,338.3,160.2,336.9,155.7,336.9 M192.8,347H178v-10.1h-6.2v26.2
	h6.2v-11.1h14.8v11.1h6.2v-26.2h-6.2V347z M266.8,336.9c4.5,0,6,1.4,6,5.7v14.8c0,4.3-1.4,5.7-6,5.7h-16.1c-4.5,0-6-1.4-6-5.7v-14.8
	c0-4.3,1.5-5.7,6-5.7H266.8 M266.6,341.9h-15.7v16.1h15.7V341.9z M289,336.9h-6.2v26.2h22.6v-5.2H289V336.9z M333.7,336.9
	c4.5,0,6,1.4,6,5.7v14.8c0,4.3-1.4,5.7-6,5.7h-16.1c-4.5,0-6-1.4-6-5.7v-14.8c0-4.3,1.5-5.7,6-5.7H333.7 M333.5,341.9h-15.7v16.1
	h15.7V341.9z M371.2,336.9h-15.1c-4.5,0-6,1.4-6,5.7v14.8c0,4.3,1.4,5.7,6,5.7h15.1c4.5,0,6-1.4,6-5.7v-8.9h-14.4v4.8h8.3v4.6h-14.8
	v-16.1h14.8v3.4h6v-2.9C377.2,338.3,375.7,336.9,371.2,336.9 M386.8,363.1h6.2v-26.2h-6.2V363.1z M408.6,351.9h10.1v-4.8h-10.1v-5.4
	h17.3v-4.8h-23.5v26.2h23.7v-5.2h-17.5V351.9z M452.4,347h-13.1v-5.3h13.3v2.2h5.6v-1.7c0-4.5-2.2-5.3-6-5.3h-12.4
	c-4.5,0-6,1.4-6,5.7v4c0,4.3,1.4,5.7,6,5.7h13.1v5.6h-14.4v-2.1h-5.6v1.6c0,4.3,1.5,5.7,6,5.7h13.5c4.5,0,6-1.4,6-5.7v-4.6
	C458.4,348.4,457,347,452.4,347 M230.5,336.9v17.3l-16.5-17.3h-0.4h-4.2v26.2h5.7v-17.2c2.6,2.7,16.5,17.2,16.5,17.2h0.4h4.2v-26.2
	H230.5z M465,344h0.8v-1.6h1.1l1.7,1.6h1.1l-1.8-1.6h0.6c0.6,0,0.9-0.2,0.9-0.8v-0.9c0-0.6-0.3-0.8-0.9-0.8H465V344z M468,340.4
	c0.3,0,0.4,0.1,0.4,0.4v0.5c0,0.3-0.1,0.4-0.4,0.4h-2.2v-1.4H468z M463.6,336.8c-1.8,0-2.4,0.5-2.4,2.4v5.4c0,1.9,0.6,2.4,2.4,2.4
	h7.1c1.8,0,2.4-0.5,2.4-2.4v-5.4c0-1.9-0.5-2.4-2.4-2.4H463.6 M471.4,345.6h-8.5v-7.4h8.5V345.6z"/>
</svg>
