<?xml version="1.0" encoding="utf-8"?>
<!-- Generator: Adobe Illustrator 25.2.1, SVG Export Plug-In . SVG Version: 6.00 Build 0)  -->
<svg version="1.1" id="svg-icon" xmlns="http://www.w3.org/2000/svg" xmlns:xlink="http://www.w3.org/1999/xlink" x="0px" y="0px"
	 viewBox="0 0 102 102" style="enable-background:new 0 0 102 102;" xml:space="preserve">
<style type="text/css">
	.st0{fill:#00A9E0;}
</style>
<g id="svg-icon_1_">
	<path class="st0" d="M72.3,25.4H29.7c-2.3,0-4.2,1.9-4.2,4.2v42.7c0,2.3,1.9,4.2,4.2,4.2h42.6c2.3,0,4.2-1.9,4.2-4.2V29.6
		C76.5,27.3,74.6,25.4,72.3,25.4z M73.5,72.3c0,0.7-0.5,1.2-1.2,1.2H29.7c-0.7,0-1.2-0.5-1.2-1.2V29.6c0-0.7,0.5-1.2,1.2-1.2h42.6
		c0.7,0,1.2,0.5,1.2,1.2C73.5,29.6,73.5,72.3,73.5,72.3z"/>
	<path class="st0" d="M66,33H36c-1.7,0-3,1.3-3,3v30c0,1.6,1.3,3,3,3h30c1.6,0,3-1.4,3-3V36C69,34.3,67.6,33,66,33z M42,63
		c-1.7,0-3-1.4-3-3s1.3-3,3-3s3,1.4,3,3S43.7,63,42,63z"/>
	<path class="st0" d="M16.5,67.5v3c0,0.8,0.7,1.5,1.5,1.5h4.5v-6H18C17.2,66,16.5,66.7,16.5,67.5z"/>
	<path class="st0" d="M16.5,55.5v3c0,0.8,0.7,1.5,1.5,1.5h4.5v-6H18C17.2,54,16.5,54.7,16.5,55.5z"/>
	<path class="st0" d="M16.5,43.5v3c0,0.8,0.7,1.5,1.5,1.5h4.5v-6H18C17.2,42,16.5,42.7,16.5,43.5z"/>
	<path class="st0" d="M16.5,31.5v3c0,0.8,0.7,1.5,1.5,1.5h4.5v-6H18C17.2,30,16.5,30.7,16.5,31.5z"/>
	<path class="st0" d="M66,84c0,0.8,0.7,1.5,1.5,1.5h3c0.8,0,1.5-0.7,1.5-1.5v-4.5h-6V84z"/>
	<path class="st0" d="M54,84c0,0.8,0.7,1.5,1.5,1.5h3c0.8,0,1.5-0.7,1.5-1.5v-4.5h-6V84z"/>
	<path class="st0" d="M42,84c0,0.8,0.7,1.5,1.5,1.5h3c0.8,0,1.5-0.7,1.5-1.5v-4.5h-6V84z"/>
	<path class="st0" d="M30,84c0,0.8,0.7,1.5,1.5,1.5h3c0.8,0,1.5-0.7,1.5-1.5v-4.5h-6V84z"/>
	<path class="st0" d="M36,18c0-0.8-0.7-1.5-1.5-1.5h-3c-0.8,0-1.5,0.7-1.5,1.5v4.5h6V18z"/>
	<path class="st0" d="M48,18c0-0.8-0.7-1.5-1.5-1.5h-3c-0.8,0-1.5,0.7-1.5,1.5v4.5h6V18z"/>
	<path class="st0" d="M60,18c0-0.8-0.7-1.5-1.5-1.5h-3c-0.8,0-1.5,0.7-1.5,1.5v4.5h6V18z"/>
	<path class="st0" d="M72,18c0-0.8-0.7-1.5-1.5-1.5h-3c-0.8,0-1.5,0.7-1.5,1.5v4.5h6V18z"/>
	<path class="st0" d="M84,30h-4.5v6H84c0.8,0,1.5-0.7,1.5-1.5v-3C85.5,30.7,84.8,30,84,30z"/>
	<path class="st0" d="M84,42h-4.5v6H84c0.8,0,1.5-0.7,1.5-1.5v-3C85.5,42.7,84.8,42,84,42z"/>
	<path class="st0" d="M84,54h-4.5v6H84c0.8,0,1.5-0.7,1.5-1.5v-3C85.5,54.7,84.8,54,84,54z"/>
	<path class="st0" d="M84,66h-4.5v6H84c0.8,0,1.5-0.7,1.5-1.5v-3C85.5,66.7,84.8,66,84,66z"/>
</g>
</svg>
