<?xml version="1.0" standalone="no"?>
<!DOCTYPE svg PUBLIC "-//W3C//DTD SVG 20010904//EN"
 "http://www.w3.org/TR/2001/REC-SVG-20010904/DTD/svg10.dtd">
<svg version="1.0" xmlns="http://www.w3.org/2000/svg"
 width="443.000000pt" height="502.000000pt" viewBox="0 0 443.000000 502.000000"
 preserveAspectRatio="xMidYMid meet">

<g transform="translate(0.000000,502.000000) scale(0.100000,-0.100000)"
fill="#000000" stroke="none">
<path d="M673 4913 c11 -18 1228 -3726 1224 -3729 -2 -2 -377 728 -832 1624
-456 895 -848 1663 -872 1707 l-43 80 0 -571 0 -570 733 -1120 c886 -1353 855
-1305 824 -1274 -13 14 -367 406 -786 873 -419 466 -764 847 -767 847 -2 0 -4
-138 -4 -307 l0 -308 710 -634 c391 -349 710 -635 710 -637 0 -2 -44 25 -97
60 -102 65 -1261 818 -1300 844 l-23 14 0 -220 0 -221 517 -260 516 -261 1032
0 1032 0 517 263 516 262 0 218 c0 207 -1 217 -18 208 -10 -5 -313 -203 -673
-438 -360 -236 -667 -437 -684 -447 l-30 -18 31 28 c17 16 334 301 703 634
l671 605 0 310 0 310 -29 -30 c-15 -17 -351 -392 -746 -835 -395 -443 -731
-818 -747 -835 l-30 -30 34 55 c19 30 369 569 776 1197 l742 1142 -2 570 -3
571 -865 -1714 c-476 -943 -866 -1713 -867 -1712 -3 2 1195 3693 1212 3739 7
16 -11 17 -320 15 l-328 -3 -385 -1847 c-212 -1016 -387 -1846 -389 -1844 -2
2 39 819 92 1816 52 997 95 1828 95 1846 l0 34 -306 0 -305 0 6 -77 c10 -126
205 -3627 202 -3630 -2 -1 -180 832 -397 1852 l-394 1855 -329 0 c-180 0 -326
-3 -324 -7z"/>
<path d="M3845 995 l-430 -143 433 -1 432 -1 0 145 c0 80 -1 145 -2 144 -2 0
-196 -65 -433 -144z"/>
<path d="M150 989 l0 -139 428 0 427 1 -380 124 c-209 69 -401 131 -427 139
l-48 15 0 -140z"/>
<path d="M795 601 c-50 -22 -108 -86 -126 -137 -18 -53 -16 -170 5 -216 25
-58 71 -103 128 -128 43 -18 65 -22 124 -18 149 10 235 106 234 262 -2 160
-97 256 -255 256 -46 0 -84 -7 -110 -19z m175 -129 c49 -49 52 -165 5 -216
-46 -49 -109 -42 -146 16 -16 27 -19 46 -17 102 3 62 7 71 36 97 43 38 84 38
122 1z"/>
<path d="M3362 607 c-54 -20 -103 -67 -129 -124 -22 -47 -25 -66 -22 -137 4
-71 8 -89 34 -132 44 -71 108 -107 197 -112 120 -7 205 42 248 140 60 140 1
311 -126 364 -40 17 -156 17 -202 1z m147 -123 c74 -53 66 -213 -13 -251 -34
-16 -38 -16 -72 0 -104 50 -75 267 36 267 14 0 36 -7 49 -16z"/>
<path d="M150 360 l0 -250 75 0 75 0 0 74 0 73 83 5 c110 6 161 32 189 95 41
93 4 205 -78 239 -24 10 -78 14 -189 14 l-155 0 0 -250z m279 111 c20 -13 17
-62 -5 -78 -10 -7 -42 -13 -71 -13 l-53 0 0 50 0 50 58 0 c31 0 63 -4 71 -9z"/>
<path d="M1250 360 l0 -250 190 0 190 0 0 65 0 65 -110 0 -110 0 0 185 0 185
-80 0 -80 0 0 -250z"/>
<path d="M1901 588 c-61 -163 -171 -466 -171 -472 0 -4 35 -6 77 -4 l77 3 8
33 9 33 82 -3 81 -3 10 -32 9 -33 78 0 c44 0 79 3 79 8 0 4 -40 115 -88 247
l-87 240 -78 3 c-73 3 -78 1 -86 -20z m104 -205 c9 -32 18 -66 21 -75 5 -15
-2 -18 -40 -18 -25 0 -46 3 -46 7 0 9 43 143 46 143 2 0 10 -26 19 -57z"/>
<path d="M2350 360 l0 -250 80 0 80 0 0 75 0 75 29 0 c25 0 35 -10 77 -75 l49
-75 83 0 82 0 -56 85 -57 84 31 36 c80 90 59 226 -42 275 -37 17 -61 20 -199
20 l-157 0 0 -250z m288 108 c19 -19 14 -55 -10 -72 -13 -9 -43 -16 -70 -16
l-48 0 0 50 0 50 58 0 c32 0 63 -5 70 -12z"/>
<path d="M2940 360 l0 -250 80 0 80 0 0 250 0 250 -80 0 -80 0 0 -250z"/>
<path d="M3810 360 l0 -250 75 0 74 0 3 135 3 136 75 -135 75 -136 78 0 77 0
0 250 0 250 -75 0 -75 0 0 -132 0 -133 -73 132 -72 133 -82 0 -83 0 0 -250z"/>
</g>
</svg>
