<svg version="1.1" id="Layer_1" xmlns="http://www.w3.org/2000/svg" xmlns:xlink="http://www.w3.org/1999/xlink" x="0px" y="0px"
	 width="100%" viewBox="0 0 245 205" enable-background="new 0 0 245 205" xml:space="preserve">
<path fill="none" opacity="1.000000" stroke="#000000" stroke-linecap="round" stroke-linejoin="round" stroke-width="3.000000"
	d="
M132.500000,71.000000 
	C130.554031,60.515129 126.034279,57.665058 116.498329,57.942425 
	C107.339409,58.208828 98.166428,57.959969 89.000076,58.013474 
	C82.423416,58.051865 77.853683,62.445114 76.962112,68.994843 
	C75.986572,76.161499 76.266762,83.371620 76.660255,90.491142 
	C77.107109,98.576088 82.403191,102.212173 89.002602,102.415642 
	C99.326126,102.733932 109.669930,102.657753 119.998840,102.444046 
	C126.782097,102.303696 131.092575,97.736046 132.049820,91.007088 
	C132.975540,84.499725 132.123322,77.994614 132.500000,71.500000 
"/>
<path fill="none" opacity="1.000000" stroke="#000000" stroke-linecap="round" stroke-linejoin="round" stroke-width="2.000000"
	d="
M91.500000,108.500000 
	C91.666664,113.833336 92.132271,119.177589 91.937843,124.497726 
	C91.531601,135.614120 98.753265,140.908600 108.500000,142.000000 
"/>
<path fill="none" opacity="1.000000" stroke="#000000" stroke-linecap="round" stroke-linejoin="round" stroke-width="2.000000"
	d="
M155.499985,102.500000 
	C155.333328,95.833336 155.412003,89.148750 154.927032,82.505325 
	C154.491943,76.545425 148.660492,71.213593 141.998886,70.006149 
	C140.840073,69.796112 139.666672,69.666664 138.500000,69.500000 
"/>
<path fill="none" opacity="1.000000" stroke="#000000" stroke-linecap="round" stroke-linejoin="round" stroke-width="3.000000"
	d="
M37.000000,9.000000 
	C29.168114,10.305595 22.345978,13.322309 17.470518,19.978405 
	C14.707114,23.751070 13.029531,27.863628 13.025586,32.500023 
	C12.984172,81.166649 12.987622,129.833328 13.013912,178.500000 
	C13.017673,185.460999 19.747765,196.076096 28.481623,199.053894 
	C32.424114,200.398087 36.319756,201.059204 40.500076,201.053284 
	C96.666626,200.973770 152.833328,201.000000 209.000000,201.000000 
	C223.013977,201.000000 234.000000,190.013992 234.000000,176.000000 
	C234.000000,128.666672 234.000000,81.333336 234.000000,34.000000 
	C234.000000,21.983412 225.451797,12.186009 213.519562,9.897952 
	C209.820923,9.188721 206.193619,9.005219 202.500000,9.004756 
	C147.500000,8.997871 92.500000,9.000000 37.500000,9.000000 
"/>
<path fill="none" opacity="1.000000" stroke="#000000" stroke-linecap="round" stroke-linejoin="round" stroke-width="3.000000"
	d="
M124.500000,108.000000 
	C116.815308,110.650757 114.369438,116.278336 114.929337,124.005119 
	C115.301765,129.144806 115.000000,134.333328 115.000000,139.500000 
	C115.000000,147.201324 119.784813,152.341125 127.500610,152.460464 
	C137.831467,152.620255 148.168106,152.603958 158.499466,152.461227 
	C164.754898,152.374817 169.020767,148.343338 169.990906,141.998611 
	C171.133591,134.525375 170.734314,126.971176 170.354645,119.507393 
	C169.975754,112.058777 164.675034,108.005005 157.000000,108.001297 
	C146.333328,107.996147 135.666672,108.000000 125.000000,108.000000 
"/>
</svg>