<svg version="1.1" id="Layer_1" xmlns="http://www.w3.org/2000/svg" xmlns:xlink="http://www.w3.org/1999/xlink" x="0px" y="0px"
	 width="100%" viewBox="0 0 148 148" enable-background="new 0 0 148 148" xml:space="preserve">
<path fill="#B60131" opacity="1.000000" stroke="none" 
	d="
M101.000000,149.000000 
	C67.361359,149.000000 34.222725,149.000000 1.042042,149.000000 
	C1.042042,99.736412 1.042042,50.472786 1.042042,1.104578 
	C50.221725,1.104578 99.443748,1.104578 148.832886,1.104578 
	C148.832886,50.332863 148.832886,99.666389 148.832886,149.000000 
	C133.139816,149.000000 117.319908,149.000000 101.000000,149.000000 
M55.583313,41.708584 
	C55.021755,41.494282 54.460197,41.279980 53.960526,41.024906 
	C53.960526,41.024906 53.951214,41.098427 53.869236,40.404232 
	C53.525890,39.291759 53.182549,38.179287 53.620880,37.039417 
	C56.063034,37.877934 58.505192,38.716454 60.947346,39.554970 
	C61.154819,38.933998 61.362289,38.313026 61.569763,37.692051 
	C58.588680,36.332355 55.607601,34.972660 52.402435,33.510754 
	C52.219765,35.181236 52.116909,36.121845 51.279865,37.037601 
	C47.758816,35.806229 45.932064,37.105263 45.613060,40.772404 
	C44.913532,48.813927 43.472256,57.041145 52.855770,61.661091 
	C55.481644,62.953930 58.695892,64.261261 60.127922,66.520531 
	C63.221069,71.400490 67.296486,71.721611 72.110931,70.952080 
	C72.110931,70.952080 72.070847,70.893166 72.429123,71.284180 
	C72.763725,71.383553 73.098335,71.482933 73.337280,71.604195 
	C73.337280,71.604195 73.373909,71.513161 73.403236,72.228691 
	C74.343086,77.739349 68.395035,75.101830 66.802895,78.070312 
	C67.215965,78.969566 67.747009,80.125664 68.055084,81.050629 
	C68.055084,81.050629 68.260117,81.297745 67.628258,81.294998 
	C67.203316,81.706619 66.778381,82.118240 66.245247,82.307693 
	C66.245247,82.307693 66.402718,82.498146 65.618904,82.289658 
	C62.826221,82.599388 59.790630,82.556847 59.461807,86.578728 
	C59.461807,86.578728 59.375446,86.571693 58.765873,86.267296 
	C54.234295,87.467911 49.476944,88.294495 47.105042,93.104172 
	C47.105042,93.104172 47.243614,93.208649 46.523174,93.314354 
	C43.447777,97.174858 42.500511,102.702110 44.689289,106.385864 
	C44.870132,103.472870 45.019588,101.065536 45.169041,98.658195 
	C45.981850,102.180481 46.027916,105.730934 46.487617,109.226997 
	C46.608307,110.144867 48.010914,110.894173 48.931370,111.879463 
	C48.931370,111.879463 48.789871,111.751114 49.625835,111.883156 
	C52.989624,112.097862 56.194050,112.072899 56.382984,107.309479 
	C56.382984,107.309479 56.513840,107.317947 57.301918,107.609657 
	C61.966164,105.486557 66.771187,103.616364 71.234383,101.132065 
	C73.416931,99.917213 74.963463,97.559731 76.826881,95.806839 
	C76.826881,95.806839 76.739586,95.777443 77.386597,95.768486 
	C77.862572,95.376007 78.338547,94.983536 78.792419,94.706329 
	C78.792419,94.706329 78.682426,94.665390 79.404266,94.799088 
	C80.215126,94.134720 81.025986,93.470352 81.951248,93.003235 
	C81.951248,93.003235 81.820511,92.815002 82.579773,92.915344 
	C84.368286,91.689430 86.156792,90.463516 88.503731,88.790840 
	C96.119843,84.310562 103.735954,79.830292 111.545357,75.236305 
	C107.375732,72.249107 103.670258,69.594429 99.791046,66.316177 
	C98.053406,64.731102 96.359093,63.094925 94.566460,61.574699 
	C92.602478,59.909168 90.071663,58.647625 88.786377,56.587181 
	C88.325951,55.849075 90.777260,53.294659 91.899620,51.569229 
	C91.783409,51.320621 91.667191,51.072014 91.550972,50.823406 
	C87.902336,52.744133 84.253693,54.664860 80.499374,56.597397 
	C80.499374,56.597397 80.447945,56.504333 80.662895,55.728081 
	C79.494705,53.529938 78.326515,51.331795 77.031357,48.894741 
	C72.829208,50.610172 70.027069,49.491188 68.382965,44.893036 
	C67.866379,43.448280 65.570190,42.114555 63.869816,41.749889 
	C61.691322,41.282684 59.291817,41.846027 56.384861,42.025631 
	C56.188900,42.074242 55.992943,42.122856 55.890850,42.148632 
	C55.890850,42.148632 55.903782,42.244358 55.583313,41.708584 
z"/>
<path fill="#F9F4F7" opacity="1.000000" stroke="none" 
	d="
M99.964775,66.939751 
	C103.670258,69.594429 107.375732,72.249107 111.545357,75.236305 
	C103.735954,79.830292 96.119843,84.310562 87.904160,89.061371 
	C85.476562,90.492935 83.648537,91.653969 81.820511,92.815002 
	C81.820511,92.815002 81.951248,93.003235 81.585281,92.952232 
	C80.373695,93.489288 79.528061,94.077339 78.682426,94.665390 
	C78.682426,94.665390 78.792419,94.706329 78.489174,94.689667 
	C77.703812,95.041153 77.221695,95.409294 76.739586,95.777435 
	C76.739586,95.777443 76.826881,95.806839 76.463799,95.830826 
	C70.430321,98.944656 64.759926,102.034500 59.127510,104.753876 
	C59.446411,102.924210 59.727329,101.465004 60.078217,99.967209 
	C60.148178,99.928612 60.158916,99.742821 60.158916,99.742821 
	C60.158916,99.742821 59.994087,99.991745 59.645653,100.056038 
	C57.599903,101.204597 55.902584,102.288857 54.205269,103.373123 
	C54.428143,103.801125 54.651020,104.229126 54.873898,104.657135 
	C56.300232,104.802635 57.726570,104.948135 58.995972,105.342339 
	C58.063969,106.166672 57.288902,106.742310 56.513840,107.317947 
	C56.513840,107.317947 56.382984,107.309479 56.035046,107.470917 
	C53.388027,109.005280 51.088951,110.378197 48.789871,111.751114 
	C48.789871,111.751114 48.931370,111.879463 48.603348,111.508759 
	C47.931423,105.161583 47.587517,99.185120 47.243614,93.208649 
	C47.243614,93.208649 47.105042,93.104172 47.515732,93.144791 
	C51.742760,90.980827 55.559101,88.776260 59.375446,86.571693 
	C59.375446,86.571693 59.461807,86.578728 59.798866,86.421402 
	C62.224857,85.008759 64.313789,83.753448 66.402718,82.498138 
	C66.402718,82.498146 66.245247,82.307693 66.593628,82.358032 
	C67.381371,82.038155 67.820740,81.667946 68.260117,81.297745 
	C68.260117,81.297745 68.055084,81.050629 68.512238,81.111603 
	C72.356758,79.255974 75.744118,77.339378 79.894638,74.990974 
	C77.113335,73.507568 75.243622,72.510368 73.373909,71.513161 
	C73.373909,71.513161 73.337280,71.604195 73.221313,71.373596 
	C72.760506,71.059715 72.415680,70.976440 72.070847,70.893166 
	C72.070847,70.893166 72.110931,70.952080 71.908493,70.645844 
	C64.838310,66.344734 57.945744,62.391354 51.126537,58.315247 
	C49.951321,57.612774 48.271618,56.432175 48.216751,55.398544 
	C47.926182,49.924736 48.080296,44.427322 48.080296,38.521572 
	C50.656628,39.652370 52.303921,40.375401 53.951214,41.098427 
	C53.951214,41.098427 53.960526,41.024906 54.091400,41.304142 
	C54.782776,41.803703 55.343277,42.024033 55.903782,42.244358 
	C55.903782,42.244358 55.890850,42.148632 55.891891,42.483711 
	C56.269226,43.459251 56.645523,44.099720 57.406425,44.811813 
	C59.453495,45.450134 61.234085,45.798370 62.757565,46.622124 
	C68.698563,49.834446 74.558105,53.197395 80.447945,56.504333 
	C80.447945,56.504333 80.499374,56.597397 80.780022,56.831650 
	C87.362038,60.357182 93.663406,63.648468 99.964775,66.939751 
M66.929527,85.031174 
	C69.023270,87.894905 70.460335,87.608650 72.893059,83.040680 
	C70.622871,83.667740 69.015152,84.111824 66.929527,85.031174 
z"/>
<path fill="#A42144" opacity="1.000000" stroke="none" 
	d="
M53.910225,40.751328 
	C52.303921,40.375401 50.656628,39.652370 48.080296,38.521572 
	C48.080296,44.427322 47.926182,49.924736 48.216751,55.398544 
	C48.271618,56.432175 49.951321,57.612774 51.126537,58.315247 
	C57.945744,62.391354 64.838310,66.344734 71.911270,70.610321 
	C67.296486,71.721611 63.221069,71.400490 60.127922,66.520531 
	C58.695892,64.261261 55.481644,62.953930 52.855770,61.661091 
	C43.472256,57.041145 44.913532,48.813927 45.613060,40.772404 
	C45.932064,37.105263 47.758816,35.806229 51.853149,37.052574 
	C52.426434,37.067551 52.839203,37.066814 52.839203,37.066814 
	C53.182549,38.179287 53.525890,39.291759 53.910225,40.751328 
z"/>
<path fill="#AB163D" opacity="1.000000" stroke="none" 
	d="
M80.555420,56.116207 
	C74.558105,53.197395 68.698563,49.834446 62.757565,46.622124 
	C61.234085,45.798370 59.453495,45.450134 57.405334,44.466003 
	C57.008942,43.354153 56.998241,42.659737 56.987541,41.965321 
	C59.291817,41.846027 61.691322,41.282684 63.869816,41.749889 
	C65.570190,42.114555 67.866379,43.448280 68.382965,44.893036 
	C70.027069,49.491188 72.829208,50.610172 77.031357,48.894741 
	C78.326515,51.331795 79.494705,53.529938 80.555420,56.116207 
z"/>
<path fill="#AB163D" opacity="1.000000" stroke="none" 
	d="
M99.877914,66.627960 
	C93.663406,63.648468 87.362038,60.357182 80.832855,56.825741 
	C84.253693,54.664860 87.902336,52.744133 91.550972,50.823406 
	C91.667191,51.072014 91.783409,51.320621 91.899620,51.569229 
	C90.777260,53.294659 88.325951,55.849075 88.786377,56.587181 
	C90.071663,58.647625 92.602478,59.909168 94.566460,61.574699 
	C96.359093,63.094925 98.053406,64.731102 99.877914,66.627960 
z"/>
<path fill="#9F1339" opacity="1.000000" stroke="none" 
	d="
M46.883392,93.261505 
	C47.587517,99.185120 47.931423,105.161583 48.550076,111.429474 
	C48.010914,110.894173 46.608307,110.144867 46.487617,109.226997 
	C46.027916,105.730934 45.981850,102.180481 45.169041,98.658195 
	C45.019588,101.065536 44.870132,103.472870 44.689289,106.385864 
	C42.500511,102.702110 43.447777,97.174858 46.883392,93.261505 
z"/>
<path fill="#9F1339" opacity="1.000000" stroke="none" 
	d="
M56.907879,107.463806 
	C57.288902,106.742310 58.063969,106.166672 58.961494,105.311783 
	C59.083954,105.032532 59.089539,105.124352 59.089539,105.124344 
	C64.759926,102.034500 70.430321,98.944656 76.449287,95.787117 
	C74.963463,97.559731 73.416931,99.917213 71.234383,101.132065 
	C66.771187,103.616364 61.966164,105.486557 56.907879,107.463806 
z"/>
<path fill="#9F1339" opacity="1.000000" stroke="none" 
	d="
M73.388573,71.870926 
	C75.243622,72.510368 77.113335,73.507568 79.894638,74.990974 
	C75.744118,77.339378 72.356758,79.255974 68.623726,81.227173 
	C67.747009,80.125664 67.215965,78.969566 66.802895,78.070312 
	C68.395035,75.101830 74.343086,77.739349 73.388573,71.870926 
z"/>
<path fill="#AC0731" opacity="1.000000" stroke="none" 
	d="
M53.230042,37.053116 
	C52.839203,37.066814 52.426434,37.067551 52.220245,37.065002 
	C52.116909,36.121845 52.219765,35.181236 52.402435,33.510754 
	C55.607601,34.972660 58.588680,36.332355 61.569763,37.692051 
	C61.362289,38.313026 61.154819,38.933998 60.947346,39.554970 
	C58.505192,38.716454 56.063034,37.877934 53.230042,37.053116 
z"/>
<path fill="#9F1339" opacity="1.000000" stroke="none" 
	d="
M59.070660,86.419495 
	C55.559101,88.776260 51.742760,90.980827 47.567276,93.214584 
	C49.476944,88.294495 54.234295,87.467911 59.070660,86.419495 
z"/>
<path fill="#9F1339" opacity="1.000000" stroke="none" 
	d="
M49.207855,111.817139 
	C51.088951,110.378197 53.388027,109.005280 56.006798,107.530083 
	C56.194050,112.072899 52.989624,112.097862 49.207855,111.817139 
z"/>
<path fill="#9F1339" opacity="1.000000" stroke="none" 
	d="
M66.010811,82.393898 
	C64.313789,83.753448 62.224857,85.008759 59.821251,86.384308 
	C59.790630,82.556847 62.826221,82.599388 66.010811,82.393898 
z"/>
<path fill="#9F1339" opacity="1.000000" stroke="none" 
	d="
M82.200142,92.865173 
	C83.648537,91.653969 85.476562,90.492935 87.624947,89.284752 
	C86.156792,90.463516 84.368286,91.689430 82.200142,92.865173 
z"/>
<path fill="#9F1339" opacity="1.000000" stroke="none" 
	d="
M79.043350,94.732239 
	C79.528061,94.077339 80.373695,93.489288 81.528084,92.853607 
	C81.025986,93.470352 80.215126,94.134720 79.043350,94.732239 
z"/>
<path fill="#A42144" opacity="1.000000" stroke="none" 
	d="
M56.686203,41.995476 
	C56.998241,42.659737 57.008942,43.354153 57.020729,44.394379 
	C56.645523,44.099720 56.269226,43.459251 55.844959,42.495125 
	C55.992943,42.122856 56.188900,42.074242 56.686203,41.995476 
z"/>
<path fill="#9F1339" opacity="1.000000" stroke="none" 
	d="
M77.063095,95.772964 
	C77.221695,95.409294 77.703812,95.041153 78.500229,94.632034 
	C78.338547,94.983536 77.862572,95.376007 77.063095,95.772964 
z"/>
<path fill="#9F1339" opacity="1.000000" stroke="none" 
	d="
M67.944183,81.296371 
	C67.820740,81.667946 67.381371,82.038155 66.647720,82.469116 
	C66.778381,82.118240 67.203316,81.706619 67.944183,81.296371 
z"/>
<path fill="#A42144" opacity="1.000000" stroke="none" 
	d="
M55.743546,41.976471 
	C55.343277,42.024033 54.782776,41.803703 54.060455,41.324528 
	C54.460197,41.279980 55.021755,41.494282 55.743546,41.976471 
z"/>
<path fill="#9F1339" opacity="1.000000" stroke="none" 
	d="
M72.249985,71.088669 
	C72.415680,70.976440 72.760506,71.059715 73.269135,71.362656 
	C73.098335,71.482933 72.763725,71.383553 72.249985,71.088669 
z"/>
<path fill="#F1FBF7" opacity="1.000000" stroke="none" 
	d="
M59.118431,105.063087 
	C57.726570,104.948135 56.300232,104.802635 54.873898,104.657135 
	C54.651020,104.229126 54.428143,103.801125 54.205269,103.373123 
	C55.902584,102.288857 57.599903,101.204597 59.648621,100.060150 
	C60.000019,99.999969 60.008255,100.005806 60.008255,100.005806 
	C59.727329,101.465004 59.446411,102.924210 59.127514,104.753876 
	C59.089539,105.124352 59.083954,105.032532 59.118431,105.063087 
z"/>
<path fill="#EDFCFA" opacity="1.000000" stroke="none" 
	d="
M67.168472,84.793533 
	C69.015152,84.111824 70.622871,83.667740 72.893059,83.040680 
	C70.460335,87.608650 69.023270,87.894905 67.168472,84.793533 
z"/>
<path fill="#F1FBF7" opacity="1.000000" stroke="none" 
	d="
M59.997055,99.995857 
	C59.994087,99.991745 60.158916,99.742821 60.158916,99.742821 
	C60.158916,99.742821 60.148178,99.928612 60.078217,99.967209 
	C60.008255,100.005806 60.000019,99.999969 59.997055,99.995857 
z"/>
</svg>