<svg version="1.1" id="Layer_1" xmlns="http://www.w3.org/2000/svg" xmlns:xlink="http://www.w3.org/1999/xlink" x="0px" y="0px"
	 width="100%" viewBox="0 0 422 424" enable-background="new 0 0 422 424" xml:space="preserve">
<path fill="#FEFFFF" opacity="1.000000" stroke="none" 
	d="
M237.000000,425.000000 
	C158.000015,425.000000 79.500015,425.000000 1.000021,425.000000 
	C1.000014,283.666687 1.000014,142.333389 1.000007,1.000059 
	C141.666626,1.000039 282.333252,1.000039 422.999908,1.000020 
	C422.999939,142.333267 422.999939,283.666534 422.999969,424.999908 
	C361.166656,425.000000 299.333344,425.000000 237.000000,425.000000 
M27.901033,273.479736 
	C21.762098,273.479736 15.623162,273.479736 9.106947,273.479736 
	C12.600506,300.552368 16.033915,327.158875 19.460785,353.714722 
	C28.669506,353.714722 37.400978,353.714722 46.387833,353.714722 
	C48.100212,342.226074 49.775852,330.983917 51.451488,319.741791 
	C51.598770,319.724854 51.746052,319.707886 51.893337,319.690948 
	C53.411083,330.999573 54.928829,342.308167 56.464119,353.747467 
	C65.542442,353.747467 74.264420,353.747467 83.297272,353.747467 
	C86.550339,327.015472 89.776756,300.502502 93.031288,273.758453 
	C85.821732,273.758453 78.934212,273.758453 71.538269,273.758453 
	C69.823196,285.979034 68.135666,298.003357 66.448135,310.027679 
	C64.228233,299.160675 63.083508,288.448090 61.998569,277.729431 
	C61.776295,275.533447 61.986439,273.347900 58.647751,273.436646 
	C52.864220,273.590454 47.073650,273.479340 41.045860,273.479340 
	C39.283428,287.614105 37.568874,301.364929 35.854321,315.115723 
	C33.763802,302.337891 32.368977,289.624176 30.809906,276.930634 
	C30.661495,275.722290 29.485838,274.640106 27.901033,273.479736 
M291.293427,179.270554 
	C287.581177,177.201462 284.084503,174.128220 280.111176,173.275360 
	C272.195190,171.576233 264.039642,170.639450 255.941254,170.243591 
	C247.912125,169.851120 242.642334,166.041885 238.720078,159.688019 
	C240.756866,158.604996 242.536789,157.658554 245.123413,156.283188 
	C234.814407,148.777222 225.290695,141.843033 214.888123,134.268936 
	C213.928253,137.524734 213.063995,139.935760 212.530945,142.417923 
	C212.045547,144.678223 211.919678,147.015732 211.635330,149.319199 
	C211.030548,149.452301 210.425766,149.585388 209.820984,149.718491 
	C211.366699,151.096558 213.174255,152.278381 214.391571,153.902588 
	C215.900040,155.915253 217.930420,158.281967 217.958282,160.517853 
	C218.038284,166.941666 217.422348,173.245941 221.147903,179.112167 
	C224.750549,184.784805 227.694077,190.873795 231.244339,196.582626 
	C234.203171,201.340454 238.758514,205.412872 240.550644,210.511566 
	C242.827133,216.988327 243.156723,224.178940 244.003555,231.101181 
	C244.154526,232.335175 242.785614,233.787979 242.032059,235.089722 
	C241.382385,236.212067 240.609573,237.263138 239.891190,238.345718 
	C241.369064,238.778305 243.199783,239.960541 244.242950,239.469543 
	C245.847153,238.714432 247.620285,236.999420 248.058029,235.355225 
	C249.013855,231.765182 249.174164,227.963333 249.627548,224.492508 
	C253.844864,228.689468 253.723129,233.473053 249.158539,238.430481 
	C254.139008,239.607147 257.031189,238.465118 257.327515,234.237701 
	C257.551666,231.039978 257.113190,227.669006 256.296082,224.551697 
	C254.633759,218.209808 252.516174,211.987259 250.693741,206.064987 
	C260.238861,204.962357 269.046143,203.944962 277.337708,202.987152 
	C279.353485,207.772583 281.915009,212.254379 283.069611,217.073273 
	C284.092438,221.342361 283.998047,226.042831 283.443268,230.432343 
	C283.263031,231.858582 280.061035,232.887466 278.277740,234.149750 
	C278.092651,234.280762 278.157440,234.764816 278.006104,235.712158 
	C279.927643,236.377090 281.960846,237.022430 283.948578,237.786072 
	C285.687531,238.454086 287.921906,240.293365 288.955200,239.749390 
	C290.433960,238.970917 291.636108,236.575287 291.880707,234.727798 
	C293.131470,225.281433 294.036682,215.789322 294.985382,207.027451 
	C297.164825,208.341614 299.904480,209.222763 301.491394,211.085800 
	C307.882172,218.588593 316.447388,217.848907 324.869751,217.878906 
	C331.704651,217.903229 337.633240,212.341003 338.783203,204.485153 
	C335.085052,204.656479 331.471680,204.706940 327.880524,205.015701 
	C321.331818,205.578720 315.447144,203.919495 309.820496,200.566925 
	C301.490723,195.603714 295.833221,188.435944 291.293427,179.270554 
M353.136444,347.559174 
	C358.831970,340.196533 357.878632,331.583679 357.664276,323.138092 
	C357.389374,312.305176 352.510590,304.108063 343.320618,298.382721 
	C338.237915,295.216217 333.167847,292.015900 328.247375,288.606628 
	C323.635040,285.410797 321.609955,278.591736 323.935425,273.566559 
	C324.609436,272.110138 326.639221,270.732758 328.230499,270.482391 
	C329.016296,270.358734 330.912750,272.794037 331.093719,274.224915 
	C331.524200,277.628754 331.232361,281.123901 331.232361,284.781555 
	C339.768066,284.781555 347.626038,284.781555 356.037994,284.781555 
	C355.712311,280.270477 355.324646,276.166595 355.138428,272.053558 
	C354.768890,263.892120 350.330658,258.831512 343.010529,256.008179 
	C333.349335,252.281937 323.488647,252.023132 313.669342,255.147720 
	C307.169250,257.216125 301.642365,261.229370 300.406830,268.166412 
	C299.228424,274.782867 299.178009,281.721344 299.573425,288.463043 
	C299.971405,295.248993 303.674835,300.673218 309.292450,304.612213 
	C314.467896,308.241150 319.508575,312.111725 324.939941,315.313904 
	C331.778595,319.345795 333.770233,325.251801 333.045807,332.631531 
	C332.743317,335.713287 332.445221,338.926666 328.366638,339.072144 
	C323.939575,339.230103 323.983826,335.792755 323.912567,332.775970 
	C323.803894,328.174286 323.884125,323.568176 323.884125,318.795959 
	C315.534454,318.795959 307.846558,318.795959 300.168945,318.795959 
	C300.168945,324.526550 299.815002,329.864990 300.257751,335.136536 
	C300.822388,341.859436 303.522980,347.538727 309.645447,351.306763 
	C322.170563,359.015259 341.493774,357.679688 353.136444,347.559174 
M291.191376,343.405640 
	C291.620758,335.007782 292.514008,326.600311 292.340790,318.214905 
	C292.187012,310.769379 287.927887,305.062286 281.923370,300.846039 
	C276.615570,297.118988 271.309265,293.330475 265.681061,290.134949 
	C259.457062,286.601166 257.795319,281.333618 259.088165,274.957642 
	C259.449799,273.174194 261.747528,271.783356 263.157135,270.212402 
	C264.418854,271.858978 266.428864,273.362885 266.776154,275.183868 
	C267.375702,278.327759 266.942322,281.668640 266.942322,284.880371 
	C275.343170,284.880371 282.939697,284.880371 291.267914,284.880371 
	C290.921021,279.650513 290.700348,274.715454 290.241516,269.802643 
	C289.636200,263.321930 285.768646,259.172943 280.035706,256.718323 
	C269.323395,252.131714 258.414612,251.730591 247.456818,255.831009 
	C240.691498,258.362640 236.204391,263.183258 235.257797,270.376495 
	C234.548492,275.766541 234.562592,281.304626 234.796295,286.753571 
	C235.140533,294.778961 239.100296,300.917053 245.736526,305.390717 
	C250.428833,308.553925 254.874313,312.141815 259.786682,314.906250 
	C267.076355,319.008453 269.198059,325.171570 268.362976,332.949707 
	C268.026489,336.083954 267.571686,339.153259 263.421082,339.092896 
	C259.260681,339.032440 259.395264,335.609528 259.241638,332.937317 
	C258.975525,328.308929 259.167755,323.654205 259.167755,318.747437 
	C251.023499,318.747437 243.301910,318.747437 234.756927,318.747437 
	C235.252914,325.594452 235.430557,332.056061 236.270523,338.430389 
	C237.001587,343.978333 240.098648,348.482697 245.019302,351.175171 
	C257.972748,358.263000 271.154236,358.290955 284.042084,351.111969 
	C286.783722,349.584808 288.657623,346.499878 291.191376,343.405640 
M128.081757,272.124359 
	C125.417274,272.100311 122.743896,271.923462 120.089836,272.078186 
	C107.427231,272.816162 98.004723,279.576172 97.256134,290.893433 
	C96.217194,306.600281 96.454063,322.454498 97.228745,338.192261 
	C97.627007,346.283173 103.201553,352.200165 111.324966,353.675568 
	C118.103111,354.906708 125.303070,355.378784 132.110138,354.531433 
	C143.128784,353.159821 150.291229,346.330322 151.125214,335.309235 
	C152.214279,320.917419 152.112427,306.372742 151.487015,291.938721 
	C151.142578,283.989655 146.001907,278.120880 138.500153,274.986877 
	C135.467560,273.719971 132.157013,273.118408 128.081757,272.124359 
M390.053009,333.266693 
	C390.053009,307.378693 390.053009,281.490692 390.053009,255.408447 
	C380.970917,255.408447 372.740479,255.408447 364.273438,255.408447 
	C364.273438,288.349670 364.273438,321.024139 364.273438,353.823639 
	C378.085785,353.823639 391.617096,353.823639 405.143127,353.823639 
	C405.143127,347.127014 405.143127,340.770752 405.143127,333.946045 
	C400.023560,333.946045 395.379883,333.946045 390.053009,333.266693 
M197.113800,349.338623 
	C197.177582,350.784454 197.241364,352.230286 197.303452,353.637695 
	C205.672012,353.637695 213.709335,353.637695 222.059235,353.637695 
	C222.059235,331.681213 222.059235,310.094757 222.059235,288.284882 
	C224.103165,288.171906 225.841858,288.075836 227.605499,287.978363 
	C227.605499,283.693176 227.605499,279.791840 227.605499,275.441254 
	C224.240753,275.441254 221.149414,275.441254 217.921082,275.441254 
	C216.083130,265.670197 224.437454,270.078979 227.525726,267.998108 
	C227.525726,263.818115 227.525726,259.913849 227.525726,256.038361 
	C221.842987,256.038361 216.507477,255.797501 211.201447,256.090485 
	C201.354584,256.634186 197.313812,261.054352 197.117416,270.977875 
	C197.091446,272.290039 197.113861,273.603180 197.113861,275.022430 
	C195.308670,275.390961 193.776993,275.703644 192.298691,276.005432 
	C192.298691,280.089325 192.298691,283.883118 192.298691,287.776672 
	C193.984650,288.069611 195.512711,288.335114 197.113800,288.613312 
	C197.113800,308.742096 197.113800,328.554413 197.113800,349.338623 
M185.124039,290.500031 
	C185.124039,279.063843 185.124039,267.627655 185.124039,256.086609 
	C176.537445,256.086609 168.462280,256.086609 160.334167,256.086609 
	C160.334167,288.823730 160.334167,321.349091 160.334167,353.707458 
	C168.760025,353.707458 176.850098,353.707458 185.124039,353.707458 
	C185.124039,332.777527 185.124039,312.138794 185.124039,290.500031 
M139.938568,123.556374 
	C156.584763,85.409592 186.337585,66.392395 227.576202,63.723221 
	C227.576202,60.476460 227.576202,57.238312 227.576202,54.007702 
	C172.299698,50.847118 119.816345,102.356667 122.898033,158.563202 
	C126.148842,158.563202 129.398117,158.563202 131.413712,158.563202 
	C134.257187,146.752228 136.961761,135.518204 139.938568,123.556374 
M191.992218,94.377266 
	C203.022949,88.155998 215.080795,85.585938 227.481354,84.907898 
	C227.481354,81.153694 227.481354,77.936104 227.481354,74.744835 
	C180.513016,73.176674 141.428711,115.634750 143.865982,158.594971 
	C147.115295,158.594971 150.366776,158.594971 153.564331,158.594971 
	C160.064026,122.769287 168.632584,108.347511 191.992218,94.377266 
M175.213104,154.834839 
	C175.380249,153.851288 175.577469,152.871765 175.710114,151.883575 
	C178.707123,129.558716 195.004517,111.891373 216.931366,107.332726 
	C220.444153,106.602425 224.038300,106.263397 227.489105,105.758949 
	C227.489105,102.156181 227.489105,98.934532 227.489105,95.739151 
	C190.161102,94.397377 161.881378,129.530075 165.173386,158.861801 
	C167.613022,158.861801 170.147736,159.168961 172.539688,158.718353 
	C173.570389,158.524200 174.305481,156.760895 175.213104,154.834839 
M199.645035,144.357513 
	C205.630707,133.343063 215.161407,127.898842 227.618469,126.965797 
	C227.618469,123.450584 227.618469,120.203415 227.618469,116.981934 
	C204.609665,114.744698 183.570740,138.121902 185.976517,158.612701 
	C189.190475,158.612701 192.436615,158.612701 195.330307,158.612701 
	C196.697281,153.884384 197.979263,149.450027 199.645035,144.357513 
z"/>
<path fill="#040404" opacity="1.000000" stroke="none" 
	d="
M28.344055,273.489563 
	C29.485838,274.640106 30.661495,275.722290 30.809906,276.930634 
	C32.368977,289.624176 33.763802,302.337891 35.854321,315.115723 
	C37.568874,301.364929 39.283428,287.614105 41.045860,273.479340 
	C47.073650,273.479340 52.864220,273.590454 58.647751,273.436646 
	C61.986439,273.347900 61.776295,275.533447 61.998569,277.729431 
	C63.083508,288.448090 64.228233,299.160675 66.448135,310.027679 
	C68.135666,298.003357 69.823196,285.979034 71.538269,273.758453 
	C78.934212,273.758453 85.821732,273.758453 93.031288,273.758453 
	C89.776756,300.502502 86.550339,327.015472 83.297272,353.747467 
	C74.264420,353.747467 65.542442,353.747467 56.464119,353.747467 
	C54.928829,342.308167 53.411083,330.999573 51.893337,319.690948 
	C51.746052,319.707886 51.598770,319.724854 51.451488,319.741791 
	C49.775852,330.983917 48.100212,342.226074 46.387833,353.714722 
	C37.400978,353.714722 28.669506,353.714722 19.460785,353.714722 
	C16.033915,327.158875 12.600506,300.552368 9.106947,273.479736 
	C15.623162,273.479736 21.762098,273.479736 28.344055,273.489563 
z"/>
<path fill="#050505" opacity="1.000000" stroke="none" 
	d="
M291.512512,179.558838 
	C295.833221,188.435944 301.490723,195.603714 309.820496,200.566925 
	C315.447144,203.919495 321.331818,205.578720 327.880524,205.015701 
	C331.471680,204.706940 335.085052,204.656479 338.783203,204.485153 
	C337.633240,212.341003 331.704651,217.903229 324.869751,217.878906 
	C316.447388,217.848907 307.882172,218.588593 301.491394,211.085800 
	C299.904480,209.222763 297.164825,208.341614 294.985382,207.027451 
	C294.036682,215.789322 293.131470,225.281433 291.880707,234.727798 
	C291.636108,236.575287 290.433960,238.970917 288.955200,239.749390 
	C287.921906,240.293365 285.687531,238.454086 283.948578,237.786072 
	C281.960846,237.022430 279.927643,236.377090 278.006104,235.712158 
	C278.157440,234.764816 278.092651,234.280762 278.277740,234.149750 
	C280.061035,232.887466 283.263031,231.858582 283.443268,230.432343 
	C283.998047,226.042831 284.092438,221.342361 283.069611,217.073273 
	C281.915009,212.254379 279.353485,207.772583 277.337708,202.987152 
	C269.046143,203.944962 260.238861,204.962357 250.693741,206.064987 
	C252.516174,211.987259 254.633759,218.209808 256.296082,224.551697 
	C257.113190,227.669006 257.551666,231.039978 257.327515,234.237701 
	C257.031189,238.465118 254.139008,239.607147 249.158539,238.430481 
	C253.723129,233.473053 253.844864,228.689468 249.627548,224.492508 
	C249.174164,227.963333 249.013855,231.765182 248.058029,235.355225 
	C247.620285,236.999420 245.847153,238.714432 244.242950,239.469543 
	C243.199783,239.960541 241.369064,238.778305 239.891190,238.345703 
	C240.609573,237.263138 241.382385,236.212067 242.032059,235.089722 
	C242.785614,233.787979 244.154526,232.335175 244.003555,231.101181 
	C243.156723,224.178940 242.827133,216.988327 240.550644,210.511566 
	C238.758514,205.412872 234.203171,201.340454 231.244339,196.582626 
	C227.694077,190.873795 224.750549,184.784805 221.147903,179.112167 
	C217.422348,173.245941 218.038284,166.941666 217.958282,160.517853 
	C217.930420,158.281967 215.900040,155.915253 214.391571,153.902588 
	C213.174255,152.278381 211.366699,151.096558 209.820984,149.718491 
	C210.425766,149.585388 211.030548,149.452301 211.635330,149.319199 
	C211.919678,147.015732 212.045547,144.678223 212.530945,142.417923 
	C213.063995,139.935760 213.928253,137.524734 214.888123,134.268936 
	C225.290695,141.843033 234.814407,148.777222 245.123413,156.283188 
	C242.536789,157.658554 240.756866,158.604996 238.720078,159.688019 
	C242.642334,166.041885 247.912125,169.851120 255.941254,170.243591 
	C264.039642,170.639450 272.195190,171.576233 280.111176,173.275360 
	C284.084503,174.128220 287.581177,177.201462 291.512512,179.558838 
z"/>
<path fill="#22BFCB" opacity="1.000000" stroke="none" 
	d="
M352.901123,347.838684 
	C341.493774,357.679688 322.170563,359.015259 309.645447,351.306763 
	C303.522980,347.538727 300.822388,341.859436 300.257751,335.136536 
	C299.815002,329.864990 300.168945,324.526550 300.168945,318.795959 
	C307.846558,318.795959 315.534454,318.795959 323.884125,318.795959 
	C323.884125,323.568176 323.803894,328.174286 323.912567,332.775970 
	C323.983826,335.792755 323.939575,339.230103 328.366638,339.072144 
	C332.445221,338.926666 332.743317,335.713287 333.045807,332.631531 
	C333.770233,325.251801 331.778595,319.345795 324.939941,315.313904 
	C319.508575,312.111725 314.467896,308.241150 309.292450,304.612213 
	C303.674835,300.673218 299.971405,295.248993 299.573425,288.463043 
	C299.178009,281.721344 299.228424,274.782867 300.406830,268.166412 
	C301.642365,261.229370 307.169250,257.216125 313.669342,255.147720 
	C323.488647,252.023132 333.349335,252.281937 343.010529,256.008179 
	C350.330658,258.831512 354.768890,263.892120 355.138428,272.053558 
	C355.324646,276.166595 355.712311,280.270477 356.037994,284.781555 
	C347.626038,284.781555 339.768066,284.781555 331.232361,284.781555 
	C331.232361,281.123901 331.524200,277.628754 331.093719,274.224915 
	C330.912750,272.794037 329.016296,270.358734 328.230499,270.482391 
	C326.639221,270.732758 324.609436,272.110138 323.935425,273.566559 
	C321.609955,278.591736 323.635040,285.410797 328.247375,288.606628 
	C333.167847,292.015900 338.237915,295.216217 343.320618,298.382721 
	C352.510590,304.108063 357.389374,312.305176 357.664276,323.138092 
	C357.878632,331.583679 358.831970,340.196533 352.901123,347.838684 
z"/>
<path fill="#22BFCB" opacity="1.000000" stroke="none" 
	d="
M291.061340,343.769104 
	C288.657623,346.499878 286.783722,349.584808 284.042084,351.111969 
	C271.154236,358.290955 257.972748,358.263000 245.019302,351.175171 
	C240.098648,348.482697 237.001587,343.978333 236.270523,338.430389 
	C235.430557,332.056061 235.252914,325.594452 234.756927,318.747437 
	C243.301910,318.747437 251.023499,318.747437 259.167755,318.747437 
	C259.167755,323.654205 258.975525,328.308929 259.241638,332.937317 
	C259.395264,335.609528 259.260681,339.032440 263.421082,339.092896 
	C267.571686,339.153259 268.026489,336.083954 268.362976,332.949707 
	C269.198059,325.171570 267.076355,319.008453 259.786682,314.906250 
	C254.874313,312.141815 250.428833,308.553925 245.736526,305.390717 
	C239.100296,300.917053 235.140533,294.778961 234.796295,286.753571 
	C234.562592,281.304626 234.548492,275.766541 235.257797,270.376495 
	C236.204391,263.183258 240.691498,258.362640 247.456818,255.831009 
	C258.414612,251.730591 269.323395,252.131714 280.035706,256.718323 
	C285.768646,259.172943 289.636200,263.321930 290.241516,269.802643 
	C290.700348,274.715454 290.921021,279.650513 291.267914,284.880371 
	C282.939697,284.880371 275.343170,284.880371 266.942322,284.880371 
	C266.942322,281.668640 267.375702,278.327759 266.776154,275.183868 
	C266.428864,273.362885 264.418854,271.858978 263.157135,270.212402 
	C261.747528,271.783356 259.449799,273.174194 259.088165,274.957642 
	C257.795319,281.333618 259.457062,286.601166 265.681061,290.134949 
	C271.309265,293.330475 276.615570,297.118988 281.923370,300.846039 
	C287.927887,305.062286 292.187012,310.769379 292.340790,318.214905 
	C292.514008,326.600311 291.620758,335.007782 291.061340,343.769104 
z"/>
<path fill="#020202" opacity="1.000000" stroke="none" 
	d="
M128.527359,272.169189 
	C132.157013,273.118408 135.467560,273.719971 138.500153,274.986877 
	C146.001907,278.120880 151.142578,283.989655 151.487015,291.938721 
	C152.112427,306.372742 152.214279,320.917419 151.125214,335.309235 
	C150.291229,346.330322 143.128784,353.159821 132.110138,354.531433 
	C125.303070,355.378784 118.103111,354.906708 111.324966,353.675568 
	C103.201553,352.200165 97.627007,346.283173 97.228745,338.192261 
	C96.454063,322.454498 96.217194,306.600281 97.256134,290.893433 
	C98.004723,279.576172 107.427231,272.816162 120.089836,272.078186 
	C122.743896,271.923462 125.417274,272.100311 128.527359,272.169189 
M120.836571,316.499908 
	C120.838135,322.976318 120.637123,329.463409 120.977524,335.921967 
	C121.067513,337.629150 122.568764,340.391022 123.869576,340.684448 
	C127.199188,341.435516 127.372231,338.254120 127.382759,336.057617 
	C127.454437,321.120361 127.455345,306.180634 127.181396,291.247131 
	C127.151955,289.641785 125.212631,288.071503 124.159264,286.484955 
	C123.052269,288.185638 121.064850,289.848145 120.989235,291.593506 
	C120.644554,299.549591 120.837135,307.528900 120.836571,316.499908 
z"/>
<path fill="#22BFCB" opacity="1.000000" stroke="none" 
	d="
M390.394592,333.606384 
	C395.379883,333.946045 400.023560,333.946045 405.143127,333.946045 
	C405.143127,340.770752 405.143127,347.127014 405.143127,353.823639 
	C391.617096,353.823639 378.085785,353.823639 364.273438,353.823639 
	C364.273438,321.024139 364.273438,288.349670 364.273438,255.408447 
	C372.740479,255.408447 380.970917,255.408447 390.053009,255.408447 
	C390.053009,281.490692 390.053009,307.378693 390.394592,333.606384 
z"/>
<path fill="#050505" opacity="1.000000" stroke="none" 
	d="
M197.113800,348.852661 
	C197.113800,328.554413 197.113800,308.742096 197.113800,288.613312 
	C195.512711,288.335114 193.984650,288.069611 192.298691,287.776672 
	C192.298691,283.883118 192.298691,280.089325 192.298691,276.005432 
	C193.776993,275.703644 195.308670,275.390961 197.113861,275.022430 
	C197.113861,273.603180 197.091446,272.290039 197.117416,270.977875 
	C197.313812,261.054352 201.354584,256.634186 211.201447,256.090485 
	C216.507477,255.797501 221.842987,256.038361 227.525726,256.038361 
	C227.525726,259.913849 227.525726,263.818115 227.525726,267.998108 
	C224.437454,270.078979 216.083130,265.670197 217.921082,275.441254 
	C221.149414,275.441254 224.240753,275.441254 227.605499,275.441254 
	C227.605499,279.791840 227.605499,283.693176 227.605499,287.978363 
	C225.841858,288.075836 224.103165,288.171906 222.059235,288.284882 
	C222.059235,310.094757 222.059235,331.681213 222.059235,353.637695 
	C213.709335,353.637695 205.672012,353.637695 197.303452,353.637695 
	C197.241364,352.230286 197.177582,350.784454 197.113800,348.852661 
z"/>
<path fill="#000000" opacity="1.000000" stroke="none" 
	d="
M185.124039,291.000061 
	C185.124039,312.138794 185.124039,332.777527 185.124039,353.707458 
	C176.850098,353.707458 168.760025,353.707458 160.334167,353.707458 
	C160.334167,321.349091 160.334167,288.823730 160.334167,256.086609 
	C168.462280,256.086609 176.537445,256.086609 185.124039,256.086609 
	C185.124039,267.627655 185.124039,279.063843 185.124039,291.000061 
z"/>
<path fill="#26C0CC" opacity="1.000000" stroke="none" 
	d="
M139.802444,123.920288 
	C136.961761,135.518204 134.257187,146.752228 131.413712,158.563202 
	C129.398117,158.563202 126.148842,158.563202 122.898033,158.563202 
	C119.816345,102.356667 172.299698,50.847118 227.576202,54.007702 
	C227.576202,57.238312 227.576202,60.476460 227.576202,63.723221 
	C186.337585,66.392395 156.584763,85.409592 139.802444,123.920288 
z"/>
<path fill="#26C0CC" opacity="1.000000" stroke="none" 
	d="
M191.680649,94.576309 
	C168.632584,108.347511 160.064026,122.769287 153.564331,158.594971 
	C150.366776,158.594971 147.115295,158.594971 143.865982,158.594971 
	C141.428711,115.634750 180.513016,73.176674 227.481354,74.744835 
	C227.481354,77.936104 227.481354,81.153694 227.481354,84.907898 
	C215.080795,85.585938 203.022949,88.155998 191.680649,94.576309 
z"/>
<path fill="#27C0CC" opacity="1.000000" stroke="none" 
	d="
M175.193985,155.272644 
	C174.305481,156.760895 173.570389,158.524200 172.539688,158.718353 
	C170.147736,159.168961 167.613022,158.861801 165.173386,158.861801 
	C161.881378,129.530075 190.161102,94.397377 227.489105,95.739151 
	C227.489105,98.934532 227.489105,102.156181 227.489105,105.758949 
	C224.038300,106.263397 220.444153,106.602425 216.931366,107.332726 
	C195.004517,111.891373 178.707123,129.558716 175.710114,151.883575 
	C175.577469,152.871765 175.380249,153.851288 175.193985,155.272644 
z"/>
<path fill="#27C1CC" opacity="1.000000" stroke="none" 
	d="
M199.453140,144.686584 
	C197.979263,149.450027 196.697281,153.884384 195.330307,158.612701 
	C192.436615,158.612701 189.190475,158.612701 185.976517,158.612701 
	C183.570740,138.121902 204.609665,114.744698 227.618469,116.981934 
	C227.618469,120.203415 227.618469,123.450584 227.618469,126.965797 
	C215.161407,127.898842 205.630707,133.343063 199.453140,144.686584 
z"/>
<path fill="#EDEDED" opacity="1.000000" stroke="none" 
	d="
M120.836571,315.999878 
	C120.837135,307.528900 120.644554,299.549591 120.989235,291.593506 
	C121.064850,289.848145 123.052269,288.185638 124.159264,286.484955 
	C125.212631,288.071503 127.151955,289.641785 127.181396,291.247131 
	C127.455345,306.180634 127.454437,321.120361 127.382759,336.057617 
	C127.372231,338.254120 127.199188,341.435516 123.869576,340.684448 
	C122.568764,340.391022 121.067513,337.629150 120.977524,335.921967 
	C120.637123,329.463409 120.838135,322.976318 120.836571,315.999878 
z"/>
</svg>