<?xml version="1.0" standalone="no"?>
<!DOCTYPE svg PUBLIC "-//W3C//DTD SVG 20010904//EN"
 "http://www.w3.org/TR/2001/REC-SVG-20010904/DTD/svg10.dtd">
<svg version="1.0" xmlns="http://www.w3.org/2000/svg"
 width="1200.000000pt" height="628.000000pt" viewBox="0 0 1200.000000 628.000000"
 preserveAspectRatio="xMidYMid meet">
<metadata>
Created by potrace 1.16, written by Peter Selinger 2001-2019
</metadata>
<g transform="translate(0.000000,628.000000) scale(0.100000,-0.100000)"
fill="#000000" stroke="none">
<path d="M5951 5973 c-12 -10 -54 -72 -94 -138 -68 -113 -74 -120 -112 -128
l-40 -8 -70 78 c-147 164 -140 157 -180 157 -51 0 -63 -17 -119 -177 -44 -125
-50 -136 -78 -146 -17 -6 -36 -11 -43 -11 -6 0 -63 38 -125 85 -63 47 -124 88
-136 91 -31 8 -62 -4 -79 -30 -11 -17 -55 -260 -55 -305 0 -4 -17 -16 -39 -25
l-39 -18 -130 61 c-147 69 -180 74 -212 34 -20 -26 -21 -34 -15 -182 l6 -156
-30 -23 -29 -22 -150 37 c-127 31 -154 35 -176 25 -52 -23 -53 -48 -13 -213
l37 -150 -22 -31 -23 -30 -156 6 c-148 7 -156 6 -182 -14 -41 -32 -35 -67 34
-213 l61 -129 -17 -39 c-10 -21 -22 -39 -26 -39 -45 0 -289 -44 -306 -55 -25
-17 -38 -53 -29 -83 4 -10 45 -70 91 -132 47 -63 85 -119 85 -125 0 -7 -5 -26
-11 -42 -9 -28 -21 -35 -145 -78 -160 -56 -178 -69 -178 -120 0 -40 -9 -30
156 -180 76 -69 77 -71 72 -110 -6 -39 -9 -42 -130 -114 -127 -75 -154 -99
-154 -136 0 -37 27 -61 152 -135 68 -40 123 -73 124 -74 1 -1 4 -19 7 -42 l7
-40 -114 -102 c-66 -60 -117 -113 -120 -127 -4 -15 0 -37 9 -54 15 -31 19 -33
212 -101 81 -28 93 -36 102 -63 6 -16 11 -35 11 -42 0 -6 -38 -63 -85 -125
-47 -63 -88 -124 -91 -136 -8 -31 4 -62 30 -79 17 -11 260 -55 305 -55 4 0 16
-18 26 -39 l17 -39 -61 -129 c-69 -146 -75 -181 -34 -213 26 -20 34 -21 182
-14 l156 6 23 -30 22 -31 -37 -150 c-41 -164 -39 -189 13 -213 22 -10 49 -6
176 25 l150 37 29 -22 30 -23 -6 -156 c-6 -148 -5 -156 15 -182 32 -40 67 -35
213 34 l130 61 37 -17 37 -17 17 -121 c23 -161 32 -193 59 -212 44 -31 50 -28
237 109 80 58 82 59 119 47 38 -11 39 -12 81 -133 53 -154 65 -177 96 -188 45
-18 71 0 176 116 101 112 103 114 138 108 19 -4 38 -8 41 -10 4 -2 40 -58 80
-125 75 -124 98 -149 135 -149 36 0 61 29 137 155 68 113 74 120 112 128 l39
8 71 -78 c149 -165 140 -157 180 -157 51 0 64 18 120 178 43 124 50 136 78
145 16 6 35 11 41 11 7 0 61 -37 121 -81 128 -95 145 -104 179 -95 41 10 54
43 77 198 l22 146 37 17 37 17 130 -61 c146 -69 181 -74 213 -34 20 26 21 34
15 183 l-6 155 30 23 29 22 150 -37 c127 -31 154 -35 176 -25 52 24 54 49 13
214 l-37 150 22 29 23 30 156 -6 c148 -6 156 -5 182 15 42 33 36 70 -34 214
l-62 127 18 38 17 38 121 17 c161 23 193 32 212 59 31 44 28 50 -109 237 -58
79 -59 82 -48 119 12 37 13 38 148 86 162 58 178 69 178 120 0 31 -7 44 -39
73 -203 183 -194 174 -188 217 5 39 8 42 129 114 127 75 154 99 154 136 0 37
-27 61 -150 135 -66 40 -122 75 -124 79 -2 3 -6 22 -10 41 -6 35 -4 37 108
138 116 104 134 130 116 176 -11 31 -34 43 -187 96 l-123 43 -10 39 c-13 45
-17 35 78 162 87 116 97 136 88 170 -10 41 -43 54 -198 77 l-146 22 -17 37
-17 38 61 130 c69 147 74 180 34 212 -26 20 -34 21 -183 15 l-155 -7 -23 30
-22 31 37 150 c41 164 39 189 -13 213 -22 10 -49 6 -176 -25 l-150 -37 -29 22
-30 23 6 156 c6 148 5 156 -15 182 -33 42 -70 36 -214 -35 l-126 -61 -40 18
c-22 10 -40 23 -40 29 0 48 -43 285 -55 303 -17 25 -53 38 -83 29 -10 -4 -70
-44 -133 -91 -63 -47 -119 -85 -125 -85 -6 0 -25 5 -41 11 -28 9 -34 21 -73
132 -53 153 -65 176 -96 187 -45 18 -71 0 -176 -116 -101 -112 -103 -114 -138
-108 -19 4 -38 9 -42 11 -5 2 -39 58 -78 123 -39 65 -80 126 -92 134 -29 21
-61 20 -87 -1z m138 -522 c59 -42 83 -122 60 -201 -3 -11 12 -16 71 -22 364
-37 729 -183 1034 -412 263 -198 466 -445 615 -747 l66 -135 45 24 c112 60
240 -16 240 -143 0 -88 -60 -154 -148 -163 l-49 -4 13 -57 c58 -245 64 -523
19 -791 -76 -443 -295 -858 -617 -1166 l-94 -89 37 -35 c124 -118 11 -324
-153 -279 -50 13 -106 66 -114 108 -4 17 -8 31 -10 31 -2 0 -44 -23 -93 -50
-476 -271 -1057 -338 -1594 -184 -158 45 -268 92 -411 175 -65 38 -120 69
-122 69 -2 0 -4 -9 -4 -20 0 -84 -110 -154 -202 -129 -137 37 -167 225 -47
298 l29 18 -111 99 c-99 89 -229 234 -229 255 0 5 -27 50 -61 101 -78 118
-166 294 -214 428 -21 58 -44 112 -51 120 -12 15 -43 139 -63 255 -22 123 -32
327 -22 468 6 76 14 143 18 150 4 7 17 60 29 118 l20 107 -53 4 c-159 13 -211
205 -81 301 55 41 152 32 203 -19 9 -9 17 -15 19 -13 2 2 22 47 45 99 80 184
242 425 396 588 244 260 614 473 983 566 113 29 270 56 326 56 33 0 37 3 30
18 -4 9 -9 37 -11 62 -10 129 149 217 256 141z"/>
<path d="M5286 3739 c-53 -28 -80 -55 -71 -70 5 -7 4 -10 -2 -6 -19 12 -46
-56 -51 -130 -6 -93 15 -152 74 -210 33 -32 55 -44 98 -53 58 -12 119 -6 139
15 33 32 82 39 70 9 -4 -11 6 -14 46 -14 l51 0 0 235 0 235 -49 0 c-47 0 -49
-1 -55 -32 -6 -27 -9 -30 -17 -16 -33 57 -156 77 -233 37z m184 -84 c15 -8 38
-31 50 -50 19 -30 22 -47 18 -105 -3 -60 -7 -73 -33 -100 -43 -44 -94 -57
-146 -37 -23 9 -46 14 -51 11 -5 -3 -7 -2 -6 3 1 4 -6 24 -16 43 -41 76 -28
169 31 220 27 24 43 30 79 30 25 0 58 -7 74 -15z"/>
<path d="M5922 3735 c-36 -30 -42 -31 -42 -5 0 17 -7 20 -50 20 l-50 0 0 -235
0 -235 50 0 50 0 0 131 c0 148 13 214 45 235 23 15 94 22 113 11 6 -4 17 11
28 39 21 56 14 64 -63 64 -40 0 -58 -5 -81 -25z"/>
<path d="M6316 3735 c-37 -25 -38 -25 -43 -5 -4 17 -14 20 -54 20 l-49 0 0
-235 0 -235 49 0 49 0 4 158 c5 197 19 231 100 232 64 0 72 -24 77 -222 l3
-168 48 0 49 0 3 171 3 171 28 24 c32 28 82 31 112 8 18 -14 20 -29 23 -194
l4 -180 49 0 49 0 0 179 c0 182 -4 212 -37 251 -57 68 -190 66 -242 -4 -14
-18 -15 -18 -28 -1 -7 11 -13 16 -13 12 0 -3 -12 5 -26 18 -38 35 -107 35
-158 0z"/>
<path d="M6990 2794 l0 -244 25 0 25 0 0 183 1 182 184 -190 184 -190 1 248 0
247 -25 0 -25 0 0 -187 0 -188 -83 85 c-45 47 -128 133 -184 192 l-103 107 0
-245z"/>
<path d="M4190 3005 c0 -24 3 -25 60 -25 l60 0 0 -215 0 -215 25 0 25 0 0 215
0 215 60 0 c57 0 60 1 60 25 l0 25 -145 0 -145 0 0 -25z"/>
<path d="M4554 3017 c-2 -7 -3 -114 -2 -237 3 -225 3 -225 26 -228 22 -3 22
-2 22 103 0 80 3 106 12 103 7 -3 37 -40 68 -84 30 -44 62 -90 71 -102 12 -17
25 -23 44 -20 l27 3 -55 76 c-30 41 -62 87 -72 102 l-17 26 41 17 c51 20 87
85 77 140 -10 48 -53 93 -101 104 -59 14 -135 12 -141 -3z m150 -48 c52 -24
58 -114 10 -146 -13 -8 -44 -18 -69 -21 l-45 -5 0 92 0 91 40 0 c21 0 50 -5
64 -11z"/>
<path d="M4920 2842 c0 -217 7 -240 81 -280 84 -45 194 -17 237 61 14 26 18
65 20 220 l4 187 -26 0 -25 0 -3 -184 c-3 -210 -10 -229 -84 -254 -33 -11 -45
-11 -81 3 -68 26 -73 44 -73 255 l0 180 -25 0 -25 0 0 -188z"/>
<path d="M5424 2996 c-32 -32 -40 -56 -34 -111 3 -33 40 -65 117 -102 40 -20
78 -42 85 -51 21 -25 15 -88 -11 -115 -46 -50 -131 -40 -158 19 -17 35 -28 40
-51 25 -12 -7 -11 -13 1 -37 29 -56 62 -77 125 -81 94 -6 155 46 156 136 1 65
-21 94 -107 137 -77 39 -117 69 -117 90 0 26 23 62 47 73 38 17 69 13 101 -14
24 -20 32 -22 45 -12 13 10 14 15 4 27 -27 35 -62 50 -115 50 -48 0 -58 -4
-88 -34z"/>
<path d="M5680 3005 c0 -24 3 -25 60 -25 l60 0 0 -215 c0 -208 1 -215 20 -215
19 0 20 7 20 215 l0 215 60 0 c57 0 60 1 60 25 l0 25 -140 0 -140 0 0 -25z"/>
<path d="M6030 3005 l0 -25 111 0 c94 0 110 -2 105 -15 -3 -8 -58 -101 -122
-207 -64 -106 -119 -196 -121 -200 -2 -5 70 -8 161 -8 159 0 166 1 166 20 0
19 -7 20 -125 20 -69 0 -125 2 -125 4 0 3 123 209 242 404 l20 32 -156 0 -156
0 0 -25z"/>
<path d="M6525 3009 c-88 -45 -135 -125 -135 -227 0 -88 44 -166 119 -210 40
-23 57 -27 127 -27 72 0 86 3 130 30 72 45 108 109 112 200 3 57 0 80 -18 118
-24 52 -76 102 -126 123 -51 22 -162 18 -209 -7z m218 -55 c120 -85 117 -261
-6 -338 -131 -81 -297 13 -297 168 1 88 49 161 130 195 45 19 126 7 173 -25z"/>
<path d="M7540 2790 l0 -240 125 0 c118 0 125 1 125 20 0 19 -7 20 -100 20
l-100 0 0 100 0 100 95 0 c88 0 95 1 95 20 0 19 -7 20 -95 20 l-95 0 0 75 0
75 100 0 100 0 0 25 0 25 -125 0 -125 0 0 -240z"/>
</g>
</svg>
