<svg xmlns="http://www.w3.org/2000/svg" width="500" height="500" viewBox="0 0 500 500" version="1.1"><path d="M 139.670 63.045 C 137.355 64.866, 130.566 75.804, 129.822 78.912 C 129.645 79.652, 128.463 81.328, 127.196 82.637 C 125.929 83.946, 125.137 85.412, 125.435 85.895 C 125.734 86.378, 125.313 87.325, 124.500 88 C 123.687 88.675, 123.239 89.578, 123.505 90.009 C 123.771 90.439, 123.269 91.066, 122.391 91.404 C 121.369 91.796, 121.029 92.634, 121.449 93.728 C 121.810 94.669, 121.787 95.120, 121.396 94.730 C 120.637 93.970, 110.791 109.657, 110.713 111.750 C 110.688 112.438, 110.265 113, 109.774 113 C 109.284 113, 109.160 113.450, 109.500 114 C 109.840 114.550, 109.698 115, 109.184 115 C 108.211 115, 95.755 136.494, 95.371 138.834 C 95.251 139.568, 94.510 140.693, 93.725 141.334 C 92.941 141.975, 90.573 145.650, 88.464 149.500 C 86.356 153.350, 83.378 158.478, 81.847 160.896 C 80.315 163.314, 79.300 165.677, 79.590 166.146 C 79.881 166.616, 79.649 167, 79.076 167 C 78.503 167, 76.897 169.137, 75.508 171.750 C 74.118 174.363, 72.187 177.850, 71.216 179.500 C 70.246 181.150, 67.503 185.808, 65.122 189.851 C 62.741 193.895, 60.696 197.868, 60.576 198.681 C 60.457 199.495, 59.917 200.461, 59.377 200.830 C 58.090 201.708, 53.664 209, 54.418 209 C 54.738 209, 54.100 209.900, 53 211 C 51.900 212.100, 51 213.430, 51 213.956 C 51 214.481, 49.881 216.560, 48.514 218.574 C 47.147 220.589, 46.250 222.595, 46.520 223.033 C 46.791 223.471, 46.614 223.980, 46.126 224.165 C 44.539 224.765, 39.045 234.264, 39.686 235.301 C 40.029 235.855, 39.861 236.032, 39.312 235.693 C 37.656 234.669, 33.568 244.086, 33.350 249.429 C 33.141 254.519, 36.867 264, 39.076 264 C 39.649 264, 39.840 264.450, 39.500 265 C 39.160 265.550, 39.434 266, 40.108 266 C 40.782 266, 41.032 266.302, 40.663 266.670 C 40.295 267.039, 40.754 268.501, 41.685 269.920 C 42.616 271.339, 45.586 276.325, 48.286 281 C 50.987 285.675, 53.632 289.770, 54.164 290.100 C 54.697 290.430, 55.240 291.330, 55.371 292.100 C 55.814 294.707, 59.045 300, 60.192 300 C 60.820 300, 61.042 300.291, 60.686 300.648 C 59.917 301.416, 64.002 309, 65.184 309 C 65.633 309, 65.947 309.337, 65.882 309.750 C 65.599 311.537, 66.129 312.762, 68.098 314.875 C 69.252 316.113, 70.279 317.660, 70.380 318.313 C 70.695 320.337, 74.380 326, 75.382 326 C 75.905 326, 76.032 326.302, 75.663 326.670 C 75.295 327.039, 75.735 328.473, 76.642 329.857 C 78.312 332.407, 90.854 354.114, 96.224 363.750 C 97.834 366.637, 99.491 369, 99.908 369 C 100.325 369, 100.667 369.584, 100.667 370.297 C 100.667 371.571, 107.604 384.019, 108.860 385 C 109.212 385.275, 110.280 387.188, 111.234 389.250 C 112.187 391.313, 113.451 393, 114.043 393 C 114.634 393, 114.840 393.450, 114.500 394 C 114.160 394.550, 114.284 395, 114.774 395 C 115.265 395, 115.678 395.563, 115.692 396.250 C 115.715 397.376, 122.678 409.783, 123.969 411 C 124.261 411.275, 125.280 413.188, 126.234 415.250 C 127.187 417.313, 128.451 419, 129.043 419 C 129.634 419, 129.840 419.450, 129.500 420 C 129.160 420.550, 129.284 421, 129.774 421 C 130.265 421, 130.667 421.571, 130.667 422.270 C 130.667 423.911, 135.608 431.369, 139.350 435.375 L 142.270 438.500 250.867 438.206 L 359.465 437.912 361.732 435.782 C 362.980 434.610, 364 433.196, 364 432.640 C 364 432.084, 364.812 430.700, 365.803 429.564 C 368.518 426.457, 375.333 414.846, 375.333 413.329 C 375.333 412.598, 375.611 412, 375.951 412 C 376.888 412, 380.234 406.002, 379.307 405.985 C 378.863 405.976, 379.025 405.635, 379.668 405.227 C 380.310 404.818, 382.361 401.788, 384.226 398.492 C 386.091 395.196, 388.430 391.262, 389.424 389.750 C 390.417 388.238, 390.841 386.993, 390.365 386.985 C 389.889 386.976, 390.013 386.639, 390.641 386.235 C 392.294 385.170, 404.887 363.220, 404.224 362.558 C 403.918 362.251, 404.218 362, 404.892 362 C 405.566 362, 405.840 361.550, 405.500 361 C 405.160 360.450, 405.368 360, 405.962 360 C 406.557 360, 407.591 358.762, 408.260 357.250 C 408.930 355.738, 411.684 350.900, 414.381 346.500 C 417.078 342.100, 419.295 337.938, 419.309 337.250 C 419.322 336.563, 419.783 336, 420.333 336 C 420.883 336, 421.040 335.707, 420.682 335.349 C 420.324 334.991, 420.638 334.203, 421.380 333.599 C 422.122 332.994, 424.253 329.575, 426.115 326 C 427.977 322.425, 429.749 319.275, 430.053 319 C 431.486 317.704, 435.065 310.998, 434.332 310.985 C 433.874 310.976, 434.012 310.639, 434.637 310.235 C 435.262 309.831, 439.707 302.750, 444.515 294.500 C 449.323 286.250, 455.674 275.391, 458.628 270.370 C 461.583 265.348, 464 260.805, 464 260.273 C 464 259.741, 464.863 258.312, 465.917 257.096 C 468.300 254.349, 468.488 246.863, 466.284 242.539 C 463.326 236.738, 455.710 224.498, 454.851 224.165 C 454.376 223.980, 454.242 223.418, 454.553 222.915 C 454.864 222.412, 454.641 222, 454.059 222 C 453.477 222, 453.100 221.662, 453.223 221.250 C 453.345 220.838, 451.482 217.125, 449.082 213 C 446.682 208.875, 444.010 204.262, 443.144 202.750 C 442.277 201.238, 441.291 200, 440.951 200 C 440.611 200, 440.333 199.387, 440.333 198.638 C 440.333 196.751, 436.055 190, 434.859 190 C 434.322 190, 434.138 189.586, 434.450 189.081 C 434.763 188.575, 434.307 187.450, 433.438 186.581 C 432.568 185.711, 432.184 185, 432.584 185 C 432.983 185, 432.476 184.078, 431.457 182.952 C 430.437 181.826, 429.493 180.150, 429.357 179.229 C 429.222 178.308, 428.326 176.980, 427.365 176.277 C 426.404 175.575, 425.961 175, 426.380 175 C 426.800 175, 426.432 174.289, 425.562 173.419 C 424.693 172.550, 424.237 171.425, 424.550 170.919 C 424.862 170.414, 424.641 170, 424.059 170 C 423.477 170, 423 169.325, 423 168.500 C 423 167.675, 422.100 166.100, 421 165 C 419.900 163.900, 419.254 163, 419.564 163 C 419.874 163, 419.116 161.200, 417.880 159 C 416.643 156.800, 415.238 155, 414.757 155 C 414.276 155, 414.125 154.606, 414.423 154.125 C 414.720 153.644, 413.734 151.497, 412.232 149.355 C 410.729 147.214, 408.642 143.782, 407.593 141.731 C 406.543 139.679, 405.231 138, 404.676 138 C 404.121 138, 403.958 137.709, 404.314 137.352 C 405.106 136.561, 400.980 129, 399.757 129 C 399.276 129, 399.160 128.550, 399.500 128 C 399.840 127.450, 399.566 127, 398.892 127 C 398.218 127, 397.953 126.713, 398.304 126.363 C 398.840 125.827, 395.838 120.632, 394.048 119 C 393.747 118.725, 393.403 117.983, 393.284 117.351 C 392.967 115.667, 386.932 105.602, 385.819 104.900 C 385.295 104.570, 384.770 103.670, 384.651 102.900 C 384.371 101.082, 380.753 95, 379.951 95 C 379.611 95, 379.333 94.416, 379.333 93.703 C 379.333 92.429, 372.396 79.981, 371.140 79 C 370.788 78.725, 369.720 76.813, 368.766 74.750 C 367.813 72.687, 366.549 71, 365.957 71 C 365.366 71, 365.160 70.550, 365.500 70 C 365.840 69.450, 365.566 69, 364.892 69 C 364.218 69, 363.907 68.760, 364.200 68.467 C 364.493 68.173, 363.191 66.391, 361.306 64.506 L 357.878 61.078 250.028 61.076 C 144.195 61.073, 142.130 61.110, 139.670 63.045 M 145.256 71.245 C 144.708 71.935, 139.999 79.925, 134.791 89 C 126.597 103.279, 103.990 142.291, 54.360 227.795 C 47.562 239.507, 42 249.548, 42 250.109 C 42 250.670, 45.075 256.388, 48.833 262.815 C 52.591 269.242, 60.623 283.050, 66.683 293.500 C 77.812 312.695, 106.086 361.417, 131.678 405.500 L 145.611 429.500 250.243 429.755 L 354.876 430.009 359.260 422.255 C 361.671 417.990, 371.877 400.325, 381.941 383 C 392.004 365.675, 408.333 337.550, 418.227 320.500 C 428.121 303.450, 441.394 280.594, 447.722 269.710 L 459.228 249.919 446.713 228.210 C 439.830 216.269, 427.665 195.250, 419.680 181.500 C 411.694 167.750, 393.927 137.150, 380.197 113.500 L 355.234 70.500 250.743 70.245 C 167.898 70.044, 146.046 70.251, 145.256 71.245 M 230.798 185.931 C 212.511 191.778, 202.353 206.238, 205.021 222.627 C 206.214 229.960, 209.055 234.935, 215.314 240.656 C 219.725 244.688, 223.909 246.984, 237.622 252.899 C 246.905 256.904, 256.441 261.300, 258.813 262.669 C 267.404 267.627, 269.673 276.886, 263.906 283.454 C 255.582 292.934, 233.945 291.807, 217.843 281.054 L 211.552 276.853 206.310 282.676 C 199.775 289.937, 199.116 291.663, 202.047 293.839 C 217.347 305.192, 232.521 309.930, 249.446 308.639 C 269.104 307.139, 284.531 296.461, 288.014 281.943 C 289.906 274.053, 288.869 263.159, 285.712 257.772 C 280.325 248.579, 273.909 244.562, 246.918 233.487 C 240.638 230.910, 233.990 227.661, 232.144 226.269 C 227.513 222.775, 225.645 218.031, 226.967 213.122 C 228.854 206.116, 235.179 202.646, 246 202.682 C 255.333 202.713, 260.847 204.173, 268.382 208.609 C 274.047 211.944, 274.335 212.006, 276.217 210.304 C 279.846 207.019, 285.147 199.046, 284.450 197.920 C 282.830 195.298, 271.059 188.790, 263.777 186.489 C 253.842 183.351, 239.620 183.110, 230.798 185.931 M 127.693 186.750 C 127.460 187.162, 126.111 191.100, 124.697 195.500 C 123.283 199.900, 116.431 221.050, 109.470 242.500 C 102.510 263.950, 95.056 286.921, 92.907 293.548 C 90.758 300.174, 89 305.911, 89 306.298 C 89 306.684, 93.882 307, 99.849 307 L 110.697 307 113.916 295.750 C 115.686 289.563, 117.814 282.128, 118.644 279.230 L 120.154 273.959 140.327 274.230 L 160.500 274.500 165.065 290.500 L 169.630 306.500 180.815 306.783 C 189.616 307.005, 192 306.781, 192 305.731 C 192 304.997, 185.276 283.719, 177.058 258.448 C 168.840 233.177, 160.194 206.537, 157.845 199.250 L 153.574 186 140.846 186 C 133.846 186, 127.927 186.338, 127.693 186.750 M 303.777 218.750 C 303.625 236.762, 303.620 263.988, 303.766 279.250 L 304.031 307 312.997 307 C 321.878 307, 321.968 306.975, 322.632 304.329 C 324.106 298.458, 321.566 223.550, 319.487 211.573 C 318.420 205.425, 320.175 210.268, 324.926 226.583 C 327.635 235.887, 332.284 250.475, 335.257 259 L 340.661 274.500 347.058 274.500 L 353.454 274.500 361.729 249.500 C 366.281 235.750, 371.112 220.900, 372.466 216.500 L 374.927 208.500 374.438 214.500 C 372.588 237.212, 372.016 252.090, 372.009 277.750 L 372 307 381.500 307 L 391 307 391 246.500 L 391 186 379.043 186 L 367.086 186 363.116 198.750 C 358.475 213.654, 351.771 236.002, 349.436 244.350 C 348.536 247.567, 347.445 249.817, 347.011 249.350 C 346.577 248.882, 345.479 245.800, 344.571 242.500 C 343.663 239.200, 339.489 225.137, 335.294 211.250 L 327.668 186 315.861 186 L 304.054 186 303.777 218.750 M 138.741 208 C 137.874 211.025, 134.690 222.500, 131.665 233.500 C 128.640 244.500, 125.855 254.287, 125.476 255.250 C 124.837 256.870, 125.909 257, 139.893 257 C 149.753 257, 155 256.636, 155 255.953 C 155 255.092, 149.675 235.651, 141.729 207.500 L 140.317 202.500 138.741 208" stroke="none" fill="#f4f6f8" fill-rule="evenodd"/><path d="M 351.762 61.707 C 353.006 61.946, 354.806 61.937, 355.762 61.687 C 356.718 61.437, 355.700 61.241, 353.500 61.252 C 351.300 61.263, 350.518 61.468, 351.762 61.707 M 145.256 71.245 C 144.708 71.935, 139.999 79.925, 134.791 89 C 126.597 103.279, 103.990 142.291, 54.360 227.795 C 47.562 239.507, 42 249.548, 42 250.109 C 42 250.670, 45.075 256.388, 48.833 262.815 C 52.591 269.242, 60.623 283.050, 66.683 293.500 C 77.812 312.695, 106.086 361.417, 131.678 405.500 L 145.611 429.500 250.243 429.755 L 354.876 430.009 359.260 422.255 C 361.671 417.990, 371.877 400.325, 381.941 383 C 392.004 365.675, 408.333 337.550, 418.227 320.500 C 428.121 303.450, 441.394 280.594, 447.722 269.710 L 459.228 249.919 446.713 228.210 C 439.830 216.269, 427.665 195.250, 419.680 181.500 C 411.694 167.750, 393.927 137.150, 380.197 113.500 L 355.234 70.500 250.743 70.245 C 167.898 70.044, 146.046 70.251, 145.256 71.245 M 230.798 185.931 C 212.511 191.778, 202.353 206.238, 205.021 222.627 C 206.214 229.960, 209.055 234.935, 215.314 240.656 C 219.725 244.688, 223.909 246.984, 237.622 252.899 C 246.905 256.904, 256.441 261.300, 258.813 262.669 C 267.404 267.627, 269.673 276.886, 263.906 283.454 C 255.582 292.934, 233.945 291.807, 217.843 281.054 L 211.552 276.853 206.310 282.676 C 199.775 289.937, 199.116 291.663, 202.047 293.839 C 217.347 305.192, 232.521 309.930, 249.446 308.639 C 269.104 307.139, 284.531 296.461, 288.014 281.943 C 289.906 274.053, 288.869 263.159, 285.712 257.772 C 280.325 248.579, 273.909 244.562, 246.918 233.487 C 240.638 230.910, 233.990 227.661, 232.144 226.269 C 227.513 222.775, 225.645 218.031, 226.967 213.122 C 228.854 206.116, 235.179 202.646, 246 202.682 C 255.333 202.713, 260.847 204.173, 268.382 208.609 C 274.047 211.944, 274.335 212.006, 276.217 210.304 C 279.846 207.019, 285.147 199.046, 284.450 197.920 C 282.830 195.298, 271.059 188.790, 263.777 186.489 C 253.842 183.351, 239.620 183.110, 230.798 185.931 M 127.693 186.750 C 127.460 187.162, 126.111 191.100, 124.697 195.500 C 123.283 199.900, 116.431 221.050, 109.470 242.500 C 102.510 263.950, 95.056 286.921, 92.907 293.548 C 90.758 300.174, 89 305.911, 89 306.298 C 89 306.684, 93.882 307, 99.849 307 L 110.697 307 113.916 295.750 C 115.686 289.563, 117.814 282.128, 118.644 279.230 L 120.154 273.959 140.327 274.230 L 160.500 274.500 165.065 290.500 L 169.630 306.500 180.815 306.783 C 189.616 307.005, 192 306.781, 192 305.731 C 192 304.997, 185.276 283.719, 177.058 258.448 C 168.840 233.177, 160.194 206.537, 157.845 199.250 L 153.574 186 140.846 186 C 133.846 186, 127.927 186.338, 127.693 186.750 M 303.777 218.750 C 303.625 236.762, 303.620 263.988, 303.766 279.250 L 304.031 307 312.997 307 C 321.878 307, 321.968 306.975, 322.632 304.329 C 324.106 298.458, 321.566 223.550, 319.487 211.573 C 318.420 205.425, 320.175 210.268, 324.926 226.583 C 327.635 235.887, 332.284 250.475, 335.257 259 L 340.661 274.500 347.058 274.500 L 353.454 274.500 361.729 249.500 C 366.281 235.750, 371.112 220.900, 372.466 216.500 L 374.927 208.500 374.438 214.500 C 372.588 237.212, 372.016 252.090, 372.009 277.750 L 372 307 381.500 307 L 391 307 391 246.500 L 391 186 379.043 186 L 367.086 186 363.116 198.750 C 358.475 213.654, 351.771 236.002, 349.436 244.350 C 348.536 247.567, 347.445 249.817, 347.011 249.350 C 346.577 248.882, 345.479 245.800, 344.571 242.500 C 343.663 239.200, 339.489 225.137, 335.294 211.250 L 327.668 186 315.861 186 L 304.054 186 303.777 218.750 M 138.741 208 C 137.874 211.025, 134.690 222.500, 131.665 233.500 C 128.640 244.500, 125.855 254.287, 125.476 255.250 C 124.837 256.870, 125.909 257, 139.893 257 C 149.753 257, 155 256.636, 155 255.953 C 155 255.092, 149.675 235.651, 141.729 207.500 L 140.317 202.500 138.741 208" stroke="none" fill="#2e439a" fill-rule="evenodd"/></svg>