<?xml version="1.0" standalone="no"?>
<!DOCTYPE svg PUBLIC "-//W3C//DTD SVG 20010904//EN"
 "http://www.w3.org/TR/2001/REC-SVG-20010904/DTD/svg10.dtd">
<svg version="1.0" xmlns="http://www.w3.org/2000/svg"
 width="820.000000pt" height="460.000000pt" viewBox="0 0 820.000000 460.000000"
 preserveAspectRatio="xMidYMid meet">
<metadata>
Created by potrace 1.16, written by Peter Selinger 2001-2019
</metadata>
<g transform="translate(0.000000,460.000000) scale(0.100000,-0.100000)"
fill="#000000" stroke="none">
<path d="M2055 4354 c-98 -15 -238 -55 -297 -85 -49 -25 -106 -75 -124 -110
-21 -42 -21 -827 1 -868 47 -93 233 -171 478 -201 141 -18 454 -8 572 19 162
36 241 69 307 129 69 62 68 57 68 487 0 430 1 425 -68 487 -75 67 -178 107
-360 138 -137 24 -435 26 -577 4z m615 -122 c161 -38 280 -101 280 -149 0 -34
-119 -96 -240 -126 -116 -29 -212 -39 -375 -39 -177 0 -306 17 -433 57 -77 24
-172 78 -179 101 -13 40 118 116 252 148 133 31 181 35 395 31 170 -2 233 -7
300 -23z m-760 -705 c142 -40 233 -51 430 -51 144 0 218 5 285 17 110 22 226
59 283 92 l42 24 0 -124 c0 -68 -3 -130 -6 -139 -10 -25 -94 -73 -177 -100
-224 -73 -616 -75 -842 -5 -93 28 -158 62 -184 95 -19 24 -21 40 -21 150 l0
123 68 -33 c37 -19 92 -41 122 -49z"/>
<path d="M3114 3253 c3 -27 11 -124 17 -218 6 -93 13 -172 16 -175 2 -3 29 22
59 55 l54 60 175 -180 174 -180 -56 -57 c-31 -32 -55 -59 -52 -62 5 -5 413
-35 418 -30 4 4 -17 355 -25 403 l-5 34 -58 -57 -57 -57 -173 176 -172 176 57
64 c51 59 54 65 33 65 -13 0 -105 7 -204 15 -99 8 -186 15 -193 15 -11 0 -12
-12 -8 -47z"/>
<path d="M5377 3120 c-71 -21 -131 -40 -134 -44 -3 -3 -25 -75 -48 -161 l-43
-155 -151 -159 c-83 -87 -151 -161 -151 -165 0 -4 21 -29 46 -56 l46 -49 63 6
c53 5 71 2 111 -17 l47 -23 111 117 111 117 135 34 c74 19 144 39 155 44 26
11 65 155 47 173 -9 9 -44 3 -144 -25 -73 -21 -138 -37 -143 -37 -6 0 -30 20
-54 44 l-43 44 12 54 c7 29 16 60 21 68 4 10 62 31 143 54 121 34 136 41 136
60 0 31 -89 116 -120 115 -14 -1 -83 -18 -153 -39z"/>
<path d="M4167 2982 c-26 -26 -47 -53 -47 -60 0 -30 123 -199 167 -228 15 -10
46 -21 68 -24 37 -5 58 -24 261 -234 l222 -229 -5 -57 c-9 -100 -2 -110 254
-374 l235 -241 -373 -3 c-205 -1 -374 -1 -376 2 -2 2 9 51 25 110 l30 107 101
103 c55 57 101 105 101 108 0 3 -10 27 -21 53 -17 39 -20 59 -14 108 l6 60
-42 43 c-24 24 -50 44 -58 44 -9 0 -82 -66 -163 -147 l-148 -147 -152 -41
-152 -40 -40 -162 c-40 -160 -40 -162 -21 -183 l19 -21 -64 3 c-65 3 -65 3
-68 34 -2 17 8 77 22 132 20 76 26 126 26 206 l0 106 83 0 c59 0 112 9 192 30
l110 30 70 70 70 70 -375 -2 -374 -3 -153 -410 -153 -410 0 -622 0 -623 1375
0 1375 0 0 623 0 622 -153 410 -152 410 -284 3 -283 2 94 -100 93 -99 78 -1
77 0 0 -77 c0 -68 3 -80 25 -103 13 -14 38 -50 54 -80 l31 -55 0 150 1 150 63
-230 63 -230 -60 -3 c-41 -2 -63 1 -68 10 -7 10 -9 10 -9 1 0 -9 -18 -13 -56
-13 -50 0 -55 2 -49 18 17 39 16 117 -2 154 -10 20 -136 158 -281 307 -287
294 -291 298 -392 288 l-57 -5 -222 228 c-210 217 -221 230 -221 267 0 50 -34
100 -107 155 -66 50 -126 88 -140 88 -5 0 -30 -22 -56 -48z m-321 -1449 c-2
-2 -30 -3 -63 -1 l-60 3 61 226 61 226 3 -225 c1 -124 1 -227 -2 -229z m554
207 l42 -50 -13 -56 c-7 -31 -18 -62 -25 -68 -6 -7 -37 -18 -69 -25 l-57 -13
-44 49 c-47 51 -48 55 -24 144 9 33 15 38 62 51 79 23 83 22 128 -32z m1570
-925 l0 -505 -1165 0 -1165 0 0 505 0 505 1165 0 1165 0 0 -505z"/>
</g>
</svg>
