<svg version="1.1" id="Layer_1" xmlns="http://www.w3.org/2000/svg" xmlns:xlink="http://www.w3.org/1999/xlink" x="0px" y="0px"
	 width="100%" viewBox="0 0 512 512" enable-background="new 0 0 512 512" xml:space="preserve">
<path fill="#FFFFFF" opacity="1.000000" stroke="none" 
	d="
M513.000000,232.000000 
	C513.000000,325.628784 513.000000,419.257568 513.000000,512.943176 
	C342.440247,512.943176 171.880447,512.943176 1.000000,512.943176 
	C1.000000,419.644897 1.000000,326.289429 1.359727,232.648132 
	C2.401652,235.385864 2.957784,238.444382 3.785493,241.427567 
	C12.356039,272.316956 40.184978,292.671600 70.949654,294.818726 
	C82.879135,295.651367 94.920952,294.874573 107.380005,294.909363 
	C216.775421,294.991821 325.702423,295.007477 434.629395,294.958527 
	C439.065399,294.956543 443.545410,294.637970 447.929840,293.972412 
	C479.069458,289.245178 499.822266,271.963074 510.031372,242.133911 
	C511.170013,238.806976 512.017517,235.380386 513.000000,232.000000 
M297.739471,469.319794 
	C296.161987,468.482544 294.584473,467.645294 293.003326,465.894836 
	C293.002228,425.414337 293.001190,384.933838 292.999908,344.453339 
	C292.999695,336.956940 293.493683,329.408966 292.721008,321.992981 
	C292.460907,319.496552 289.391479,316.215240 286.873657,315.293701 
	C283.420807,314.029968 279.409790,315.239105 278.053253,319.590179 
	C277.328552,321.914673 277.044952,324.464447 277.041840,326.913177 
	C276.982483,373.557281 276.994598,420.201477 276.382385,467.176514 
	C263.450928,474.469696 263.988037,487.815247 268.747345,495.008881 
	C275.653412,505.447357 288.880249,507.025055 298.672852,498.777344 
	C307.159424,492.080048 306.410767,476.320282 297.739471,469.319794 
M231.781082,470.371826 
	C230.187958,469.199127 228.594833,468.026459 227.000534,465.934784 
	C227.000366,419.664917 227.000320,373.395081 226.999298,327.125214 
	C226.999268,325.793762 227.218918,324.411774 226.940201,323.140167 
	C226.054214,319.098175 224.677582,315.409882 219.635681,315.001892 
	C214.850693,314.614685 212.109100,316.496429 210.720993,321.670135 
	C210.173325,323.711395 210.030121,325.912689 210.028320,328.041351 
	C209.989288,374.311157 209.996262,420.581024 209.382202,467.179047 
	C207.372589,468.848053 205.121490,470.300385 203.395859,472.224152 
	C196.519485,479.889954 197.690933,492.189697 206.044815,499.455750 
	C212.670547,505.218750 224.517288,506.510895 232.687515,497.746643 
	C239.857178,490.560791 240.030273,477.650635 231.781082,470.371826 
M77.723167,379.299957 
	C76.027496,378.303894 74.422127,377.087616 72.620850,376.349152 
	C63.907772,372.777161 53.139236,376.471619 48.198563,384.606903 
	C43.850533,391.766327 45.760078,403.640198 52.118919,408.983978 
	C60.158520,415.740265 70.301651,415.779724 78.659019,408.787506 
	C80.160324,406.861908 81.661629,404.936340 84.079803,403.003510 
	C105.246162,403.002319 126.412575,403.026642 147.578857,402.986969 
	C155.777649,402.971619 158.987747,399.658844 158.999237,391.442871 
	C159.003891,388.109589 159.000000,384.776306 158.999985,381.443024 
	C158.999908,362.609985 159.038284,343.776825 158.979660,324.943970 
	C158.958145,318.032501 155.348297,314.393860 149.431976,315.010590 
	C145.171890,315.454712 142.036377,319.895325 142.019058,325.882935 
	C141.966965,343.882507 141.769394,361.887085 142.142212,379.879059 
	C142.252396,385.196228 140.528229,386.189453 135.660339,386.110260 
	C118.165184,385.825775 100.662689,385.992828 82.837837,385.393311 
	C81.245010,383.567474 79.652176,381.741638 77.723167,379.299957 
M451.759583,380.348663 
	C441.757385,371.259949 428.212311,373.734589 419.932281,385.998627 
	C401.943726,385.999054 383.953918,385.886841 365.967590,386.087433 
	C361.994690,386.131744 360.875549,384.956635 360.914856,381.015472 
	C361.104248,362.029449 361.033112,343.040344 360.948669,324.052795 
	C360.940247,322.158478 360.658844,320.009491 359.735321,318.427460 
	C357.711456,314.960419 354.284821,314.174255 350.615509,315.331909 
	C346.628693,316.589722 344.967377,319.571381 344.976746,323.743134 
	C345.026886,346.062134 345.000031,368.381317 345.000061,390.700439 
	C345.000061,400.425720 347.568726,402.990967 357.393494,402.996643 
	C378.546692,403.008881 399.699890,403.002533 421.175781,403.618835 
	C428.059387,415.881165 444.226135,417.265259 452.688080,407.746094 
	C460.037140,400.619110 459.825989,386.416901 451.759583,380.348663 
z"/>
<path fill="#54A0FF" opacity="1.000000" stroke="none" 
	d="
M513.000000,231.531372 
	C512.017517,235.380386 511.170013,238.806976 510.031372,242.133911 
	C499.822266,271.963074 479.069458,289.245178 447.929840,293.972412 
	C443.545410,294.637970 439.065399,294.956543 434.629395,294.958527 
	C325.702423,295.007477 216.775421,294.991821 107.102341,294.658905 
	C97.173271,291.701904 87.458282,290.215576 78.907021,286.231537 
	C53.229752,274.268311 39.438744,252.970840 37.285873,225.246490 
	C35.445175,201.542252 44.024406,181.056549 62.320942,165.133591 
	C75.295769,153.841965 90.129173,147.308304 107.480568,146.997604 
	C114.203621,146.877197 115.751213,145.767670 118.018867,139.437866 
	C127.018074,114.317924 144.267105,98.047935 170.459625,90.985886 
	C174.047943,91.108063 177.438309,92.065010 180.405045,88.983185 
	C189.273239,89.669884 197.774811,89.749756 206.032547,91.209274 
	C213.816757,92.585106 214.623169,92.478363 218.727020,85.272278 
	C226.331787,71.918777 235.498474,59.990982 246.819107,49.524517 
	C263.875763,33.754860 283.504059,22.905201 305.859802,16.900572 
	C311.539764,15.374958 317.321625,14.228708 323.494049,12.939981 
	C328.133484,13.637238 332.366089,14.151266 336.532562,14.992867 
	C361.955444,20.128138 383.943298,31.977882 402.930420,49.469967 
	C417.658966,63.038784 429.021271,79.121109 436.732605,97.572342 
	C441.981201,110.130783 445.888977,123.197990 446.937714,136.877655 
	C447.500244,144.215149 448.945770,146.266602 455.995361,148.016708 
	C478.337616,153.563309 495.036652,166.491272 505.366760,187.051239 
	C508.680939,193.647415 510.498016,200.995773 513.000000,208.000000 
	C513.000000,215.687576 513.000000,223.375168 513.000000,231.531372 
M357.598724,243.906204 
	C352.022064,241.354080 347.002228,242.681290 346.128052,247.860382 
	C345.238037,253.133209 345.341644,258.781219 346.262634,264.045837 
	C346.610687,266.035278 350.398590,268.606201 352.735901,268.732086 
	C355.080566,268.858337 359.210297,266.692474 359.703308,264.791046 
	C361.463287,258.003510 362.977325,250.818054 357.598724,243.906204 
M291.708588,246.122208 
	C287.773712,239.879883 278.792236,242.469757 278.160339,247.808823 
	C277.547333,252.988464 277.564026,258.343170 278.134705,263.529633 
	C278.569061,267.477448 281.764069,269.200958 285.774506,269.054077 
	C289.711823,268.909821 292.340363,266.508423 292.601929,263.041138 
	C293.006775,257.675232 292.341614,252.228592 291.708588,246.122208 
M152.760849,242.840530 
	C147.218674,242.344604 143.620789,244.359467 143.190384,248.923843 
	C142.756943,253.520508 142.675308,258.240143 143.221466,262.812469 
	C143.704254,266.854248 146.590302,269.172760 150.887497,269.042633 
	C155.178833,268.912659 157.763550,266.621094 158.043365,262.348022 
	C158.311981,258.246063 158.692825,254.010178 157.949158,250.034256 
	C157.475708,247.502930 155.042816,245.338089 152.760849,242.840530 
M222.325043,268.129059 
	C223.580948,265.921143 225.546616,263.828979 225.930038,261.478699 
	C226.538559,257.748627 226.231323,253.839386 226.051514,250.018173 
	C225.843399,245.595169 222.387634,242.233704 218.441925,242.292725 
	C214.460571,242.352310 211.203827,245.693680 210.978882,250.193008 
	C210.821075,253.349380 210.892899,256.519501 210.927734,259.682770 
	C211.010086,267.163391 214.146912,269.747406 222.325043,268.129059 
z"/>
<path fill="#FFFFFF" opacity="1.000000" stroke="none" 
	d="
M513.000000,207.531342 
	C510.498016,200.995773 508.680939,193.647415 505.366760,187.051239 
	C495.036652,166.491272 478.337616,153.563309 455.995361,148.016708 
	C448.945770,146.266602 447.500244,144.215149 446.937714,136.877655 
	C445.888977,123.197990 441.981201,110.130783 436.732605,97.572342 
	C429.021271,79.121109 417.658966,63.038784 402.930420,49.469967 
	C383.943298,31.977882 361.955444,20.128138 336.532562,14.992867 
	C332.366089,14.151266 328.133484,13.637238 323.227905,12.603422 
	C259.021576,8.139793 211.153030,33.093586 179.931946,88.978874 
	C177.438309,92.065010 174.047943,91.108063 170.243912,90.648148 
	C152.572739,86.106773 136.067490,87.844170 120.261047,95.407967 
	C100.898132,104.673607 87.879211,119.686905 81.173264,140.033447 
	C79.913902,143.854477 78.000420,145.528839 73.994049,146.138672 
	C65.301552,147.461838 56.382824,148.458786 48.130672,151.272675 
	C31.103395,157.078796 18.373480,168.725250 10.084812,184.550629 
	C6.083283,192.190659 3.968883,200.819107 1.000003,209.000000 
	C1.000000,139.699387 1.000000,70.398758 1.000000,1.049070 
	C171.553421,1.049070 342.106842,1.049070 513.000000,1.049070 
	C513.000000,69.687187 513.000000,138.374939 513.000000,207.531342 
z"/>
<path fill="#348DEF" opacity="1.000000" stroke="none" 
	d="
M1.000003,209.468628 
	C3.968883,200.819107 6.083283,192.190659 10.084812,184.550629 
	C18.373480,168.725250 31.103395,157.078796 48.130672,151.272675 
	C56.382824,148.458786 65.301552,147.461838 73.994049,146.138672 
	C78.000420,145.528839 79.913902,143.854477 81.173264,140.033447 
	C87.879211,119.686905 100.898132,104.673607 120.261047,95.407967 
	C136.067490,87.844170 152.572739,86.106773 169.858917,90.639648 
	C144.267105,98.047935 127.018074,114.317924 118.018867,139.437866 
	C115.751213,145.767670 114.203621,146.877197 107.480568,146.997604 
	C90.129173,147.308304 75.295769,153.841965 62.320942,165.133591 
	C44.024406,181.056549 35.445175,201.542252 37.285873,225.246490 
	C39.438744,252.970840 53.229752,274.268311 78.907021,286.231537 
	C87.458282,290.215576 97.173271,291.701904 106.633926,294.580505 
	C94.920952,294.874573 82.879135,295.651367 70.949654,294.818726 
	C40.184978,292.671600 12.356039,272.316956 3.785493,241.427567 
	C2.957784,238.444382 2.401652,235.385864 1.359727,232.181152 
	C1.000000,224.645752 1.000000,217.291504 1.000003,209.468628 
z"/>
<path fill="#E4EAF8" opacity="1.000000" stroke="none" 
	d="
M209.994400,466.850861 
	C209.996262,420.581024 209.989288,374.311157 210.028320,328.041351 
	C210.030121,325.912689 210.173325,323.711395 210.720993,321.670135 
	C212.109100,316.496429 214.850693,314.614685 219.635681,315.001892 
	C224.677582,315.409882 226.054214,319.098175 226.940201,323.140167 
	C227.218918,324.411774 226.999268,325.793762 226.999298,327.125214 
	C227.000320,373.395081 227.000366,419.664917 226.610245,466.424500 
	C220.819946,464.711426 215.407959,465.579071 209.994400,466.850861 
z"/>
<path fill="#E4EAF8" opacity="1.000000" stroke="none" 
	d="
M83.162971,385.989227 
	C100.662689,385.992828 118.165184,385.825775 135.660339,386.110260 
	C140.528229,386.189453 142.252396,385.196228 142.142212,379.879059 
	C141.769394,361.887085 141.966965,343.882507 142.019058,325.882935 
	C142.036377,319.895325 145.171890,315.454712 149.431976,315.010590 
	C155.348297,314.393860 158.958145,318.032501 158.979660,324.943970 
	C159.038284,343.776825 158.999908,362.609985 158.999985,381.443024 
	C159.000000,384.776306 159.003891,388.109589 158.999237,391.442871 
	C158.987747,399.658844 155.777649,402.971619 147.578857,402.986969 
	C126.412575,403.026642 105.246162,403.002319 83.553543,402.586426 
	C83.072510,396.775940 83.117737,391.382599 83.162971,385.989227 
z"/>
<path fill="#E4EAF8" opacity="1.000000" stroke="none" 
	d="
M276.991913,466.845673 
	C276.994598,420.201477 276.982483,373.557281 277.041840,326.913177 
	C277.044952,324.464447 277.328552,321.914673 278.053253,319.590179 
	C279.409790,315.239105 283.420807,314.029968 286.873657,315.293701 
	C289.391479,316.215240 292.460907,319.496552 292.721008,321.992981 
	C293.493683,329.408966 292.999695,336.956940 292.999908,344.453339 
	C293.001190,384.933838 293.002228,425.414337 292.626343,466.321136 
	C287.149139,464.543945 282.070496,465.688812 276.991913,466.845673 
z"/>
<path fill="#E4EAF8" opacity="1.000000" stroke="none" 
	d="
M420.853088,403.003815 
	C399.699890,403.002533 378.546692,403.008881 357.393494,402.996643 
	C347.568726,402.990967 345.000061,400.425720 345.000061,390.700439 
	C345.000031,368.381317 345.026886,346.062134 344.976746,323.743134 
	C344.967377,319.571381 346.628693,316.589722 350.615509,315.331909 
	C354.284821,314.174255 357.711456,314.960419 359.735321,318.427460 
	C360.658844,320.009491 360.940247,322.158478 360.948669,324.052795 
	C361.033112,343.040344 361.104248,362.029449 360.914856,381.015472 
	C360.875549,384.956635 361.994690,386.131744 365.967590,386.087433 
	C383.953918,385.886841 401.943726,385.999054 420.428406,386.413879 
	C420.900696,392.220703 420.876892,397.612244 420.853088,403.003815 
z"/>
<path fill="#F4B638" opacity="1.000000" stroke="none" 
	d="
M421.014435,403.311340 
	C420.876892,397.612244 420.900696,392.220703 420.887695,386.412354 
	C428.212311,373.734589 441.757385,371.259949 451.591980,380.806519 
	C443.444275,388.757812 443.743866,401.497284 452.053589,408.019653 
	C444.226135,417.265259 428.059387,415.881165 421.014435,403.311340 
z"/>
<path fill="#F4B638" opacity="1.000000" stroke="none" 
	d="
M78.057899,409.084839 
	C70.301651,415.779724 60.158520,415.740265 52.118919,408.983978 
	C45.760078,403.640198 43.850533,391.766327 48.198563,384.606903 
	C53.139236,376.471619 63.907772,372.777161 72.620850,376.349152 
	C74.422127,377.087616 76.027496,378.303894 77.737808,379.921631 
	C69.832481,389.822296 69.924156,398.387787 78.057899,409.084839 
z"/>
<path fill="#F4B638" opacity="1.000000" stroke="none" 
	d="
M209.688293,467.014954 
	C215.407959,465.579071 220.819946,464.711426 226.610825,466.883972 
	C228.594833,468.026459 230.187958,469.199127 231.603729,470.817749 
	C223.009903,477.031830 223.844330,493.765930 232.052567,498.019653 
	C224.517288,506.510895 212.670547,505.218750 206.044815,499.455750 
	C197.690933,492.189697 196.519485,479.889954 203.395859,472.224152 
	C205.121490,470.300385 207.372589,468.848053 209.688293,467.014954 
z"/>
<path fill="#F4B638" opacity="1.000000" stroke="none" 
	d="
M276.687134,467.011108 
	C282.070496,465.688812 287.149139,464.543945 292.628143,466.777771 
	C294.584473,467.645294 296.161987,468.482544 297.757507,469.940002 
	C289.945007,483.597870 289.993469,488.473602 298.059204,499.088806 
	C288.880249,507.025055 275.653412,505.447357 268.747345,495.008881 
	C263.988037,487.815247 263.450928,474.469696 276.687134,467.011108 
z"/>
<path fill="#FEC956" opacity="1.000000" stroke="none" 
	d="
M298.366028,498.933075 
	C289.993469,488.473602 289.945007,483.597870 297.917480,470.238403 
	C306.410767,476.320282 307.159424,492.080048 298.366028,498.933075 
z"/>
<path fill="#FECA57" opacity="1.000000" stroke="none" 
	d="
M78.358459,408.936157 
	C69.924156,398.387787 69.832481,389.822296 77.905891,380.229553 
	C79.652176,381.741638 81.245010,383.567474 83.000404,385.691284 
	C83.117737,391.382599 83.072510,396.775940 83.095108,402.590027 
	C81.661629,404.936340 80.160324,406.861908 78.358459,408.936157 
z"/>
<path fill="#FECA57" opacity="1.000000" stroke="none" 
	d="
M232.370041,497.883148 
	C223.844330,493.765930 223.009903,477.031830 231.741425,471.121277 
	C240.030273,477.650635 239.857178,490.560791 232.370041,497.883148 
z"/>
<path fill="#FECA57" opacity="1.000000" stroke="none" 
	d="
M452.370850,407.882874 
	C443.743866,401.497284 443.444275,388.757812 451.739868,381.121857 
	C459.825989,386.416901 460.037140,400.619110 452.370850,407.882874 
z"/>
<path fill="#348DEF" opacity="1.000000" stroke="none" 
	d="
M180.405045,88.983185 
	C211.153030,33.093586 259.021576,8.139793 322.790527,12.571592 
	C317.321625,14.228708 311.539764,15.374958 305.859802,16.900572 
	C283.504059,22.905201 263.875763,33.754860 246.819107,49.524517 
	C235.498474,59.990982 226.331787,71.918777 218.727020,85.272278 
	C214.623169,92.478363 213.816757,92.585106 206.032547,91.209274 
	C197.774811,89.749756 189.273239,89.669884 180.405045,88.983185 
z"/>
<path fill="#DFE8F8" opacity="1.000000" stroke="none" 
	d="
M357.913330,244.118668 
	C362.977325,250.818054 361.463287,258.003510 359.703308,264.791046 
	C359.210297,266.692474 355.080566,268.858337 352.735901,268.732086 
	C350.398590,268.606201 346.610687,266.035278 346.262634,264.045837 
	C345.341644,258.781219 345.238037,253.133209 346.128052,247.860382 
	C347.002228,242.681290 352.022064,241.354080 357.913330,244.118668 
z"/>
<path fill="#E2E9F8" opacity="1.000000" stroke="none" 
	d="
M291.919373,246.469193 
	C292.341614,252.228592 293.006775,257.675232 292.601929,263.041138 
	C292.340363,266.508423 289.711823,268.909821 285.774506,269.054077 
	C281.764069,269.200958 278.569061,267.477448 278.134705,263.529633 
	C277.564026,258.343170 277.547333,252.988464 278.160339,247.808823 
	C278.792236,242.469757 287.773712,239.879883 291.919373,246.469193 
z"/>
<path fill="#E2E9F8" opacity="1.000000" stroke="none" 
	d="
M153.124695,242.924713 
	C155.042816,245.338089 157.475708,247.502930 157.949158,250.034256 
	C158.692825,254.010178 158.311981,258.246063 158.043365,262.348022 
	C157.763550,266.621094 155.178833,268.912659 150.887497,269.042633 
	C146.590302,269.172760 143.704254,266.854248 143.221466,262.812469 
	C142.675308,258.240143 142.756943,253.520508 143.190384,248.923843 
	C143.620789,244.359467 147.218674,242.344604 153.124695,242.924713 
z"/>
<path fill="#E2E9F8" opacity="1.000000" stroke="none" 
	d="
M221.985352,268.346283 
	C214.146912,269.747406 211.010086,267.163391 210.927734,259.682770 
	C210.892899,256.519501 210.821075,253.349380 210.978882,250.193008 
	C211.203827,245.693680 214.460571,242.352310 218.441925,242.292725 
	C222.387634,242.233704 225.843399,245.595169 226.051514,250.018173 
	C226.231323,253.839386 226.538559,257.748627 225.930038,261.478699 
	C225.546616,263.828979 223.580948,265.921143 221.985352,268.346283 
z"/>
</svg>