<?xml version="1.0" standalone="no"?>
<!DOCTYPE svg PUBLIC "-//W3C//DTD SVG 20010904//EN"
 "http://www.w3.org/TR/2001/REC-SVG-20010904/DTD/svg10.dtd">
<svg version="1.0" xmlns="http://www.w3.org/2000/svg"
 width="512.000000pt" height="512.000000pt" viewBox="0 0 512.000000 512.000000"
 preserveAspectRatio="xMidYMid meet">
<metadata>
Created by potrace 1.16, written by Peter Selinger 2001-2019
</metadata>
<g transform="translate(0.000000,512.000000) scale(0.100000,-0.100000)"
fill="#000000" stroke="none">
<path d="M1750 4501 c-80 -32 -359 -143 -620 -246 -269 -106 -484 -197 -496
-209 -24 -24 -484 -768 -484 -782 0 -21 421 -1059 435 -1073 13 -14 46 -13
302 7 159 13 300 25 315 28 23 5 30 0 47 -33 55 -107 199 -163 306 -119 19 8
36 12 38 8 3 -4 43 -125 91 -268 80 -240 89 -263 114 -272 15 -6 173 -14 367
-18 187 -3 359 -9 381 -13 38 -5 93 -51 548 -454 278 -246 519 -460 536 -474
35 -29 78 -33 95 -10 8 12 14 152 19 479 3 254 8 463 9 465 2 1 140 21 308 43
235 32 308 45 321 58 12 12 27 78 51 234 19 119 37 221 41 226 3 6 110 85 237
178 127 92 237 177 244 188 12 18 9 76 -27 421 l-40 400 -49 110 c-97 221
-228 507 -242 528 -11 16 -94 50 -323 131 -558 196 -1022 360 -1219 431 l-130
47 -435 24 c-611 33 -565 35 -740 -35z m759 -81 l365 -19 278 -278 277 -278
-17 -56 -17 -57 -420 -70 -420 -70 -17 22 c-9 11 -27 34 -39 50 -30 39 -113
76 -169 76 l-45 0 -135 341 c-74 188 -136 346 -138 350 -5 13 92 11 497 -11z
m-451 -416 l118 -301 -35 -40 c-20 -21 -40 -47 -46 -56 -9 -16 -32 -14 -320
30 l-309 48 -6 30 c-4 17 -14 45 -24 63 l-17 33 38 47 c83 102 397 479 421
504 l26 28 17 -43 c10 -23 72 -178 137 -343z m-360 327 c-13 -16 -99 -122
-193 -235 -139 -168 -174 -205 -190 -200 -11 3 -47 8 -80 11 -49 4 -71 1 -113
-17 -86 -37 -134 -106 -150 -212 l-7 -53 -295 -117 c-162 -65 -298 -117 -302
-116 -4 2 63 116 148 253 85 138 164 266 175 285 19 34 38 42 487 219 257 102
478 190 492 197 43 22 53 17 28 -15z m1504 -40 c47 -18 956 -340 1066 -378 24
-9 41 -17 39 -20 -6 -5 -386 -73 -413 -73 -13 0 -31 16 -51 43 -59 85 -194
122 -290 82 l-37 -16 -191 191 c-104 104 -187 190 -183 190 4 0 31 -9 60 -19z
m505 -461 c119 -72 76 -243 -61 -243 -75 0 -128 53 -128 129 0 101 106 165
189 114z m926 -277 c64 -142 117 -263 119 -269 3 -10 -135 -142 -454 -437
l-107 -98 -30 15 c-16 9 -53 19 -82 24 l-51 7 -124 355 -123 355 36 35 c39 37
72 101 73 137 0 17 8 23 33 28 179 33 574 103 583 104 6 1 63 -115 127 -256z
m-3353 227 c90 -46 89 -183 -1 -232 -42 -22 -71 -23 -116 -1 -86 40 -98 160
-23 220 35 29 97 35 140 13z m1130 -196 c31 -31 35 -40 35 -89 0 -46 -4 -58
-30 -85 -84 -88 -225 -34 -225 87 0 117 135 171 220 87z m1021 14 c6 -13 22
-35 35 -49 l24 -26 -165 -339 -165 -339 -67 -7 c-38 -4 -77 -9 -89 -10 -16 -2
-72 55 -252 261 l-231 263 19 39 c11 21 20 48 20 59 0 11 6 23 14 26 12 5 803
140 833 143 7 1 18 -9 24 -21z m-1648 -79 l287 -44 6 -32 c3 -18 19 -53 35
-78 l29 -45 -196 -313 c-108 -171 -224 -355 -257 -408 l-60 -97 -51 24 c-28
13 -61 24 -73 24 -12 0 -24 3 -26 8 -12 20 -169 876 -161 879 33 11 79 49 106
88 24 34 38 45 53 42 11 -3 149 -24 308 -48z m-727 -38 c24 -21 64 -44 89 -51
24 -7 47 -20 49 -29 3 -9 42 -209 86 -446 59 -307 78 -431 70 -433 -7 -3 -27
-18 -46 -34 -31 -28 -36 -29 -52 -16 -20 17 -605 502 -792 657 -69 57 -126
106 -128 110 -2 5 637 269 676 280 2 1 24 -16 48 -38z m2740 -371 l123 -355
-39 -40 c-22 -22 -44 -55 -51 -73 -11 -31 -13 -33 -53 -28 -22 3 -95 8 -161
11 -244 11 -264 14 -271 42 -4 13 -22 47 -41 75 -42 60 -55 21 132 403 75 154
141 290 146 303 8 20 15 23 51 20 l41 -3 123 -355z m-1154 -72 c112 -128 216
-247 231 -265 27 -30 27 -33 13 -60 -8 -16 -17 -45 -21 -66 -5 -27 -13 -39
-29 -42 -11 -3 -106 -20 -211 -39 -104 -19 -351 -65 -549 -101 -197 -36 -362
-65 -366 -63 -6 2 194 327 484 784 l44 71 54 -5 c29 -2 69 1 88 6 19 6 40 11
47 11 6 1 103 -104 215 -231z m2172 -203 c16 -154 30 -292 33 -306 5 -24 -11
-38 -199 -174 -111 -81 -209 -148 -217 -149 -7 -1 -50 41 -93 92 l-80 93 21
49 c25 57 27 135 6 186 l-14 34 82 79 c214 204 422 390 427 383 4 -4 19 -133
34 -287z m-3966 -179 c205 -170 371 -310 370 -311 -10 -9 -551 -46 -558 -39
-10 10 -300 731 -300 746 0 5 26 -13 58 -39 31 -26 225 -187 430 -357z m2291
64 c146 -42 117 -255 -35 -252 -141 2 -179 191 -49 248 37 16 42 16 84 4z
m987 -70 c45 -28 71 -95 55 -143 -18 -53 -74 -97 -126 -97 -52 0 -108 44 -126
97 -9 28 -8 43 6 80 30 78 119 107 191 63z m-426 -146 l105 -7 30 -61 c60
-122 192 -174 315 -122 14 6 73 -56 162 -170 18 -22 17 -22 -292 -254 -171
-128 -312 -231 -314 -229 -4 4 -90 153 -309 540 -64 113 -117 210 -117 216 0
6 7 17 17 24 9 8 22 29 30 48 l15 34 126 -7 c70 -3 174 -9 232 -12z m-803 -40
c14 -22 15 -29 3 -47 -23 -38 -293 -408 -300 -412 -4 -3 -90 26 -191 64 -101
37 -274 101 -384 141 -110 40 -204 76 -208 80 -5 4 56 19 135 34 79 15 307 57
508 95 201 38 377 69 392 70 19 1 33 -7 45 -25z m-1384 -38 c103 -44 115 -171
21 -232 -53 -35 -139 -15 -174 41 -42 68 -17 154 53 186 51 22 59 23 100 5z
m1549 -78 c11 -10 23 -83 47 -305 18 -161 31 -297 29 -302 -3 -11 -420 200
-420 213 0 4 64 97 143 207 148 204 162 218 201 187z m363 -433 l205 -360 0
-335 c0 -192 -4 -330 -9 -325 -5 6 -86 177 -180 380 l-171 370 -35 314 c-19
172 -35 320 -34 330 0 22 -11 41 224 -374z m-1668 271 c21 -8 162 -60 313
-116 321 -119 448 -166 473 -175 16 -7 17 -20 15 -134 l-3 -126 -205 3 c-113
1 -269 5 -347 8 l-142 6 -86 257 c-47 141 -85 264 -85 274 0 21 18 22 67 3z
m2557 -346 c-15 -105 -21 -123 -38 -131 -17 -6 -328 -49 -361 -49 -5 0 85 70
199 155 115 86 211 154 213 151 3 -3 -3 -60 -13 -126z m-1381 -135 l236 -120
30 -65 c16 -36 78 -168 136 -295 59 -126 123 -263 141 -304 l34 -74 -40 34
c-22 19 -211 185 -419 369 l-380 335 0 100 c-1 100 6 148 18 143 4 -2 114 -57
244 -123z"/>
</g>
</svg>
