<?xml version="1.0" standalone="no"?>
<!DOCTYPE svg PUBLIC "-//W3C//DTD SVG 20010904//EN"
 "http://www.w3.org/TR/2001/REC-SVG-20010904/DTD/svg10.dtd">
<svg version="1.0" xmlns="http://www.w3.org/2000/svg"
 width="730.000000pt" height="578.000000pt" viewBox="0 0 730.000000 578.000000"
 preserveAspectRatio="xMidYMid meet">
<metadata>
Created by potrace 1.16, written by Peter Selinger 2001-2019
</metadata>
<g transform="translate(0.000000,578.000000) scale(0.100000,-0.100000)"
fill="#000000" stroke="none">
<path d="M3657 5519 c-42 -25 -47 -57 -47 -294 l0 -225 60 0 60 0 0 235 0 235
-27 30 c-22 24 -32 28 -46 19z"/>
<path d="M3126 5489 l-26 -31 0 -229 0 -230 58 3 57 3 3 212 c3 227 -4 270
-46 292 -17 9 -24 6 -46 -20z"/>
<path d="M4169 5507 c-35 -26 -39 -53 -39 -282 l0 -226 58 3 57 3 3 212 c2
167 -1 220 -12 247 -17 42 -45 59 -67 43z"/>
<path d="M2730 4814 c-112 -30 -202 -109 -240 -211 -20 -54 -20 -68 -18 -1001
l3 -947 27 -50 c36 -68 101 -128 173 -162 l60 -28 940 0 940 0 57 27 c73 34
142 103 176 176 l27 57 3 919 c2 817 1 925 -13 975 -30 104 -92 176 -195 225
l-65 31 -910 2 c-779 2 -918 0 -965 -13z m626 -599 c23 -10 39 -26 49 -49 19
-45 19 -137 1 -179 -8 -18 -91 -108 -185 -202 l-171 -170 180 -180 180 -181 0
-90 c0 -133 -28 -159 -165 -152 l-76 3 -254 256 -255 255 0 83 c0 45 5 92 11
104 19 36 472 488 504 503 40 18 137 18 181 -1z m814 2 c35 -19 502 -491 513
-519 5 -13 7 -56 5 -96 l-3 -72 -258 -257 -257 -258 -75 -3 c-135 -7 -165 22
-165 159 l0 83 182 183 183 183 -133 133 -132 132 0 -51 0 -51 -236 -236 -236
-237 -74 0 c-131 0 -164 33 -164 162 l0 83 232 232 233 233 72 0 73 0 0 63 c0
76 15 107 60 129 42 21 144 24 180 5z"/>
<path d="M1788 4161 l-33 -30 28 -28 27 -28 240 -3 240 -3 0 60 0 61 -235 0
-235 0 -32 -29z"/>
<path d="M5060 4130 l0 -60 220 0 c230 0 269 6 284 45 10 28 7 35 -26 55 -30
18 -51 20 -255 20 l-223 0 0 -60z"/>
<path d="M1834 3669 c-43 -12 -68 -42 -56 -66 23 -43 53 -48 286 -48 l221 0 0
60 0 60 -210 2 c-115 1 -224 -3 -241 -8z"/>
<path d="M5060 3615 l0 -66 229 3 c215 3 231 4 258 24 15 12 28 29 28 39 0 10
-13 27 -28 39 -27 20 -43 21 -258 24 l-229 3 0 -66z"/>
<path d="M1788 3131 l-33 -30 28 -28 27 -28 240 -3 240 -3 0 60 0 61 -235 0
-235 0 -32 -29z"/>
<path d="M5060 3100 l0 -60 221 0 c190 0 225 2 250 17 48 29 48 63 -2 88 -22
12 -75 15 -249 15 l-220 0 0 -60z"/>
<path d="M3100 1996 l0 -234 26 -31 c22 -26 29 -29 46 -20 41 22 48 65 48 299
l0 220 -60 0 -60 0 0 -234z"/>
<path d="M3610 2010 c0 -234 6 -266 49 -290 16 -8 24 -4 45 21 l26 31 0 229 0
229 -60 0 -60 0 0 -220z"/>
<path d="M4130 1996 l0 -234 26 -31 c31 -37 52 -31 78 23 13 28 16 71 16 255
l0 221 -60 0 -60 0 0 -234z"/>
</g>
</svg>
