<svg version="1.1" id="Layer_1" xmlns="http://www.w3.org/2000/svg" xmlns:xlink="http://www.w3.org/1999/xlink" x="0px" y="0px"
	 width="100%" viewBox="0 0 928 928" enable-background="new 0 0 928 928" xml:space="preserve">
<path fill="#F2682A" opacity="1.000000" stroke="none" 
	d="
M929.000000,84.000000 
	C929.000000,338.028046 929.000000,592.056091 928.636536,846.716431 
	C926.453491,859.898071 922.354492,871.645935 915.823303,882.521973 
	C904.257385,901.781799 887.792786,915.257446 866.798767,922.954102 
	C859.448242,925.648926 851.613586,927.022888 844.000000,929.000000 
	C591.971985,929.000000 339.943939,929.000000 87.271454,928.629089 
	C73.746948,927.302429 61.803654,923.278931 50.661343,916.911804 
	C24.418036,901.915344 8.512723,879.504639 3.003870,849.769104 
	C2.219337,845.534363 1.662316,841.257385 1.000001,837.000000 
	C1.000000,589.305298 1.000000,341.610596 1.379600,93.256897 
	C3.101261,84.585808 3.721139,76.368240 5.930692,68.603004 
	C11.059660,50.577812 21.215387,35.703968 35.719906,23.661238 
	C46.424034,14.773879 58.177086,8.166624 71.654137,4.728944 
	C77.067589,3.348098 82.549339,2.234974 88.000000,1.000000 
	C339.361359,1.000000 590.722717,1.000000 842.728577,1.370930 
	C857.743835,3.021058 871.025452,7.567040 883.324768,15.060334 
	C902.130371,26.517525 915.563843,42.468487 923.001648,63.221249 
	C925.429077,69.994125 927.024292,77.065254 929.000000,84.000000 
M884.007629,80.660378 
	C882.687805,77.858543 881.498413,74.986191 880.027161,72.266296 
	C870.236938,54.167065 854.919434,44.135811 834.456604,44.120342 
	C588.964172,43.934807 343.471527,43.996216 97.978958,44.041439 
	C94.386810,44.042103 90.736359,44.356129 87.212097,45.036572 
	C62.764221,49.756828 44.219028,70.771980 44.174267,95.926117 
	C43.850384,277.920013 43.999893,459.914764 44.009907,641.909241 
	C44.009995,643.511902 44.152248,645.114502 44.223530,646.619995 
	C325.369202,646.619995 606.082581,646.619995 886.999634,646.619995 
	C886.999634,644.584229 886.999634,642.927734 886.999634,641.271179 
	C886.999634,459.943329 887.024048,278.615448 886.878296,97.287758 
	C886.874023,92.014664 885.071411,86.743011 884.007629,80.660378 
M574.994141,727.657349 
	C574.994141,763.583252 574.994141,799.509155 574.994141,835.580078 
	C584.408508,835.580078 593.157532,835.580078 602.149902,835.580078 
	C602.149902,810.497620 602.149902,785.676208 602.149902,759.727966 
	C602.931580,761.204895 603.224792,761.720398 603.483276,762.252747 
	C614.740662,785.441956 625.965271,808.647217 637.314758,831.791260 
	C638.088989,833.370056 639.759583,835.603210 641.076538,835.647461 
	C650.835449,835.975037 660.610474,835.824829 670.547363,835.824829 
	C670.547363,797.921021 670.547363,760.687012 670.547363,723.319214 
	C661.357483,723.319214 652.467041,723.319214 642.742615,723.319214 
	C643.343628,746.817322 643.935974,769.972778 644.547424,793.878052 
	C643.977722,792.774231 643.690491,792.250549 643.432251,791.712830 
	C632.995056,769.981934 622.531189,748.263733 612.164673,726.499146 
	C610.941895,723.932007 609.438843,722.850586 606.462280,722.917480 
	C597.134827,723.127075 587.797363,723.113586 578.468933,722.927246 
	C575.461365,722.867188 574.614624,724.018005 574.994141,727.657349 
M279.399292,722.990845 
	C271.964355,722.990845 264.529419,722.990845 257.177673,722.990845 
	C257.177673,760.926392 257.177673,798.168030 257.177673,835.553955 
	C267.113831,835.553955 276.691681,835.553955 286.903656,835.553955 
	C286.903656,820.720642 286.903656,806.167419 286.903656,791.458618 
	C298.959778,791.458618 310.377838,791.458618 322.474915,791.458618 
	C322.474915,806.292969 322.474915,820.862122 322.474915,835.583252 
	C332.741455,835.583252 342.325897,835.583252 352.104004,835.583252 
	C352.104004,797.959534 352.104004,760.601807 352.104004,723.301331 
	C342.091309,723.301331 332.504608,723.301331 322.376373,723.301331 
	C322.376373,737.022644 322.376373,750.442810 322.376373,764.079956 
	C310.298859,764.079956 298.773315,764.079956 286.750244,764.079956 
	C286.750244,750.275513 286.750244,736.855347 286.750244,722.990845 
	C284.293152,722.990845 282.331360,722.990845 279.399292,722.990845 
M543.817688,789.735046 
	C542.016541,786.962585 540.215332,784.190063 538.613586,781.724548 
	C545.091797,778.388672 551.458923,772.128845 553.942566,762.675293 
	C558.872559,743.909851 547.700806,727.738770 527.208191,724.010071 
	C509.979401,720.875122 492.737579,722.391113 475.467560,723.804504 
	C471.087677,724.162903 470.037323,725.633789 470.059418,729.862793 
	C470.234283,763.336731 470.152924,796.812012 470.167236,830.286865 
	C470.167969,832.041931 470.322296,833.796875 470.401611,835.478088 
	C480.572418,835.478088 490.142822,835.478088 500.175537,835.478088 
	C500.175537,821.362244 500.175537,807.605469 500.175537,793.913757 
	C512.655762,792.563843 517.002686,795.633057 520.054443,807.225647 
	C522.253052,815.577332 524.579285,823.899780 527.108032,832.155823 
	C527.544861,833.581970 529.246887,835.626892 530.417236,835.662720 
	C539.806763,835.950073 549.208923,835.823486 558.848267,835.823486 
	C556.650024,827.685669 554.902222,820.073975 552.508362,812.671082 
	C550.068909,805.127136 546.994019,797.788696 543.817688,789.735046 
M137.843307,737.459045 
	C137.843307,732.704895 137.843307,727.950745 137.843307,723.412964 
	C113.159348,723.412964 89.284317,723.412964 65.542496,723.412964 
	C65.542496,761.039307 65.542496,798.245728 65.542496,835.525757 
	C90.485336,835.525757 115.041084,835.525757 139.635559,835.525757 
	C139.635559,827.152405 139.635559,819.101562 139.635559,810.593994 
	C124.847305,810.593994 110.424751,810.593994 95.998184,810.593994 
	C95.998184,803.587952 95.998184,797.058533 95.998184,790.066895 
	C109.213860,790.066895 121.957657,790.066895 134.742981,790.066895 
	C134.742981,781.727966 134.742981,773.873169 134.742981,765.593384 
	C121.550323,765.593384 108.784332,765.593384 95.806137,765.593384 
	C95.806137,759.571838 95.806137,753.990356 95.806137,747.838501 
	C109.807762,747.838501 123.538078,747.838501 137.843307,747.838501 
	C137.843307,744.337036 137.843307,741.386536 137.843307,737.459045 
M694.475830,817.498352 
	C694.475830,823.455811 694.475830,829.413269 694.475830,835.467651 
	C719.658875,835.467651 744.197510,835.467651 768.737793,835.467651 
	C768.737793,827.152466 768.737793,819.218750 768.737793,810.789673 
	C754.061646,810.789673 739.645691,810.789673 724.894714,810.789673 
	C724.894714,803.756897 724.894714,797.225220 724.894714,790.049316 
	C738.133911,790.049316 751.018311,790.049316 763.825195,790.049316 
	C763.825195,781.659485 763.825195,773.919250 763.825195,765.727295 
	C750.718262,765.727295 737.956177,765.727295 724.935059,765.727295 
	C724.935059,759.579041 724.935059,753.897339 724.935059,747.623901 
	C739.064026,747.623901 752.789551,747.623901 766.487793,747.623901 
	C766.487793,739.115662 766.487793,731.208923 766.487793,723.304077 
	C742.392883,723.304077 718.657715,723.304077 694.475891,723.304077 
	C694.475891,754.575439 694.475891,785.537109 694.475830,817.498352 
M415.535126,747.838684 
	C426.298065,747.838684 437.061035,747.838684 447.856049,747.838684 
	C447.856049,739.207581 447.856049,731.298950 447.856049,723.288574 
	C423.821045,723.288574 400.100403,723.288574 376.426453,723.288574 
	C376.426453,760.921326 376.426453,798.261780 376.426453,835.422424 
	C401.409515,835.422424 425.961945,835.422424 450.507385,835.422424 
	C450.507385,827.085632 450.507385,819.169312 450.507385,810.751099 
	C435.606293,810.751099 421.027344,810.751099 406.330994,810.751099 
	C406.330994,803.684814 406.330994,797.132202 406.330994,789.980408 
	C419.689362,789.980408 432.730743,789.980408 445.668091,789.980408 
	C445.668091,781.626404 445.668091,773.880920 445.668091,765.736511 
	C432.409637,765.736511 419.479309,765.736511 406.318237,765.736511 
	C406.318237,759.614746 406.318237,753.903931 406.318237,747.838684 
	C409.266266,747.838684 411.906250,747.838684 415.535126,747.838684 
M235.211304,748.514221 
	C236.677856,748.429077 238.144409,748.343933 239.662811,748.255737 
	C239.662811,739.719971 239.662811,731.497375 239.662811,723.333923 
	C210.592651,723.333923 181.864136,723.333923 153.091156,723.333923 
	C153.091156,731.774109 153.091156,739.874756 153.091156,748.558838 
	C162.410446,748.558838 171.485107,748.558838 181.044495,748.558838 
	C181.044495,777.873230 181.044495,806.605286 181.044495,835.517639 
	C191.273987,835.517639 200.996887,835.517639 211.287033,835.517639 
	C211.287033,806.469666 211.287033,777.738647 211.287033,748.514587 
	C219.319687,748.514587 226.792480,748.514587 235.211304,748.514221 
M838.160034,835.808716 
	C838.830200,834.049866 840.075195,832.293884 840.083984,830.531738 
	C840.210571,805.212402 840.170593,779.892334 840.170654,754.572388 
	C840.170654,752.782166 840.170654,750.991882 840.170654,748.449341 
	C850.054382,748.449341 859.418274,748.449341 868.727539,748.449341 
	C868.727539,739.594543 868.727539,731.499817 868.727539,723.273682 
	C839.726257,723.273682 811.001343,723.273682 782.229614,723.273682 
	C782.229614,731.749329 782.229614,739.942139 782.229614,748.558716 
	C791.563416,748.558716 800.505554,748.558716 810.111755,748.558716 
	C810.111755,777.840759 810.111755,806.695740 810.111755,835.833740 
	C819.593018,835.833740 828.402832,835.833740 838.160034,835.808716 
z"/>
<path fill="#FFFFFF" opacity="1.000000" stroke="none" 
	d="
M87.531342,1.000000 
	C82.549339,2.234974 77.067589,3.348098 71.654137,4.728944 
	C58.177086,8.166624 46.424034,14.773879 35.719906,23.661238 
	C21.215387,35.703968 11.059660,50.577812 5.930692,68.603004 
	C3.721139,76.368240 3.101261,84.585808 1.379600,92.798935 
	C1.000000,62.408463 1.000000,31.816921 1.000000,1.000000 
	C29.687168,1.000000 58.374924,1.000000 87.531342,1.000000 
z"/>
<path fill="#FFFFFF" opacity="1.000000" stroke="none" 
	d="
M1.000001,837.468628 
	C1.662316,841.257385 2.219337,845.534363 3.003870,849.769104 
	C8.512723,879.504639 24.418036,901.915344 50.661343,916.911804 
	C61.803654,923.278931 73.746948,927.302429 86.813499,928.629089 
	C58.403961,929.000000 29.807919,929.000000 1.000000,929.000000 
	C1.000000,898.646118 1.000000,868.291687 1.000001,837.468628 
z"/>
<path fill="#FFFFFF" opacity="1.000000" stroke="none" 
	d="
M929.000000,83.531342 
	C927.024292,77.065254 925.429077,69.994125 923.001648,63.221249 
	C915.563843,42.468487 902.130371,26.517525 883.324768,15.060334 
	C871.025452,7.567040 857.743835,3.021058 843.186523,1.370930 
	C871.592285,1.000000 900.184509,1.000000 929.000000,1.000000 
	C929.000000,28.353823 929.000000,55.708252 929.000000,83.531342 
z"/>
<path fill="#FFFFFF" opacity="1.000000" stroke="none" 
	d="
M844.468628,929.000000 
	C851.613586,927.022888 859.448242,925.648926 866.798767,922.954102 
	C887.792786,915.257446 904.257385,901.781799 915.823303,882.521973 
	C922.354492,871.645935 926.453491,859.898071 928.636536,847.174438 
	C929.000000,874.261536 929.000000,901.523071 929.000000,929.000000 
	C900.979492,929.000000 872.958374,929.000000 844.468628,929.000000 
z"/>
<path fill="#FFFFFF" opacity="1.000000" stroke="none" 
	d="
M884.057495,81.065536 
	C885.071411,86.743011 886.874023,92.014664 886.878296,97.287758 
	C887.024048,278.615448 886.999634,459.943329 886.999634,641.271179 
	C886.999634,642.927734 886.999634,644.584229 886.999634,646.619995 
	C606.082581,646.619995 325.369202,646.619995 44.223530,646.619995 
	C44.152248,645.114502 44.009995,643.511902 44.009907,641.909241 
	C43.999893,459.914764 43.850384,277.920013 44.174267,95.926117 
	C44.219028,70.771980 62.764221,49.756828 87.212097,45.036572 
	C90.736359,44.356129 94.386810,44.042103 97.978958,44.041439 
	C343.471527,43.996216 588.964172,43.934807 834.456604,44.120342 
	C854.919434,44.135811 870.236938,54.167065 880.027161,72.266296 
	C881.498413,74.986191 882.687805,77.858543 884.057495,81.065536 
M720.936584,130.695038 
	C714.200134,121.175293 707.336731,111.910530 698.097229,104.408340 
	C679.751465,89.512154 658.825073,81.231926 635.477112,81.161530 
	C518.498474,80.808884 401.518280,80.988525 284.538666,81.044235 
	C280.106873,81.046349 275.605255,81.315384 271.255280,82.111053 
	C245.010666,86.911621 222.914780,98.946030 206.320404,120.207047 
	C192.508286,137.903381 185.048386,157.964828 185.033112,180.485275 
	C184.959534,288.966370 184.959290,397.447601 185.103806,505.928528 
	C185.112244,512.260193 186.078690,518.716431 187.525101,524.898010 
	C193.117294,548.797729 206.074875,568.140808 225.534302,582.901978 
	C242.375504,595.677002 261.562683,602.893494 282.802551,602.922485 
	C401.115112,603.083923 519.427979,603.011475 637.740784,602.955078 
	C642.171509,602.952942 646.697144,602.751831 651.016907,601.860229 
	C676.437073,596.613647 697.839783,584.509094 713.744812,563.682617 
	C727.312317,545.917236 734.885925,525.751282 734.922791,503.340149 
	C735.096130,397.858765 735.013306,292.376953 734.958130,186.895309 
	C734.955505,181.963852 734.297668,177.035202 734.020752,172.100967 
	C733.197266,157.428329 728.251404,144.076355 720.936584,130.695038 
z"/>
<path fill="#FFFDFC" opacity="1.000000" stroke="none" 
	d="
M574.994385,727.176025 
	C574.614624,724.018005 575.461365,722.867188 578.468933,722.927246 
	C587.797363,723.113586 597.134827,723.127075 606.462280,722.917480 
	C609.438843,722.850586 610.941895,723.932007 612.164673,726.499146 
	C622.531189,748.263733 632.995056,769.981934 643.432251,791.712830 
	C643.690491,792.250549 643.977722,792.774231 644.547424,793.878052 
	C643.935974,769.972778 643.343628,746.817322 642.742615,723.319214 
	C652.467041,723.319214 661.357483,723.319214 670.547363,723.319214 
	C670.547363,760.687012 670.547363,797.921021 670.547363,835.824829 
	C660.610474,835.824829 650.835449,835.975037 641.076538,835.647461 
	C639.759583,835.603210 638.088989,833.370056 637.314758,831.791260 
	C625.965271,808.647217 614.740662,785.441956 603.483276,762.252747 
	C603.224792,761.720398 602.931580,761.204895 602.149902,759.727966 
	C602.149902,785.676208 602.149902,810.497620 602.149902,835.580078 
	C593.157532,835.580078 584.408508,835.580078 574.994141,835.580078 
	C574.994141,799.509155 574.994141,763.583252 574.994385,727.176025 
z"/>
<path fill="#FFFCFB" opacity="1.000000" stroke="none" 
	d="
M279.884430,722.990845 
	C282.331360,722.990845 284.293152,722.990845 286.750244,722.990845 
	C286.750244,736.855347 286.750244,750.275513 286.750244,764.079956 
	C298.773315,764.079956 310.298859,764.079956 322.376373,764.079956 
	C322.376373,750.442810 322.376373,737.022644 322.376373,723.301331 
	C332.504608,723.301331 342.091309,723.301331 352.104004,723.301331 
	C352.104004,760.601807 352.104004,797.959534 352.104004,835.583252 
	C342.325897,835.583252 332.741455,835.583252 322.474915,835.583252 
	C322.474915,820.862122 322.474915,806.292969 322.474915,791.458618 
	C310.377838,791.458618 298.959778,791.458618 286.903656,791.458618 
	C286.903656,806.167419 286.903656,820.720642 286.903656,835.553955 
	C276.691681,835.553955 267.113831,835.553955 257.177673,835.553955 
	C257.177673,798.168030 257.177673,760.926392 257.177673,722.990845 
	C264.529419,722.990845 271.964355,722.990845 279.884430,722.990845 
z"/>
<path fill="#FFFDFC" opacity="1.000000" stroke="none" 
	d="
M544.007507,790.047607 
	C546.994019,797.788696 550.068909,805.127136 552.508362,812.671082 
	C554.902222,820.073975 556.650024,827.685669 558.848267,835.823486 
	C549.208923,835.823486 539.806763,835.950073 530.417236,835.662720 
	C529.246887,835.626892 527.544861,833.581970 527.108032,832.155823 
	C524.579285,823.899780 522.253052,815.577332 520.054443,807.225647 
	C517.002686,795.633057 512.655762,792.563843 500.175537,793.913757 
	C500.175537,807.605469 500.175537,821.362244 500.175537,835.478088 
	C490.142822,835.478088 480.572418,835.478088 470.401611,835.478088 
	C470.322296,833.796875 470.167969,832.041931 470.167236,830.286865 
	C470.152924,796.812012 470.234283,763.336731 470.059418,729.862793 
	C470.037323,725.633789 471.087677,724.162903 475.467560,723.804504 
	C492.737579,722.391113 509.979401,720.875122 527.208191,724.010071 
	C547.700806,727.738770 558.872559,743.909851 553.942566,762.675293 
	C551.458923,772.128845 545.091797,778.388672 538.613586,781.724548 
	C540.215332,784.190063 542.016541,786.962585 544.007507,790.047607 
M523.940186,763.053467 
	C525.856384,757.798889 525.605652,752.680847 521.427429,748.754333 
	C515.228455,742.928833 507.605377,745.037109 500.347900,745.161560 
	C500.347900,754.382141 500.347900,762.927673 500.347900,771.773315 
	C509.299957,771.760864 518.180054,772.881592 523.940186,763.053467 
z"/>
<path fill="#FFFDFC" opacity="1.000000" stroke="none" 
	d="
M137.843307,737.947510 
	C137.843307,741.386536 137.843307,744.337036 137.843307,747.838501 
	C123.538078,747.838501 109.807762,747.838501 95.806137,747.838501 
	C95.806137,753.990356 95.806137,759.571838 95.806137,765.593384 
	C108.784332,765.593384 121.550323,765.593384 134.742981,765.593384 
	C134.742981,773.873169 134.742981,781.727966 134.742981,790.066895 
	C121.957657,790.066895 109.213860,790.066895 95.998184,790.066895 
	C95.998184,797.058533 95.998184,803.587952 95.998184,810.593994 
	C110.424751,810.593994 124.847305,810.593994 139.635559,810.593994 
	C139.635559,819.101562 139.635559,827.152405 139.635559,835.525757 
	C115.041084,835.525757 90.485336,835.525757 65.542496,835.525757 
	C65.542496,798.245728 65.542496,761.039307 65.542496,723.412964 
	C89.284317,723.412964 113.159348,723.412964 137.843307,723.412964 
	C137.843307,727.950745 137.843307,732.704895 137.843307,737.947510 
z"/>
<path fill="#FFFCFB" opacity="1.000000" stroke="none" 
	d="
M694.475830,816.998535 
	C694.475891,785.537109 694.475891,754.575439 694.475891,723.304077 
	C718.657715,723.304077 742.392883,723.304077 766.487793,723.304077 
	C766.487793,731.208923 766.487793,739.115662 766.487793,747.623901 
	C752.789551,747.623901 739.064026,747.623901 724.935059,747.623901 
	C724.935059,753.897339 724.935059,759.579041 724.935059,765.727295 
	C737.956177,765.727295 750.718262,765.727295 763.825195,765.727295 
	C763.825195,773.919250 763.825195,781.659485 763.825195,790.049316 
	C751.018311,790.049316 738.133911,790.049316 724.894714,790.049316 
	C724.894714,797.225220 724.894714,803.756897 724.894714,810.789673 
	C739.645691,810.789673 754.061646,810.789673 768.737793,810.789673 
	C768.737793,819.218750 768.737793,827.152466 768.737793,835.467651 
	C744.197510,835.467651 719.658875,835.467651 694.475830,835.467651 
	C694.475830,829.413269 694.475830,823.455811 694.475830,816.998535 
z"/>
<path fill="#FFFEFE" opacity="1.000000" stroke="none" 
	d="
M415.040680,747.838684 
	C411.906250,747.838684 409.266266,747.838684 406.318237,747.838684 
	C406.318237,753.903931 406.318237,759.614746 406.318237,765.736511 
	C419.479309,765.736511 432.409637,765.736511 445.668091,765.736511 
	C445.668091,773.880920 445.668091,781.626404 445.668091,789.980408 
	C432.730743,789.980408 419.689362,789.980408 406.330994,789.980408 
	C406.330994,797.132202 406.330994,803.684814 406.330994,810.751099 
	C421.027344,810.751099 435.606293,810.751099 450.507385,810.751099 
	C450.507385,819.169312 450.507385,827.085632 450.507385,835.422424 
	C425.961945,835.422424 401.409515,835.422424 376.426453,835.422424 
	C376.426453,798.261780 376.426453,760.921326 376.426453,723.288574 
	C400.100403,723.288574 423.821045,723.288574 447.856049,723.288574 
	C447.856049,731.298950 447.856049,739.207581 447.856049,747.838684 
	C437.061035,747.838684 426.298065,747.838684 415.040680,747.838684 
z"/>
<path fill="#FFFEFD" opacity="1.000000" stroke="none" 
	d="
M234.738297,748.514404 
	C226.792480,748.514587 219.319687,748.514587 211.287033,748.514587 
	C211.287033,777.738647 211.287033,806.469666 211.287033,835.517639 
	C200.996887,835.517639 191.273987,835.517639 181.044495,835.517639 
	C181.044495,806.605286 181.044495,777.873230 181.044495,748.558838 
	C171.485107,748.558838 162.410446,748.558838 153.091156,748.558838 
	C153.091156,739.874756 153.091156,731.774109 153.091156,723.333923 
	C181.864136,723.333923 210.592651,723.333923 239.662811,723.333923 
	C239.662811,731.497375 239.662811,739.719971 239.662811,748.255737 
	C238.144409,748.343933 236.677856,748.429077 234.738297,748.514404 
z"/>
<path fill="#FFFEFD" opacity="1.000000" stroke="none" 
	d="
M837.686401,835.821228 
	C828.402832,835.833740 819.593018,835.833740 810.111755,835.833740 
	C810.111755,806.695740 810.111755,777.840759 810.111755,748.558716 
	C800.505554,748.558716 791.563416,748.558716 782.229614,748.558716 
	C782.229614,739.942139 782.229614,731.749329 782.229614,723.273682 
	C811.001343,723.273682 839.726257,723.273682 868.727539,723.273682 
	C868.727539,731.499817 868.727539,739.594543 868.727539,748.449341 
	C859.418274,748.449341 850.054382,748.449341 840.170654,748.449341 
	C840.170654,750.991882 840.170654,752.782166 840.170654,754.572388 
	C840.170593,779.892334 840.210571,805.212402 840.083984,830.531738 
	C840.075195,832.293884 838.830200,834.049866 837.686401,835.821228 
z"/>
<path fill="#F2682A" opacity="1.000000" stroke="none" 
	d="
M721.008301,131.061569 
	C728.251404,144.076355 733.197266,157.428329 734.020752,172.100967 
	C734.297668,177.035202 734.955505,181.963852 734.958130,186.895309 
	C735.013306,292.376953 735.096130,397.858765 734.922791,503.340149 
	C734.885925,525.751282 727.312317,545.917236 713.744812,563.682617 
	C697.839783,584.509094 676.437073,596.613647 651.016907,601.860229 
	C646.697144,602.751831 642.171509,602.952942 637.740784,602.955078 
	C519.427979,603.011475 401.115112,603.083923 282.802551,602.922485 
	C261.562683,602.893494 242.375504,595.677002 225.534302,582.901978 
	C206.074875,568.140808 193.117294,548.797729 187.525101,524.898010 
	C186.078690,518.716431 185.112244,512.260193 185.103806,505.928528 
	C184.959290,397.447601 184.959534,288.966370 185.033112,180.485275 
	C185.048386,157.964828 192.508286,137.903381 206.320404,120.207047 
	C222.914780,98.946030 245.010666,86.911621 271.255280,82.111053 
	C275.605255,81.315384 280.106873,81.046349 284.538666,81.044235 
	C401.518280,80.988525 518.498474,80.808884 635.477112,81.161530 
	C658.825073,81.231926 679.751465,89.512154 698.097229,104.408340 
	C707.336731,111.910530 714.200134,121.175293 721.008301,131.061569 
M651.396545,126.994446 
	C645.625427,125.996292 639.855652,124.135925 634.083069,124.127342 
	C519.255371,123.956650 404.427246,124.073853 289.599487,123.927048 
	C270.539917,123.902687 254.613037,130.339020 242.016876,144.568085 
	C233.679016,153.986832 228.146072,165.087799 228.121780,177.727692 
	C227.910645,287.555481 227.997665,397.383850 228.022797,507.212036 
	C228.023163,508.840210 228.258011,510.488831 228.565018,512.093201 
	C231.086899,525.271973 237.632324,536.058044 247.517685,545.113159 
	C257.877167,554.602661 269.910126,559.923584 283.863281,559.937012 
	C399.357758,560.048340 514.852661,559.890991 630.346680,560.137146 
	C644.892761,560.168152 658.003906,556.890869 669.213257,547.854309 
	C682.969910,536.764099 691.836121,522.357666 691.877197,504.356323 
	C692.124329,396.028625 692.012451,287.700073 691.942261,179.371857 
	C691.940063,175.967026 691.470215,172.456284 690.564148,169.175583 
	C684.908997,148.697922 672.150269,134.585876 651.396545,126.994446 
z"/>
<path fill="#F26A2D" opacity="1.000000" stroke="none" 
	d="
M523.786133,763.414368 
	C518.180054,772.881592 509.299957,771.760864 500.347900,771.773315 
	C500.347900,762.927673 500.347900,754.382141 500.347900,745.161560 
	C507.605377,745.037109 515.228455,742.928833 521.427429,748.754333 
	C525.605652,752.680847 525.856384,757.798889 523.786133,763.414368 
z"/>
<path fill="#FFFFFF" opacity="1.000000" stroke="none" 
	d="
M651.802490,127.032211 
	C672.150269,134.585876 684.908997,148.697922 690.564148,169.175583 
	C691.470215,172.456284 691.940063,175.967026 691.942261,179.371857 
	C692.012451,287.700073 692.124329,396.028625 691.877197,504.356323 
	C691.836121,522.357666 682.969910,536.764099 669.213257,547.854309 
	C658.003906,556.890869 644.892761,560.168152 630.346680,560.137146 
	C514.852661,559.890991 399.357758,560.048340 283.863281,559.937012 
	C269.910126,559.923584 257.877167,554.602661 247.517685,545.113159 
	C237.632324,536.058044 231.086899,525.271973 228.565018,512.093201 
	C228.258011,510.488831 228.023163,508.840210 228.022797,507.212036 
	C227.997665,397.383850 227.910645,287.555481 228.121780,177.727692 
	C228.146072,165.087799 233.679016,153.986832 242.016876,144.568085 
	C254.613037,130.339020 270.539917,123.902687 289.599487,123.927048 
	C404.427246,124.073853 519.255371,123.956650 634.083069,124.127342 
	C639.855652,124.135925 645.625427,125.996292 651.802490,127.032211 
M298.554260,171.000000 
	C278.164612,169.347076 264.528839,184.667007 264.820465,204.810822 
	C265.418549,246.124985 265.000000,287.453857 265.000000,328.776672 
	C265.000031,366.100494 264.767212,403.426666 265.138733,440.746796 
	C265.253693,452.290985 270.855560,458.054413 280.469788,459.891724 
	C285.756927,460.902100 291.277557,460.841644 296.699524,460.959259 
	C304.456940,461.127533 306.707031,463.145966 307.000793,470.798340 
	C307.362823,480.229126 313.096100,486.179840 322.613861,487.003571 
	C328.070496,487.475861 331.869843,491.752350 331.999725,497.568207 
	C332.218475,507.361664 338.715881,513.987671 348.266113,513.989990 
	C422.413910,514.007935 496.561707,513.971436 570.709473,514.030579 
	C581.818298,514.039429 588.499084,505.958252 588.064941,496.945404 
	C587.795532,491.354034 591.296387,487.733795 596.865601,487.007812 
	C607.756531,485.588104 611.500305,481.613525 612.001160,470.938995 
	C612.306824,464.424133 615.795105,461.040619 622.268372,461.003052 
	C625.267517,460.985657 628.275085,460.854919 631.264648,461.024750 
	C645.207886,461.816925 655.096008,452.631989 655.066895,437.349030 
	C654.920898,360.702148 655.013977,284.054840 654.958008,207.407715 
	C654.955261,203.649612 654.442993,199.879700 653.993164,196.136292 
	C652.178894,181.038315 640.025024,171.007553 624.456421,171.005936 
	C516.150635,170.994675 407.844879,171.000000 298.554260,171.000000 
z"/>
<path fill="#F2682A" opacity="1.000000" stroke="none" 
	d="
M299.046692,171.000000 
	C407.844879,171.000000 516.150635,170.994675 624.456421,171.005936 
	C640.025024,171.007553 652.178894,181.038315 653.993164,196.136292 
	C654.442993,199.879700 654.955261,203.649612 654.958008,207.407715 
	C655.013977,284.054840 654.920898,360.702148 655.066895,437.349030 
	C655.096008,452.631989 645.207886,461.816925 631.264648,461.024750 
	C628.275085,460.854919 625.267517,460.985657 622.268372,461.003052 
	C615.795105,461.040619 612.306824,464.424133 612.001160,470.938995 
	C611.500305,481.613525 607.756531,485.588104 596.865601,487.007812 
	C591.296387,487.733795 587.795532,491.354034 588.064941,496.945404 
	C588.499084,505.958252 581.818298,514.039429 570.709473,514.030579 
	C496.561707,513.971436 422.413910,514.007935 348.266113,513.989990 
	C338.715881,513.987671 332.218475,507.361664 331.999725,497.568207 
	C331.869843,491.752350 328.070496,487.475861 322.613861,487.003571 
	C313.096100,486.179840 307.362823,480.229126 307.000793,470.798340 
	C306.707031,463.145966 304.456940,461.127533 296.699524,460.959259 
	C291.277557,460.841644 285.756927,460.902100 280.469788,459.891724 
	C270.855560,458.054413 265.253693,452.290985 265.138733,440.746796 
	C264.767212,403.426666 265.000031,366.100494 265.000000,328.776672 
	C265.000000,287.453857 265.418549,246.124985 264.820465,204.810822 
	C264.528839,184.667007 278.164612,169.347076 299.046692,171.000000 
M615.000000,351.500000 
	C614.999939,307.499023 615.001770,263.498047 614.997131,219.497086 
	C614.996704,215.135574 611.909729,210.569519 607.950195,210.172546 
	C603.409607,209.717346 598.788330,210.067001 594.000000,210.067001 
	C594.000000,237.063904 593.906921,263.385132 594.047607,289.705170 
	C594.100952,299.678711 590.697876,302.784698 581.540466,302.092682 
	C574.853516,301.587372 572.007202,299.170593 572.004395,292.436432 
	C571.993591,266.769806 572.000000,241.103165 572.000000,215.436539 
	C572.000000,213.686371 572.000000,211.936218 572.000000,210.264343 
	C566.965149,210.264343 562.693420,210.264343 558.000000,210.264343 
	C558.000000,212.316605 558.000000,214.110291 558.000000,215.903976 
	C558.000000,241.237274 558.017273,266.570618 557.989380,291.903870 
	C557.981018,299.484985 554.852051,302.025787 545.797180,302.000000 
	C538.572449,301.979431 536.004883,299.424957 536.002808,292.193115 
	C535.995544,266.693146 536.000000,241.193192 536.000000,215.693237 
	C536.000000,213.918671 536.000000,212.144119 536.000000,210.351074 
	C531.026978,210.351074 526.640869,210.351074 522.000000,210.351074 
	C522.000000,212.513641 522.000000,214.330460 522.000000,216.147293 
	C522.000000,240.647263 522.000366,265.147217 521.999817,289.647186 
	C521.999634,299.613373 519.547974,302.045807 509.553925,302.000000 
	C502.670532,301.968445 500.007385,299.331055 500.004425,292.449799 
	C499.993347,266.783173 499.999939,241.116547 499.999939,215.449921 
	C499.999939,213.698486 499.999969,211.947037 499.999969,210.259552 
	C494.974823,210.259552 490.703247,210.259552 486.000000,210.259552 
	C486.000000,212.305542 486.000000,214.098053 486.000000,215.890564 
	C486.000000,240.390518 486.000183,264.890472 485.999878,289.390442 
	C485.999756,299.399963 483.395233,302.043030 473.576630,302.000000 
	C466.678894,301.969727 464.007660,299.337921 464.004578,292.472534 
	C463.993073,266.805908 464.000000,241.139267 464.000000,215.472641 
	C464.000000,213.719025 464.000000,211.965424 464.000000,210.251465 
	C458.990112,210.251465 454.719513,210.251465 450.000000,210.251465 
	C450.000000,212.286789 450.000000,214.077316 450.000000,215.867844 
	C450.000000,240.367813 450.000153,264.867767 449.999878,289.367737 
	C449.999786,299.398315 447.405060,302.041077 437.599365,302.000000 
	C430.691986,301.971069 428.008026,299.340088 428.004822,292.495239 
	C427.992859,266.828613 428.000000,241.161987 428.000000,215.495361 
	C428.000000,213.739578 428.000000,211.983795 428.000000,210.243362 
	C423.006653,210.243362 418.736420,210.243362 414.000000,210.243362 
	C414.000000,212.267990 414.000000,214.056564 414.000000,215.845123 
	C414.000000,240.345078 414.000153,264.845032 413.999878,289.345001 
	C413.999786,299.396942 411.415070,302.039032 401.622070,301.999969 
	C394.704102,301.972382 392.008301,299.343262 392.005005,292.517975 
	C391.992615,266.851349 392.000000,241.184708 392.000000,215.518082 
	C392.000000,213.760132 392.000000,212.002197 392.000000,210.235260 
	C387.024109,210.235260 382.753723,210.235260 378.000000,210.235260 
	C378.000000,212.249191 378.000000,214.035797 378.000000,215.822403 
	C378.000000,240.322372 378.001404,264.822327 377.999268,289.322296 
	C377.998413,299.252502 375.271576,302.039429 365.611603,302.000000 
	C358.699524,301.971802 356.008209,299.340790 356.004944,292.507507 
	C355.992767,266.840881 356.000000,241.174240 356.000000,215.507614 
	C356.000000,213.750671 356.000000,211.993713 356.000000,210.238998 
	C351.015625,210.238998 346.745636,210.238998 342.000000,210.238998 
	C342.000000,220.924759 342.000122,231.378799 341.999969,241.832840 
	C341.999756,258.499481 342.080353,275.166687 341.962494,291.832520 
	C341.909271,299.351196 338.181732,302.115265 328.954376,301.999847 
	C322.473328,301.918793 320.002594,299.127289 320.001434,291.850311 
	C319.997589,267.683685 320.000000,243.517044 320.000000,219.350418 
	C320.000000,216.389954 320.000000,213.429489 320.000000,210.542313 
	C307.873962,208.805786 305.000000,211.192032 305.000000,222.550720 
	C305.000000,285.883942 304.997589,349.217194 305.004242,412.550415 
	C305.004822,418.273651 307.693726,420.976837 313.360748,420.996063 
	C318.694000,421.014160 324.028168,421.057373 329.360535,420.987518 
	C338.294189,420.870544 346.832916,428.411041 346.159088,437.082550 
	C345.666687,443.419128 349.906128,447.574219 355.559692,447.997742 
	C364.856049,448.694183 370.903290,455.107666 370.999969,464.373108 
	C371.072601,471.336365 373.659027,473.993988 380.477112,473.995117 
	C433.143707,474.003906 485.810272,474.003540 538.476868,473.995575 
	C545.179199,473.994568 547.928894,471.197662 548.000000,464.409576 
	C548.097595,455.096161 554.123779,448.675751 563.403687,447.998108 
	C569.118652,447.580750 571.521729,444.936340 572.076965,439.357513 
	C572.411438,435.997040 572.871887,432.384399 574.387451,429.461487 
	C577.517395,423.424988 583.258972,421.126526 589.828918,421.029602 
	C598.100220,420.907532 606.374634,421.000214 615.000000,421.000214 
	C615.000000,397.769379 615.000000,375.134674 615.000000,351.500000 
z"/>
<path fill="#FFFFFF" opacity="1.000000" stroke="none" 
	d="
M615.000000,352.000000 
	C615.000000,375.134674 615.000000,397.769379 615.000000,421.000214 
	C606.374634,421.000214 598.100220,420.907532 589.828918,421.029602 
	C583.258972,421.126526 577.517395,423.424988 574.387451,429.461487 
	C572.871887,432.384399 572.411438,435.997040 572.076965,439.357513 
	C571.521729,444.936340 569.118652,447.580750 563.403687,447.998108 
	C554.123779,448.675751 548.097595,455.096161 548.000000,464.409576 
	C547.928894,471.197662 545.179199,473.994568 538.476868,473.995575 
	C485.810272,474.003540 433.143707,474.003906 380.477112,473.995117 
	C373.659027,473.993988 371.072601,471.336365 370.999969,464.373108 
	C370.903290,455.107666 364.856049,448.694183 355.559692,447.997742 
	C349.906128,447.574219 345.666687,443.419128 346.159088,437.082550 
	C346.832916,428.411041 338.294189,420.870544 329.360535,420.987518 
	C324.028168,421.057373 318.694000,421.014160 313.360748,420.996063 
	C307.693726,420.976837 305.004822,418.273651 305.004242,412.550415 
	C304.997589,349.217194 305.000000,285.883942 305.000000,222.550720 
	C305.000000,211.192032 307.873962,208.805786 320.000000,210.542313 
	C320.000000,213.429489 320.000000,216.389954 320.000000,219.350418 
	C320.000000,243.517044 319.997589,267.683685 320.001434,291.850311 
	C320.002594,299.127289 322.473328,301.918793 328.954376,301.999847 
	C338.181732,302.115265 341.909271,299.351196 341.962494,291.832520 
	C342.080353,275.166687 341.999756,258.499481 341.999969,241.832840 
	C342.000122,231.378799 342.000000,220.924759 342.000000,210.238998 
	C346.745636,210.238998 351.015625,210.238998 356.000000,210.238998 
	C356.000000,211.993713 356.000000,213.750671 356.000000,215.507614 
	C356.000000,241.174240 355.992767,266.840881 356.004944,292.507507 
	C356.008209,299.340790 358.699524,301.971802 365.611603,302.000000 
	C375.271576,302.039429 377.998413,299.252502 377.999268,289.322296 
	C378.001404,264.822327 378.000000,240.322372 378.000000,215.822403 
	C378.000000,214.035797 378.000000,212.249191 378.000000,210.235260 
	C382.753723,210.235260 387.024109,210.235260 392.000000,210.235260 
	C392.000000,212.002197 392.000000,213.760132 392.000000,215.518082 
	C392.000000,241.184708 391.992615,266.851349 392.005005,292.517975 
	C392.008301,299.343262 394.704102,301.972382 401.622070,301.999969 
	C411.415070,302.039032 413.999786,299.396942 413.999878,289.345001 
	C414.000153,264.845032 414.000000,240.345078 414.000000,215.845123 
	C414.000000,214.056564 414.000000,212.267990 414.000000,210.243362 
	C418.736420,210.243362 423.006653,210.243362 428.000000,210.243362 
	C428.000000,211.983795 428.000000,213.739578 428.000000,215.495361 
	C428.000000,241.161987 427.992859,266.828613 428.004822,292.495239 
	C428.008026,299.340088 430.691986,301.971069 437.599365,302.000000 
	C447.405060,302.041077 449.999786,299.398315 449.999878,289.367737 
	C450.000153,264.867767 450.000000,240.367813 450.000000,215.867844 
	C450.000000,214.077316 450.000000,212.286789 450.000000,210.251465 
	C454.719513,210.251465 458.990112,210.251465 464.000000,210.251465 
	C464.000000,211.965424 464.000000,213.719025 464.000000,215.472641 
	C464.000000,241.139267 463.993073,266.805908 464.004578,292.472534 
	C464.007660,299.337921 466.678894,301.969727 473.576630,302.000000 
	C483.395233,302.043030 485.999756,299.399963 485.999878,289.390442 
	C486.000183,264.890472 486.000000,240.390518 486.000000,215.890564 
	C486.000000,214.098053 486.000000,212.305542 486.000000,210.259552 
	C490.703247,210.259552 494.974823,210.259552 499.999969,210.259552 
	C499.999969,211.947037 499.999939,213.698486 499.999939,215.449921 
	C499.999939,241.116547 499.993347,266.783173 500.004425,292.449799 
	C500.007385,299.331055 502.670532,301.968445 509.553925,302.000000 
	C519.547974,302.045807 521.999634,299.613373 521.999817,289.647186 
	C522.000366,265.147217 522.000000,240.647263 522.000000,216.147293 
	C522.000000,214.330460 522.000000,212.513641 522.000000,210.351074 
	C526.640869,210.351074 531.026978,210.351074 536.000000,210.351074 
	C536.000000,212.144119 536.000000,213.918671 536.000000,215.693237 
	C536.000000,241.193192 535.995544,266.693146 536.002808,292.193115 
	C536.004883,299.424957 538.572449,301.979431 545.797180,302.000000 
	C554.852051,302.025787 557.981018,299.484985 557.989380,291.903870 
	C558.017273,266.570618 558.000000,241.237274 558.000000,215.903976 
	C558.000000,214.110291 558.000000,212.316605 558.000000,210.264343 
	C562.693420,210.264343 566.965149,210.264343 572.000000,210.264343 
	C572.000000,211.936218 572.000000,213.686371 572.000000,215.436539 
	C572.000000,241.103165 571.993591,266.769806 572.004395,292.436432 
	C572.007202,299.170593 574.853516,301.587372 581.540466,302.092682 
	C590.697876,302.784698 594.100952,299.678711 594.047607,289.705170 
	C593.906921,263.385132 594.000000,237.063904 594.000000,210.067001 
	C598.788330,210.067001 603.409607,209.717346 607.950195,210.172546 
	C611.909729,210.569519 614.996704,215.135574 614.997131,219.497086 
	C615.001770,263.498047 614.999939,307.499023 615.000000,352.000000 
z"/>
</svg>