<?xml version="1.0" standalone="no"?>
<!DOCTYPE svg PUBLIC "-//W3C//DTD SVG 20010904//EN"
 "http://www.w3.org/TR/2001/REC-SVG-20010904/DTD/svg10.dtd">
<svg version="1.0" xmlns="http://www.w3.org/2000/svg"
 width="768.000000pt" height="432.000000pt" viewBox="0 0 768.000000 432.000000"
 preserveAspectRatio="xMidYMid meet">

<g transform="translate(0.000000,432.000000) scale(0.100000,-0.100000)"
fill="#000000" stroke="none">
<path d="M2182 3880 c-33 -15 -47 -29 -62 -62 -19 -41 -20 -70 -20 -650 l0
-608 95 0 95 0 2 573 3 572 1545 0 1545 0 3 -517 2 -518 -180 0 c-99 0 -180
-3 -180 -8 0 -4 101 -108 225 -232 l225 -225 233 233 232 232 -183 0 -182 0 0
553 c0 525 -1 554 -20 595 -15 33 -29 47 -62 62 -42 19 -80 20 -1658 20 -1578
0 -1616 -1 -1658 -20z"/>
<path d="M2720 2160 l0 -1120 1120 0 1120 0 0 1120 0 1120 -1120 0 -1120 0 0
-1120z m740 155 l0 -85 85 0 85 0 0 85 0 85 50 0 50 0 0 -226 0 -225 -47 3
-48 3 -3 98 -3 97 -84 0 -84 0 -3 -97 -3 -98 -47 -3 -48 -3 0 225 0 226 50 0
50 0 0 -85z m560 57 c0 -19 -7 -30 -22 -37 -22 -10 -23 -15 -26 -158 l-3 -147
26 -10 c19 -7 25 -17 25 -40 l0 -30 -100 0 -100 0 0 30 c0 23 6 33 25 40 l25
10 0 144 c0 142 0 144 -25 160 -16 10 -25 26 -25 41 0 25 0 25 100 25 l100 0
0 -28z m190 -157 l0 -185 90 0 90 0 0 -40 0 -40 -140 0 -140 0 0 225 0 225 50
0 50 0 0 -185z"/>
<path d="M1972 2237 c-122 -122 -222 -226 -222 -230 0 -4 79 -7 175 -7 l175 0
0 -727 c0 -699 1 -730 20 -771 15 -33 29 -47 62 -62 42 -19 80 -20 1658 -20
1578 0 1616 1 1658 20 33 15 47 29 62 62 19 41 20 72 20 826 l0 782 -95 0 -95
0 -2 -747 -3 -748 -1545 0 -1545 0 -3 692 -2 693 180 2 180 3 -227 228 -228
227 -223 -223z"/>
</g>
</svg>
