<svg xmlns="http://www.w3.org/2000/svg" width="225" height="225" viewBox="0 0 225 225" version="1.1"><path d="M 8.071 1.744 C 6.185 2.710, 3.710 4.770, 2.571 6.323 C 0.516 9.124, 0.498 9.875, 0.243 100.823 C 0.003 186.601, 0.099 192.721, 1.743 195.929 C 4.845 201.984, 7.956 203.456, 18.457 203.843 L 27.773 204.185 28.201 210.106 C 28.918 220.014, 34.539 224.997, 45 224.997 C 55.500 224.997, 61.082 220.020, 61.805 210.013 L 62.240 204 112.500 204 L 162.760 204 163.195 210.013 C 163.918 220.020, 169.500 224.997, 180 224.997 C 190.461 224.997, 196.082 220.014, 196.799 210.106 L 197.227 204.185 206.543 203.843 C 217.174 203.452, 219.981 202.070, 223.669 195.415 L 225.839 191.500 225.919 100.583 C 225.964 50.579, 225.712 9.955, 225.360 10.306 C 225.008 10.658, 223.996 9.528, 223.110 7.794 C 222.225 6.061, 220.230 3.710, 218.677 2.571 C 215.871 0.512, 215.247 0.498, 113.677 0.244 C 17.904 0.004, 11.285 0.098, 8.071 1.744 M 9.174 9.314 L 7 11.629 7 101.860 L 7 192.091 9.455 194.545 L 11.909 197 112.500 197 L 213.091 197 215.545 194.545 L 218 192.091 218 101.720 L 218 11.349 215.686 9.174 L 213.371 7 112.360 7 L 11.349 7 9.174 9.314 M 0.479 102 C 0.479 152.325, 0.601 172.913, 0.750 147.750 C 0.898 122.588, 0.898 81.413, 0.750 56.250 C 0.601 31.088, 0.479 51.675, 0.479 102 M 104.396 38.229 C 98.926 39.337, 95.575 42.973, 95.707 47.657 C 95.844 52.468, 98.800 55.242, 107.500 58.725 C 113.002 60.927, 114.570 62.017, 114.827 63.818 C 115.310 67.210, 113.256 69, 108.878 69 C 105.116 69, 101 66.388, 101 64 C 101 63.450, 99.650 63, 98 63 C 95.513 63, 95 63.404, 95 65.364 C 95 68.726, 99.299 72.586, 104.504 73.897 C 113.644 76.198, 122 71.748, 122 64.579 C 122 58.873, 119.128 56.421, 107.212 51.957 C 102.901 50.343, 101.638 47.962, 103.604 45.155 C 105.789 42.035, 111.241 42.219, 113.821 45.500 C 115.165 47.208, 116.772 48, 118.894 48 C 122.834 48, 122.938 46.081, 119.222 41.922 C 115.993 38.309, 110.617 36.970, 104.396 38.229 M 57 56 L 57 74 60.500 74 L 64 74 64 66.500 L 64 59 71.500 59 L 79 59 79 66.500 L 79 74 82.500 74 L 86 74 86 56 L 86 38 82.500 38 L 79 38 79 46.044 L 79 54.088 71.750 53.794 L 64.500 53.500 64.208 45.750 L 63.916 38 60.458 38 L 57 38 57 56 M 130 56 L 130 74 133.500 74 L 137 74 137.059 60.750 L 137.118 47.500 141.815 60.500 C 146.014 72.124, 146.775 73.530, 149.005 73.786 C 151.347 74.055, 151.787 73.288, 156.184 61.286 L 160.868 48.500 160.934 61.250 L 161 74 164.500 74 L 168 74 168 56 L 168 38 163.118 38 L 158.236 38 154.118 50.011 C 151.853 56.617, 150 62.557, 150 63.211 C 150 66.122, 147.922 61.653, 143.973 50.250 L 139.731 38 134.866 38 L 130 38 130 56 M 91.229 104.171 C 89.391 106.009, 89.672 107.228, 93.500 114 C 95.425 117.406, 97 120.370, 97 120.587 C 97 120.805, 95.443 123.022, 93.541 125.514 C 91.639 128.007, 89.789 131.610, 89.430 133.523 L 88.777 137 80.424 137 C 73.445 137, 71.914 137.292, 71.120 138.776 C 70.517 139.902, 70.522 141.182, 71.134 142.276 C 71.929 143.696, 73.590 144, 80.550 144 C 88.388 144, 89 144.148, 89 146.040 C 89 148.740, 92.257 155.020, 94.894 157.405 C 96.052 158.453, 97 159.647, 97 160.059 C 97 160.471, 95.404 163.631, 93.454 167.082 C 89.392 174.268, 89.237 177.500, 92.954 177.500 C 94.925 177.500, 96.144 176.220, 99.142 171 L 102.876 164.500 112.468 164.556 L 122.060 164.612 125.807 171.056 C 128.818 176.235, 130.039 177.500, 132.027 177.500 C 135.781 177.500, 135.628 174.178, 131.551 167.223 C 129.598 163.890, 128 160.755, 128 160.256 C 128 159.757, 129.068 158.345, 130.373 157.119 C 132.492 155.128, 134.796 150.770, 136.384 145.750 C 136.849 144.279, 138.188 144, 144.769 144 C 154.253 144, 157.083 142.226, 153.429 138.571 C 152.268 137.411, 149.813 137, 144.040 137 L 136.223 137 135.570 133.523 C 135.211 131.610, 133.361 128.007, 131.459 125.514 C 129.557 123.022, 128 120.786, 128 120.545 C 128 120.304, 129.575 117.420, 131.500 114.135 C 135.312 107.632, 135.873 104.549, 133.418 103.607 C 130.572 102.515, 130.115 102.919, 125.784 110.360 C 122.100 116.689, 121.220 117.609, 119.500 116.930 C 117.046 115.962, 109.389 115.948, 106 116.906 C 103.715 117.552, 103.154 117.008, 99.474 110.565 C 95.403 103.438, 93.465 101.935, 91.229 104.171 M 108.564 123.207 C 94.635 126.176, 89.755 142.990, 99.882 153.118 C 114.588 167.823, 137.749 150.486, 128.358 131.802 C 125.216 125.549, 116.115 121.597, 108.564 123.207 M 35 208.545 C 35 215.059, 38.111 218, 45 218 C 51.889 218, 55 215.059, 55 208.545 L 55 204 45 204 L 35 204 35 208.545 M 170 208.545 C 170 215.059, 173.111 218, 180 218 C 186.889 218, 190 215.059, 190 208.545 L 190 204 180 204 L 170 204 170 208.545" stroke="none" fill="#086bb4" fill-rule="evenodd"/><path d="M 0.039 5.750 C 0.077 11.377, 0.107 11.436, 1.403 8.500 C 2.942 5.013, 5.522 2.512, 9.021 1.116 C 11.104 0.285, 10.582 0.117, 5.750 0.063 L 0 0 0.039 5.750 M 215.979 1.116 C 219.478 2.512, 222.058 5.013, 223.597 8.500 C 224.893 11.436, 224.923 11.377, 224.961 5.750 L 225 0 219.250 0.063 C 214.418 0.117, 213.896 0.285, 215.979 1.116 M 9.174 9.314 L 7 11.629 7 101.860 L 7 192.091 9.455 194.545 L 11.909 197 112.500 197 L 213.091 197 215.545 194.545 L 218 192.091 218 101.720 L 218 11.349 215.686 9.174 L 213.371 7 112.360 7 L 11.349 7 9.174 9.314 M 104.396 38.229 C 98.926 39.337, 95.575 42.973, 95.707 47.657 C 95.844 52.468, 98.800 55.242, 107.500 58.725 C 113.002 60.927, 114.570 62.017, 114.827 63.818 C 115.310 67.210, 113.256 69, 108.878 69 C 105.116 69, 101 66.388, 101 64 C 101 63.450, 99.650 63, 98 63 C 95.513 63, 95 63.404, 95 65.364 C 95 68.726, 99.299 72.586, 104.504 73.897 C 113.644 76.198, 122 71.748, 122 64.579 C 122 58.873, 119.128 56.421, 107.212 51.957 C 102.901 50.343, 101.638 47.962, 103.604 45.155 C 105.789 42.035, 111.241 42.219, 113.821 45.500 C 115.165 47.208, 116.772 48, 118.894 48 C 122.834 48, 122.938 46.081, 119.222 41.922 C 115.993 38.309, 110.617 36.970, 104.396 38.229 M 57 56 L 57 74 60.500 74 L 64 74 64 66.500 L 64 59 71.500 59 L 79 59 79 66.500 L 79 74 82.500 74 L 86 74 86 56 L 86 38 82.500 38 L 79 38 79 46.044 L 79 54.088 71.750 53.794 L 64.500 53.500 64.208 45.750 L 63.916 38 60.458 38 L 57 38 57 56 M 130 56 L 130 74 133.500 74 L 137 74 137.059 60.750 L 137.118 47.500 141.815 60.500 C 146.014 72.124, 146.775 73.530, 149.005 73.786 C 151.347 74.055, 151.787 73.288, 156.184 61.286 L 160.868 48.500 160.934 61.250 L 161 74 164.500 74 L 168 74 168 56 L 168 38 163.118 38 L 158.236 38 154.118 50.011 C 151.853 56.617, 150 62.557, 150 63.211 C 150 66.122, 147.922 61.653, 143.973 50.250 L 139.731 38 134.866 38 L 130 38 130 56 M 91.229 104.171 C 89.391 106.009, 89.672 107.228, 93.500 114 C 95.425 117.406, 97 120.370, 97 120.587 C 97 120.805, 95.443 123.022, 93.541 125.514 C 91.639 128.007, 89.789 131.610, 89.430 133.523 L 88.777 137 80.424 137 C 73.445 137, 71.914 137.292, 71.120 138.776 C 70.517 139.902, 70.522 141.182, 71.134 142.276 C 71.929 143.696, 73.590 144, 80.550 144 C 88.388 144, 89 144.148, 89 146.040 C 89 148.740, 92.257 155.020, 94.894 157.405 C 96.052 158.453, 97 159.647, 97 160.059 C 97 160.471, 95.404 163.631, 93.454 167.082 C 89.392 174.268, 89.237 177.500, 92.954 177.500 C 94.925 177.500, 96.144 176.220, 99.142 171 L 102.876 164.500 112.468 164.556 L 122.060 164.612 125.807 171.056 C 128.818 176.235, 130.039 177.500, 132.027 177.500 C 135.781 177.500, 135.628 174.178, 131.551 167.223 C 129.598 163.890, 128 160.755, 128 160.256 C 128 159.757, 129.068 158.345, 130.373 157.119 C 132.492 155.128, 134.796 150.770, 136.384 145.750 C 136.849 144.279, 138.188 144, 144.769 144 C 154.253 144, 157.083 142.226, 153.429 138.571 C 152.268 137.411, 149.813 137, 144.040 137 L 136.223 137 135.570 133.523 C 135.211 131.610, 133.361 128.007, 131.459 125.514 C 129.557 123.022, 128 120.786, 128 120.545 C 128 120.304, 129.575 117.420, 131.500 114.135 C 135.312 107.632, 135.873 104.549, 133.418 103.607 C 130.572 102.515, 130.115 102.919, 125.784 110.360 C 122.100 116.689, 121.220 117.609, 119.500 116.930 C 117.046 115.962, 109.389 115.948, 106 116.906 C 103.715 117.552, 103.154 117.008, 99.474 110.565 C 95.403 103.438, 93.465 101.935, 91.229 104.171 M 108.564 123.207 C 94.635 126.176, 89.755 142.990, 99.882 153.118 C 114.588 167.823, 137.749 150.486, 128.358 131.802 C 125.216 125.549, 116.115 121.597, 108.564 123.207 M 0.002 208.750 L 0 225 19.750 224.998 C 39.194 224.997, 39.447 224.970, 36.071 223.248 C 30.907 220.615, 28.694 216.920, 28.201 210.106 L 27.773 204.185 18.457 203.843 C 7.954 203.456, 4.837 201.980, 1.752 195.929 C 0.018 192.529, 0.003 192.638, 0.002 208.750 M 223 196.211 C 220.297 201.919, 216.976 203.459, 206.543 203.843 L 197.227 204.185 196.799 210.106 C 196.306 216.920, 194.093 220.615, 188.929 223.248 C 185.553 224.970, 185.806 224.997, 205.250 224.998 L 225 225 225 209 C 225 200.200, 224.887 193.010, 224.750 193.022 C 224.613 193.034, 223.825 194.469, 223 196.211 M 35 208.545 C 35 215.059, 38.111 218, 45 218 C 51.889 218, 55 215.059, 55 208.545 L 55 204 45 204 L 35 204 35 208.545 M 61.805 210.013 C 61.305 216.926, 59.117 220.603, 53.929 223.248 C 50.629 224.931, 52.833 224.997, 112.500 224.997 C 172.167 224.997, 174.371 224.931, 171.071 223.248 C 165.883 220.603, 163.695 216.926, 163.195 210.013 L 162.760 204 112.500 204 L 62.240 204 61.805 210.013 M 170 208.545 C 170 215.059, 173.111 218, 180 218 C 186.889 218, 190 215.059, 190 208.545 L 190 204 180 204 L 170 204 170 208.545" stroke="none" fill="#fbfbfb" fill-rule="evenodd"/></svg>