<?xml version="1.0" encoding="UTF-8"?>
<svg version="1.1" xmlns="http://www.w3.org/2000/svg" width="512" height="512">
<path d="M0 0 C1.21922029 -0.00445668 1.21922029 -0.00445668 2.46307129 -0.0090034 C5.17257062 -0.01763886 7.8820255 -0.01919427 10.59153748 -0.02069092 C12.54027398 -0.02532281 14.48900958 -0.03034797 16.43774414 -0.03573608 C21.72322471 -0.04882789 27.00869259 -0.05529896 32.29418683 -0.05974674 C35.60114476 -0.06268318 38.90809927 -0.0667891 42.21505547 -0.07125092 C52.5755539 -0.0849185 62.93604446 -0.09458829 73.29655129 -0.09845281 C85.23020796 -0.10292932 97.16374985 -0.12046149 109.09737164 -0.1494534 C118.33842181 -0.17111944 127.57943981 -0.18115974 136.8205151 -0.18249393 C142.33178975 -0.18353859 147.84295641 -0.18937397 153.35420418 -0.20731354 C158.54416319 -0.22387908 163.733934 -0.22590879 168.92391014 -0.21717453 C170.81924572 -0.21640863 172.71459178 -0.22068722 174.60990143 -0.23063278 C193.20471985 -0.32241515 208.74275248 1.54327185 223.14012146 14.37091064 C229.94206806 21.84777907 234.03537478 29.57852769 237.34715271 39.07794189 C237.71131287 40.08534424 238.07547302 41.09274658 238.45066833 42.13067627 C239.17422633 44.13626038 239.89036588 46.14453825 240.59861755 48.15557861 C241.99298676 52.07816441 243.46150399 55.97228639 244.93626404 59.86529541 C245.65965271 62.14044189 245.65965271 62.14044189 245.65965271 65.14044189 C246.69863708 64.74212158 247.73762146 64.34380127 248.80809021 63.93341064 C276.37883171 53.42301748 276.37883171 53.42301748 288.42527771 57.97247314 C297.0443694 62.47790744 301.64734337 69.10351388 304.65965271 78.14044189 C305.45492556 87.46960419 304.2842432 95.12447279 298.59715271 102.70294189 C290.58883865 111.18670317 276.75901117 115.4632097 265.65965271 118.14044189 C267.89238313 123.6691077 270.65562093 127.38702325 274.78465271 131.70294189 C303.26184355 161.66560847 307.21148209 199.51218332 307.05076599 238.92364502 C307.03359352 243.17945452 307.04360391 247.43469941 307.06148338 251.69048882 C307.07241273 255.01946134 307.06883478 258.34830361 307.06110001 261.67728043 C307.0591275 263.24546504 307.06145084 264.81366228 307.06853867 266.38183212 C307.13122433 284.11904991 304.50605785 301.9850533 291.66355896 315.40216064 C277.03572459 328.09102281 261.32645903 330.44673618 242.65965271 329.14044189 C238.32634098 328.32098726 234.61999349 327.05774973 230.65965271 325.14044189 C229.86816833 324.77821533 229.07668396 324.41598877 228.26121521 324.04278564 C215.01481689 317.37437693 207.07288462 306.38646132 202.38621521 292.55059814 C201.69470647 289.30496841 201.37382146 286.23171041 201.11424255 282.92730713 C201.02798615 281.84432846 200.94172974 280.76134979 200.8528595 279.64555359 C200.78910126 278.81886673 200.72534302 277.99217987 200.65965271 277.14044189 C201.73627167 277.13164253 201.73627167 277.13164253 202.8346405 277.12266541 C209.60302581 277.06473043 216.37112902 276.99264914 223.13918686 276.90472698 C226.61864144 276.86002394 230.09797896 276.82076811 233.57762146 276.79400635 C237.57922445 276.76299051 241.58019639 276.70820192 245.58152771 276.65216064 C246.82956177 276.64577072 248.07759583 276.6393808 249.3634491 276.63279724 C250.52435059 276.61300308 251.68525208 276.59320892 252.8813324 276.57281494 C253.90281372 276.56171188 254.92429504 276.55060883 255.97673035 276.53916931 C259.04579048 276.08305532 260.41476007 275.24344967 262.65965271 273.14044189 C263.74533774 271.29776321 263.74533774 271.29776321 263.65965271 269.14044189 C261.89101682 265.44285011 261.89101682 265.44285011 258.65965271 263.14044189 C257.29158081 263.03728964 255.91873372 262.99402122 254.54682922 262.98222351 C253.68583618 262.97243469 252.82484314 262.96264587 251.9377594 262.95256042 C250.99117462 262.94680496 250.04458984 262.9410495 249.06932068 262.93511963 C248.07416443 262.92522003 247.07900818 262.91532043 246.05369568 262.90512085 C242.75310167 262.87344696 239.45249326 262.84872515 236.15184021 262.82403564 C233.86782957 262.8034712 231.58382279 262.78247487 229.29981995 262.76106262 C223.27957776 262.7057893 217.25930093 262.65640324 211.23899841 262.60821533 C205.09923712 262.55803868 198.95952632 262.50233262 192.81980896 262.44708252 C180.76646665 262.33943662 168.71308055 262.23800596 156.65965271 262.14044189 C156.65030701 261.36442627 156.6409613 260.58841064 156.6313324 259.78887939 C156.57731834 256.23877903 156.49372968 252.68995241 156.40965271 249.14044189 C156.39547302 247.91969971 156.38129333 246.69895752 156.36668396 245.44122314 C156.13000622 236.68414671 155.17783594 230.90992393 149.03465271 224.32794189 C139.48256823 217.36548598 126.98031032 218.70061276 115.78465271 218.74200439 C113.84991852 218.73997994 111.91518509 218.73706541 109.98045349 218.73330688 C105.9392007 218.72890104 101.89814777 218.73525831 97.85691833 218.74932861 C92.69917386 218.76641936 87.54189786 218.75656882 82.38417053 218.73861122 C78.39309718 218.72772623 74.40213332 218.73124129 70.41105652 218.7389946 C68.51021773 218.74098359 66.60936871 218.73858351 64.70854187 218.73155594 C47.24664286 218.41104798 47.24664286 218.41104798 32.13230896 226.24981689 C26.75506571 233.15322733 27.126533 240.66642173 26.97215271 249.07794189 C26.93799255 250.3341333 26.9038324 251.59032471 26.86863708 252.88458252 C26.78652157 255.96977976 26.71724972 259.05470574 26.65965271 262.14044189 C24.90984856 262.14924126 24.90984856 262.14924126 23.12469482 262.15821838 C12.13315622 262.21542221 1.1418159 262.28817172 -9.84952068 262.37615681 C-15.50033837 262.42089126 -21.15108344 262.46014074 -26.80201721 262.48687744 C-32.25511278 262.51287953 -37.70792938 262.55326032 -43.16085243 262.60362816 C-45.24162642 262.62031776 -47.32244868 262.63181898 -49.40328026 262.6380558 C-52.31708929 262.64767397 -55.23018124 262.67570634 -58.14381409 262.70806885 C-59.00480713 262.70663376 -59.86580017 262.70519867 -60.75288391 262.70372009 C-65.36487902 262.77620141 -68.68649448 262.99357745 -72.34034729 266.14044189 C-73.17368062 269.64044189 -73.17368062 269.64044189 -72.34034729 273.14044189 C-67.76446608 277.36984167 -61.76762968 276.61713748 -55.91456604 276.65216064 C-54.81183853 276.67011185 -53.70911102 276.68806305 -52.57296753 276.70655823 C-49.0579661 276.76065194 -45.54310042 276.7945548 -42.02784729 276.82794189 C-39.6417607 276.8611157 -37.25569202 276.89560541 -34.86964417 276.93145752 C-29.02666693 277.01637796 -23.1836721 277.08473198 -17.34034729 277.14044189 C-17.48437365 279.06056187 -17.63295743 280.98034036 -17.78346252 282.89996338 C-17.86571579 283.96907455 -17.94796906 285.03818573 -18.03271484 286.13969421 C-19.38131444 299.29437658 -26.95801499 311.29339419 -37.07472229 319.57794189 C-51.4445974 329.48820059 -68.10445024 331.56702302 -85.09034729 328.45294189 C-91.71264332 326.38347439 -97.6492885 323.07659231 -103.34034729 319.14044189 C-103.97714417 318.70087158 -104.61394104 318.26130127 -105.27003479 317.80841064 C-115.48821918 309.92905513 -120.7891499 296.82536633 -122.93443298 284.44924927 C-123.7526953 277.77919022 -123.64794956 271.07288331 -123.64112854 264.36309814 C-123.64502895 262.74521274 -123.64936631 261.12732833 -123.65411377 259.50944519 C-123.66153763 256.12819089 -123.66131501 252.74704102 -123.65602112 249.36578369 C-123.65140507 245.93986836 -123.65825216 242.5143092 -123.67652893 239.08843994 C-123.89650107 197.51035099 -118.95965434 160.49682198 -88.97828674 129.2822876 C-85.38536519 125.44866058 -83.60613763 122.20360324 -82.34034729 117.14044189 C-82.94878479 116.99348877 -83.55722229 116.84653564 -84.18409729 116.69512939 C-110.71317048 109.90680773 -110.71317048 109.90680773 -117.34034729 100.14044189 C-121.89542561 92.39157303 -122.73203941 84.15951032 -120.71534729 75.43731689 C-118.16771234 68.02187944 -113.6830552 62.40787346 -106.69190979 58.75762939 C-91.12459797 52.52198348 -77.14292986 59.72540419 -62.34034729 65.14044189 C-62.22191467 64.4573999 -62.10348206 63.77435791 -61.98146057 63.07061768 C-60.78773975 57.61477711 -58.79440171 52.3870686 -56.94972229 47.12286377 C-56.46463528 45.73081885 -55.98566749 44.3366247 -55.51319885 42.94024658 C-50.06995756 26.85481966 -42.75244924 13.36826488 -27.07862854 5.39044189 C-18.18226939 1.32933644 -9.78918303 -0.01133599 0 0 Z M-26.09034729 24.39044189 C-26.78644104 24.91122314 -27.48253479 25.43200439 -28.19972229 25.96856689 C-34.86496118 32.73110854 -37.54331404 41.49052516 -40.61378479 50.25372314 C-41.10467676 51.63197402 -41.59644496 53.0099131 -42.08903503 54.38755798 C-43.38020971 58.00553834 -44.66019572 61.62737435 -45.93757629 65.25024414 C-47.21667973 68.87274777 -48.50517613 72.49190255 -49.79347229 76.11114502 C-51.28685923 80.30715311 -52.77961029 84.50336934 -54.26631165 88.70175171 C-57.24960423 97.1207492 -60.28079347 105.52005657 -63.44346619 113.87367249 C-64.85427173 117.40921137 -64.85427173 117.40921137 -65.34034729 121.14044189 C38.27965271 121.14044189 141.89965271 121.14044189 248.65965271 121.14044189 C246.89405781 115.25512556 245.20641 109.6928153 243.02293396 104.00762939 C242.52701007 102.70601226 242.03124813 101.40433341 241.53562927 100.1026001 C241.28043518 99.43588287 241.02524109 98.76916565 240.76231384 98.08224487 C236.75780185 87.60775179 232.88496284 77.11723495 229.40965271 66.45294189 C222.00684297 39.60927041 222.00684297 39.60927041 203.65965271 20.14044189 C198.02456139 17.46202023 193.05331615 16.70504662 186.86169434 16.75276184 C186.01183014 16.7473763 185.16196594 16.74199077 184.28634828 16.73644203 C181.45758929 16.72221087 178.62930146 16.72925414 175.80052185 16.73638916 C173.76470567 16.73068308 171.72889268 16.7237179 169.69308472 16.71559143 C164.1765549 16.69767169 158.66018425 16.69882617 153.14363408 16.70453382 C148.53378547 16.70762725 143.92396736 16.70153151 139.31412309 16.69549507 C128.43716763 16.68145545 117.56029072 16.68300659 106.68333435 16.69439697 C95.47133739 16.70587893 84.25957961 16.69179982 73.04761416 16.6650005 C63.41170604 16.64283278 53.77587295 16.63620852 44.13994116 16.64207691 C38.38905352 16.64544494 32.63831921 16.6430414 26.88745308 16.62582588 C21.47910444 16.61034177 16.07110977 16.61432881 10.66277504 16.63313103 C8.68149126 16.63681275 6.70018117 16.63372063 4.71892166 16.62324524 C2.00707401 16.6100051 -0.70360695 16.62160932 -3.41540527 16.63923645 C-4.58187235 16.62482894 -4.58187235 16.62482894 -5.77190441 16.61013037 C-13.44183956 16.71219368 -20.05211228 19.71421478 -26.09034729 24.39044189 Z M-63.34034729 183.14044189 C-66.8069464 187.23733175 -68.12946452 191.56228776 -67.84034729 196.87481689 C-66.44795422 203.184098 -61.88428314 207.06544117 -56.65284729 210.45294189 C-41.40286443 218.90473962 -22.39432498 218.85480938 -5.75831604 215.12091064 C2.77792012 212.67223033 10.93856971 208.70483918 15.59715271 200.89044189 C17.26456129 195.00547043 16.72694557 190.5070478 14.22215271 184.95294189 C4.73107375 174.53590401 -8.9796754 172.35634886 -22.34034729 171.14044189 C-36.30666708 170.75548269 -53.01693258 172.81702719 -63.34034729 183.14044189 Z M170.65965271 183.14044189 C167.49566963 187.08915957 166.3373602 190.71901965 166.65965271 195.76544189 C167.75794357 201.922207 170.61903431 205.60264286 175.59715271 209.26544189 C190.85013015 218.87103595 211.0109068 219.0432472 228.10887146 215.17950439 C236.75859718 212.64834153 244.803931 209.06697575 249.65965271 201.14044189 C251.10831212 196.79446366 251.54858324 192.53668942 249.94090271 188.20294189 C245.87686957 180.59926699 238.92866496 176.91510176 231.03855896 174.25762939 C211.70765976 168.85442012 186.38477975 169.0431748 170.65965271 183.14044189 Z " fill="#2A8CFF" transform="translate(164.34034729003906,154.85955810546875)"/>
<path d="M0 0 C0.7906485 -0.0112793 1.581297 -0.02255859 2.39590454 -0.03417969 C3.25420868 -0.02608276 4.11251282 -0.01798584 4.99682617 -0.00964355 C5.90782074 -0.01665283 6.81881531 -0.02366211 7.75741577 -0.03088379 C10.76851896 -0.04848795 13.77868219 -0.03683232 16.78979492 -0.02331543 C18.88200053 -0.02600964 20.97420493 -0.02989147 23.06640625 -0.03491211 C27.45121177 -0.04081045 31.83569135 -0.03223322 36.22045898 -0.0135498 C41.8431645 0.00923972 47.46510632 -0.00388153 53.08778381 -0.02783966 C57.40805829 -0.04228844 61.72815148 -0.03769583 66.0484314 -0.02732849 C68.12169485 -0.02465867 70.19497471 -0.02793991 72.26821899 -0.0372467 C75.16517788 -0.04739697 78.0608972 -0.03193232 80.95776367 -0.00964355 C81.81606781 -0.01774048 82.67437195 -0.0258374 83.5586853 -0.03417969 C84.74465805 -0.01726074 84.74465805 -0.01726074 85.95458984 0 C86.98104866 0.00226215 86.98104866 0.00226215 88.02824402 0.00457001 C89.97729492 0.50793457 89.97729492 0.50793457 93.97729492 4.50793457 C93.97729492 12.75793457 93.97729492 21.00793457 93.97729492 29.50793457 C60.31729492 29.50793457 26.65729492 29.50793457 -8.02270508 29.50793457 C-8.02270508 0.01768078 -8.02270508 0.01768078 0 0 Z " fill="#2A8CFF" transform="translate(213.022705078125,387.4920654296875)"/>
<path d="M0 0 C0.64420898 0.21962402 1.28841797 0.43924805 1.95214844 0.66552734 C15.06256825 5.23960714 26.48822007 11.92333896 37 21 C37.96679688 21.77150391 37.96679688 21.77150391 38.953125 22.55859375 C41.14849484 24.45133083 42.78776678 26.14775099 43.5 29.0078125 C43.69915322 32.38097019 43.22359707 34.64224469 41.4375 37.5 C38.0315831 39.59594886 35.96111341 39.42822848 32 39 C29.55680216 37.40444223 27.59077296 35.91353419 25.4375 34 C5.49995612 17.41790973 -17.27551331 11.20291687 -43 13 C-60.4702396 15.09302891 -76.12475545 22.75341526 -89.42578125 34.0625 C-95.16903547 38.85015394 -95.16903547 38.85015394 -99.8125 39.6875 C-103 39 -103 39 -105.4375 37.5 C-107.17851332 34.71437868 -107.8876653 32.50851255 -107.6796875 29.19921875 C-104.75694167 19.74228829 -91.22228301 12.67463773 -83 8 C-58.14486466 -5.02967851 -26.85538571 -9.20837536 0 0 Z " fill="#2A8CFF" transform="translate(288,32)"/>
<path d="M0 0 C0.69996094 0.55945313 1.39992188 1.11890625 2.12109375 1.6953125 C3.15556641 2.50355469 3.15556641 2.50355469 4.2109375 3.328125 C7.35093615 5.88378852 9.60992897 7.85137879 11.12109375 11.6953125 C10.99194962 15.37592025 10.89968766 17.766989 8.49609375 20.6328125 C5.11302508 22.14629059 2.81236608 22.07743179 -0.87890625 21.6953125 C-3.40823861 20.27768297 -5.47054562 18.43154201 -7.62890625 16.5078125 C-13.36215184 11.71229008 -18.78747313 8.24261572 -25.87890625 5.6953125 C-26.67425781 5.39109375 -27.46960938 5.086875 -28.2890625 4.7734375 C-44.38008233 -0.7733856 -61.73978911 1.45900494 -76.87890625 8.6953125 C-82.26101309 11.68304496 -87.1457119 14.90864716 -91.62890625 19.1328125 C-94.21671693 21.44756882 -94.89996612 21.69888197 -98.56640625 22.3203125 C-102.44292865 21.58889318 -103.66242375 20.93478693 -105.87890625 17.6953125 C-107.16163964 14.00745399 -107.19486164 12.38740526 -105.56640625 8.8203125 C-95.42783072 -4.2881488 -76.41321493 -12.12034599 -60.5390625 -14.88671875 C-38.93993013 -17.35321519 -17.57871452 -13.22109052 0 0 Z " fill="#2A8CFF" transform="translate(303.87890625,74.3046875)"/>
<path d="M0 0 C3.76240353 3.07670399 5.94765124 5.10553209 7.52734375 9.765625 C7.23815633 13.59735828 6.96965277 15.30423086 4.27734375 18.078125 C0.83591128 19.48019008 -0.20597755 19.83327387 -3.72265625 19.078125 C-6.50221439 17.39079532 -9.0577036 15.57303215 -11.65942383 13.63256836 C-20.47212345 7.15372169 -29.84524508 4.89418909 -40.72265625 6.078125 C-49.50617498 7.561917 -56.99689859 12.1474381 -63.7890625 17.796875 C-66.6625969 19.70095436 -68.59834666 19.28625952 -71.87890625 18.7109375 C-73.72265625 18.078125 -73.72265625 18.078125 -75.78515625 15.953125 C-77.06077735 12.0412203 -76.9491107 10.03003379 -75.72265625 6.078125 C-70.9621924 -1.2331676 -62.42507839 -4.55749874 -54.72265625 -7.921875 C-53.91054687 -8.28667969 -53.0984375 -8.65148437 -52.26171875 -9.02734375 C-35.08426535 -15.44628686 -14.44571125 -10.19697265 0 0 Z " fill="#2A8CFF" transform="translate(290.72265625,101.921875)"/>
<path d="M0 0 C4.0743356 0.84881992 5.54405875 2.30225596 8 5.625 C8.625 8.625 8.625 8.625 8 11.625 C5.54405875 14.94774404 4.0743356 16.40118008 0 17.25 C-4.0743356 16.40118008 -5.54405875 14.94774404 -8 11.625 C-8.625 8.625 -8.625 8.625 -8 5.625 C-5.54405875 2.30225596 -4.0743356 0.84881992 0 0 Z " fill="#2A8CFF" transform="translate(256,125.375)"/>
</svg>
