<?xml version="1.0" encoding="UTF-8"?>
<svg version="1.1" xmlns="http://www.w3.org/2000/svg" width="1920" height="1920">
<path d="M0 0 C633.6 0 1267.2 0 1920 0 C1920 633.6 1920 1267.2 1920 1920 C1286.4 1920 652.8 1920 0 1920 C0 1286.4 0 652.8 0 0 Z " fill="#F9F9F9" transform="translate(0,0)"/>
<path d="M0 0 C21.3761276 16.57799143 40.6815178 39.98038095 45.46731567 67.4659729 C45.72946959 68.89448508 46.03047402 70.31669378 46.37887573 71.72665405 C48.256406 79.62117605 48.1294392 87.48002202 48.0703125 95.5390625 C48.06657442 97.049345 48.06373121 98.55962996 48.06173706 100.06991577 C48.05416307 104.01213478 48.0345695 107.95420241 48.0123291 111.8963623 C47.99173503 115.93218947 47.98270657 119.9680415 47.97265625 124.00390625 C47.9513166 131.89850636 47.91725766 139.79298426 47.875 147.6875 C45.83539087 147.70252019 43.79574896 147.71312091 41.75610352 147.72192383 C40.05237328 147.73150871 40.05237328 147.73150871 38.31422424 147.74128723 C33.09448499 147.6596539 27.98231472 147.06279144 22.8125 146.375 C21.24399292 146.17197266 21.24399292 146.17197266 19.64379883 145.96484375 C12.56253603 145.00984319 5.73295005 143.71395491 -1.125 141.6875 C-2.02605469 141.46320313 -2.92710937 141.23890625 -3.85546875 141.0078125 C-40.96882575 131.69021371 -74.97874545 105.94583159 -95.125 73.6875 C-97.35891495 69.77378571 -99.39613764 65.78999011 -101.34375 61.7265625 C-103.26259119 58.45275012 -104.9433502 56.72828001 -108.125 54.6875 C-113.18001205 53.96535542 -115.11226299 54.14496231 -119.625 56.5625 C-121.90145318 58.84525914 -122.7077565 60.73935087 -123.0625 63.9375 C-121.74269932 85.97817131 -96.64415155 110.44149182 -81.12304688 124.29394531 C-68.6758363 135.23030822 -68.6758363 135.23030822 -54.125 142.6875 C-54.125 143.3475 -54.125 144.0075 -54.125 144.6875 C-54.929375 144.82285156 -55.73375 144.95820313 -56.5625 145.09765625 C-75.49485737 148.5644366 -93.91846783 154.00408533 -111.125 162.6875 C-111.85348145 163.05182129 -112.58196289 163.41614258 -113.33251953 163.79150391 C-122.6133782 168.50394865 -131.21369959 173.93200051 -139.625 180.0625 C-140.44476318 180.65756348 -141.26452637 181.25262695 -142.10913086 181.86572266 C-142.86718018 182.43339355 -143.62522949 183.00106445 -144.40625 183.5859375 C-145.07720703 184.08786621 -145.74816406 184.58979492 -146.43945312 185.10693359 C-149.35594321 187.8417767 -150.06180667 190.11876006 -150.5 194.0625 C-150.05827183 198.33253895 -148.80195717 200.38067056 -146.125 203.6875 C-143.05305092 205.22347454 -140.52255707 204.9140038 -137.125 204.6875 C-132.24149912 202.60723775 -128.30176357 199.69972676 -124.125 196.5 C-102.34535219 180.26703819 -78.37256586 172.62644781 -52.12890625 166.73828125 C-50.93503296 166.47011597 -50.93503296 166.47011597 -49.71704102 166.1965332 C-43.85794088 165.04590461 -38.12022769 164.51359843 -32.15625 164.44921875 C-31.40738022 164.43960617 -30.65851044 164.42999359 -29.88694763 164.42008972 C-27.46625138 164.39541569 -25.04580746 164.38281955 -22.625 164.375 C-21.79420929 164.37171692 -20.96341858 164.36843384 -20.10745239 164.36505127 C-10.25785027 164.3524821 -0.75301784 164.61656571 8.9375 166.5625 C21.74972521 169.05173233 34.85637201 169.757598 47.875 170.6875 C47.875 226.1275 47.875 281.5675 47.875 338.6875 C44.43441251 337.311265 41.53359012 336.02733891 38.36328125 334.2265625 C37.52216797 333.75476563 36.68105469 333.28296875 35.81445312 332.796875 C34.08129983 331.81754674 32.34949619 330.83582559 30.61914062 329.8515625 C21.71035005 324.86534967 12.62230951 321.39848803 2.8125 318.625 C1.90781982 318.36823486 1.00313965 318.11146973 0.07104492 317.84692383 C-43.52410802 305.79943487 -91.35569205 310.14143168 -130.97973633 332.40722656 C-137.4932 336.18435843 -143.53484979 340.24968701 -149.2421875 345.19140625 C-151.125 346.6875 -151.125 346.6875 -154.125 347.6875 C-154.22522461 346.96796143 -154.32544922 346.24842285 -154.42871094 345.50708008 C-158.81543591 314.43941844 -167.91674775 289.36826825 -190.125 266.6875 C-190.78757812 265.98625 -191.45015625 265.285 -192.1328125 264.5625 C-193.7517513 262.87822286 -195.40544262 261.26831558 -197.125 259.6875 C-197.66253906 259.1821875 -198.20007813 258.676875 -198.75390625 258.15625 C-202.88499064 254.70569227 -206.44574478 253.90005839 -211.8125 254.2109375 C-214.39919362 254.60018496 -214.39919362 254.60018496 -217.25 256.6875 C-219.59875474 260.44550759 -220.10872996 263.35908816 -219.125 267.6875 C-216.83441194 272.61349582 -213.05211666 275.65949596 -209.0625 279.1875 C-191.7174409 295.0352488 -178.51210649 316.62725014 -176.93408203 340.58618164 C-176.85882946 343.49766927 -176.85163936 346.40020674 -176.875 349.3125 C-176.86726563 350.28445313 -176.85953125 351.25640625 -176.8515625 352.2578125 C-176.86789483 358.3334376 -177.51627916 363.83093418 -179.125 369.6875 C-179.51558594 371.14349609 -179.51558594 371.14349609 -179.9140625 372.62890625 C-189.05576655 401.29284747 -208.08769281 422.43115375 -233.88354492 437.25244141 C-237.78688265 439.55741905 -240.26077786 441.37817492 -242.125 445.6875 C-242.81338854 448.80392565 -242.81321211 451.56798116 -242.125 454.6875 C-239.14800509 458.24537197 -237.4376818 459.56746579 -232.79296875 459.9921875 C-218.60653898 458.81376202 -202.85361707 444.0115243 -193.125 434.6875 C-192.279375 433.883125 -191.43375 433.07875 -190.5625 432.25 C-189.758125 431.404375 -188.95375 430.55875 -188.125 429.6875 C-187.48304688 429.02878906 -186.84109375 428.37007812 -186.1796875 427.69140625 C-177.47556407 418.45654358 -170.74485789 408.0552041 -164.9375 396.8125 C-161.87772734 390.89128729 -158.50770156 385.71361945 -154.125 380.6875 C-153.43664062 379.87925781 -152.74828125 379.07101562 -152.0390625 378.23828125 C-132.9940465 356.42004363 -107.92826124 342.37785234 -79.5 337 C-77.89898438 336.68192383 -77.89898438 336.68192383 -76.265625 336.35742188 C-38.03511272 328.91327421 1.69776539 336.07196155 34.1171875 357.8671875 C36.74999952 359.75796036 39.33291269 361.67671711 41.875 363.6875 C42.90106354 364.37571335 43.92712708 365.0639267 44.98428345 365.772995 C47.79120317 368.13807699 47.8722282 368.67250202 48.5965271 372.59162903 C48.61382782 374.14153292 48.59816642 375.69202415 48.55615234 377.24145508 C48.5570285 378.09074585 48.55790466 378.94003662 48.55880737 379.81506348 C48.55463776 382.61333222 48.50801755 385.40918305 48.4609375 388.20703125 C48.44974308 390.15043325 48.44120406 392.09385222 48.43521118 394.03727722 C48.41233221 399.14556858 48.35341675 404.25283186 48.2869873 409.36071777 C48.22554482 414.5756235 48.19819195 419.7906958 48.16796875 425.00585938 C48.10367283 435.23352395 48.00130437 445.46042639 47.875 455.6875 C45.16298727 456.17187546 42.45071785 456.65472753 39.73828125 457.13671875 C38.97616333 457.27299683 38.21404541 457.4092749 37.42883301 457.54968262 C33.3145607 458.27950912 29.20472859 458.94432057 25.0625 459.5 C-9.33025476 465.31022015 -42.34283897 483.43058709 -67.125 507.6875 C-67.76308594 508.30109375 -68.40117188 508.9146875 -69.05859375 509.546875 C-71.90522427 512.5184154 -73.02375228 514.110388 -73.75 518.25 C-73.01975316 522.26635765 -71.68024326 524.53102303 -69.125 527.6875 C-65.5555598 529.4722201 -62.00715338 529.41343112 -58.125 528.6875 C-55.97758874 527.37493545 -54.3837618 525.82549229 -52.58203125 524.06640625 C-27.08953982 499.38448689 11.75958906 478.6875 47.875 478.6875 C47.875 558.5475 47.875 638.4075 47.875 720.6875 C40.945 721.6775 34.015 722.6675 26.875 723.6875 C-11.45732867 733.13930707 -48.67881092 751.62512205 -74.125 782.6875 C-74.90875 783.615625 -75.6925 784.54375 -76.5 785.5 C-79.2956719 789.26340449 -79.59066061 792.90469294 -79.53125 797.45703125 C-79.24822689 800.05245947 -79.24822689 800.05245947 -76.5625 802.75 C-72.5939849 804.98679942 -70.60762803 805.33951862 -66.125 804.6875 C-60.98695376 802.29565089 -57.66841395 798.19144752 -53.9375 794.0625 C-38.83920971 777.74100647 -22.24497684 766.06657217 -2.125 756.6875 C-0.78695312 756.00107422 -0.78695312 756.00107422 0.578125 755.30078125 C14.68065117 748.27169195 32.13349067 743.6210221 47.875 743.6875 C48.03821702 754.23278953 48.16208436 764.77777162 48.2376852 775.32407379 C48.27399652 780.22285532 48.32313408 785.12076376 48.40307617 790.01904297 C48.479936 794.75889991 48.52115578 799.49792484 48.5391407 804.23835754 C48.55193322 806.03389053 48.57690842 807.82938537 48.6151104 809.6245575 C48.87340659 822.282252 46.87819462 831.51365419 40.875 842.6875 C40.40831406 843.56620758 39.94162811 844.44491516 39.46080017 845.35025024 C38.39670923 847.28817404 37.26393238 849.14463311 36.0625 851 C35.43855347 851.98190308 35.43855347 851.98190308 34.80200195 852.98364258 C30.09207114 860.19293664 24.34951625 866.22337095 18.26171875 872.29296875 C16.94593345 873.61306104 15.64017329 874.94445697 14.3828125 876.3203125 C-1.12125052 893.05068559 -23.99184919 903.99467941 -45.125 911.6875 C-45.7948291 911.93741699 -46.4646582 912.18733398 -47.15478516 912.44482422 C-52.28224149 914.33488685 -57.55334741 915.55137437 -62.875 916.75 C-63.58897949 916.91234131 -64.30295898 917.07468262 -65.03857422 917.24194336 C-77.41306995 919.95101408 -89.48271418 921.09475857 -102.125 921.0625 C-102.89301941 921.06228851 -103.66103882 921.06207703 -104.45233154 921.06185913 C-117.06524938 921.02729736 -128.89905495 919.95544973 -141.125 916.6875 C-141.85734863 916.50558105 -142.58969727 916.32366211 -143.34423828 916.13623047 C-178.93440219 907.26050205 -211.07612308 885.21506499 -230.125 853.6875 C-235.67250395 844.41440919 -239.8803539 835.02595413 -243.125 824.6875 C-243.43308594 823.73101563 -243.74117187 822.77453125 -244.05859375 821.7890625 C-246.05972355 815.10586347 -246.86221666 808.64727682 -247.125 801.6875 C-247.15223145 801.02331055 -247.17946289 800.35912109 -247.20751953 799.67480469 C-247.7380582 784.97321121 -246.17608354 770.6009392 -241.125 756.6875 C-240.80015625 755.78257812 -240.4753125 754.87765625 -240.140625 753.9453125 C-231.47847906 731.57799044 -213.56529336 706.38881265 -192.125 694.6875 C-190.805 694.6875 -189.485 694.6875 -188.125 694.6875 C-187.87363281 694.08292969 -187.62226562 693.47835937 -187.36328125 692.85546875 C-181.22146923 682.10245402 -156.55410319 675.61637891 -145.23828125 672.453125 C-132.96758849 669.43548914 -121.05590126 668.14308353 -108.44091797 667.42138672 C-107.32346191 667.35322754 -106.20600586 667.28506836 -105.0546875 667.21484375 C-104.05679199 667.16062256 -103.05889648 667.10640137 -102.03076172 667.05053711 C-98.8314292 666.65082215 -96.11192448 665.89736286 -93.125 664.6875 C-90.63540437 660.83994312 -90.37703406 656.14826075 -91.125 651.6875 C-93.2494827 648.24437286 -94.27352641 646.97132453 -98.125 645.6875 C-121.0381573 643.86592883 -143.58491597 648.12957578 -165.125 655.6875 C-164.21858103 651.17673267 -163.21858455 646.78094511 -161.6875 642.4375 C-158.01606001 631.6654578 -156.40317216 621.0386491 -156.125 609.6875 C-156.08415283 608.07488281 -156.08415283 608.07488281 -156.04248047 606.4296875 C-154.15691337 583.52233132 -154.15691337 583.52233132 -161.55078125 562.875 C-164.64277391 560.24751003 -166.48829114 559.75824543 -170.5 559.3125 C-175.04493735 559.78266593 -176.26868962 561.24312572 -179.125 564.6875 C-179.455 565.0175 -179.785 565.3475 -180.125 565.6875 C-180.36308897 570.05246452 -180.17283703 573.77810343 -179.140625 578.01953125 C-177.71535123 584.94711359 -177.68242614 591.88824781 -177.6875 598.9375 C-177.6874295 599.64170074 -177.68735901 600.34590149 -177.68728638 601.07144165 C-177.78506275 626.58818959 -185.14123988 655.63815587 -203.1171875 674.8125 C-205.05279726 676.55377143 -207.04022217 678.12878761 -209.125 679.6875 C-238.73643708 703.10346342 -262.82412727 734.2377553 -267.93359375 772.80078125 C-267.99675781 773.42339844 -268.05992187 774.04601563 -268.125 774.6875 C-305.46189295 770.37503212 -340.91112072 751.28423533 -364.5859375 722.01953125 C-368.59770491 716.8755808 -371.92522259 711.3694846 -375.125 705.6875 C-375.59550781 704.8934375 -376.06601562 704.099375 -376.55078125 703.28125 C-388.38304186 681.8879367 -388.64064455 655.21937071 -382.12890625 632.16015625 C-377.49388912 619.18531592 -370.21011572 607.00509265 -361.125 596.6875 C-360.43921875 595.87023437 -359.7534375 595.05296875 -359.046875 594.2109375 C-342.07804055 574.49534927 -319.37218914 562.6641059 -295.20703125 554.1328125 C-289.13025754 552.30274146 -289.13025754 552.30274146 -284.3125 548.5 C-282.80237841 544.92339622 -282.64354551 542.5391359 -283.125 538.6875 C-284.92062405 535.93420979 -286.17754922 534.16122539 -289.125 532.6875 C-289.125 532.0275 -289.125 531.3675 -289.125 530.6875 C-304.32130559 532.55224812 -318.72347186 538.34136641 -332.06591797 545.76782227 C-334.30759592 546.76905547 -335.80863614 546.94524237 -338.25 546.953125 C-339.03270264 546.95731445 -339.81540527 546.96150391 -340.62182617 546.96582031 C-341.44787354 546.95647461 -342.2739209 546.94712891 -343.125 546.9375 C-343.98005127 546.93073242 -344.83510254 546.92396484 -345.71606445 546.91699219 C-352.35716967 546.80909854 -358.63958785 546.16647997 -365.125 544.6875 C-366.28386719 544.44257812 -367.44273437 544.19765625 -368.63671875 543.9453125 C-393.87397558 538.17825482 -418.42773034 527.742453 -438.125 510.6875 C-438.63708008 510.2455127 -439.14916016 509.80352539 -439.67675781 509.34814453 C-449.8020062 500.53936606 -458.87226853 491.02695989 -466.125 479.6875 C-466.79660156 478.63820313 -467.46820313 477.58890625 -468.16015625 476.5078125 C-473.4338401 467.9468452 -476.42133729 459.32846781 -479.125 449.6875 C-479.4859375 448.64851563 -479.846875 447.60953125 -480.21875 446.5390625 C-484.54281174 432.93317858 -483.49726497 413.42851069 -480.125 399.6875 C-479.88007813 398.68074219 -479.63515625 397.67398437 -479.3828125 396.63671875 C-474.36238958 378.44323924 -464.12743752 362.21177448 -451.125 348.6875 C-450.35414063 347.86507813 -449.58328125 347.04265625 -448.7890625 346.1953125 C-423.86515911 320.30349053 -390.1139134 306.91816584 -355.125 301.6875 C-353.96403809 301.51186523 -352.80307617 301.33623047 -351.60693359 301.15527344 C-346.25794542 300.49699089 -340.92818093 300.58205545 -335.546875 300.625 C-334.45787903 300.62878662 -333.36888306 300.63257324 -332.24688721 300.63647461 C-328.78955001 300.64862803 -325.33229876 300.66726497 -321.875 300.6875 C-317.30729398 300.71407114 -312.73962908 300.73406114 -308.171875 300.75 C-307.12392761 300.75829834 -306.07598022 300.76659668 -304.99627686 300.77514648 C-304.02136292 300.77844971 -303.04644897 300.78175293 -302.04199219 300.78515625 C-301.18675964 300.79039307 -300.3315271 300.79562988 -299.45037842 300.80102539 C-297.17292193 300.68983956 -295.27719963 300.43969054 -293.125 299.6875 C-290.61458152 295.67083044 -290.15384934 290.2881205 -291.125 285.6875 C-295.73740871 280.03794542 -302.19723408 279.45425496 -309.125 278.6875 C-315.05931877 278.29983404 -320.99757112 278.33642521 -326.94140625 278.40625 C-329.64857657 278.43777455 -332.35516304 278.44727341 -335.0625 278.453125 C-336.80209041 278.46228411 -338.54167495 278.47265637 -340.28125 278.484375 C-341.48134705 278.49074982 -341.48134705 278.49074982 -342.70568848 278.49725342 C-347.80955531 278.56218499 -352.58100231 279.14957998 -357.58203125 280.20703125 C-360.43214239 280.56152269 -362.35892552 280.51606694 -365.125 279.6875 C-368.92523892 276.23273735 -371.53483287 272.08257997 -374.125 267.6875 C-374.48368164 267.08325195 -374.84236328 266.47900391 -375.21191406 265.85644531 C-388.18793387 243.58663071 -393.38356366 219.02312696 -386.71142578 193.67919922 C-381.82448444 177.08150252 -373.16615061 163.05827953 -361.125 150.6875 C-360.23167969 149.72070312 -359.33835937 148.75390625 -358.41796875 147.7578125 C-341.10473505 129.33158521 -317.65573311 118.49349842 -293.5625 111.9375 C-292.48500488 111.63936401 -292.48500488 111.63936401 -291.38574219 111.33520508 C-278.82280487 108.08583338 -266.04750155 107.27156222 -253.125 107.3125 C-252.41022491 107.3137085 -251.69544983 107.31491699 -250.95901489 107.31616211 C-231.95333482 107.40267505 -214.92534297 110.45509961 -197.10131836 117.1328125 C-191.59161728 119.14817709 -187.84653232 120.31369823 -182.125 118.6875 C-179.0014117 116.89763047 -179.0014117 116.89763047 -177.125 113.6875 C-176.49133735 110.25238144 -176.32131079 107.0962508 -177.125 103.6875 C-183.97629744 95.63678164 -196.36825813 93.54917042 -206.1875 91 C-207.28126953 90.70544922 -208.37503906 90.41089844 -209.50195312 90.10742188 C-216.33032758 88.29979152 -223.15533352 86.83414224 -230.125 85.6875 C-231.39211947 60.35820744 -218.59742987 37.68827114 -203.125 18.6875 C-202.568125 17.98753906 -202.01125 17.28757812 -201.4375 16.56640625 C-197.76701586 12.08801663 -193.5726822 8.37931492 -189.125 4.6875 C-188.37347656 4.048125 -187.62195313 3.40875 -186.84765625 2.75 C-180.33871713 -2.65125904 -173.38940235 -7.01860031 -166.125 -11.3125 C-165.25488281 -11.88355469 -164.38476562 -12.45460938 -163.48828125 -13.04296875 C-161.125 -14.3125 -161.125 -14.3125 -157.125 -14.3125 C-157.125 -14.9725 -157.125 -15.6325 -157.125 -16.3125 C-143.2859057 -21.76715163 -129.81140746 -25.91603554 -115.125 -28.3125 C-114.18229248 -28.4882959 -113.23958496 -28.6640918 -112.26831055 -28.84521484 C-72.47241437 -34.7612805 -32.18520785 -23.38819966 0 0 Z " fill="#414143" transform="translate(925.125,322.3125)"/>
<path d="M0 0 C1.49113682 1.21461751 2.97063308 2.44368082 4.4375 3.6875 C5.10652344 4.23664062 5.77554687 4.78578125 6.46484375 5.3515625 C18.51143011 16.18156291 25.61384063 33.75620563 26.7109375 49.6484375 C27.33036621 68.61629101 21.03828839 86.76006526 8.3125 101.0625 C-2.58142148 112.56026792 -19.03374427 122.17399959 -35.02734375 123.1875 C-56.60834951 123.72895893 -75.25530391 118.09813404 -91.21484375 103.125 C-99.33037643 94.69888953 -104.86891243 84.76826271 -108.5625 73.6875 C-114.86101167 73.53504138 -121.15904565 73.43015716 -127.45898438 73.35791016 C-129.60076682 73.32778527 -131.74242637 73.28687622 -133.88378906 73.23486328 C-136.96710552 73.16185997 -140.04878783 73.12800049 -143.1328125 73.1015625 C-144.08616486 73.07059479 -145.03951721 73.03962708 -146.02175903 73.00772095 C-151.05677954 72.94237336 -151.05677954 72.94237336 -155.47210693 75.06317139 C-156.90775779 76.5376163 -158.24389253 78.10751407 -159.5625 79.6875 C-160.2225 79.6875 -160.8825 79.6875 -161.5625 79.6875 C-161.5625 80.3475 -161.5625 81.0075 -161.5625 81.6875 C-163.03125 83.1328125 -163.03125 83.1328125 -165.0625 84.8125 C-168.02927361 87.33007902 -170.83824249 89.90918976 -173.5625 92.6875 C-176.7840855 95.95952128 -180.14842145 98.98066055 -183.62890625 101.97265625 C-185.51744597 103.64754299 -187.29405648 105.38697587 -189.0625 107.1875 C-191.41283101 109.58027491 -193.826724 111.81941112 -196.375 114 C-199.58583755 116.76368029 -202.58517165 119.67369596 -205.5625 122.6875 C-209.095978 126.2587981 -212.67030131 129.69285911 -216.52929688 132.91087341 C-218.56958709 134.63568626 -218.56958709 134.63568626 -220.28662109 136.51820374 C-223.96604944 140.26774466 -226.65066117 142.13718026 -231.96875 142.48217773 C-234.00033717 142.48108214 -236.03215992 142.4422751 -238.0625 142.37109375 C-239.13878662 142.36118912 -240.21507324 142.35128448 -241.32397461 142.34107971 C-244.73824335 142.30211063 -248.14921459 142.21431647 -251.5625 142.125 C-253.88667209 142.08986378 -256.21089493 142.05792884 -258.53515625 142.02929688 C-264.21320806 141.95837189 -269.88419497 141.82138219 -275.5625 141.6875 C-275.5625 129.4775 -275.5625 117.2675 -275.5625 104.6875 C-259 104.625 -259 104.625 -253.81420898 104.65991211 C-246.06283052 104.76142575 -246.06283052 104.76142575 -238.98095703 102.06689453 C-237.08394232 100.20462408 -237.08394232 100.20462408 -235.67602539 98.18579102 C-235.30856201 97.69135498 -234.94109863 97.19691895 -234.5625 96.6875 C-233.9025 96.6875 -233.2425 96.6875 -232.5625 96.6875 C-232.5625 96.0275 -232.5625 95.3675 -232.5625 94.6875 C-231.09375 93.2421875 -231.09375 93.2421875 -229.0625 91.5625 C-225.45036067 88.49726909 -222.10195981 85.28194052 -218.8125 81.875 C-216.85924077 79.97599797 -214.86466399 78.18758146 -212.80859375 76.40234375 C-208.64714924 72.7869146 -204.62587773 69.04143261 -200.625 65.25 C-199.54061646 64.22652466 -199.54061646 64.22652466 -198.43432617 63.18237305 C-195.36060946 60.28113207 -192.29022537 57.37638098 -189.22070312 54.47070312 C-186.94008951 52.31243593 -184.65757266 50.15619491 -182.375 48 C-181.33388062 47.01205444 -181.33388062 47.01205444 -180.27172852 46.00415039 C-179.61100342 45.38016357 -178.95027832 44.75617676 -178.26953125 44.11328125 C-177.6969458 43.57098877 -177.12436035 43.02869629 -176.53442383 42.4699707 C-175.88368896 41.88175537 -175.2329541 41.29354004 -174.5625 40.6875 C-173.77883057 39.80191406 -172.99516113 38.91632812 -172.18774414 38.00390625 C-167.3223607 34.01559248 -160.79483304 35.07953129 -154.8515625 35.19921875 C-153.5149366 35.20855518 -152.17829348 35.21566738 -150.84164429 35.22065735 C-147.33953835 35.23966279 -143.83848479 35.28870429 -140.33679199 35.34417725 C-136.75722487 35.39551141 -133.17748611 35.41820135 -129.59765625 35.44335938 C-122.58550776 35.49683202 -115.57405453 35.58206417 -108.5625 35.6875 C-108.42763184 34.93605713 -108.29276367 34.18461426 -108.15380859 33.41040039 C-104.68062979 17.41685653 -91.84182377 3.4424524 -78.5625 -5.3125 C-53.43439134 -19.56474768 -22.97711406 -17.36136501 0 0 Z " fill="#424244" transform="translate(1374.5625,532.3125)"/>
<path d="M0 0 C6.7987333 -0.20749714 13.58635574 -0.38631314 20.38574219 -0.49438477 C22.69439032 -0.53945283 25.00278433 -0.60072862 27.31054688 -0.67895508 C48.98058366 -1.39473997 48.98058366 -1.39473997 55.06640625 4.0625 C56.42107032 5.67274613 57.73579692 7.31779968 59 9 C60.340704 10.29864709 61.70623938 11.57224767 63.09765625 12.81640625 C64.42032246 14.0639902 65.74191403 15.3127143 67.0625 16.5625 C68.54164343 17.95835796 70.02081079 19.35419056 71.5 20.75 C72.24507812 21.45382812 72.99015625 22.15765625 73.7578125 22.8828125 C77.35561284 26.2800386 80.95894382 29.67138144 84.5625 33.0625 C85.26286377 33.72161377 85.96322754 34.38072754 86.68481445 35.05981445 C91.53745583 39.62578773 96.39173364 44.1900119 101.25 48.75 C101.8385376 49.30308838 102.4270752 49.85617676 103.03344727 50.42602539 C104.27193872 51.58769027 105.52599555 52.73290434 106.79223633 53.86425781 C108.54532994 55.56016215 110.02140198 57.21863955 111.55737305 59.09667969 C116.12089298 64.3606089 120.13581486 68.07879346 127.26123047 68.96191406 C133.29307321 69.32325543 139.28395776 69.05140342 145.3125 68.75 C147.42107078 68.68969491 149.52980866 68.63496183 151.63867188 68.5859375 C156.76330051 68.45481036 161.87977316 68.24844647 167 68 C167.25177002 67.27047119 167.50354004 66.54094238 167.76293945 65.78930664 C174.1329732 47.73413453 186.08581738 34.06372537 203.125 25.1875 C219.91033062 17.29945697 238.87923335 16.60605755 256.39648438 22.77856445 C273.55530092 29.23935738 286.41218362 40.86858811 295 57 C303.02247931 75.38237233 303.57360027 95.47652078 296.5 114.4375 C289.48389711 131.81376745 275.71417118 143.76709582 258.86083984 151.22216797 C254.99432466 152.83837334 251.08656098 154.08600022 247 155 C246.29488281 155.18175781 245.58976562 155.36351562 244.86328125 155.55078125 C233.75611872 157.29337837 220.42606309 157.42136773 210 153 C209.40413086 152.7525 208.80826172 152.505 208.19433594 152.25 C192.55904778 145.59865142 177.97980647 134.25083805 171.28466797 118.10839844 C170.76320888 116.77822893 170.24907381 115.44516569 169.7421875 114.109375 C169.47462646 113.42214355 169.20706543 112.73491211 168.93139648 112.02685547 C168.28107122 110.35375915 167.63959369 108.67722812 167 107 C166.26608032 107.0030162 165.53216064 107.00603241 164.77600098 107.00914001 C157.83216219 107.03145959 150.88909262 107.02005667 143.94541168 106.97153378 C140.37607496 106.94776006 136.80766837 106.93666122 133.23828125 106.95532227 C129.78821172 106.97287993 126.3398062 106.95610685 122.88993835 106.91632271 C120.94475658 106.9026151 118.99942905 106.92372788 117.05432129 106.94554138 C111.08641724 106.8486543 106.99772514 106.67533427 102.37475586 102.66992188 C101.22441322 101.470491 100.09532529 100.24987405 99 99 C98.27433838 98.33685791 97.54867676 97.67371582 96.80102539 96.99047852 C96.23891357 96.45865967 95.67680176 95.92684082 95.09765625 95.37890625 C94.44297363 94.76096191 93.78829102 94.14301758 93.11376953 93.50634766 C92.43685059 92.86487793 91.75993164 92.2234082 91.0625 91.5625 C90.34175293 90.8823584 89.62100586 90.2022168 88.87841797 89.50146484 C85.78567692 86.58266121 82.69652345 83.66009648 79.60986328 80.73486328 C78.03683794 79.2442054 76.4630443 77.75435779 74.88842773 76.26538086 C73.40562908 74.86319169 71.92460323 73.45912486 70.44555664 72.05297852 C69.43996704 71.10249634 69.43996704 71.10249634 68.4140625 70.1328125 C67.8257666 69.57480957 67.2374707 69.01680664 66.63134766 68.44189453 C64.85167018 66.8033172 64.85167018 66.8033172 62 65 C62 64.34 62 63.68 62 63 C61.45859375 62.78730469 60.9171875 62.57460938 60.359375 62.35546875 C57.14678136 60.50982307 54.79444278 57.9604017 52.25 55.3125 C48.21418207 51.18798278 44.13694937 47.22058894 39.71875 43.5 C38 42 38 42 36.38183594 39.94433594 C33.12538519 37.28603605 30.20155085 37.39699387 26.171875 37.390625 C25.17534912 37.36718018 25.17534912 37.36718018 24.15869141 37.34326172 C21.68948772 37.29086931 19.2196576 37.27243063 16.75 37.25 C8.45875 37.12625 8.45875 37.12625 0 37 C0 24.79 0 12.58 0 0 Z " fill="#424244" transform="translate(1099,862)"/>
<path d="M0 0 C0.98871094 0.3403125 1.97742187 0.680625 2.99609375 1.03125 C21.9705851 8.18596266 34.49712839 22.4814706 43.0859375 40.24609375 C49.5807645 55.71149864 47.72245553 72.44561849 43 88 C42.73445313 88.90492188 42.46890625 89.80984375 42.1953125 90.7421875 C36.38346545 107.62421942 22.21215583 120.43724063 6.6171875 128.18359375 C-10.32440198 136.0226682 -29.55569364 136.21218104 -47 130 C-48.58073525 129.26728837 -50.14775024 128.50282875 -51.6875 127.6875 C-54.68117602 125.78091161 -54.68117602 125.78091161 -56.98828125 126.21875 C-63.90298851 128.90407321 -69.42942156 136.39196987 -74.58276367 141.59936523 C-77.83353085 144.87260433 -81.16544895 147.96965455 -84.67578125 150.96484375 C-92.80904519 158.08657571 -100.66511213 165.56515736 -108.2421875 173.2734375 C-110.67359285 175.66161787 -113.24195462 177.87123091 -115.84765625 180.06640625 C-117.96571702 181.8702735 -117.96571702 181.8702735 -119.38432407 183.69213963 C-122.52663653 187.34746542 -124.80513164 189.43328949 -129.71409607 189.84178162 C-131.52867343 189.86190112 -133.34393617 189.84384096 -135.15795898 189.79467773 C-136.15384537 189.79569992 -137.14973175 189.79672211 -138.17579651 189.79777527 C-141.45033502 189.79291873 -144.72204564 189.7385665 -147.99609375 189.68359375 C-150.27293881 189.67053074 -152.54980361 189.66056989 -154.82667542 189.65357971 C-160.80633293 189.62691003 -166.7847917 189.55819474 -172.76397705 189.48065186 C-178.87048121 189.40892044 -184.97717993 189.37704693 -191.08398438 189.34179688 C-203.0565998 189.26682407 -215.02801247 189.1437384 -227 189 C-227 176.46 -227 163.92 -227 151 C-220.91691406 151.1134375 -214.83382812 151.226875 -208.56640625 151.34375 C-204.67866299 151.37996338 -200.79203381 151.41136894 -196.90429688 151.42578125 C-190.75212493 151.4490363 -184.60353213 151.48864361 -178.45288086 151.63427734 C-153.4172623 153.47019093 -153.4172623 153.47019093 -131.21836853 144.48205566 C-128.6774146 141.80921676 -126.48816559 139.05235197 -124.4359436 135.99064636 C-122.08300671 132.72877364 -119.09555459 130.23603559 -116.0625 127.625 C-111.32275992 123.30131009 -106.7810087 118.80810913 -102.2734375 114.2421875 C-99.58139664 111.58715063 -96.76369106 109.12284532 -93.88671875 106.671875 C-91.2623307 104.34633031 -88.85276371 101.83257556 -86.4453125 99.28515625 C-85 98 -85 98 -83 98 C-83.42152344 96.89140625 -83.84304688 95.7828125 -84.27734375 94.640625 C-84.830846 93.17712752 -85.38422496 91.7135834 -85.9375 90.25 C-86.21529297 89.52039063 -86.49308594 88.79078125 -86.77929688 88.0390625 C-87.18051758 86.97558594 -87.18051758 86.97558594 -87.58984375 85.890625 C-87.83597412 85.24125977 -88.08210449 84.59189453 -88.33569336 83.92285156 C-92.89175618 70.73521804 -91.91470553 51.60395583 -86 39 C-85.525625 37.93265625 -85.05125 36.8653125 -84.5625 35.765625 C-76.68131833 19.6243587 -62.20519479 6.12743688 -45.21875 -0.00390625 C-42.82271831 -0.73328649 -40.43072078 -1.39773585 -38 -2 C-37.39341553 -2.17200928 -36.78683105 -2.34401855 -36.16186523 -2.52124023 C-24.95726724 -5.0025747 -10.68040201 -3.90094212 0 0 Z " fill="#434345" transform="translate(1236,358)"/>
<path d="M0 0 C13.03993431 -0.340154 26.07687998 -0.61477598 39.1202631 -0.77718258 C45.17829959 -0.8551684 51.23312078 -0.96075657 57.28930664 -1.1315918 C63.14461278 -1.29570916 68.99684661 -1.38448842 74.85427666 -1.42315865 C77.07803129 -1.45067854 79.30163494 -1.50442442 81.52406502 -1.58595085 C99.81774394 -2.22976189 99.81774394 -2.22976189 106.65280151 3.30075073 C109.94948499 6.39490496 112.83450375 9.7409848 115.61776543 13.29839897 C117.35629579 15.43861823 119.30663709 17.1944113 121.4375 18.9375 C124.09257578 21.17969143 126.56099918 23.52340379 129 26 C132.82883354 29.88118088 136.86078313 33.45554439 141 37 C145.48635095 40.87041409 149.8580965 44.75707447 154 49 C156.97287923 52.02834339 159.96989654 55.0288897 163 58 C163.57363281 58.56976562 164.14726563 59.13953125 164.73828125 59.7265625 C166.90279361 61.72887626 168.30026584 62.98108827 171.3125 63.0625 C172.82298063 62.46533324 174.32543151 61.84120082 175.78515625 61.12890625 C191.05151616 53.79534644 208.95836079 52.60240942 225 58 C243.06384038 64.50575094 258.33965541 75.23003673 266.91015625 92.8359375 C275.37273461 110.96420259 276.13349995 127.98409881 270 147 C265.74634363 157.58336784 259.9772607 165.87170683 252 174 C251.38511719 174.639375 250.77023437 175.27875 250.13671875 175.9375 C237.98664099 187.59324912 221.11229297 192.17710464 204.75 192.1875 C203.75097656 192.19974609 202.75195312 192.21199219 201.72265625 192.22460938 C192.18066061 192.24331917 184.47395084 190.69969308 176 186.3125 C174.96081421 185.78184937 174.96081421 185.78184937 173.90063477 185.24047852 C168.43682986 182.37769307 163.58547359 179.14694597 159 175 C158.08541016 174.20529297 158.08541016 174.20529297 157.15234375 173.39453125 C152.01034666 168.6367713 148.57759545 162.9745844 145 157 C144.278125 155.9275 143.55625 154.855 142.8125 153.75 C135.31709945 139.76507517 133.98584639 119.52329482 138.05859375 104.35546875 C139.20563536 101.10495023 140.44121617 98.07033178 142 95 C142.38414062 94.22398438 142.76828125 93.44796875 143.1640625 92.6484375 C143.43992187 92.10445312 143.71578125 91.56046875 144 91 C143.18789062 90.68095703 143.18789062 90.68095703 142.359375 90.35546875 C139.14675109 88.50980567 136.79450725 85.96035389 134.25 83.3125 C130.90688427 79.89660896 127.5847007 76.53346747 123.9375 73.4375 C120.10683332 70.18023872 116.60059105 66.62933674 113.07275391 63.05322266 C109.8087865 59.76202716 106.42705875 56.68933231 102.90234375 53.68359375 C100.15249452 51.24994895 97.60614461 48.63124829 95.0546875 45.9921875 C94.37664062 45.33476563 93.69859375 44.67734375 93 44 C91.71958328 42.72126762 91.71958328 42.72126762 90.41329956 41.41670227 C86.58215169 38.265485 83.14471117 38.28816298 78.33251953 38.34057617 C77.48308273 38.33009247 76.63364594 38.31960876 75.75846863 38.30880737 C72.96620822 38.28013267 70.17519332 38.28633986 67.3828125 38.29296875 C65.44081067 38.27984911 63.49882247 38.26454406 61.55685425 38.24714661 C56.45720208 38.20731497 51.35790705 38.19710732 46.25811768 38.19311523 C40.13306653 38.1821378 34.00820536 38.13428444 27.88330078 38.09262848 C18.58870702 38.0335357 9.29510485 38.0212217 0 38 C0 25.46 0 12.92 0 0 Z " fill="#434344" transform="translate(1009,989)"/>
<path d="M0 0 C0.88300781 0.37253906 1.76601562 0.74507812 2.67578125 1.12890625 C19.57149845 8.67022948 31.22036749 23.21173397 38 40 C43.60543758 55.48078902 42.89862492 75.14884952 36.21875 90.11328125 C27.62049419 108.16112535 14.29747458 121.035041 -4.5 128 C-21.14761691 133.60106737 -41.35332622 133.02301574 -57.125 125.3125 C-73.47644869 116.89525042 -86.26499563 103.83165896 -92.3359375 86.28515625 C-93 84 -93 84 -93 82 C-143.49 82 -193.98 82 -246 82 C-246 69.46 -246 56.92 -246 44 C-195.51 44 -145.02 44 -93 44 C-92.67 42.02 -92.34 40.04 -92 38 C-83.57988184 18.14292991 -69.0967387 5.49091826 -49.38671875 -2.90625 C-34.09818188 -7.84372442 -14.35765753 -6.99475623 0 0 Z " fill="#424244" transform="translate(1436,705)"/>
<path d="M0 0 C6.27 0 12.54 0 19 0 C22.3700361 6.7400722 22.3700361 6.7400722 23.2109375 9.8125 C23.40115479 10.48804932 23.59137207 11.16359863 23.78735352 11.85961914 C24.07823853 12.91910767 24.07823853 12.91910767 24.375 14 C25.91421167 19.44034746 27.58428475 24.76088314 29.5625 30.0625 C31.44212454 35.19577841 32.9797526 40.32947818 34.3125 45.625 C34.48402588 46.30054932 34.65555176 46.97609863 34.83227539 47.67211914 C35.62105343 50.92053645 36 53.62811984 36 57 C36.66 57 37.32 57 38 57 C38.08636719 56.319375 38.17273438 55.63875 38.26171875 54.9375 C39.92761577 43.44433893 43.39943858 32.54964626 47.890625 21.85546875 C49.78972211 16.96729977 51.36958247 11.96789308 52.98217773 6.97900391 C54.89807196 1.10192804 54.89807196 1.10192804 56 0 C57.41570123 -0.08651611 58.835595 -0.10704904 60.25390625 -0.09765625 C61.53491211 -0.09282227 61.53491211 -0.09282227 62.84179688 -0.08789062 C64.18854492 -0.07532227 64.18854492 -0.07532227 65.5625 -0.0625 C66.46419922 -0.05798828 67.36589844 -0.05347656 68.29492188 -0.04882812 C70.53001314 -0.03700225 72.76497437 -0.0205222 75 0 C75.41141362 5.89989575 75.82020512 11.79996597 76.22680664 17.70019531 C76.36479842 19.69763825 76.50344551 21.69503604 76.64282227 23.69238281 C77.36742555 34.08272306 78.06066993 44.47284438 78.59375 54.875 C78.6349144 55.66154968 78.6760788 56.44809937 78.7184906 57.25848389 C79.08968779 64.84485491 79.0703202 72.40541808 79 80 C74.38 80 69.76 80 65 80 C63.75459427 58.67091544 62.64165672 37.35725714 62 16 C61.58476074 17.5770874 61.58476074 17.5770874 61.16113281 19.18603516 C57.87730488 31.43980947 53.91751585 43.39715517 49.75 55.375 C48.79367029 58.13687247 47.83889006 60.89926876 46.88580322 63.66226196 C46.29922882 65.36139749 45.71059176 67.05982282 45.11956787 68.75741577 C44.85549133 69.51986603 44.59141479 70.28231628 44.31933594 71.06787109 C44.08792908 71.73305756 43.85652222 72.39824402 43.61810303 73.08358765 C42.99050299 75.02944525 42.49587971 77.01648117 42 79 C38.04 79 34.08 79 30 79 C26.17573357 67.98408211 22.87479651 56.86074798 19.73632812 45.63232422 C19.02173969 43.07771794 18.30062004 40.525036 17.578125 37.97265625 C17.13506096 36.39853758 16.69233608 34.82432339 16.25 33.25 C16.05148437 32.54834717 15.85296875 31.84669434 15.6484375 31.1237793 C14.64260211 27.51594764 13.73638108 23.90371575 12.93261719 20.24511719 C12.75672058 19.44660339 12.58082397 18.6480896 12.39959717 17.82537842 C12.2677301 17.22300354 12.13586304 16.62062866 12 16 C11.96574669 17.00691895 11.96574669 17.00691895 11.93080139 18.03417969 C11.69167814 25.04263522 11.44750303 32.05090201 11.20043945 39.05908203 C11.10898271 41.67199301 11.01879918 44.28494889 10.92993164 46.89794922 C10.80171838 50.6612592 10.66887515 54.42438211 10.53515625 58.1875 C10.49656998 59.34926758 10.4579837 60.51103516 10.41822815 61.70800781 C9.82005005 78.17994995 9.82005005 78.17994995 8 80 C5.81360547 80.07258946 3.62499611 80.08373783 1.4375 80.0625 C0.23996094 80.05347656 -0.95757813 80.04445313 -2.19140625 80.03515625 C-3.58166016 80.01775391 -3.58166016 80.01775391 -5 80 C-4.66773683 53.20984993 -2.45566317 26.66964421 0 0 Z " fill="#474747" transform="translate(727,1352)"/>
<path d="M0 0 C0.72638672 0.00563965 1.45277344 0.0112793 2.20117188 0.01708984 C12.58763035 0.24734276 22.90468094 1.89869391 30.6875 9.3125 C34.21515062 13.85626737 35.30692557 18.45362559 35.00390625 24.15234375 C33.88400629 31.7980805 29.12922227 37.5047792 23.3125 42.25 C22.77625 42.600625 22.24 42.95125 21.6875 43.3125 C23.04875 44.2715625 23.04875 44.2715625 24.4375 45.25 C31.08737138 50.83239203 32.62624101 60.1449008 34.4375 68.25 C34.65792969 69.19423828 34.87835937 70.13847656 35.10546875 71.11132812 C36.6875 77.97498544 36.6875 77.97498544 36.6875 80.3125 C31.7375 80.3125 26.7875 80.3125 21.6875 80.3125 C21.36136719 79.11753906 21.03523437 77.92257812 20.69921875 76.69140625 C19.5835005 72.61798609 18.44292054 68.55194353 17.29394531 64.48779297 C16.80906264 62.74853989 16.34947673 61.00224148 15.8984375 59.25390625 C14.901946 55.69415048 13.84444229 53.47346645 11.25 50.8125 C6.47984999 48.58719665 6.47984999 48.58719665 -4.3125 48.3125 C-4.3125 58.8725 -4.3125 69.4325 -4.3125 80.3125 C-8.9325 80.3125 -13.5525 80.3125 -18.3125 80.3125 C-18.3125 54.5725 -18.3125 28.8325 -18.3125 2.3125 C-11.85435571 1.02087114 -6.42362682 -0.05358125 0 0 Z " fill="#454545" transform="translate(915.3125,1491.6875)"/>
<path d="M0 0 C5.94 0 11.88 0 18 0 C23.75010444 6.44695398 23.75010444 6.44695398 25.12036133 9.45043945 C25.42825592 10.10194977 25.73615051 10.75346008 26.05337524 11.42471313 C26.5219545 12.42104263 26.5219545 12.42104263 27 13.4375 C27.69449166 14.77859227 28.39596716 16.11609012 29.10424805 17.44995117 C30.4910471 20.07922505 31.84261405 22.72182404 33.16552734 25.38378906 C35.47870853 30.0035247 38.11661002 34.40794009 40.8125 38.8125 C43.79485938 43.78077032 46.39793858 48.79587716 49 54 C49.33 36.18 49.66 18.36 50 0 C54.29 0 58.58 0 63 0 C63 26.07 63 52.14 63 79 C58.05 79 53.1 79 48 79 C43.18872927 72.93361516 43.18872927 72.93361516 41.88671875 69.96875 C39.88120799 65.64818931 37.45865368 61.63715717 35 57.5625 C34.14704648 56.11095415 33.29676513 54.65783466 32.44921875 53.203125 C32.03720215 52.49607422 31.62518555 51.78902344 31.20068359 51.06054688 C30.80445801 50.38056641 30.40823242 49.70058594 30 49 C29.63342285 48.37416016 29.2668457 47.74832031 28.88916016 47.10351562 C28.54030762 46.50732422 28.19145508 45.91113281 27.83203125 45.296875 C27.53272705 44.78608398 27.23342285 44.27529297 26.92504883 43.74902344 C22.61768468 36.25154431 18.89222781 28.78445561 15 21 C14.67 40.47 14.34 59.94 14 80 C9.38 80 4.76 80 0 80 C0 53.6 0 27.2 0 0 Z " fill="#464646" transform="translate(1073,1493)"/>
<path d="M0 0 C5.61 0 11.22 0 17 0 C22.29711892 6.27290398 22.29711892 6.27290398 23.7578125 9.46875 C25.89265778 13.88567127 28.36068336 18.04743176 30.89208984 22.24731445 C32.60627526 25.09390553 34.29178515 27.95556915 35.96875 30.82421875 C37.72891937 33.83334781 39.49451754 36.83859989 41.28125 39.83203125 C41.8896875 40.85683594 42.498125 41.88164063 43.125 42.9375 C43.62257813 43.77152344 44.12015625 44.60554688 44.6328125 45.46484375 C46.2921944 48.5418119 47.62289953 51.78676556 49 55 C49.33 36.85 49.66 18.7 50 0 C54.29 0 58.58 0 63 0 C63 26.07 63 52.14 63 79 C57.72 79 52.44 79 47 79 C46.16984375 77.453125 45.3396875 75.90625 44.484375 74.3125 C40.30577884 66.65092392 35.7876261 59.19761472 31.2734375 51.73046875 C25.43636044 41.97550923 20.32348795 32.11462711 15 22 C14.67 40.81 14.34 59.62 14 79 C9.38 79 4.76 79 0 79 C0 52.93 0 26.86 0 0 Z " fill="#464646" transform="translate(963,1493)"/>
<path d="M0 0 C5.61 0 11.22 0 17 0 C22.56190263 6.04402185 22.56190263 6.04402185 23.93115234 8.8918457 C24.23897644 9.51129059 24.54680054 10.13073547 24.86395264 10.76895142 C25.17697327 11.40207245 25.4899939 12.03519348 25.8125 12.6875 C26.50638952 13.96973339 27.20650117 15.24861793 27.91259766 16.52416992 C29.32519997 19.09594138 30.70177489 21.68216086 32.05029297 24.28808594 C34.32234817 28.65762861 36.80820501 32.89282942 39.3034668 37.13793945 C40.78026583 39.65127383 42.24147905 42.17142822 43.6796875 44.70703125 C44.05851074 45.3719458 44.43733398 46.03686035 44.82763672 46.72192383 C46.37933189 49.73709826 47.66421073 52.88315837 49 56 C49 37.52 49 19.04 49 0 C53.62 0 58.24 0 63 0 C63 26.07 63 52.14 63 79 C57.72 79 52.44 79 47 79 C43.38742215 75.09442044 41.8140105 72.82741323 39.6875 68.1875 C38.54357098 65.97234515 37.39903244 63.75750496 36.25390625 61.54296875 C35.43623779 59.88080322 35.43623779 59.88080322 34.60205078 58.18505859 C32.32464088 53.65730949 29.73568442 49.34099496 27.125 45 C22.28167838 36.87176047 18.25266637 28.50533274 14 20 C13.67 39.8 13.34 59.6 13 80 C8.71 80 4.42 80 0 80 C0 53.6 0 27.2 0 0 Z " fill="#464646" transform="translate(1071,1352)"/>
<path d="M0 0 C8.19027508 4.93478804 13.20497173 11.11552487 16.171875 20.30859375 C17.56073045 29.97716436 16.23527952 38.47580802 10.62890625 46.5234375 C4.10515185 54.54004188 -3.25102332 58.33656989 -13.35546875 59.6328125 C-21.29770415 60.14558236 -27.29917911 57.75518782 -33.828125 53.30859375 C-41.37442448 46.50236544 -45.19372709 39.7278236 -46.05859375 29.61328125 C-46.48996071 20.49628233 -43.95619959 14.18117121 -38.453125 6.99609375 C-28.28782048 -3.41124183 -13.39292149 -6.49421864 0 0 Z " fill="#F7F7F7" transform="translate(1346.828125,921.69140625)"/>
<path d="M0 0 C1.51086685 0.90753411 2.99361988 1.86428392 4.4375 2.875 C5.09234375 3.32101562 5.7471875 3.76703125 6.421875 4.2265625 C12.06550008 8.5436945 16.13634622 14.84103996 17.4375 21.875 C18.58106289 33.10797221 16.492079 40.87833084 9.90234375 50 C4.62481064 56.01664708 -2.86844353 59.26575905 -10.72265625 60.28515625 C-20.80230319 60.57824333 -28.15317163 57.68605962 -35.5625 50.875 C-42.78576124 42.85277758 -45.17256378 36.08261777 -44.91015625 25.3125 C-44.42231013 20.488853 -43.09774677 16.97100806 -40.5625 12.875 C-40.15 12.17761719 -39.7375 11.48023438 -39.3125 10.76171875 C-31.07856716 -1.65935607 -13.53014969 -6.51451652 0 0 Z " fill="#F7F7F7" transform="translate(1227.5625,1084.125)"/>
<path d="M0 0 C8.57694924 5.16833936 14.58271756 11.57483928 17.16796875 21.26953125 C18.10154633 33.17264535 17.11627188 40.97358471 9.453125 50.41015625 C6.21973627 53.66216334 2.54797485 55.55615968 -1.58203125 57.45703125 C-2.17371094 57.82054687 -2.76539063 58.1840625 -3.375 58.55859375 C-9.5187882 61.05960488 -18.41047372 60.42489622 -24.6796875 58.51171875 C-29.43659706 56.23012412 -33.14367893 53.50215162 -36.58203125 49.45703125 C-37.26265625 48.71453125 -37.94328125 47.97203125 -38.64453125 47.20703125 C-44.38999146 39.05218451 -45.99122426 31.43062208 -44.58203125 21.45703125 C-41.3540433 11.21273741 -34.7685112 3.94364818 -25.33203125 -1.04296875 C-17.19963514 -4.22212534 -7.86990672 -3.63325221 0 0 Z " fill="#F7F7F7" transform="translate(1227.58203125,394.54296875)"/>
<path d="M0 0 C8.42412662 4.56360122 13.4346369 10.83161844 16.82421875 19.64453125 C19.08259891 30.93643207 16.69994178 38.87861799 10.57421875 48.39453125 C4.97796076 55.33106951 -2.70124444 58.67618705 -11.4453125 59.7734375 C-20.12046494 60.11866179 -27.38816018 58.04785951 -34.23828125 52.64453125 C-39.57320099 47.67449989 -44.04353631 40.73413554 -44.69140625 33.37890625 C-44.63544356 21.79462855 -43.88529353 13.90201808 -35.42578125 5.39453125 C-24.6468605 -3.22860535 -13.03438383 -5.38500821 0 0 Z " fill="#F7F7F7" transform="translate(1422.42578125,739.60546875)"/>
<path d="M0 0 C8.57242488 0.14695586 16.58840506 4.09700665 22.87890625 9.77734375 C28.70191524 15.97979694 31.39453987 23.02851093 31.5625 31.5 C31.19865861 40.43685426 27.80661392 48.84251879 21.2265625 55.12109375 C12.00984646 62.20136795 4.27346324 63.19302419 -7.18359375 62.00390625 C-14.72946438 60.53117093 -20.88814228 56.04869709 -25.1875 49.8125 C-26.08691629 48.30597772 -26.96432618 46.78595579 -27.8125 45.25 C-28.43125 44.1775 -29.05 43.105 -29.6875 42 C-32.13604672 33.83817761 -31.79578853 25.35867525 -28.19921875 17.59765625 C-23.20297685 9.13922983 -16.33521854 2.98051716 -6.75 0.4375 C-4.49985802 0.29387392 -2.24988914 0.14753371 0 0 Z " fill="#F7F7F7" transform="translate(1331.8125,554.75)"/>
<path d="M0 0 C4.95 0 9.9 0 15 0 C15 10.56 15 21.12 15 32 C25.89 32 36.78 32 48 32 C48 21.44 48 10.88 48 0 C52.95 0 57.9 0 63 0 C63 26.4 63 52.8 63 80 C58.05 80 53.1 80 48 80 C48 68.45 48 56.9 48 45 C37.11 45 26.22 45 15 45 C15 56.55 15 68.1 15 80 C10.05 80 5.1 80 0 80 C0 53.6 0 27.2 0 0 Z " fill="#494949" transform="translate(961,1352)"/>
<path d="M0 0 C6.27 0 12.54 0 19 0 C24.15871207 13.55661544 28.93041247 27.12858038 32.90551758 41.08154297 C35.06067797 48.49048134 37.66392303 55.7404493 40.3215332 62.98242188 C42.26022961 68.38048998 43.54158183 73.27651428 44 79 C39.05 79 34.1 79 29 79 C26.66666667 72 24.33333333 65 22 58 C9.13 57.505 9.13 57.505 -4 57 C-4.33 59.31 -4.66 61.62 -5 64 C-5.29410809 65.32863966 -5.61264053 66.6525284 -5.97265625 67.96484375 C-6.21254272 68.85224243 -6.21254272 68.85224243 -6.45727539 69.75756836 C-6.65699951 70.4769458 -6.85672363 71.19632324 -7.0625 71.9375 C-8.0215625 75.4334375 -8.0215625 75.4334375 -9 79 C-13.95 79 -18.9 79 -24 79 C-23.49587821 71.19024447 -21.37588727 64.42937979 -18.8125 57.0625 C-18.40612305 55.86898926 -17.99974609 54.67547852 -17.58105469 53.44580078 C-16.39438315 49.96142121 -15.19749943 46.48066955 -14 43 C-12.90853683 39.79436408 -11.8255194 36.58601809 -10.75 33.375 C-10.51410156 32.67270264 -10.27820313 31.97040527 -10.03515625 31.24682617 C-8.11860316 25.48438091 -6.38444835 19.67397768 -4.73535156 13.82958984 C-3.38070761 9.07887952 -1.74949956 4.66533217 0 0 Z " fill="#464646" transform="translate(841,1493)"/>
<path d="M0 0 C6.27 0 12.54 0 19 0 C21.20626737 4.41253474 22.59083734 7.63111103 23.8125 12.25 C25.3483058 17.80926661 27.03542442 23.28396788 28.875 28.75 C29.12854248 29.50410156 29.38208496 30.25820312 29.64331055 31.03515625 C30.42653554 33.35756941 31.21271289 35.67896095 32 38 C35.2704576 47.64179351 38.46376969 57.25515451 41.140625 67.08203125 C41.93807926 69.99004013 41.93807926 69.99004013 43.109375 72.63671875 C44 75 44 75 44 79 C39.05 79 34.1 79 29 79 C27.82956003 75.70963048 26.66349466 72.41782464 25.5 69.125 C25.16613281 68.18785156 24.83226562 67.25070312 24.48828125 66.28515625 C24.17246094 65.38925781 23.85664062 64.49335937 23.53125 63.5703125 C23.23798828 62.74289551 22.94472656 61.91547852 22.64257812 61.06298828 C22 59 22 59 22 57 C9.625 57.495 9.625 57.495 -3 58 C-4.98 64.93 -6.96 71.86 -9 79 C-13.95 79 -18.9 79 -24 79 C-22.68298 69.78086002 -19.93940206 61.39843665 -16.90917969 52.63818359 C-15.24518714 47.80974549 -13.62091424 42.96804144 -12 38.125 C-11.66194336 37.1155835 -11.32388672 36.10616699 -10.97558594 35.06616211 C-8.0084306 26.14541958 -5.27427743 17.16348051 -2.65087891 8.13623047 C-1.81952728 5.4076758 -0.90200644 2.70601931 0 0 Z " fill="#464646" transform="translate(839,1352)"/>
<path d="M0 0 C-0.781658 4.07729712 -1.82827534 8.01613614 -3 12 C-3.97066406 11.83886719 -4.94132812 11.67773438 -5.94140625 11.51171875 C-10.27900369 10.8954898 -14.56193008 10.81619246 -18.9375 10.8125 C-19.69740234 10.80025391 -20.45730469 10.78800781 -21.24023438 10.77539062 C-29.1349498 10.75516505 -35.94213693 11.99150468 -42.16796875 17.13671875 C-47.88538976 22.95166507 -49.53816054 29.36057631 -49.75 37.3125 C-49.67492881 45.80399007 -47.33511083 52.24822133 -42 59 C-37.14790681 63.32097352 -32.13826106 65.14384472 -25.671875 65.09765625 C-24.9509668 65.09515869 -24.23005859 65.09266113 -23.48730469 65.09008789 C-22.58399414 65.08098389 -21.68068359 65.07187988 -20.75 65.0625 C-17.8625 65.041875 -14.975 65.02125 -12 65 C-12 58.4 -12 51.8 -12 45 C-16.62 45 -21.24 45 -26 45 C-26 41.04 -26 37.08 -26 33 C-16.76 33 -7.52 33 2 33 C2 46.53 2 60.06 2 74 C-13.13209821 78.53962946 -31.71283067 81.55179627 -46.3515625 73.74609375 C-56.12172094 67.75002661 -61.43569421 60.07579393 -64.52832031 49.13012695 C-66.65321772 39.53399349 -66.49674448 27.0199824 -61.671875 18.38671875 C-54.36578254 7.95675966 -45.77079937 0.46162559 -33.17578125 -2.53125 C-21.8010922 -4.21017089 -11.01157742 -3.21729566 0 0 Z " fill="#464646" transform="translate(1214,1495)"/>
<path d="M0 0 C21.12 0 42.24 0 64 0 C64 12.54 64 25.08 64 38 C42.88 38 21.76 38 0 38 C0 25.46 0 12.92 0 0 Z " fill="#464648" transform="translate(1009,749)"/>
<path d="M0 0 C15.51 0 31.02 0 47 0 C47 3.96 47 7.92 47 12 C36.44 12 25.88 12 15 12 C15 18.6 15 25.2 15 32 C24.9 32 34.8 32 45 32 C45 36.29 45 40.58 45 45 C35.1 45 25.2 45 15 45 C15 52.26 15 59.52 15 67 C25.89 67 36.78 67 48 67 C48 71.29 48 75.58 48 80 C32.16 80 16.32 80 0 80 C0 53.6 0 27.2 0 0 Z " fill="#4B4B4B" transform="translate(1150,1352)"/>
<path d="M0 0 C15.18 0 30.36 0 46 0 C46 3.96 46 7.92 46 12 C35.44 12 24.88 12 14 12 C14 18.6 14 25.2 14 32 C23.9 32 33.8 32 44 32 C44 35.96 44 39.92 44 44 C34.1 44 24.2 44 14 44 C14 51.59 14 59.18 14 67 C24.89 67 35.78 67 47 67 C47 70.96 47 74.92 47 79 C31.49 79 15.98 79 0 79 C0 52.93 0 26.86 0 0 Z " fill="#444444" transform="translate(762,1493)"/>
<path d="M0 0 C0.78552246 0.00128906 1.57104492 0.00257812 2.38037109 0.00390625 C8.66118342 0.107103 14.33670343 1.12431977 20.25 3.3125 C19.93950274 4.75043392 19.6265224 6.1878318 19.3125 7.625 C19.13847656 8.42550781 18.96445312 9.22601562 18.78515625 10.05078125 C18.25 12.3125 18.25 12.3125 17.25 15.3125 C16.074375 14.9825 14.89875 14.6525 13.6875 14.3125 C4.13224144 12.24772015 -6.0032576 11.61723656 -14.66015625 16.6875 C-19.54037253 20.48221023 -22.93047831 25.41333326 -24.75 31.3125 C-25.80677326 40.3508651 -26.21199631 50.42009496 -21.3046875 58.36328125 C-17.15262038 63.56901365 -13.27144857 66.6243236 -6.75 68.3125 C-3.93069865 68.55875476 -1.1404908 68.54750825 1.6875 68.5 C2.41259766 68.49935547 3.13769531 68.49871094 3.88476562 68.49804688 C8.43018143 68.46129149 12.76529776 68.05108733 17.25 67.3125 C18.54243536 71.4321377 19.51252625 74.98081683 19.25 79.3125 C12.38611578 81.39246491 5.96039113 81.67900577 -1.1875 81.6875 C-2.26837891 81.71199219 -3.34925781 81.73648437 -4.46289062 81.76171875 C-15.05012201 81.80024112 -22.93654569 78.43068931 -30.75 71.3125 C-37.98172765 63.7055412 -42.01232966 54.35410121 -42.25 43.875 C-41.81457824 32.68007734 -40.0257343 23.06397286 -32.75 14.3125 C-32.2240625 13.67570312 -31.698125 13.03890625 -31.15625 12.3828125 C-23.05553877 3.47967232 -11.78251178 -0.08037527 0 0 Z " fill="#464646" transform="translate(929.75,1350.6875)"/>
<path d="M0 0 C16.5 0 33 0 50 0 C50 12.21 50 24.42 50 37 C33.5 37 17 37 0 37 C0 24.79 0 12.58 0 0 Z " fill="#414143" transform="translate(1010,862)"/>
<path d="M0 0 C16.5 0 33 0 50 0 C50 12.21 50 24.42 50 37 C33.5 37 17 37 0 37 C0 24.79 0 12.58 0 0 Z " fill="#414143" transform="translate(1010,637)"/>
<path d="M0 0 C4.62 0 9.24 0 14 0 C14 22.11 14 44.22 14 67 C24.89 67 35.78 67 47 67 C47 70.96 47 74.92 47 79 C31.49 79 15.98 79 0 79 C0 52.93 0 26.86 0 0 Z " fill="#424242" transform="translate(704,1493)"/>
<path d="M0 0 C11.88 0 23.76 0 36 0 C36 12.54 36 25.08 36 38 C24.12 38 12.24 38 0 38 C0 25.46 0 12.92 0 0 Z " fill="#424244" transform="translate(1114,749)"/>
<path d="M0 0 C4.95 0 9.9 0 15 0 C15 26.4 15 52.8 15 80 C10.05 80 5.1 80 0 80 C0 53.6 0 27.2 0 0 Z " fill="#4A4A4A" transform="translate(1040,1352)"/>
<path d="M0 0 C4.95 0 9.9 0 15 0 C15 26.07 15 52.14 15 79 C10.05 79 5.1 79 0 79 C0 52.93 0 26.86 0 0 Z " fill="#474747" transform="translate(1042,1493)"/>
<path d="M0 0 C2.35125 -0.061875 4.7025 -0.12375 7.125 -0.1875 C7.85348145 -0.21481201 8.58196289 -0.24212402 9.33251953 -0.27026367 C14.83836794 -0.33970277 18.7217885 1.02555003 22.875 4.625 C24.65959311 8.39247435 24.62409727 11.91499966 24 16 C22.0116975 20.2947334 19.79505989 22.85029004 15.28125 24.54296875 C10.24321428 25.55230125 5.10793552 25.15797739 0 25 C0 16.75 0 8.5 0 0 Z " fill="#F5F5F5" transform="translate(911,1504)"/>
<path d="M0 0 C2.32465788 2.32465788 2.74109121 3.85697625 3.69140625 6.98046875 C3.99626953 7.98013672 4.30113281 8.97980469 4.61523438 10.00976562 C4.92783203 11.05841797 5.24042969 12.10707031 5.5625 13.1875 C6.03719727 14.73147461 6.03719727 14.73147461 6.52148438 16.30664062 C8.13021213 21.63832645 9.20284532 26.41991724 10 32 C3.4 32 -3.2 32 -10 32 C-8.08192728 24.75394749 -6.01135663 17.55918553 -3.875 10.375 C-3.60929199 9.47362305 -3.34358398 8.57224609 -3.06982422 7.64355469 C-2.8173291 6.79954102 -2.56483398 5.95552734 -2.3046875 5.0859375 C-2.07765137 4.3232959 -1.85061523 3.5606543 -1.61669922 2.77490234 C-1 1 -1 1 0 0 Z " fill="#ECECEC" transform="translate(850,1507)"/>
<path d="M0 0 C2.06025671 3.09038506 2.89536345 5.54841335 3.9453125 9.09375 C4.29980469 10.28871094 4.65429688 11.48367188 5.01953125 12.71484375 C5.38433594 13.96394531 5.74914062 15.21304687 6.125 16.5 C6.68380859 18.37365234 6.68380859 18.37365234 7.25390625 20.28515625 C10 29.60980426 10 29.60980426 10 33 C3.73 33 -2.54 33 -9 33 C-8.27546185 28.65277111 -7.47005105 25.06128055 -6.125 20.9375 C-4.3009085 15.17337085 -2.87868702 9.39431479 -1.61328125 3.484375 C-1 1 -1 1 0 0 Z " fill="#F1F1F1" transform="translate(848,1365)"/>
<path d="M0 0 C0.66 0.33 1.32 0.66 2 1 C1.195625 1.680625 0.39125 2.36125 -0.4375 3.0625 C-3.42288711 6.48477302 -3.73781251 8.5428126 -4 13 C-6.31 13.66 -8.62 14.32 -11 15 C-11 11 -11 11 -8.59375 8.203125 C-7.57248913 7.20839039 -6.5407803 6.22429311 -5.5 5.25 C-4.97535156 4.74339844 -4.45070313 4.23679687 -3.91015625 3.71484375 C-2.61558637 2.46734913 -1.3089224 1.23242693 0 0 Z " fill="#505052" transform="translate(882,1105)"/>
<path d="M0 0 C0.33 0 0.66 0 1 0 C1 4.95 1 9.9 1 15 C0.34 14.01 -0.32 13.02 -1 12 C-1.99 12.66 -2.98 13.32 -4 14 C-3.52525225 11.85318469 -3.04508251 9.70756772 -2.5625 7.5625 C-2.29566406 6.36753906 -2.02882813 5.17257812 -1.75390625 3.94140625 C-1 1 -1 1 0 0 Z " fill="#C8C8C8" transform="translate(789,1367)"/>
<path d="M0 0 C0.66 0.33 1.32 0.66 2 1 C-2.33333333 5.33333333 -6.66666667 9.66666667 -11 14 C-11.99 13.67 -12.98 13.34 -14 13 C-12.37660195 11.29115995 -10.70680947 9.62553283 -9 8 C-8.34 8 -7.68 8 -7 8 C-6.67 7.01 -6.34 6.02 -6 5 C-4.12382302 3.15500602 -2.07262391 1.6316401 0 0 Z " fill="#D9D9D9" transform="translate(871,1084)"/>
<path d="M0 0 C0.66 0.33 1.32 0.66 2 1 C-0.87473907 4.51356997 -3.78906216 7.78906216 -7 11 C-7.99 12.485 -7.99 12.485 -9 14 C-9.66 14 -10.32 14 -11 14 C-9.57442379 10.82096506 -7.8226848 8.46341568 -5.5 5.875 C-4.8915625 5.19179687 -4.283125 4.50859375 -3.65625 3.8046875 C-2.46695076 2.50880012 -1.24373566 1.24373566 0 0 Z " fill="#565656" transform="translate(1164,1500)"/>
<path d="M0 0 C0.66 0.33 1.32 0.66 2 1 C1.56429688 1.42410156 1.12859375 1.84820313 0.6796875 2.28515625 C-3.45008483 6.35235627 -7.28041129 10.55463788 -11 15 C-11 10.90139564 -9.38373445 9.89204368 -6.625 6.9375 C-5.40683594 5.62072266 -5.40683594 5.62072266 -4.1640625 4.27734375 C-2.79336781 2.83489789 -1.40702772 1.40702772 0 0 Z " fill="#626264" transform="translate(1364,715)"/>
<path d="M0 0 C1.53202706 0.25195908 3.05257128 0.57596777 4.5625 0.9375 C5.38878906 1.13214844 6.21507812 1.32679687 7.06640625 1.52734375 C8.02353516 1.76130859 8.02353516 1.76130859 9 2 C8.67 3.32 8.34 4.64 8 6 C4.22454612 4.90931332 1.52956528 4.0916909 -1 1 C-0.67 0.67 -0.34 0.34 0 0 Z " fill="#515152" transform="translate(1178,1169)"/>
<path d="M0 0 C0 3.65923696 -0.75756777 5.13896577 -3 8 C-5.6875 8.3125 -5.6875 8.3125 -8 8 C-5.58443874 4.80800833 -3.31996462 2.25283313 0 0 Z " fill="#EAEAEB" transform="translate(713,1003)"/>
<path d="M0 0 C0.66 0.33 1.32 0.66 2 1 C-0.97 3.97 -3.94 6.94 -7 10 C-7.66 9.67 -8.32 9.34 -9 9 C-6.21000549 5.51250686 -3.74764169 2.49842779 0 0 Z " fill="#DEDEDE" transform="translate(1197,1086)"/>
<path d="M0 0 C1.98 1.65 3.96 3.3 6 5 C5.67 5.66 5.34 6.32 5 7 C2.5 5.75 2.5 5.75 0 4 C0 2.68 0 1.36 0 0 Z " fill="#555557" transform="translate(1457,720)"/>
<path d="M0 0 C0.66 0.66 1.32 1.32 2 2 C-0.64 4.64 -3.28 7.28 -6 10 C-6.66 9.67 -7.32 9.34 -8 9 C-5.36 6.03 -2.72 3.06 0 0 Z " fill="#5D5D5D" transform="translate(728,334)"/>
<path d="M0 0 C2 3 2 3 2 6 C0 7.6875 0 7.6875 -2 9 C-1.125 1.125 -1.125 1.125 0 0 Z " fill="#CDCDCD" transform="translate(848,1365)"/>
<path d="M0 0 C0.33 1.32 0.66 2.64 1 4 C2.97670607 5.75422772 2.97670607 5.75422772 5 7 C2.69 7.66 0.38 8.32 -2 9 C-1.34 6.03 -0.68 3.06 0 0 Z " fill="#666668" transform="translate(762,969)"/>
<path d="M0 0 C0.33 0.99 0.66 1.98 1 3 C-0.65 4.32 -2.3 5.64 -4 7 C-4.66 6.34 -5.32 5.68 -6 5 C-4.02 3.35 -2.04 1.7 0 0 Z " fill="#4F4F51" transform="translate(1148,622)"/>
</svg>
