<?xml version="1.0" standalone="no"?>
<!DOCTYPE svg PUBLIC "-//W3C//DTD SVG 20010904//EN"
 "http://www.w3.org/TR/2001/REC-SVG-20010904/DTD/svg10.dtd">
<svg version="1.0" xmlns="http://www.w3.org/2000/svg"
 width="1920.000000pt" height="1920.000000pt" viewBox="0 0 1920.000000 1920.000000"
 preserveAspectRatio="xMidYMid meet">
<metadata>
Created by potrace 1.16, written by Peter Selinger 2001-2019
</metadata>
<g transform="translate(0.000000,1920.000000) scale(0.100000,-0.100000)"
fill="#000000" stroke="none">
<path d="M5860 17451 c-189 -60 -329 -205 -386 -397 -24 -83 -22 -220 5 -304
60 -188 213 -336 398 -386 74 -19 211 -19 286 0 158 43 297 160 368 310 l40
86 719 0 720 0 0 -1502 c0 -1411 1 -1505 18 -1538 9 -19 33 -45 52 -58 29 -20
44 -23 88 -20 61 5 99 29 124 79 17 32 18 130 18 1629 0 1499 -1 1597 -18
1629 -9 19 -30 44 -45 55 -28 21 -37 21 -852 24 l-824 2 -39 83 c-71 151 -202
264 -361 311 -75 22 -238 21 -311 -3z m298 -320 c84 -54 127 -140 120 -240 -8
-101 -59 -173 -156 -218 -95 -44 -209 -23 -285 54 -47 47 -70 96 -75 164 -9
118 58 221 172 266 18 7 61 11 103 9 60 -2 79 -8 121 -35z"/>
<path d="M9620 16909 c-25 -5 -81 -26 -125 -48 -182 -90 -298 -263 -312 -467
-16 -230 106 -439 320 -544 l87 -43 0 -687 0 -686 23 -44 c54 -107 201 -112
262 -10 20 34 20 52 23 735 l3 700 47 17 c208 74 362 301 362 533 0 61 -31
187 -58 242 -74 145 -214 257 -369 297 -65 17 -189 19 -263 5z m252 -326 c171
-95 177 -332 13 -445 -139 -95 -335 -23 -390 142 -42 127 31 275 162 325 59
23 151 14 215 -22z"/>
<path d="M13083 16500 c-191 -34 -360 -174 -432 -357 l-19 -48 -693 -3 c-782
-3 -734 2 -777 -82 l-22 -45 2 -847 c3 -837 3 -847 24 -874 70 -94 189 -96
252 -4 l22 33 0 758 0 759 598 0 597 0 17 -48 c58 -164 217 -303 398 -348 83
-21 230 -14 312 15 205 72 348 248 379 466 36 263 -141 533 -400 609 -69 20
-191 28 -258 16z m218 -328 c197 -103 180 -394 -28 -472 -65 -24 -102 -25
-172 -4 -176 52 -239 277 -117 421 71 84 214 109 317 55z"/>
<path d="M1991 14109 c-123 -22 -256 -94 -341 -186 -172 -188 -208 -459 -91
-691 59 -117 196 -237 324 -284 l57 -21 0 -750 c0 -730 1 -752 20 -792 13 -26
34 -49 59 -63 39 -22 39 -22 686 -22 l648 0 43 25 c93 54 96 191 6 252 -25 17
-67 18 -592 23 l-565 5 -3 662 -2 661 37 13 c324 104 497 460 380 781 -65 178
-237 333 -419 377 -70 16 -185 21 -247 10z m225 -323 c156 -72 220 -265 139
-415 -74 -135 -242 -193 -383 -132 -72 32 -143 111 -167 186 -47 149 37 319
184 371 61 22 168 17 227 -10z"/>
<path d="M18105 14114 c-11 -2 -45 -9 -75 -15 -202 -39 -383 -211 -446 -424
-24 -81 -24 -239 0 -320 30 -101 85 -195 157 -267 54 -53 87 -76 168 -115
l100 -48 1 -797 0 -798 -1207 -2 -1208 -3 -35 -22 c-46 -29 -72 -74 -72 -127
0 -54 22 -97 64 -128 l33 -23 1317 0 c1314 0 1317 0 1344 21 15 11 37 33 48
48 21 27 21 36 24 930 l2 903 68 27 c181 71 327 244 367 434 66 309 -128 628
-430 706 -65 16 -187 28 -220 20z m166 -319 c129 -46 215 -195 190 -331 -28
-149 -146 -247 -297 -247 -311 0 -411 417 -135 560 53 28 74 33 131 33 37 0
87 -7 111 -15z"/>
<path d="M10036 13979 c-565 -55 -1137 -270 -1700 -640 l-121 -80 -105 50
c-268 125 -519 188 -791 198 -588 21 -1119 -206 -1679 -719 -255 -233 -448
-483 -570 -739 l-64 -136 -71 -17 c-264 -67 -702 -241 -939 -373 -512 -285
-843 -639 -969 -1038 -81 -256 -82 -570 -2 -872 54 -203 173 -472 309 -696
l78 -129 -40 -86 c-121 -261 -183 -495 -202 -766 -20 -278 23 -582 122 -870
164 -477 514 -994 1003 -1481 634 -632 1265 -989 1935 -1096 132 -22 577 -18
705 5 525 94 1021 347 1436 733 l75 70 390 6 c1584 26 2741 316 3411 856 289
232 471 511 578 887 2 7 89 15 238 23 1143 59 1966 338 2437 827 232 241 365
502 426 839 27 150 25 466 -4 640 -65 380 -178 708 -392 1135 -211 422 -402
719 -637 991 -337 389 -680 610 -1085 701 -88 20 -131 23 -294 23 l-191 0 -39
50 c-183 233 -538 604 -753 788 -652 556 -1301 853 -2006 917 -128 12 -361 11
-489 -1z m604 -315 c593 -77 1162 -360 1728 -857 185 -162 644 -649 627 -665
-2 -2 -52 -25 -112 -51 -377 -163 -754 -487 -1030 -884 -88 -126 -63 -121
-261 -61 -412 125 -761 324 -979 557 -119 129 -188 244 -232 395 -17 57 -29
77 -57 98 -45 35 -115 42 -163 17 -81 -43 -99 -121 -56 -248 72 -215 230 -436
434 -606 252 -211 519 -353 901 -479 l185 -62 -37 -112 c-49 -146 -64 -245
-49 -327 12 -72 30 -102 74 -129 42 -26 122 -27 161 -1 53 35 66 67 65 162 -1
109 29 212 104 360 106 209 234 384 422 578 512 527 1060 697 1591 492 306
-118 647 -421 927 -823 379 -544 666 -1207 743 -1713 22 -145 22 -400 1 -518
-102 -559 -496 -944 -1209 -1182 -355 -118 -860 -208 -1288 -230 -63 -3 -147
-8 -186 -10 l-71 -5 -7 131 c-16 311 -75 579 -167 761 l-29 56 97 52 c523 280
1021 748 1248 1176 32 60 36 76 33 122 -8 93 -88 150 -183 130 -48 -11 -80
-39 -107 -93 -11 -22 -49 -83 -84 -135 -252 -378 -627 -707 -1091 -955 l-73
-39 -82 83 c-299 302 -704 471 -1278 533 -145 15 -626 15 -785 -1 -269 -26
-567 -70 -759 -111 l-89 -20 -71 57 c-105 85 -249 226 -334 328 -190 226 -306
470 -342 717 -24 164 1 427 54 577 20 55 20 123 1 161 -43 83 -181 96 -247 23
-28 -31 -53 -112 -103 -340 -3 -13 -9 -23 -14 -23 -17 0 -310 200 -412 281
-149 118 -358 327 -450 448 -101 135 -192 315 -220 436 -41 180 -67 215 -161
222 -62 5 -106 -17 -138 -69 -27 -44 -26 -104 4 -219 73 -289 220 -524 506
-809 224 -224 495 -430 776 -589 l92 -52 11 -82 c26 -180 86 -365 172 -526 99
-186 205 -326 382 -508 l119 -121 -59 -16 c-32 -9 -105 -33 -163 -52 -608
-207 -1129 -330 -1615 -380 -203 -22 -610 -24 -760 -6 -393 49 -678 163 -899
361 -42 37 -84 65 -108 71 -111 30 -213 -77 -179 -190 25 -83 236 -246 455
-350 241 -116 484 -175 830 -201 l153 -12 37 -95 c120 -309 178 -623 156 -848
-11 -110 -13 -121 -42 -214 -90 -284 -333 -470 -720 -550 -111 -22 -243 -37
-429 -48 -145 -9 -173 -18 -205 -67 -46 -70 -18 -177 58 -216 41 -21 51 -22
203 -15 519 22 883 148 1128 390 117 116 206 263 257 423 l23 71 186 46 c352
86 656 132 967 144 504 21 855 -36 1239 -202 71 -30 107 -32 155 -8 99 49 108
197 16 258 -70 45 -328 140 -501 183 -455 114 -1109 104 -1715 -25 -103 -22
-247 -57 -291 -70 -15 -4 -18 9 -24 98 -14 203 -66 448 -139 653 -24 66 -31
97 -23 100 7 2 77 8 157 15 481 39 1011 157 1630 364 422 141 844 232 1350
292 183 21 639 30 810 15 401 -34 700 -126 943 -288 353 -235 537 -629 537
-1150 0 -182 -16 -292 -60 -425 -220 -657 -959 -1086 -2223 -1293 -401 -65
-767 -97 -1344 -116 -377 -13 -855 -3 -1310 27 -246 16 -252 16 -290 -3 -75
-38 -104 -147 -56 -212 35 -46 67 -62 144 -72 66 -8 514 -39 562 -39 25 0 -5
-25 -148 -122 -435 -296 -872 -431 -1340 -415 -359 13 -685 108 -1045 303
-716 388 -1489 1206 -1790 1893 -199 456 -241 897 -125 1310 122 434 433 858
872 1187 95 72 114 91 129 130 14 38 15 51 5 86 -24 79 -100 125 -176 108
-115 -26 -488 -355 -685 -604 -101 -127 -85 -133 -188 72 -161 318 -223 541
-223 802 0 330 120 593 389 851 262 252 616 448 1117 619 81 27 151 50 155 50
4 0 10 -55 13 -122 7 -165 40 -288 116 -443 81 -164 163 -276 316 -431 176
-177 341 -303 602 -457 270 -160 677 -340 976 -433 77 -23 93 -25 126 -15 55
16 87 45 107 96 14 39 15 52 5 87 -21 69 -51 89 -220 147 -361 124 -726 299
-1011 486 -267 174 -491 396 -598 590 -147 270 -157 513 -33 805 87 205 283
462 514 674 712 654 1422 809 2142 467 282 -135 579 -360 794 -604 51 -58 106
-111 122 -118 44 -18 125 -7 155 22 56 52 71 136 36 194 -68 110 -369 397
-567 540 l-28 21 134 81 c502 305 983 472 1470 513 133 11 391 3 539 -16z"/>
<path d="M1497 10344 c-266 -64 -457 -306 -458 -579 -1 -172 57 -312 180 -435
187 -186 467 -227 701 -104 125 66 225 178 280 312 l27 67 204 5 c213 5 225 8
268 54 37 39 41 128 9 176 -43 64 -68 70 -290 70 -154 0 -198 3 -198 13 0 25
-72 161 -111 211 -81 102 -206 181 -331 211 -78 18 -204 18 -281 -1z m268
-315 c62 -29 115 -81 146 -145 19 -39 24 -65 24 -129 0 -70 -4 -87 -30 -134
-75 -135 -225 -194 -371 -144 -67 23 -154 110 -177 177 -32 94 -19 191 36 272
83 121 240 165 372 103z"/>
<path d="M17485 10040 c-123 -19 -232 -68 -318 -141 -62 -54 -133 -155 -167
-237 l-27 -67 -299 -5 c-322 -5 -326 -6 -364 -60 -51 -71 -27 -175 49 -218 37
-21 49 -22 330 -22 230 0 291 -3 291 -13 0 -25 72 -161 111 -211 251 -315 744
-296 967 38 69 103 93 177 99 306 6 128 -11 211 -64 314 -50 95 -164 209 -254
253 -113 54 -252 79 -354 63z m181 -317 c69 -23 155 -110 179 -182 39 -119 -1
-255 -97 -332 -62 -49 -107 -63 -193 -63 -116 0 -213 62 -266 170 -36 73 -34
189 3 261 32 61 96 118 158 144 57 23 152 24 216 2z"/>
<path d="M975 8166 c-40 -18 -73 -56 -85 -97 -6 -21 -10 -372 -10 -915 l0
-881 -67 -27 c-278 -109 -436 -415 -363 -700 55 -217 211 -379 425 -441 73
-22 219 -25 295 -6 212 51 383 214 446 426 24 81 24 239 0 320 -30 101 -85
195 -157 267 -54 53 -87 76 -168 115 l-100 48 -1 797 0 798 808 2 c744 3 809
4 839 20 51 28 78 75 78 135 0 56 -18 90 -69 127 -27 21 -36 21 -934 23 -741
2 -913 0 -937 -11z m192 -2212 c101 -48 164 -152 164 -268 0 -117 -55 -209
-160 -263 -53 -28 -74 -33 -131 -33 -113 0 -191 39 -250 125 -44 64 -64 150
-51 221 37 200 244 305 428 218z"/>
<path d="M15880 7882 c-100 -50 -108 -197 -13 -259 25 -17 68 -18 558 -23
l530 -5 3 -662 2 -661 -46 -16 c-315 -107 -484 -453 -375 -768 27 -79 65 -140
130 -211 117 -126 261 -189 436 -190 115 -1 182 15 290 71 88 45 197 153 243
239 119 225 85 510 -84 692 -65 71 -156 133 -236 163 l-58 21 0 750 c0 730 -1
752 -20 792 -13 26 -34 49 -59 63 -39 22 -40 22 -652 22 -565 0 -617 -1 -649
-18z m1352 -1924 c68 -29 140 -110 163 -183 34 -108 0 -232 -84 -308 -62 -56
-97 -70 -187 -75 -72 -4 -89 -1 -136 20 -216 99 -240 397 -43 524 90 57 188
65 287 22z"/>
<path d="M11188 5320 c-37 -11 -68 -34 -89 -67 -18 -27 -19 -86 -19 -1557 l0
-1529 22 -35 c12 -20 38 -42 62 -53 39 -18 83 -19 854 -19 652 0 812 -3 812
-13 0 -7 16 -46 35 -86 40 -84 139 -190 217 -233 176 -97 360 -103 536 -16
341 168 419 626 151 898 -170 173 -430 217 -651 111 -117 -56 -233 -183 -276
-303 l-17 -48 -722 0 -723 0 -2 1429 -3 1430 -21 28 c-39 52 -112 80 -166 63z
m2305 -2878 c181 -98 179 -357 -4 -457 -44 -24 -66 -29 -119 -29 -77 1 -123
18 -178 69 -58 52 -84 112 -84 190 0 80 27 140 89 195 85 75 196 87 296 32z"/>
<path d="M9585 5056 c-37 -16 -70 -52 -84 -89 -8 -19 -11 -290 -11 -840 l-1
-812 -87 -42 c-106 -51 -167 -103 -225 -191 -62 -94 -88 -170 -94 -274 -11
-174 41 -314 161 -434 114 -115 242 -168 401 -168 272 1 494 184 551 454 54
255 -81 511 -329 625 l-77 34 0 824 0 824 -22 33 c-43 62 -118 85 -183 56z
m128 -2037 c68 -17 131 -69 163 -136 87 -176 -36 -373 -234 -373 -75 0 -116
16 -172 66 -114 103 -119 266 -11 374 71 71 156 94 254 69z"/>
<path d="M8021 4618 c-19 -12 -44 -36 -55 -51 -21 -28 -21 -37 -24 -633 l-3
-604 -592 0 -593 0 -18 50 c-59 164 -222 308 -396 351 -77 19 -212 16 -285 -5
-151 -44 -283 -153 -349 -287 -114 -231 -76 -472 103 -649 129 -128 250 -176
426 -167 65 3 121 12 159 26 153 55 281 178 338 326 l21 55 684 0 c757 0 727
-3 779 66 l29 37 0 703 c0 694 0 703 -21 730 -33 45 -70 67 -121 71 -39 4 -55
0 -82 -19z m-1713 -1193 c47 -20 108 -78 133 -128 91 -176 -59 -394 -256 -374
-267 27 -328 386 -85 496 55 25 155 28 208 6z"/>
</g>
</svg>
