<?xml version="1.0" encoding="UTF-8"?>
<svg version="1.1" xmlns="http://www.w3.org/2000/svg" width="639" height="565">
<path d="M0 0 C210.87 0 421.74 0 639 0 C639 186.45 639 372.9 639 565 C428.13 565 217.26 565 0 565 C0 378.55 0 192.1 0 0 Z " fill="#FEFEFE" transform="translate(0,0)"/>
<path d="M0 0 C11.22212898 8.7663447 17.83846603 20.04104225 21.32470703 33.79541016 C21.81690204 38.42895808 21.79497587 42.99946688 21.71533203 47.65478516 C21.70967224 48.92517639 21.70401245 50.19556763 21.69818115 51.50445557 C21.67974467 54.83878758 21.64398224 58.1719658 21.59936523 61.50598145 C21.55802345 64.92527441 21.54008823 68.34468789 21.52001953 71.76416016 C21.47617685 78.44155456 21.4094351 85.11841596 21.32470703 91.79541016 C23.23401001 92.0147522 23.23401001 92.0147522 25.18188477 92.23852539 C32.93905507 93.12967446 38.03612975 97.86132436 42.84814453 103.77197266 C47.74385569 110.48091017 48.15081685 116.7604052 47.32470703 124.79541016 C47.04515129 126.10740461 46.74296273 127.41471199 46.42236328 128.71728516 C39.97605204 154.91624423 41.59064576 185.98014896 46.44970703 212.35791016 C48.60370474 224.17015563 48.49394375 235.73748233 41.86376953 246.07275391 C40.41633694 248.0455237 38.89440712 249.9195323 37.32470703 251.79541016 C36.45845703 253.06384766 36.45845703 253.06384766 35.57470703 254.35791016 C26.98332619 263.66523941 14.21916133 268.63494338 2.90283203 273.83447266 C-10.55605493 280.0234435 -22.07265628 287.62766701 -33.67529297 296.79541016 C-34.15925537 296.42536865 -34.64321777 296.05532715 -35.1418457 295.67407227 C-46.67407776 286.93021822 -58.52347577 279.49539371 -71.76318359 273.65332031 C-87.27701824 266.69269532 -103.83944256 258.75732766 -111.67529297 242.79541016 C-112.19607422 241.73837891 -112.71685547 240.68134766 -113.25341797 239.59228516 C-114.9166772 235.63523316 -115.16715391 231.86256 -115.11279297 227.60791016 C-115.10957031 226.77259766 -115.10634766 225.93728516 -115.10302734 225.07666016 C-114.92068418 216.08525604 -113.75135875 207.21248155 -112.67529297 198.29541016 C-109.81638905 174.47574783 -109.39616713 151.59048878 -114.74560547 128.07666016 C-116.75311424 119.07578068 -116.07212108 112.79639785 -111.57763672 104.56884766 C-106.89531218 97.74246075 -100.48952747 94.08578924 -92.67529297 91.79541016 C-91.68529297 91.79541016 -90.69529297 91.79541016 -89.67529297 91.79541016 C-89.68417542 91.09542908 -89.69305786 90.395448 -89.70220947 89.67425537 C-89.78288534 83.02637543 -89.84352336 76.37863523 -89.88254166 69.73037338 C-89.90327697 66.31368609 -89.93133059 62.89740858 -89.97705078 59.48095703 C-90.02946444 55.53895239 -90.04835432 51.59710446 -90.06591797 47.65478516 C-90.08656311 46.44804138 -90.10720825 45.24129761 -90.128479 43.99798584 C-90.13260258 28.16153292 -83.86545896 15.5618921 -73.15966797 4.11962891 C-52.75208075 -14.97237486 -22.52218562 -16.1941801 0 0 Z " fill="#0E0E0E" transform="translate(304.67529296875,186.20458984375)"/>
<path d="M0 0 C0.9796875 0.35191406 1.959375 0.70382813 2.96875 1.06640625 C19.14599818 7.25542923 32.47800874 19.09489663 39.87646484 34.86865234 C40.76313511 36.85864755 41.61089352 38.8593481 42.4375 40.875 C42.82663574 41.82088989 42.82663574 41.82088989 43.22363281 42.78588867 C44.59036274 46.31128109 45.29473319 49.21878878 45 53 C45.70962891 52.51080078 45.70962891 52.51080078 46.43359375 52.01171875 C56.59476456 45.29702693 65.99070455 43.94175515 78 45 C88.85258369 47.34829745 97.69480034 53.93328251 104 63 C106.4166308 67.73345973 108 71.65280512 108 77 C109.30453125 76.95359375 110.6090625 76.9071875 111.953125 76.859375 C126.57904976 76.49103083 137.88033406 77.58915738 149 88 C149.56460937 88.52335937 150.12921875 89.04671875 150.7109375 89.5859375 C156.95883154 96.08755312 160.25122139 104.54805649 160.5625 113.5 C160.12623746 123.88304845 156.63678502 132.70081712 149.8125 140.5 C137.1681202 151.73944871 125.03293567 152.45982561 108.81591797 152.51513672 C106.87669886 152.53231945 104.93748954 152.55064022 102.99829102 152.57000732 C97.75473701 152.61768336 92.51127559 152.64542594 87.26755285 152.66642904 C83.9885867 152.67970208 80.70964719 152.69595744 77.43069839 152.71295547 C67.16207374 152.76463927 56.89351579 152.80280762 46.62478149 152.8233813 C34.78615054 152.84744779 22.94896451 152.91778943 11.11082351 153.02738369 C1.94537469 153.10930799 -7.2196614 153.14902072 -16.38547027 153.15698445 C-21.854616 153.16273083 -27.32226574 153.18651283 -32.79101944 153.25472641 C-37.9316223 153.31776823 -43.06970649 153.32839883 -48.21058655 153.29906464 C-50.09400745 153.29730366 -51.97755568 153.31429146 -53.86060715 153.35163498 C-68.0661317 153.61734803 -68.0661317 153.61734803 -72.90591049 149.56970596 C-75.67348328 145.86627396 -77.54099839 142.37700483 -79 138 C-80.3106235 137.28972662 -81.64833997 136.62867908 -83 136 C-84.33104612 134.93953615 -85.64221134 133.85385445 -86.9375 132.75 C-97.17779185 124.74456011 -108.37073002 121.64139814 -121 120 C-121.79792969 119.89558594 -122.59585938 119.79117188 -123.41796875 119.68359375 C-139.55165693 118.71619659 -155.76518216 126.66641641 -167.640625 136.80859375 C-170.40640059 139.3774681 -172.75009306 141.97426308 -175 145 C-182.81092096 141.52847957 -186.68450202 135.86254575 -190.25 128.375 C-193.50740054 118.0598983 -193.12736145 107.48835628 -188.546875 97.72265625 C-183.23209788 88.36811168 -174.75566114 81.18358664 -164.5625 77.6796875 C-156.51431689 76.14417888 -148.15629477 76.70468784 -140 77 C-140.15984375 76.32324219 -140.3196875 75.64648438 -140.484375 74.94921875 C-142.23200274 64.95331767 -142.07023074 53.61997298 -136.640625 44.7890625 C-133.78885208 40.83480005 -130.58427596 37.30856242 -127 34 C-126.278125 33.319375 -125.55625 32.63875 -124.8125 31.9375 C-116.84454249 26.44846261 -107.5845275 24.02876788 -98 25 C-94.59894655 25.86801828 -91.30330574 26.8981458 -87.98046875 28.02734375 C-85.3210259 28.89523532 -82.75147652 29.51683869 -80 30 C-79.34644531 29.14728516 -79.34644531 29.14728516 -78.6796875 28.27734375 C-76.80023031 25.84055834 -74.90058092 23.42033162 -73 21 C-72.30003906 20.071875 -72.30003906 20.071875 -71.5859375 19.125 C-55.6157539 -1.04786349 -23.90375023 -9.41777501 0 0 Z " fill="#0D0D0D" transform="translate(395,49)"/>
<path d="M0 0 C1.1746582 -0.00902344 2.34931641 -0.01804688 3.55957031 -0.02734375 C11.16354236 -0.00176268 18.35736264 0.75607997 25.8125 2.25 C28.77748584 10.43900851 31.8125 19.47917296 31.8125 28.25 C30.49636719 28.27578125 29.18023437 28.3015625 27.82421875 28.328125 C17.04370777 28.63786854 7.57855622 29.09697284 -1.84765625 34.8828125 C-4.1875 36.25 -4.1875 36.25 -6.1875 36.25 C-6.5175 37.24 -6.8475 38.23 -7.1875 39.25 C-8.60546875 40.50390625 -8.60546875 40.50390625 -10.375 41.8125 C-18.55890318 48.61841538 -22.481697 58.62098748 -23.5859375 68.9921875 C-23.84048697 72.411406 -24.04435869 75.82448028 -24.1875 79.25 C-24.99832031 79.28738281 -25.80914062 79.32476562 -26.64453125 79.36328125 C-40.9969563 80.21540427 -53.49377814 83.41901611 -63.59375 94.28125 C-69.86901193 102.03304415 -73.95901975 110.73831295 -74.3125 120.8125 C-75.53627605 125.62019163 -78.40465419 128.11012378 -81.78125 131.65234375 C-85.39522906 135.55379842 -88.30934367 139.78919158 -91.1875 144.25 C-91.77402344 145.15234375 -92.36054688 146.0546875 -92.96484375 146.984375 C-100.26234201 158.80089296 -104.60985979 171.63857617 -107.1875 185.25 C-107.36925781 186.13429687 -107.55101562 187.01859375 -107.73828125 187.9296875 C-111.0181941 212.17252158 -106.49338086 239.53571513 -92.4375 259.9375 C-88.34709161 265.95872756 -87.35052613 272.16461384 -86.1875 279.25 C-85.81842285 281.00125871 -85.44405865 282.75141829 -85.0625 284.5 C-83.18959856 294.16044865 -83.03160688 303.74363766 -83.0625 313.5625 C-83.05863281 314.81095703 -83.05476563 316.05941406 -83.05078125 317.34570312 C-83.05207031 318.54775391 -83.05335938 319.74980469 -83.0546875 320.98828125 C-83.05581543 322.07149658 -83.05694336 323.15471191 -83.05810547 324.27075195 C-83.1787976 327.04963127 -83.58932909 329.54087586 -84.1875 332.25 C-84.33706768 334.26916366 -84.45930839 336.29043574 -84.5625 338.3125 C-85.01820837 345.29512832 -85.99689181 352.13491414 -87.10546875 359.04150391 C-87.82929924 363.60497406 -88.35013165 368.06536528 -88.5625 372.6875 C-88.85237187 376.44400286 -89.17986807 377.23927404 -91.5 380.5 C-94.1875 382.25 -94.1875 382.25 -95.96484375 382.06640625 C-110.54940268 376.70933628 -123.688768 365.40819929 -135.25 355.3125 C-136.23097656 354.45785156 -137.21195313 353.60320312 -138.22265625 352.72265625 C-140.1875 350.25 -140.1875 350.25 -139.94384766 347.890625 C-139.19144166 345.26376144 -138.25033013 342.97997261 -137.05078125 340.52734375 C-136.63892578 339.65916016 -136.22707031 338.79097656 -135.80273438 337.89648438 C-134.9305096 336.08272761 -134.05021616 334.27283009 -133.16210938 332.46679688 C-132.75412109 331.59990234 -132.34613281 330.73300781 -131.92578125 329.83984375 C-131.54462158 329.05472412 -131.16346191 328.26960449 -130.77075195 327.46069336 C-129.95959984 325.23862828 -129.95959984 325.23862828 -130.97216797 323.09619141 C-132.48710073 320.79488134 -134.19665526 318.77188548 -136 316.6875 C-140.40069691 311.39515862 -144.35574467 305.86131653 -148.25 300.1875 C-148.83434814 299.34179443 -149.41869629 298.49608887 -150.02075195 297.62475586 C-150.56175537 296.82948486 -151.10275879 296.03421387 -151.66015625 295.21484375 C-152.14750244 294.4993335 -152.63484863 293.78382324 -153.13696289 293.04663086 C-154.1875 291.25 -154.1875 291.25 -154.1875 289.25 C-154.88834717 289.34087891 -155.58919434 289.43175781 -156.3112793 289.52539062 C-159.49877556 289.93685063 -162.68687108 290.34347236 -165.875 290.75 C-166.97779297 290.89308594 -168.08058594 291.03617187 -169.21679688 291.18359375 C-170.28349609 291.31894531 -171.35019531 291.45429688 -172.44921875 291.59375 C-173.42850342 291.71943359 -174.40778809 291.84511719 -175.41674805 291.97460938 C-178.02982089 292.23432795 -180.56385968 292.30025329 -183.1875 292.25 C-187.29252678 283.42855948 -190.9198031 274.54651083 -194 265.3125 C-194.2894751 264.44987549 -194.5789502 263.58725098 -194.87719727 262.69848633 C-197.56959123 254.46288171 -199.50405355 246.95522257 -199.1875 238.25 C-195.73315686 236.24304709 -192.2733937 234.24563221 -188.8125 232.25 C-187.82765625 231.67765625 -186.8428125 231.1053125 -185.828125 230.515625 C-184.41660156 229.70351563 -184.41660156 229.70351563 -182.9765625 228.875 C-182.10725098 228.37226563 -181.23793945 227.86953125 -180.34228516 227.3515625 C-178.1875 226.25 -178.1875 226.25 -176.1875 226.25 C-175.93357159 220.14692245 -175.78677715 214.05370876 -175.73583984 207.94555664 C-175.70385191 205.87231853 -175.64339581 203.79930639 -175.55322266 201.7277832 C-174.63654256 190.44761557 -174.63654256 190.44761557 -178.734375 180.45672607 C-182.54020841 177.4928017 -186.71473645 175.7103475 -191.21655273 174.06027222 C-194.18165857 172.84129345 -196.59379123 171.12156188 -199.1875 169.25 C-199.11964621 152.86331051 -192.97309091 135.99963179 -186.1875 121.25 C-185.53394531 119.82494141 -185.53394531 119.82494141 -184.8671875 118.37109375 C-183.1875 116.25 -183.1875 116.25 -180.61328125 115.69140625 C-179.07220703 115.75134766 -179.07220703 115.75134766 -177.5 115.8125 C-176.35789062 115.85503906 -175.21578125 115.89757812 -174.0390625 115.94140625 C-167.38811353 116.47429161 -160.79064117 117.30063952 -154.1875 118.25 C-153.960625 117.41726562 -153.73375 116.58453125 -153.5 115.7265625 C-151.92167561 111.54588183 -149.746394 108.26213409 -147.1875 104.625 C-146.70635742 103.92785889 -146.22521484 103.23071777 -145.72949219 102.51245117 C-141.81378917 96.92470971 -137.51320748 91.8133055 -132.890625 86.80078125 C-130.91149287 84.42843544 -130.91149287 84.42843544 -131.44750977 81.88574219 C-132.18655598 79.25336246 -133.12401266 76.98131635 -134.32421875 74.52734375 C-134.73607422 73.65916016 -135.14792969 72.79097656 -135.57226562 71.89648438 C-136.4444904 70.08272761 -137.32478384 68.27283009 -138.21289062 66.46679688 C-138.62087891 65.59990234 -139.02886719 64.73300781 -139.44921875 63.83984375 C-139.83037842 63.05472412 -140.21153809 62.26960449 -140.60424805 61.46069336 C-141.1875 59.25 -141.1875 59.25 -140.38476562 57.07275391 C-132.50431829 45.0753192 -117.18228095 36.54172022 -105.1875 29.25 C-104.49785156 28.80527344 -103.80820313 28.36054687 -103.09765625 27.90234375 C-98.75344734 25.19295341 -98.75344734 25.19295341 -96.23046875 25.44726562 C-93.72658832 26.43110392 -92.34894925 27.70402176 -90.4375 29.59375 C-89.7465625 30.26277344 -89.055625 30.93179688 -88.34375 31.62109375 C-86.90625 33.04036458 -85.46875 34.45963542 -84.03125 35.87890625 C-83.3403125 36.54792969 -82.649375 37.21695313 -81.9375 37.90625 C-81.31359375 38.52306641 -80.6896875 39.13988281 -80.046875 39.77539062 C-77.98786181 41.4083265 -76.79612168 41.99920095 -74.1875 42.25 C-71.98133565 41.72847947 -71.98133565 41.72847947 -69.73046875 40.73828125 C-68.87187256 40.39410156 -68.01327637 40.04992187 -67.12866211 39.6953125 C-66.21995361 39.32148437 -65.31124512 38.94765625 -64.375 38.5625 C-43.42177973 30.25 -43.42177973 30.25 -34.1875 30.25 C-34.15011719 29.70214844 -34.11273438 29.15429688 -34.07421875 28.58984375 C-33.34433004 19.78824458 -31.98660711 10.64732134 -29.1875 2.25 C-19.46705106 0.39848592 -9.88217061 0.03126445 0 0 Z " fill="#0E0E0E" transform="translate(271.1875,39.75)"/>
<path d="M0 0 C31.02 0 62.04 0 94 0 C88.36524454 4.50780437 88.36524454 4.50780437 85.51953125 6.140625 C84.60977539 6.66269531 84.60977539 6.66269531 83.68164062 7.1953125 C83.06482422 7.54335937 82.44800781 7.89140625 81.8125 8.25 C80.86987305 8.79527344 80.86987305 8.79527344 79.90820312 9.3515625 C75.25352444 12 75.25352444 12 73 12 C73 26.85 73 41.7 73 57 C74.65 57.66 76.3 58.32 78 59 C80.35605375 60.28437652 82.68233948 61.5880075 85 62.9375 C85.60328125 63.28490234 86.2065625 63.63230469 86.828125 63.99023438 C90.23959732 65.9592472 93.62865058 67.96314306 97 70 C93.9642016 88.14335983 89.192609 106.90234369 80 123 C70.53423442 123.36799953 61.36126309 122.22914592 52 121 C51.47792969 121.92039062 50.95585937 122.84078125 50.41796875 123.7890625 C44.66937366 133.74084598 38.35815902 144.45352085 29.61328125 152.08203125 C29.08089844 152.71496094 28.54851562 153.34789062 28 154 C28.40336809 157.52515026 29.49334979 160.33043972 31.1015625 163.46875 C31.50890625 164.28730469 31.91625 165.10585938 32.3359375 165.94921875 C33.19690757 167.65289589 34.06412965 169.35342757 34.9375 171.05078125 C35.34226562 171.86933594 35.74703125 172.68789063 36.1640625 173.53125 C36.53998535 174.26923828 36.9159082 175.00722656 37.30322266 175.76757812 C38.18223712 178.58387394 37.88927677 180.20766523 37 183 C35.26990964 184.93864115 33.63606859 186.56489899 31.6875 188.25 C31.14843018 188.72743652 30.60936035 189.20487305 30.05395508 189.69677734 C19.23013311 199.15601393 6.67770417 209.04280551 -7 214 C-11.68369308 210.43833621 -14.36127816 207.40364081 -15.26953125 201.48046875 C-15.48177211 199.38574376 -15.66203595 197.28756656 -15.8125 195.1875 C-15.90724609 194.17751953 -16.00199219 193.16753906 -16.09960938 192.12695312 C-16.3022901 189.96457795 -16.4909805 187.80086001 -16.66796875 185.63623047 C-16.90510787 183.03920839 -17.17836157 180.4688653 -17.50390625 177.88330078 C-18.82950947 167.27290748 -19.37260667 156.80621179 -19.37060547 146.11376953 C-19.37499836 143.50097291 -19.41156898 140.88984682 -19.44921875 138.27734375 C-19.51537103 128.10278827 -18.50417002 118.85471903 -15.95947266 108.99804688 C-15.24043066 106.20733337 -14.7696437 103.48668756 -14.4453125 100.62304688 C-14.00488118 97.0397131 -13.57379057 95.72791129 -11.375 93 C3.56058809 72.14044068 8.23056488 42.41710657 4.39453125 17.4296875 C3.30883788 11.50759491 1.65411479 5.78940177 0 0 Z " fill="#0D0D0D" transform="translate(373,208)"/>
<path d="M0 0 C8.55917794 6.06461823 14.21410902 13.97661786 16.375 24.3125 C16.4606191 26.11457506 16.49274058 27.91952988 16.48852539 29.72363281 C16.48841209 31.34486053 16.48841209 31.34486053 16.48829651 32.99884033 C16.48313522 34.15937927 16.47797394 35.31991821 16.47265625 36.515625 C16.4712413 37.70855164 16.46982635 38.90147827 16.46836853 40.1305542 C16.46277038 43.94122829 16.45021819 47.75184366 16.4375 51.5625 C16.43248476 54.14583248 16.4279219 56.72916589 16.42382812 59.3125 C16.41280155 65.64585337 16.39606524 71.97917249 16.375 78.3125 C4.37496551 81.90366467 -7.74560013 81.47028494 -20.16723633 81.44287109 C-23.05229971 81.43751892 -25.93720701 81.44283751 -28.82226562 81.44921875 C-30.69270867 81.44855772 -32.56315162 81.44727605 -34.43359375 81.4453125 C-35.27772324 81.44733673 -36.12185272 81.44936096 -36.99156189 81.45144653 C-43.57209755 81.4262878 -50.07528757 80.93109203 -56.625 80.3125 C-56.70142165 72.66282593 -56.75375549 65.01325131 -56.78979492 57.36328125 C-56.80482831 54.76395997 -56.82526046 52.16466383 -56.85131836 49.56542969 C-56.88794101 45.81699395 -56.90478152 42.06889528 -56.91796875 38.3203125 C-56.93345261 37.16886749 -56.94893646 36.01742249 -56.96488953 34.83108521 C-56.96729858 23.13220252 -54.34846108 14.23572203 -46.625 5.3125 C-33.4388049 -7.48226816 -15.69611952 -9.68147204 0 0 Z " fill="#FCFCFC" transform="translate(290.625,200.6875)"/>
<path d="M0 0 C5.28219093 3.10128634 9.71625514 7.17220293 11.6875 13.0859375 C12.39186484 20.23350858 12.01467778 26.17259165 7.6875 32.0859375 C3.4875 36.0859375 3.4875 36.0859375 0.6875 36.0859375 C0.70321045 37.05942139 0.7189209 38.03290527 0.73510742 39.03588867 C0.78956239 42.66064117 0.82390626 46.28535776 0.85229492 49.91040039 C0.86734622 51.47686857 0.88779207 53.04329486 0.91381836 54.60961914 C0.95036433 56.86615356 0.96726261 59.12212903 0.98046875 61.37890625 C0.99595261 62.07493454 1.01143646 62.77096283 1.02738953 63.48808289 C1.02889628 67.8788752 0.34615686 70.57836617 -2.3125 74.0859375 C-4.89796056 76.04732137 -6.10045025 76.09892014 -9.375 75.8984375 C-12.39710663 75.06253567 -13.53377815 74.61359487 -15.3125 72.0859375 C-16.55175891 68.45311424 -16.40707842 64.93474956 -16.3828125 61.125 C-16.39139665 59.75259148 -16.40187254 58.38019373 -16.4140625 57.0078125 C-16.43074375 54.85887445 -16.4375168 52.71235841 -16.41210938 50.56347656 C-16.02801115 42.31332085 -16.02801115 42.31332085 -18.8605957 34.88232422 C-20.67812789 33.28339614 -20.67812789 33.28339614 -22.62280273 32.15429688 C-24.9528486 30.6810588 -25.96082921 28.77242303 -26.875 26.20703125 C-28.13657158 20.09066191 -28.37910488 14.21914727 -25.5625 8.5859375 C-24.44875 7.3484375 -24.44875 7.3484375 -23.3125 6.0859375 C-22.69375 5.3640625 -22.075 4.6421875 -21.4375 3.8984375 C-15.30971982 -1.32819854 -7.65114719 -3.02427102 0 0 Z " fill="#FAFAFA" transform="translate(278.3125,340.9140625)"/>
<path d="M0 0 C6.60786139 4.8920643 11.80007372 11.12690349 16.08984375 18.12109375 C16.08984375 19.11109375 16.08984375 20.10109375 16.08984375 21.12109375 C14.43984375 20.79109375 12.78984375 20.46109375 11.08984375 20.12109375 C10.75984375 21.11109375 10.42984375 22.10109375 10.08984375 23.12109375 C9.68894531 22.49203125 9.28804688 21.86296875 8.875 21.21484375 C0.37169598 8.41168305 -11.86772121 -0.81894629 -27.03515625 -4.37890625 C-28.65353662 -4.60082463 -30.28070688 -4.76359137 -31.91015625 -4.87890625 C-32.97492188 -4.95882812 -34.0396875 -5.03875 -35.13671875 -5.12109375 C-52.24327201 -5.7659084 -66.42048619 0.50240555 -78.81640625 11.97265625 C-80.71901462 13.92495962 -82.34022194 15.89702015 -83.91015625 18.12109375 C-85.78515625 17.87109375 -85.78515625 17.87109375 -87.91015625 17.12109375 C-89.04296875 15.07421875 -89.04296875 15.07421875 -89.91015625 13.12109375 C-66.54348107 -15.80044995 -30.54667724 -19.72208289 0 0 Z " fill="#F2F2F2" transform="translate(308.91015625,180.87890625)"/>
<path d="M0 0 C-0.66 0.99 -1.32 1.98 -2 3 C-1.34 3.99 -0.68 4.98 0 6 C-0.80824219 6.31453125 -1.61648438 6.6290625 -2.44921875 6.953125 C-3.51785156 7.38109375 -4.58648437 7.8090625 -5.6875 8.25 C-7.27111328 8.87648438 -7.27111328 8.87648438 -8.88671875 9.515625 C-15.38934462 12.61599869 -18.98611595 17.23439199 -23 23 C-23.86625 24.2375 -23.86625 24.2375 -24.75 25.5 C-28.14992106 32.29984212 -28.2643335 39.06723603 -28.125 46.5 C-28.08375 49.635 -28.0425 52.77 -28 56 C-38.89 56.495 -38.89 56.495 -50 57 C-50 54 -50 54 -48.5 52.3125 C-48.005 51.879375 -47.51 51.44625 -47 51 C-47.66 50.34 -48.32 49.68 -49 49 C-44.71 49 -40.42 49 -36 49 C-36.061875 46.89625 -36.12375 44.7925 -36.1875 42.625 C-36.13997164 30.80232044 -32.63130893 20.68668521 -24.12890625 12.11328125 C-23.00238791 11.15150108 -21.85432735 10.21367643 -20.67578125 9.31640625 C-18.88635471 7.97866313 -18.88635471 7.97866313 -17.13671875 6.015625 C-14.73388098 3.74896268 -12.50073725 2.55184619 -9.5 1.1875 C-8.5615625 0.74792969 -7.623125 0.30835937 -6.65625 -0.14453125 C-3.86758178 -1.04264645 -2.68941917 -1.03390407 0 0 Z " fill="#F1F1F1" transform="translate(283,70)"/>
<path d="M0 0 C3.79303725 1.00193437 6.71536341 1.81024227 10 4 C11.65 2.68 13.3 1.36 15 0 C15.41176754 3.60296594 15.1535853 4.78402067 13 7.8125 C12.34 8.534375 11.68 9.25625 11 10 C6.10327576 7.82367811 2.01052629 5.11770328 0 0 Z " fill="#101010" transform="translate(209,184)"/>
<path d="M0 0 C1.71875 1.28125 1.71875 1.28125 2.46875 3.40625 C2.5925 4.334375 2.5925 4.334375 2.71875 5.28125 C0.73875 5.61125 -1.24125 5.94125 -3.28125 6.28125 C-3.28125 5.62125 -3.28125 4.96125 -3.28125 4.28125 C-5.59125 4.94125 -7.90125 5.60125 -10.28125 6.28125 C-10.94125 5.62125 -11.60125 4.96125 -12.28125 4.28125 C-10.7087335 3.38695626 -9.12271259 2.51637573 -7.53125 1.65625 C-6.64953125 1.16898437 -5.7678125 0.68171875 -4.859375 0.1796875 C-2.28125 -0.71875 -2.28125 -0.71875 0 0 Z " fill="#181818" transform="translate(455.28125,95.71875)"/>
<path d="M0 0 C1.98362069 2.91708924 1.9876191 4.12380904 1.625 7.75 C1.41875 8.8225 1.2125 9.895 1 11 C-1.31 11 -3.62 11 -6 11 C-6.3125 8.6875 -6.3125 8.6875 -6 6 C-3.5625 4.375 -3.5625 4.375 -1 3 C-0.67 2.01 -0.34 1.02 0 0 Z " fill="#181818" transform="translate(278,410)"/>
<path d="M0 0 C0.66 0.99 1.32 1.98 2 3 C1.360625 3.12375 0.72125 3.2475 0.0625 3.375 C-0.618125 3.58125 -1.29875 3.7875 -2 4 C-2.33 4.66 -2.66 5.32 -3 6 C-3.66 5.34 -4.32 4.68 -5 4 C-3.35 2.68 -1.7 1.36 0 0 Z M-7 5 C-4.48916886 6.25541557 -4.12874554 7.50063488 -3 10 C-5.8125 10.625 -5.8125 10.625 -9 11 C-9.99 10.34 -10.98 9.68 -12 9 C-10.35 7.68 -8.7 6.36 -7 5 Z " fill="#1B1B1B" transform="translate(151,79)"/>
<path d="M0 0 C0.44730469 0.39832031 0.89460937 0.79664062 1.35546875 1.20703125 C4.11818542 3.62809 6.69673917 5.82199908 9.875 7.6875 C12 9 12 9 13 12 C8.44334975 12.36945813 8.44334975 12.36945813 6.5 10.75 C6.005 10.1725 5.51 9.595 5 9 C1.68606275 6.21788481 1.68606275 6.21788481 -2 4 C-1.34 2.68 -0.68 1.36 0 0 Z " fill="#161616" transform="translate(185,74)"/>
<path d="M0 0 C0.66 0 1.32 0 2 0 C2 0.66 2 1.32 2 2 C2.66 2 3.32 2 4 2 C4 1.34 4 0.68 4 0 C5.32 0 6.64 0 8 0 C6.77946141 3.66161578 5.63217696 4.16270474 2.4375 6.1875 C1.61121094 6.71730469 0.78492188 7.24710938 -0.06640625 7.79296875 C-0.70449219 8.19128906 -1.34257812 8.58960938 -2 9 C-2.125 5.625 -2.125 5.625 -2 2 C-1.34 1.34 -0.68 0.68 0 0 Z " fill="#171717" transform="translate(228,177)"/>
<path d="M0 0 C0.66 0.66 1.32 1.32 2 2 C1.69728039 3.34061543 1.36162029 4.67405895 1 6 C1.33 6.99 1.66 7.98 2 9 C1.34 9 0.68 9 0 9 C-0.33 9.66 -0.66 10.32 -1 11 C-1 10.34 -1 9.68 -1 9 C-1.66 9 -2.32 9 -3 9 C-3 9.66 -3 10.32 -3 11 C-4.98 11.99 -4.98 11.99 -7 13 C-5.54331217 10.03216871 -3.98767914 7.13584687 -2.375 4.25 C-1.92898438 3.45078125 -1.48296875 2.6515625 -1.0234375 1.828125 C-0.68570312 1.22484375 -0.34796875 0.6215625 0 0 Z " fill="#1E1E1E" transform="translate(366,294)"/>
<path d="M0 0 C0.763125 0.20625 1.52625 0.4125 2.3125 0.625 C2.3125 1.945 2.3125 3.265 2.3125 4.625 C2.9725 4.955 3.6325 5.285 4.3125 5.625 C3.9825 6.285 3.6525 6.945 3.3125 7.625 C-0.62423644 6.31275452 -2.91469294 4.70589673 -5.6875 1.625 C-2.6875 -0.375 -2.6875 -0.375 0 0 Z " fill="#161616" transform="translate(211.6875,442.375)"/>
<path d="M0 0 C0.99 0.33 1.98 0.66 3 1 C2.04663979 2.31611677 1.08714226 3.62778961 0.125 4.9375 C-0.40867188 5.66839844 -0.94234375 6.39929688 -1.4921875 7.15234375 C-3 9 -3 9 -5 10 C-5.33 7.03 -5.66 4.06 -6 1 C-3.03 1.495 -3.03 1.495 0 2 C0 1.34 0 0.68 0 0 Z " fill="#181818" transform="translate(208,129)"/>
<path d="M0 0 C1.65 0 3.3 0 5 0 C4 3 4 3 2 4 C2 4.99 2 5.98 2 7 C1.01 7.495 1.01 7.495 0 8 C0 7.34 0 6.68 0 6 C-2.97 5.505 -2.97 5.505 -6 5 C-4.6875 3.5 -4.6875 3.5 -3 2 C-2.01 2 -1.02 2 0 2 C0 1.34 0 0.68 0 0 Z " fill="#1D1D1D" transform="translate(311,79)"/>
<path d="M0 0 C-0.33 0.33 -0.66 0.66 -1 1 C-0.34 1.33 0.32 1.66 1 2 C1 2.66 1 3.32 1 4 C-3.01804691 4.84098656 -6.01803543 5.05404945 -10 4 C-7.39928297 0.98864344 -3.94054294 -1.97027147 0 0 Z " fill="#151515" transform="translate(211,280)"/>
<path d="M0 0 C0.99 0.33 1.98 0.66 3 1 C3.94921875 3.28515625 3.94921875 3.28515625 4.6875 6.0625 C4.93886719 6.98160156 5.19023437 7.90070313 5.44921875 8.84765625 C5.63097656 9.55792969 5.81273437 10.26820312 6 11 C4.35 11.33 2.7 11.66 1 12 C1.20625 11.38125 1.4125 10.7625 1.625 10.125 C1.74875 9.42375 1.8725 8.7225 2 8 C1.34 7.34 0.68 6.68 0 6 C0 4 0 2 0 0 Z " fill="#1B1B1B" transform="translate(497,113)"/>
<path d="M0 0 C0.33 0 0.66 0 1 0 C1.33 2.64 1.66 5.28 2 8 C-3.61 8 -9.22 8 -15 8 C-15 7.67 -15 7.34 -15 7 C-8.565 6.505 -8.565 6.505 -2 6 C-1.34 4.02 -0.68 2.04 0 0 Z " fill="#404040" transform="translate(301,60)"/>
<path d="M0 0 C0.66 0.99 1.32 1.98 2 3 C1 6 1 6 -1 7 C-2.05352843 9.30965848 -3.05719096 11.6429774 -4 14 C-4.66 14 -5.32 14 -6 14 C-4.45941767 8.98491285 -2.97068161 4.3852919 0 0 Z " fill="#252525" transform="translate(223,201)"/>
<path d="M0 0 C0.99 0.66 1.98 1.32 3 2 C2.34 2.66 1.68 3.32 1 4 C1.3185177 6.10820797 1.3185177 6.10820797 2 8 C-1.36541838 9.08174162 -2.29847322 8.92538169 -6 8 C-4.02 5.36 -2.04 2.72 0 0 Z " fill="#E5E5E5" transform="translate(347,430)"/>
<path d="M0 0 C0.33 1.32 0.66 2.64 1 4 C1.66 4 2.32 4 3 4 C5.08937386 5.89943078 6.73220443 7.46440887 8 10 C7.34 10.66 6.68 11.32 6 12 C3.47290372 9.81321095 1.07391145 7.62767838 -1 5 C-0.9375 2.0625 -0.9375 2.0625 0 0 Z " fill="#202020" transform="translate(132,385)"/>
<path d="M0 0 C2.64 0 5.28 0 8 0 C5.11912454 2.40072955 2.43595166 4.47291037 -1 6 C-0.67 4.02 -0.34 2.04 0 0 Z " fill="#191919" transform="translate(459,208)"/>
<path d="M0 0 C0.66 1.32 1.32 2.64 2 4 C0.75 6 0.75 6 -1 8 C-2.32 8 -3.64 8 -5 8 C-3.8141763 4.62496331 -2.72426311 2.35277269 0 0 Z " fill="#1C1C1C" transform="translate(213,138)"/>
<path d="M0 0 C0 0.66 0 1.32 0 2 C-3.465 3.485 -3.465 3.485 -7 5 C-7.99 4.01 -8.98 3.02 -10 2 C-3.375 -1.125 -3.375 -1.125 0 0 Z " fill="#1A1A1A" transform="translate(207,80)"/>
<path d="M0 0 C0.66 0.33 1.32 0.66 2 1 C2 1.99 2 2.98 2 4 C1.34 4 0.68 4 0 4 C0 6.97 0 9.94 0 13 C-0.33 13 -0.66 13 -1 13 C-1.12375 11.865625 -1.2475 10.73125 -1.375 9.5625 C-1.58125 8.386875 -1.7875 7.21125 -2 6 C-2.66 5.67 -3.32 5.34 -4 5 C-4 4.34 -4 3.68 -4 3 C-2 1.375 -2 1.375 0 0 Z " fill="#2E2E2E" transform="translate(446,216)"/>
<path d="M0 0 C0.33 1.32 0.66 2.64 1 4 C-1.875 4.125 -1.875 4.125 -5 4 C-5.66 3.34 -6.32 2.68 -7 2 C-7 1.34 -7 0.68 -7 0 C-3.86650268 -1.04449911 -3.01031744 -0.93423645 0 0 Z " fill="#1C1C1C" transform="translate(262,177)"/>
<path d="M0 0 C0.33 0.66 0.66 1.32 1 2 C0.00390625 4.3828125 0.00390625 4.3828125 -1.4375 7.125 C-1.91058594 8.03507812 -2.38367188 8.94515625 -2.87109375 9.8828125 C-3.24363281 10.58148438 -3.61617188 11.28015625 -4 12 C-4.66 10.68 -5.32 9.36 -6 8 C-4.02 5.36 -2.04 2.72 0 0 Z " fill="#1A1A1A" transform="translate(322,70)"/>
<path d="M0 0 C-0.25 2.875 -0.25 2.875 -1 6 C-3.0625 7.375 -3.0625 7.375 -5 8 C-6 5 -6 5 -5.1875 2.875 C-3.68508471 0.50276534 -2.80531948 0 0 0 Z " fill="#181818" transform="translate(166,70)"/>
<path d="M0 0 C2.875 -0.1875 2.875 -0.1875 6 0 C6.66 0.99 7.32 1.98 8 3 C5.525 4.485 5.525 4.485 3 6 C0.8614515 3.8614515 0.57344937 2.86724686 0 0 Z " fill="#191919" transform="translate(271,474)"/>
<path d="M0 0 C2.6244603 2.3745117 4.50692877 4.77810946 6 8 C5.1875 10.3125 5.1875 10.3125 4 12 C3 10 2 8 1 6 C0.5875 5.2575 0.175 4.515 -0.25 3.75 C-0.4975 3.1725 -0.745 2.595 -1 2 C-0.67 1.34 -0.34 0.68 0 0 Z " fill="#171717" transform="translate(285,342)"/>
<path d="M0 0 C0.66 0 1.32 0 2 0 C2.66 0.99 3.32 1.98 4 3 C5.97747122 3.36297936 5.97747122 3.36297936 8.125 3.1875 C9.40375 3.125625 10.6825 3.06375 12 3 C11.67 3.66 11.34 4.32 11 5 C8.93359375 5.4140625 8.93359375 5.4140625 6.4375 5.625 C5.61121094 5.69976562 4.78492187 5.77453125 3.93359375 5.8515625 C2.97646484 5.92503906 2.97646484 5.92503906 2 6 C1.34 4.02 0.68 2.04 0 0 Z " fill="#1D1D1D" transform="translate(86,326)"/>
<path d="M0 0 C0.66 0.33 1.32 0.66 2 1 C2 1.99 2 2.98 2 4 C-0.31 4.33 -2.62 4.66 -5 5 C-5 5.66 -5 6.32 -5 7 C-6.32 7.33 -7.64 7.66 -9 8 C-6.14723863 5.06799526 -3.34920216 2.35684596 0 0 Z " fill="#E3E3E3" transform="translate(253,199)"/>
<path d="M0 0 C2.31 0.66 4.62 1.32 7 2 C7 3.65 7 5.3 7 7 C3.17053157 5.54744301 1.87949705 3.57104439 0 0 Z " fill="#1E1E1E" transform="translate(209,184)"/>
<path d="M0 0 C0.88935377 3.303314 1.46274105 6.62294375 2 10 C0.68 10 -0.64 10 -2 10 C-2 10.66 -2 11.32 -2 12 C-2.66 12 -3.32 12 -4 12 C-2.66666667 8 -1.33333333 4 0 0 Z " fill="#363636" transform="translate(373,277)"/>
<path d="M0 0 C0.33 0 0.66 0 1 0 C1.66 3.63 2.32 7.26 3 11 C2.01 11 1.02 11 0 11 C-1.37432457 7.18243176 -0.67975039 3.92744671 0 0 Z " fill="#2E2E2E" transform="translate(164,265)"/>
<path d="M0 0 C-1.20703125 1.51953125 -1.20703125 1.51953125 -3 3 C-5.26171875 3.07421875 -5.26171875 3.07421875 -7.6875 2.6875 C-8.89986328 2.50767578 -8.89986328 2.50767578 -10.13671875 2.32421875 C-10.75160156 2.21722656 -11.36648437 2.11023438 -12 2 C-12 1.67 -12 1.34 -12 1 C-3.96428571 -1.27678571 -3.96428571 -1.27678571 0 0 Z " fill="#232323" transform="translate(233,72)"/>
<path d="M0 0 C2.475 0.99 2.475 0.99 5 2 C5 2.66 5 3.32 5 4 C5.66 4.33 6.32 4.66 7 5 C6.01 5.495 6.01 5.495 5 6 C2.64018187 5.06421005 0.30368736 4.06652192 -2 3 C-1.34 2.01 -0.68 1.02 0 0 Z " fill="#191919" transform="translate(233,456)"/>
<path d="M0 0 C3.06630664 0.8974556 4.73038808 1.73038808 7 4 C0.9453125 4.1953125 0.9453125 4.1953125 -1 4 C-1.66 3.34 -2.32 2.68 -3 2 C-2.01 1.34 -1.02 0.68 0 0 Z " fill="#1D1D1D" transform="translate(446,265)"/>
<path d="M0 0 C0.66 0 1.32 0 2 0 C2.33 0.99 2.66 1.98 3 3 C1.0625 5.6875 1.0625 5.6875 -1 8 C-1.66 7.01 -2.32 6.02 -3 5 C-1.625 2.5 -1.625 2.5 0 0 Z " fill="#1B1B1B" transform="translate(254,82)"/>
<path d="M0 0 C4.62 0 9.24 0 14 0 C14 0.33 14 0.66 14 1 C5.57142857 3.28571429 5.57142857 3.28571429 1 3 C0.67 2.01 0.34 1.02 0 0 Z " fill="#141414" transform="translate(276,41)"/>
<path d="M0 0 C0.99 0.66 1.98 1.32 3 2 C2.34 3.32 1.68 4.64 1 6 C-1.475 5.01 -1.475 5.01 -4 4 C-2.68 2.68 -1.36 1.36 0 0 Z " fill="#212121" transform="translate(253,464)"/>
<path d="M0 0 C2.475 0.99 2.475 0.99 5 2 C2.82575883 4.50037734 1.26954202 5.43628586 -2 6 C-2 3 -2 3 0 1 C0 0.67 0 0.34 0 0 Z " fill="#1A1A1A" transform="translate(321,448)"/>
<path d="M0 0 C2.31 0.33 4.62 0.66 7 1 C7.66 2.65 8.32 4.3 9 6 C7.6078125 5.505 7.6078125 5.505 6.1875 5 C3.07970709 3.85032996 3.07970709 3.85032996 0 4 C0 2.68 0 1.36 0 0 Z " fill="#070707" transform="translate(331,281)"/>
<path d="M0 0 C1.625 1.6875 1.625 1.6875 3 4 C2.1875 6.75 2.1875 6.75 1 9 C-0.61949011 6.42786866 -1.04408751 5.32330841 -0.625 2.25 C-0.41875 1.5075 -0.2125 0.765 0 0 Z M-3 6 C-2.01 6.495 -2.01 6.495 -1 7 C-1.66 7.66 -2.32 8.32 -3 9 C-3 8.01 -3 7.02 -3 6 Z " fill="#181818" transform="translate(453,321)"/>
<path d="M0 0 C0.99 0.33 1.98 0.66 3 1 C3.6875 3.0625 3.6875 3.0625 4 5 C3.01 5.66 2.02 6.32 1 7 C-0.0625 5.1875 -0.0625 5.1875 -1 3 C-0.67 2.01 -0.34 1.02 0 0 Z " fill="#F8F8F8" transform="translate(303,180)"/>
<path d="M0 0 C1.32 0.66 2.64 1.32 4 2 C1.69 3.65 -0.62 5.3 -3 7 C-3.33 6.01 -3.66 5.02 -4 4 C-3.34 4 -2.68 4 -2 4 C-1.34 2.68 -0.68 1.36 0 0 Z " fill="#2B2B2B" transform="translate(261,76)"/>
<path d="M0 0 C0.763125 0.20625 1.52625 0.4125 2.3125 0.625 C0.26016315 2.8727975 -0.69417261 3.6272242 -3.6875 4.625 C-3.6875 3.965 -3.6875 3.305 -3.6875 2.625 C-4.3475 2.295 -5.0075 1.965 -5.6875 1.625 C-2.6875 -0.375 -2.6875 -0.375 0 0 Z " fill="#131313" transform="translate(265.6875,73.375)"/>
<path d="M0 0 C0.66 0.33 1.32 0.66 2 1 C0.68 2.32 -0.64 3.64 -2 5 C-2.66 4.67 -3.32 4.34 -4 4 C-4.33 4.66 -4.66 5.32 -5 6 C-5.66 5.34 -6.32 4.68 -7 4 C-1.7265625 0.77734375 -1.7265625 0.77734375 0 0 Z " fill="#E7E7E7" transform="translate(288,470)"/>
<path d="M0 0 C1.32 0.66 2.64 1.32 4 2 C1.6875 3.5625 1.6875 3.5625 -1 5 C-1.99 4.67 -2.98 4.34 -4 4 C-4 3.34 -4 2.68 -4 2 C-2.68 2 -1.36 2 0 2 C0 1.34 0 0.68 0 0 Z " fill="#191919" transform="translate(534,193)"/>
<path d="M0 0 C2.46800047 1.15173355 4.04783565 2.04783565 6 4 C4.35 3.67 2.7 3.34 1 3 C0.34 4.32 -0.32 5.64 -1 7 C-1.66 6.34 -2.32 5.68 -3 5 C-2.01 3.35 -1.02 1.7 0 0 Z " fill="#E9E9E9" transform="translate(303,178)"/>
<path d="M0 0 C1.98 1.65 3.96 3.3 6 5 C5.34 5.66 4.68 6.32 4 7 C2.68 6.34 1.36 5.68 0 5 C0 3.35 0 1.7 0 0 Z " fill="#191919" transform="translate(490,103)"/>
<path d="M0 0 C1.0625 1.8125 1.0625 1.8125 2 4 C1.67 4.99 1.34 5.98 1 7 C-1.475 6.01 -1.475 6.01 -4 5 C-2.68 3.35 -1.36 1.7 0 0 Z " fill="#282828" transform="translate(328,63)"/>
<path d="M0 0 C0.99 0.33 1.98 0.66 3 1 C2.67 2.32 2.34 3.64 2 5 C0.68 5.33 -0.64 5.66 -2 6 C-1.67 5.34 -1.34 4.68 -1 4 C-1.66 3.34 -2.32 2.68 -3 2 C-2.01 1.34 -1.02 0.68 0 0 Z " fill="#202020" transform="translate(342,53)"/>
<path d="M0 0 C0.66 1.32 1.32 2.64 2 4 C1.34 4.66 0.68 5.32 0 6 C-1.65 4.35 -3.3 2.7 -5 1 C-3.35 0.67 -1.7 0.34 0 0 Z " fill="#252525" transform="translate(149,400)"/>
<path d="M0 0 C1.32 1.32 2.64 2.64 4 4 C2.35 4.66 0.7 5.32 -1 6 C-1.625 4.125 -1.625 4.125 -2 2 C-1.34 1.34 -0.68 0.68 0 0 Z " fill="#EEEEEE" transform="translate(132,391)"/>
<path d="M0 0 C0.763125 0.20625 1.52625 0.4125 2.3125 0.625 C-0.35309313 2.40206209 -2.7155615 3.50048273 -5.6875 4.625 C-5.6875 3.635 -5.6875 2.645 -5.6875 1.625 C-2.6875 -0.375 -2.6875 -0.375 0 0 Z " fill="#1B1B1B" transform="translate(303.6875,459.375)"/>
<path d="M0 0 C0.66 0.33 1.32 0.66 2 1 C2 1.66 2 2.32 2 3 C0.35 3.33 -1.3 3.66 -3 4 C-2.01 2.68 -1.02 1.36 0 0 Z M-6 5 C-5.34 5.33 -4.68 5.66 -4 6 C-4 6.66 -4 7.32 -4 8 C-4.99 7.67 -5.98 7.34 -7 7 C-6.67 6.34 -6.34 5.68 -6 5 Z " fill="#EAEAEA" transform="translate(396,402)"/>
<path d="M0 0 C0.33 0.66 0.66 1.32 1 2 C2.32 1.67 3.64 1.34 5 1 C4.34 2.98 3.68 4.96 3 7 C1.5 5.75 1.5 5.75 0 4 C0 2.68 0 1.36 0 0 Z " fill="#141414" transform="translate(123,336)"/>
<path d="M0 0 C0.66 0.66 1.32 1.32 2 2 C0.35 3.32 -1.3 4.64 -3 6 C-3.66 5.01 -4.32 4.02 -5 3 C-3.35 2.01 -1.7 1.02 0 0 Z " fill="#F1F1F1" transform="translate(137,87)"/>
<path d="M0 0 C-2.17413762 2.17413762 -3.06553116 2.46646021 -6 3 C-6.99 3 -7.98 3 -9 3 C-5.83583464 -0.30799106 -4.50236011 -1.35070803 0 0 Z " fill="#262626" transform="translate(177,66)"/>
<path d="M0 0 C2.64 0.99 5.28 1.98 8 3 C6.02 3.99 6.02 3.99 4 5 C2 3.625 2 3.625 0 2 C0 1.34 0 0.68 0 0 Z " fill="#1B1B1B" transform="translate(330,278)"/>
<path d="M0 0 C2.125 0.9375 2.125 0.9375 4 2 C-0.75 5 -0.75 5 -3 5 C-2.625 3.0625 -2.625 3.0625 -2 1 C-1.34 0.67 -0.68 0.34 0 0 Z " fill="#1D1D1D" transform="translate(253,196)"/>
<path d="M0 0 C2.475 0.495 2.475 0.495 5 1 C4.34 2.32 3.68 3.64 3 5 C2.01 4.67 1.02 4.34 0 4 C0 2.68 0 1.36 0 0 Z " fill="#1B1B1B" transform="translate(179,176)"/>
<path d="M0 0 C1.32 1.32 2.64 2.64 4 4 C3.34 4.66 2.68 5.32 2 6 C0.68 5.34 -0.64 4.68 -2 4 C-1.34 2.68 -0.68 1.36 0 0 Z " fill="#1D1D1D" transform="translate(185,74)"/>
</svg>
