<?xml version="1.0" encoding="UTF-8"?>
<svg version="1.1" xmlns="http://www.w3.org/2000/svg" width="512" height="512">
<path d="M0 0 C0.6686279 -0.00226556 1.33725581 -0.00453111 2.02614516 -0.00686532 C4.24748452 -0.01315213 6.46876203 -0.01237941 8.69010925 -0.0115509 C10.29066038 -0.01454572 11.89121079 -0.01794899 13.49176025 -0.02172852 C17.82659355 -0.03053991 22.16140709 -0.03290543 26.49624848 -0.0335443 C29.20818107 -0.03425643 31.92010868 -0.03639384 34.63204002 -0.03904152 C44.1035481 -0.0482855 53.57504213 -0.0523776 63.04655457 -0.05158997 C71.85848882 -0.05098944 80.6703618 -0.06153881 89.48228055 -0.07733363 C97.06213601 -0.09043318 104.6419715 -0.09577285 112.22183818 -0.09513456 C116.7425675 -0.09488028 121.26324235 -0.09769263 125.78396034 -0.10831261 C130.03819949 -0.11803429 134.29233253 -0.118045 138.54657555 -0.11079597 C140.10172558 -0.10975518 141.65688236 -0.11208281 143.21202087 -0.11815643 C156.74449277 -0.16755557 168.3125336 0.34159911 178.81974792 9.76652527 C186.35098459 17.9032885 188.11790156 27.30823849 188.13314819 38.13427734 C188.13541375 38.80290525 188.13767931 39.47153315 188.14001352 40.1604225 C188.14630033 42.38176186 188.1455276 44.60303937 188.1446991 46.8243866 C188.14769391 48.42493772 188.15109719 50.02548813 188.15487671 51.6260376 C188.16368811 55.9608709 188.16605362 60.29568444 188.1666925 64.63052583 C188.16740462 67.34245841 188.16954203 70.05438602 188.17218971 72.76631737 C188.18143369 82.23782544 188.18552579 91.70931947 188.18473816 101.18083191 C188.18413763 109.99276616 188.194687 118.80463914 188.21048182 127.6165579 C188.22358137 135.19641335 188.22892104 142.77624884 188.22828275 150.35611552 C188.22802847 154.87684485 188.23084083 159.39751969 188.2414608 163.91823769 C188.25118249 168.17247684 188.2511932 172.42660987 188.24394417 176.68085289 C188.24290337 178.23600292 188.245231 179.7911597 188.25130463 181.34629822 C188.30070377 194.87877011 187.79154908 206.44681094 178.36662292 216.95402527 C170.2298597 224.48526193 160.8249097 226.25217891 149.99887085 226.26742554 C149.33024295 226.26969109 148.66161504 226.27195665 147.97272569 226.27429086 C145.75138633 226.28057767 143.53010882 226.27980495 141.3087616 226.27897644 C139.70821047 226.28197126 138.10766006 226.28537453 136.5071106 226.28915405 C132.1722773 226.29796545 127.83746376 226.30033096 123.50262237 226.30096984 C120.79068978 226.30168197 118.07876217 226.30381938 115.36683083 226.30646706 C105.89532275 226.31571104 96.42382872 226.31980313 86.95231628 226.3190155 C78.14038203 226.31841497 69.32850905 226.32896435 60.5165903 226.34475917 C52.93673484 226.35785871 45.35689935 226.36319839 37.77703267 226.36256009 C33.25630335 226.36230582 28.7356285 226.36511817 24.21491051 226.37573814 C19.96067136 226.38545983 15.70653832 226.38547054 11.4522953 226.37822151 C9.89714527 226.37718071 8.34198849 226.37950834 6.78684998 226.38558197 C-6.74562192 226.43498111 -18.31366275 225.92582642 -28.82087708 216.50090027 C-36.35211374 208.36413704 -38.11903071 198.95918704 -38.13427734 188.13314819 C-38.1365429 187.46452029 -38.13880846 186.79589239 -38.14114267 186.10700303 C-38.14742948 183.88566367 -38.14665675 181.66438616 -38.14582825 179.44303894 C-38.14882306 177.84248781 -38.15222634 176.24193741 -38.15600586 174.64138794 C-38.16481726 170.30655464 -38.16718277 165.9717411 -38.16782165 161.63689971 C-38.16853378 158.92496712 -38.17067118 156.21303952 -38.17331886 153.50110817 C-38.18256284 144.02960009 -38.18665494 134.55810607 -38.18586731 125.08659363 C-38.18526678 116.27465938 -38.19581615 107.46278639 -38.21161097 98.65086764 C-38.22471052 91.07101219 -38.23005019 83.4911767 -38.2294119 75.91131002 C-38.22915762 71.39058069 -38.23196998 66.86990584 -38.24258995 62.34918785 C-38.25231164 58.0949487 -38.25232235 53.84081566 -38.24507332 49.58657265 C-38.24403252 48.03142262 -38.24636015 46.47626584 -38.25243378 44.92112732 C-38.30183292 31.38865543 -37.79267823 19.82061459 -28.36775208 9.31340027 C-20.23098885 1.78216361 -10.82603885 0.01524663 0 0 Z M52.99943542 36.13371277 C50.65913511 40.45241129 50.7632284 44.66003346 50.87443542 49.44621277 C50.88345886 50.18677917 50.8924823 50.92734558 50.90177917 51.69035339 C50.92519329 53.50494744 50.96105927 55.31937348 50.99943542 57.13371277 C50.29858826 57.12323914 49.59774109 57.1127655 48.87565613 57.10197449 C45.68778598 57.06029609 42.49997328 57.03434891 39.31193542 57.00871277 C37.65774597 56.98357605 37.65774597 56.98357605 35.97013855 56.95793152 C34.37008972 56.94826355 34.37008972 56.94826355 32.73771667 56.93840027 C31.75843201 56.92792664 30.77914734 56.917453 29.77018738 56.90666199 C25.67308427 57.24240134 22.91424656 58.21890163 19.99943542 61.13371277 C18.87766338 64.34636169 18.88379573 67.39344965 18.90177917 70.77433777 C18.90661316 72.37922058 18.90661316 72.37922058 18.9115448 74.01652527 C18.91992371 75.12769714 18.92830261 76.23886902 18.93693542 77.38371277 C18.94144714 78.51035339 18.94595886 79.63699402 18.9506073 80.79777527 C18.96238145 83.57647494 18.97882703 86.35506686 18.99943542 89.13371277 C17.9140448 89.09890808 16.82865417 89.06410339 15.71037292 89.02824402 C14.265076 89.00008888 12.81976221 88.97279058 11.37443542 88.94621277 C10.66158386 88.92107605 9.9487323 88.89593933 9.21427917 88.87004089 C4.40074851 88.80379965 1.17712036 89.47927603 -3.00056458 92.13371277 C-4.42098278 94.97454918 -4.3150873 96.98848555 -4.00056458 100.13371277 C-1.76850027 102.98151896 -0.45063459 103.98368943 2.99943542 105.13371277 C5.74025701 105.20427975 8.44790519 105.22707431 11.18693542 105.19621277 C15.05412292 105.16527527 15.05412292 105.16527527 18.99943542 105.13371277 C18.99943542 110.41371277 18.99943542 115.69371277 18.99943542 121.13371277 C11.37443542 120.94621277 11.37443542 120.94621277 9.00871277 120.8634491 C4.28261126 120.80765734 1.09539228 121.5312048 -3.00056458 124.13371277 C-4.42098278 126.97454918 -4.3150873 128.98848555 -4.00056458 132.13371277 C-1.76850027 134.98151896 -0.45063459 135.98368943 2.99943542 137.13371277 C5.73808829 137.20422391 8.4497113 137.22729042 11.18693542 137.19621277 C11.93652527 137.19170105 12.68611511 137.18718933 13.4584198 137.18254089 C15.30545925 137.17077631 17.15245756 137.15284142 18.99943542 137.13371277 C18.98896179 137.83455994 18.97848816 138.5354071 18.96769714 139.25749207 C18.92601874 142.44536222 18.90007157 145.63317492 18.87443542 148.82121277 C18.85767761 149.92400574 18.8409198 151.02679871 18.82365417 152.16300964 C18.81720886 153.22970886 18.81076355 154.29640808 18.80412292 155.39543152 C18.79364929 156.37471619 18.78317566 157.35400085 18.77238464 158.36296082 C19.10812399 162.46006392 20.08462429 165.21890163 22.99943542 168.13371277 C26.21208435 169.25548481 29.25917231 169.24935247 32.64006042 169.23136902 C34.24494324 169.22653503 34.24494324 169.22653503 35.88224792 169.22160339 C37.54900574 169.20903503 37.54900574 169.20903503 39.24943542 169.19621277 C40.37607605 169.19170105 41.50271667 169.18718933 42.66349792 169.18254089 C45.4421976 169.17076674 48.22078952 169.15432116 50.99943542 169.13371277 C50.96463074 170.21910339 50.92982605 171.30449402 50.89396667 172.42277527 C50.86581154 173.86807219 50.83851324 175.31338598 50.81193542 176.75871277 C50.78679871 177.47156433 50.76166199 178.18441589 50.73576355 178.91886902 C50.66959755 183.7269314 51.30907592 186.98161227 53.99943542 191.13371277 C56.79642246 192.87173011 56.79642246 192.87173011 59.99943542 193.13371277 C62.94394436 191.82504213 64.54644974 191.03968414 65.99943542 188.13371277 C66.08285701 186.68522695 66.10676403 185.23300408 66.09709167 183.78215027 C66.09386902 182.93136902 66.09064636 182.08058777 66.08732605 181.20402527 C66.07894714 180.31457214 66.07056824 179.42511902 66.06193542 178.50871277 C66.05742371 177.61152527 66.05291199 176.71433777 66.04826355 175.78996277 C66.03646154 173.57118446 66.01852581 171.35244034 65.99943542 169.13371277 C71.93943542 169.13371277 77.87943542 169.13371277 83.99943542 169.13371277 C83.95302917 170.45886902 83.90662292 171.78402527 83.85881042 173.14933777 C83.82128851 174.89410689 83.7848888 176.63890039 83.74943542 178.38371277 C83.7159198 179.25640808 83.68240417 180.12910339 83.64787292 181.02824402 C83.51671835 186.20731747 83.51671835 186.20731747 85.82756042 190.71183777 C88.79812405 192.65659525 90.51646216 192.71420831 93.99943542 192.13371277 C96.84724161 189.90164846 97.84941209 188.58378278 98.99943542 185.13371277 C99.06994657 182.3950599 99.09301308 179.68343689 99.06193542 176.94621277 C99.05742371 176.19662292 99.05291199 175.44703308 99.04826355 174.67472839 C99.03649897 172.82768894 99.01856408 170.98069064 98.99943542 169.13371277 C99.69504578 169.14942322 100.39065613 169.16513367 101.10734558 169.18132019 C104.27962513 169.2439414 107.45177428 169.28278954 110.62443542 169.32121277 C111.71884949 169.34634949 112.81326355 169.37148621 113.94084167 169.39738464 C121.95275106 169.57814129 121.95275106 169.57814129 128.99943542 166.13371277 C130.85079172 162.45649217 131.23846814 159.48327129 131.19474792 155.39543152 C131.18830261 154.3287323 131.1818573 153.26203308 131.17521667 152.16300964 C131.15845886 151.06021667 131.14170105 149.95742371 131.12443542 148.82121277 C131.11541199 147.69908386 131.10638855 146.57695496 131.09709167 145.42082214 C131.07358028 142.65823367 131.04071697 139.89608345 130.99943542 137.13371277 C132.62752136 137.1859198 132.62752136 137.1859198 134.28849792 137.23918152 C135.73379485 137.26733665 137.17910864 137.29463496 138.62443542 137.32121277 C139.33728699 137.34634949 140.05013855 137.37148621 140.78459167 137.39738464 C145.59812234 137.46362589 148.82175049 136.7881495 152.99943542 134.13371277 C154.41985363 131.29287636 154.31395815 129.27893999 153.99943542 126.13371277 C151.76737112 123.28590658 150.44950544 122.28373611 146.99943542 121.13371277 C144.25861384 121.06314579 141.55096566 121.04035123 138.81193542 121.07121277 C134.94474792 121.10215027 134.94474792 121.10215027 130.99943542 121.13371277 C130.99943542 115.85371277 130.99943542 110.57371277 130.99943542 105.13371277 C138.62443542 105.32121277 138.62443542 105.32121277 140.99015808 105.40397644 C145.71625959 105.45976819 148.90347857 104.73622074 152.99943542 102.13371277 C154.41985363 99.29287636 154.31395815 97.27893999 153.99943542 94.13371277 C151.76737112 91.28590658 150.44950544 90.28373611 146.99943542 89.13371277 C144.26078256 89.06320162 141.54915955 89.04013511 138.81193542 89.07121277 C138.06234558 89.07572449 137.31275574 89.08023621 136.54045105 89.08488464 C134.6934116 89.09664923 132.84641329 89.11458411 130.99943542 89.13371277 C131.01514587 88.18903137 131.01514587 88.18903137 131.03117371 87.2252655 C131.07303772 84.34062271 131.09885744 81.45604411 131.12443542 78.57121277 C131.14957214 77.08524597 131.14957214 77.08524597 131.17521667 75.56925964 C131.30361865 67.60945975 131.30361865 67.60945975 128.99943542 60.13371277 C123.14653721 56.21854476 116.89893225 56.78069888 110.06193542 56.94621277 C108.46382019 56.9665155 108.46382019 56.9665155 106.8334198 56.98722839 C104.22155954 57.02236553 101.61076909 57.07156092 98.99943542 57.13371277 C99.03424011 56.04832214 99.0690448 54.96293152 99.10490417 53.84465027 C99.13305931 52.39935335 99.16035761 50.95403956 99.18693542 49.50871277 C99.21207214 48.79586121 99.23720886 48.08300964 99.2631073 47.34855652 C99.32934855 42.53502585 98.65387216 39.3113977 95.99943542 35.13371277 C93.15859901 33.71329456 91.14466265 33.81919005 87.99943542 34.13371277 C85.62557881 35.47646605 85.62557881 35.47646605 83.99943542 38.13371277 C83.50782848 41.39712199 83.62306002 44.59309164 83.74943542 47.88371277 C83.7674823 48.77187683 83.78552917 49.66004089 83.80412292 50.57511902 C83.8511479 52.76178052 83.92288895 54.94788557 83.99943542 57.13371277 C78.05943542 57.13371277 72.11943542 57.13371277 65.99943542 57.13371277 C66.03424011 55.80855652 66.0690448 54.48340027 66.10490417 53.11808777 C66.13304577 51.37330879 66.16034553 49.62851609 66.18693542 47.88371277 C66.21207214 47.01101746 66.23720886 46.13832214 66.2631073 45.23918152 C66.3599203 40.21200197 66.3599203 40.21200197 64.63615417 35.58293152 C60.52449571 31.94229836 57.02450591 32.87014211 52.99943542 36.13371277 Z " fill="#2A8CFF" transform="translate(181.0005645751953,142.8662872314453)"/>
<path d="M0 0 C27.06 0 54.12 0 82 0 C82 27.06 82 54.12 82 82 C54.94 82 27.88 82 0 82 C0 54.94 0 27.88 0 0 Z " fill="#2A8CFF" transform="translate(215,215)"/>
<path d="M0 0 C8.81093482 2.23144718 15.9370923 15.30435326 20.34863281 22.60009766 C29.79474472 39.40178851 34.49934046 56.82168308 34.47265625 76.09375 C34.47211243 76.75666046 34.4715686 77.41957092 34.4710083 78.10256958 C34.43083495 88.76345207 33.56141399 98.42951692 30.09765625 108.53125 C29.87803223 109.17545898 29.6584082 109.81966797 29.43212891 110.48339844 C24.84051757 123.64406786 18.08673099 134.89921412 9.09765625 145.53125 C8.5871875 146.16417969 8.07671875 146.79710937 7.55078125 147.44921875 C4.36010645 151.4000249 4.36010645 151.4000249 2.09765625 152.53125 C-4.95447645 153.09997038 -4.95447645 153.09997038 -8.40234375 151.03125 C-10.05398392 148.27851639 -10.76896128 146.0927295 -10.61328125 142.859375 C-9.31805197 138.61785493 -6.22914779 135.66236135 -3.34765625 132.37890625 C12.89590462 113.4626828 17.64963598 90.89296076 16.359375 66.65039062 C14.80288824 48.10032081 6.25972341 31.38611023 -5.90234375 17.53125 C-10.46362532 12.32182895 -10.46362532 12.32182895 -10.40234375 8.46875 C-9.90234375 4.53125 -9.90234375 4.53125 -8.40234375 2.03125 C-5.57118692 0.3325559 -3.28450216 0.0522386 0 0 Z " fill="#515CFF" transform="translate(445.90234375,179.46875)"/>
<path d="M0 0 C2.5 1.5 2.5 1.5 4 4 C4.78714915 7.45134629 4.99565921 8.72697665 4 12 C2.02315809 14.89196423 -0.18179287 17.45776328 -2.48828125 20.09375 C-16.95343096 36.83103054 -24.19794631 59.00407701 -22.78515625 81.1015625 C-20.90671326 103.08162085 -12.2209587 121.02390361 2.203125 137.51953125 C4.98124514 141.35454492 4.59034573 143.35102735 4 148 C2.5 150.5 2.5 150.5 0 152 C-6.76742726 152.85935584 -6.76742726 152.85935584 -10.515625 150.24609375 C-26.96715359 135.37246335 -38.9304747 110.12606278 -40.17700195 87.8347168 C-40.71682185 58.01128064 -40.71682185 58.01128064 -36 44 C-35.45666016 42.31003906 -35.45666016 42.31003906 -34.90234375 40.5859375 C-30.68401604 28.60302692 -24.1911082 17.68737621 -16 8 C-15.15888672 6.97712891 -15.15888672 6.97712891 -14.30078125 5.93359375 C-9.95651974 0.72679121 -7.11287401 -0.96993736 0 0 Z " fill="#03BBFF" transform="translate(72,180)"/>
<path d="M0 0 C12.36166309 9.03680199 19.32884999 26.44683789 22 41 C24.97872622 60.44788196 20.44625747 80.63316117 8.81738281 96.62646484 C1.86287182 105.57147997 1.86287182 105.57147997 -3.66796875 106.84375 C-6.99726591 106.99987179 -8.36135118 106.95455468 -11 105 C-13.50053852 101.24919221 -13.46403622 99.44622458 -13 95 C-11.2421875 92.11328125 -11.2421875 92.11328125 -8.875 89.3125 C0.74313389 77.21031263 5.75581359 64.16300012 4.7890625 48.60546875 C3.1041338 34.18820146 -2.73424145 24.02013305 -11.71484375 12.87109375 C-13.61554865 10.10380607 -13.46874683 8.28122781 -13 5 C-9.45457461 -0.50152215 -6.32792343 -1.94705336 0 0 Z " fill="#4B62FF" transform="translate(426,203)"/>
<path d="M0 0 C2.74654341 2.52971104 3.86943742 4.07701306 4.39453125 7.7890625 C3.88534722 11.93311469 1.95483082 14.14173856 -0.6875 17.1875 C-5.24647492 22.76118347 -8.48101235 28.20536226 -11 35 C-11.4125 36.093125 -11.825 37.18625 -12.25 38.3125 C-15.4685864 54.13721645 -13.9619835 69.35306039 -5 83.05859375 C-2.51950721 86.49206998 0.05799916 89.83054566 2.71484375 93.12890625 C4.61554865 95.89619393 4.46874683 97.71877219 4 101 C2.0260809 104.41639845 0.81461541 105.72268412 -2.9375 107 C-7.36229457 107 -9.83083733 105.08130652 -13.02734375 102.125 C-25.95930375 87.73852508 -31.79985646 70.15373661 -32 51 C-30.86896377 31.12308548 -23.62843154 13.77794134 -9 0 C-5.39297148 -1.20234284 -3.64185324 -1.0405295 0 0 Z " fill="#08B5FF" transform="translate(95,203)"/>
<path d="M0 0 C13.86 0 27.72 0 42 0 C42.04125 4.62 42.0825 9.24 42.125 14 C42.14320801 15.44117188 42.16141602 16.88234375 42.18017578 18.3671875 C42.22172292 27.99540265 42.13295663 36.79407194 35 44 C29.80509629 48.08601475 24.36994138 48.64006054 17.8984375 48.37109375 C12.44428651 47.67278601 8.84545121 46.12812427 5.21484375 41.94140625 C0.59375187 35.46313796 -0.13264927 29.97873397 -0.09765625 22.0703125 C-0.09515869 20.90773926 -0.09266113 19.74516602 -0.09008789 18.54736328 C-0.08098389 17.0879834 -0.07187988 15.62860352 -0.0625 14.125 C-0.041875 9.46375 -0.02125 4.8025 0 0 Z " fill="#2A8CFF" transform="translate(235,384)"/>
<path d="M0 0 C4.54135139 2.66413307 7.42245606 6.85256175 9.625 11.5625 C10.52966431 15.91834908 10.74231241 20.04989629 10.72265625 24.4921875 C10.72015869 25.65476074 10.71766113 26.81733398 10.71508789 28.01513672 C10.70598389 29.4745166 10.69687988 30.93389648 10.6875 32.4375 C10.666875 37.09875 10.64625 41.76 10.625 46.5625 C-3.235 46.5625 -17.095 46.5625 -31.375 46.5625 C-31.41625 41.9425 -31.4575 37.3225 -31.5 32.5625 C-31.51820801 31.12132812 -31.53641602 29.68015625 -31.55517578 28.1953125 C-31.59672292 18.56709735 -31.50795663 9.76842806 -24.375 2.5625 C-17.56479694 -2.79401702 -7.89634058 -3.28257836 0 0 Z " fill="#2A8CFF" transform="translate(266.375,81.4375)"/>
<path d="M0 0 C5.69385022 3.50463058 9.19420926 7.59702199 10.89233398 14.16870117 C11.39035757 17.46084644 11.4165139 20.61532631 11.40234375 23.9453125 C11.39984619 25.15098877 11.39734863 26.35666504 11.39477539 27.59887695 C11.38567139 29.11956787 11.37656738 30.64025879 11.3671875 32.20703125 C11.3465625 37.05390625 11.3259375 41.90078125 11.3046875 46.89453125 C-2.2253125 46.89453125 -15.7553125 46.89453125 -29.6953125 46.89453125 C-29.8809375 38.51046875 -29.8809375 38.51046875 -30.0703125 29.95703125 C-30.12493652 28.21172119 -30.17956055 26.46641113 -30.23583984 24.66821289 C-30.37806222 16.88396272 -30.41558906 10.84358164 -25.3425293 4.47851562 C-18.60132186 -2.00391418 -8.70567873 -3.57058997 0 0 Z " fill="#357FFF" transform="translate(321.6953125,81.10546875)"/>
<path d="M0 0 C4.84974831 2.87088695 7.74237782 7.16463345 9.5 12.4375 C9.5848093 15.02354537 9.61605868 17.58250003 9.59765625 20.16796875 C9.59664917 20.83332642 9.59564209 21.49868408 9.59460449 22.1842041 C9.58938106 24.66448699 9.57541978 27.14474526 9.5625 29.625 C9.541875 35.173125 9.52125 40.72125 9.5 46.4375 C-4.03 46.4375 -17.56 46.4375 -31.5 46.4375 C-31.561875 41.673125 -31.62375 36.90875 -31.6875 32 C-31.71481201 30.5157251 -31.74212402 29.0314502 -31.77026367 27.50219727 C-31.82396125 18.93310237 -31.32614082 11.97951203 -26.75 4.625 C-19.39954051 -2.52128006 -9.60045259 -4.20816802 0 0 Z " fill="#1F99FF" transform="translate(210.5,81.5625)"/>
<path d="M0 0 C13.53 0 27.06 0 41 0 C41.04125 4.62 41.0825 9.24 41.125 14 C41.14320801 15.44117188 41.16141602 16.88234375 41.18017578 18.3671875 C41.22172292 27.99540265 41.13295663 36.79407194 34 44 C28.80509629 48.08601475 23.36994138 48.64006054 16.8984375 48.37109375 C10.75833951 47.58496261 6.66875437 45.33360663 2.796875 40.46875 C-1.78449047 33.3661298 -0.62897286 25.05226997 -0.375 16.9375 C-0.25125 11.348125 -0.1275 5.75875 0 0 Z " fill="#357FFF" transform="translate(292,384)"/>
<path d="M0 0 C13.53 0 27.06 0 41 0 C41.0825 5.445 41.165 10.89 41.25 16.5 C41.28641602 18.20220703 41.32283203 19.90441406 41.36035156 21.65820312 C41.53729405 35.64778833 41.53729405 35.64778833 37 42 C35.18359375 43.83984375 35.18359375 43.83984375 33.4375 44.9375 C32.85871094 45.31777344 32.27992188 45.69804687 31.68359375 46.08984375 C26.04342104 49.13893944 18.75325596 48.92119715 12.64453125 47.421875 C6.92637406 44.98861662 3.67675255 40.49243689 1 35 C-0.03786561 30.94729642 -0.11541483 27.12248609 -0.09765625 22.94921875 C-0.09515869 21.74354248 -0.09266113 20.53786621 -0.09008789 19.2956543 C-0.08098389 17.77496338 -0.07187988 16.25427246 -0.0625 14.6875 C-0.041875 9.840625 -0.02125 4.99375 0 0 Z " fill="#1F99FF" transform="translate(179,384)"/>
<path d="M0 0 C7.00906019 3.7255365 10.23432673 10.90085141 13 18 C16.40160282 29.3282736 15.08961071 40.38727862 10 51 C7.27220734 55.42443582 4.40815698 59.16012964 0 62 C-3.92596294 62.49074537 -6.0688869 62.63707739 -9.375 60.375 C-11.43114398 57.36986649 -12 55.65817532 -12 52 C-10.75990579 49.47388216 -9.54494999 47.31742499 -8 45 C-3.76879152 38.5356537 -2.47608118 33.66743173 -3.5625 26.0625 C-4.7557649 21.84464006 -7.16475423 18.65560794 -9.65625 15.1015625 C-11.42177824 12.34035846 -12.07459191 10.28204383 -12 7 C-9.43527394 1.35760268 -6.2390047 -0.95984688 0 0 Z " fill="#4669FF" transform="translate(402,225)"/>
<path d="M0 0 C3.33892786 1.92915832 4.69563407 3.19432547 6.0625 6.8125 C5.9678282 11.64076168 3.46348353 14.80985625 0.875 18.68359375 C-2.45018424 23.97699366 -3.73920528 29.10118276 -2.55859375 35.328125 C-1.15713171 40.03703747 0.95907376 43.50160284 3.9140625 47.37890625 C5.61504261 49.91813914 6 51.97154261 6 55 C4.39588152 58.52906067 3.25840638 59.82772908 0 62 C-2.98799785 62.54327234 -5.01611591 62.52296542 -7.734375 61.078125 C-14.88566639 55.69883502 -18.59789411 46.99779942 -20.4375 38.4375 C-22.01925862 27.07166743 -19.77092645 15.87644752 -13 6.5 C-9.3028301 1.75797774 -6.23751688 -0.89107384 0 0 Z " fill="#0EAEFF" transform="translate(116,225)"/>
</svg>
