<?xml version="1.0" encoding="UTF-8"?>
<svg version="1.1" xmlns="http://www.w3.org/2000/svg" width="360" height="360">
<path d="M0 0 C0.96067383 0.16097168 1.92134766 0.32194336 2.91113281 0.48779297 C42.71836442 7.29675257 86.81108359 23.83081434 111.15234375 58.0234375 C121.31691468 73.65832686 124.9104001 89.94464509 122.57421875 108.35546875 C117.33277658 132.18312916 99.24861473 150.52269367 79.421875 163.359375 C55.25705712 178.51589121 28.02532466 187.30404238 0 192 C-1.36753418 192.24339111 -1.36753418 192.24339111 -2.76269531 192.49169922 C-32.12445171 197.55245019 -64.69445072 197.21574552 -94 192 C-94.96067383 191.83902832 -95.92134766 191.67805664 -96.91113281 191.51220703 C-136.71836442 184.70324743 -180.81108359 168.16918566 -205.15234375 133.9765625 C-215.31691468 118.34167314 -218.9104001 102.05535491 -216.57421875 83.64453125 C-211.33277658 59.81687084 -193.24861473 41.47730633 -173.421875 28.640625 C-149.25705712 13.48410879 -122.02532466 4.69595762 -94 0 C-93.08831055 -0.16226074 -92.17662109 -0.32452148 -91.23730469 -0.49169922 C-61.87554829 -5.55245019 -29.30554928 -5.21574552 0 0 Z " fill="#F9F9FA" transform="translate(227,84)"/>
<path d="M0 0 C0.68852051 0.25120605 1.37704102 0.50241211 2.08642578 0.76123047 C21.29150002 7.82630959 40.54681615 19.03835053 50 38 C54.18552338 47.60562561 54.36509978 57.06736819 50.75 66.875 C48.86825892 71.28141036 47.0069969 75.24125387 44 79 C43.40832031 79.74507813 42.81664062 80.49015625 42.20703125 81.2578125 C23.82291286 103.1580191 -5.76211794 111.84683582 -33 116 C-33.68280029 116.1045752 -34.36560059 116.20915039 -35.0690918 116.31689453 C-42.56864375 117.30504999 -50.13589935 117.24371135 -57.6875 117.25 C-58.78156662 117.25101212 -58.78156662 117.25101212 -59.8977356 117.25204468 C-93.88923037 117.20230261 -129.26884628 109.61322813 -154.62109375 85.5078125 C-163.00891198 76.90811773 -169.05659559 66.59171211 -169.25 54.375 C-169.07483962 41.23797157 -163.33651599 31.33020449 -154.4375 21.875 C-116.48692706 -14.29843131 -46.75082653 -17.61127673 0 0 Z " fill="#D2BCF6" transform="translate(238,126)"/>
<path d="M0 0 C0.81662109 0.19996582 1.63324219 0.39993164 2.47460938 0.60595703 C13.29895532 3.2632852 23.13481278 6.80953451 33 12 C33.67337402 12.3511084 34.34674805 12.7022168 35.04052734 13.06396484 C43.71845873 17.63438247 51.59343265 22.5127793 59 29 C59.77859375 29.63550781 60.5571875 30.27101562 61.359375 30.92578125 C67.00030616 35.6486414 71.09114594 40.78461587 75 47 C75.40089844 47.63035156 75.80179687 48.26070312 76.21484375 48.91015625 C80.23951852 55.57744766 82.52473422 62.21402826 83 70 C83.06445312 70.81082031 83.12890625 71.62164062 83.1953125 72.45703125 C83.93214762 89.23231072 75.93452736 103.73651676 65.0390625 115.86328125 C55.98361147 125.47774687 44.64220328 131.99787285 33 138 C32.35740234 138.33161133 31.71480469 138.66322266 31.05273438 139.00488281 C22.31085178 143.44725931 13.5314344 146.62228796 4 149 C2.62744659 149.35225115 1.25505597 149.7051371 -0.1171875 150.05859375 C-4.0715042 151.06757598 -8.03086159 152.05059805 -12 153 C-12.71752441 153.17225098 -13.43504883 153.34450195 -14.17431641 153.52197266 C-42.95540594 160.20873973 -76.28717211 159.11279822 -105 153 C-105.91539551 152.80744629 -106.83079102 152.61489258 -107.77392578 152.41650391 C-137.47907721 145.98316462 -171.59014591 132.3540286 -189 106 C-197.36339494 92.48785442 -201.15011253 79.59970376 -198.4375 63.5625 C-192.84787928 42.62056485 -176.53466817 27.68041687 -158.50390625 16.97265625 C-139.89852886 6.38547382 -121.00025835 0.05955698 -100 -4 C-99.154375 -4.16661133 -98.30875 -4.33322266 -97.4375 -4.50488281 C-65.47893047 -10.53456605 -31.30665946 -7.97909429 0 0 Z M-127 25 C-127.59264648 25.28746094 -128.18529297 25.57492188 -128.79589844 25.87109375 C-137.30302574 30.0530778 -144.92261631 34.61156516 -152 41 C-152.71800781 41.63679688 -153.43601562 42.27359375 -154.17578125 42.9296875 C-163.396488 51.57735598 -168.86637015 62.12322851 -169.5 74.8125 C-169.13244617 89.05521081 -160.71521547 100.34484768 -151 110 C-121.27658116 135.71576686 -79.64870378 139.9077728 -42 138 C-27.59809883 136.80491331 -13.53150085 134.09738594 0 129 C0.68852051 128.74879395 1.37704102 128.49758789 2.08642578 128.23876953 C21.6499714 121.04181752 40.68510897 109.80128647 49.8125 90.25 C53.91877908 80.94774965 54.43791891 71.21675691 51.1015625 61.50390625 C42.34917428 41.60929332 23.29375644 30.01666402 3.87109375 22.13623047 C-8.05973914 17.5484896 -20.38643529 14.9234838 -33 13 C-33.6820752 12.8954248 -34.36415039 12.79084961 -35.06689453 12.68310547 C-42.58742176 11.6913681 -50.17720265 11.75628988 -57.75 11.75 C-58.48132141 11.74932526 -59.21264282 11.74865051 -59.96612549 11.74795532 C-82.87639812 11.7814197 -106.16953414 14.88705615 -127 25 Z " fill="#F9F8FB" transform="translate(238,105)"/>
<path d="M0 0 C0.68852051 0.25120605 1.37704102 0.50241211 2.08642578 0.76123047 C21.29150002 7.82630959 40.54681615 19.03835053 50 38 C54.18552338 47.60562561 54.36509978 57.06736819 50.75 66.875 C48.86825892 71.28141036 47.0069969 75.24125387 44 79 C43.40832031 79.74507813 42.81664062 80.49015625 42.20703125 81.2578125 C23.82291286 103.1580191 -5.76211794 111.84683582 -33 116 C-33.68280029 116.1045752 -34.36560059 116.20915039 -35.0690918 116.31689453 C-42.56864375 117.30504999 -50.13589935 117.24371135 -57.6875 117.25 C-58.78156662 117.25101212 -58.78156662 117.25101212 -59.8977356 117.25204468 C-93.88923037 117.20230261 -129.26884628 109.61322813 -154.62109375 85.5078125 C-163.00891198 76.90811773 -169.05659559 66.59171211 -169.25 54.375 C-169.07483962 41.23797157 -163.33651599 31.33020449 -154.4375 21.875 C-116.48692706 -14.29843131 -46.75082653 -17.61127673 0 0 Z M-136.5390625 27.30078125 C-139.88329178 30.96881686 -142.66941036 34.61685597 -145 39 C-145.33644531 39.6084375 -145.67289063 40.216875 -146.01953125 40.84375 C-149.36098499 48.04542198 -149.09011466 56.6606064 -147.19140625 64.21875 C-142.1043363 77.87814891 -130.57599024 87.58041149 -117.9375 94.125 C-117.10259033 94.55949463 -116.26768066 94.99398926 -115.4074707 95.44165039 C-108.41928392 98.9762521 -101.66743179 101.31603134 -94 103 C-92.7934375 103.28359375 -91.586875 103.5671875 -90.34375 103.859375 C-69.16468512 108.65634269 -47.24222917 108.36606615 -26 104 C-24.97640381 103.79117188 -24.97640381 103.79117188 -23.93212891 103.578125 C-5.53700727 99.64898159 14.75196304 90.29405313 25.75 74.484375 C31.40996392 65.39577909 32.94498451 57.70194954 32 47 C28.97527318 34.45425807 19.2822543 24.44668123 8.55859375 17.79296875 C5.0995986 15.74020279 1.56997548 13.85250501 -2 12 C-2.78117188 11.58878906 -3.56234375 11.17757812 -4.3671875 10.75390625 C-43.76752498 -8.35154042 -104.63333915 -4.03675799 -136.5390625 27.30078125 Z " fill="#FAF8FD" transform="translate(238,126)"/>
<path d="M0 0 C10.61522736 -0.66460554 19.86322984 1.20336681 30 4 C30.81984375 4.21527344 31.6396875 4.43054688 32.484375 4.65234375 C34.72386274 5.31637791 36.83656051 6.11557505 39 7 C39.59748047 7.24169922 40.19496094 7.48339844 40.81054688 7.73242188 C55.91740566 13.96814147 68.3803774 21.96394473 76 37 C78.26051959 43.78155876 78.20733358 52.44698975 75.90625 59.21875 C74.44202759 61.99142648 72.85942223 64.4767929 71 67 C70.47019531 67.72703125 69.94039062 68.4540625 69.39453125 69.203125 C55.51668729 86.47626095 29.92522657 93.87228477 8.86328125 96.5703125 C-6.05941426 98.12951846 -22.29873309 98.19279048 -37 95 C-37.63405762 94.86577637 -38.26811523 94.73155273 -38.92138672 94.59326172 C-57.8015135 90.51948526 -78.03989806 82.93313911 -89.375 66.375 C-90.28737051 64.93975049 -91.16115153 63.47942366 -92 62 C-92.53882812 61.07960937 -93.07765625 60.15921875 -93.6328125 59.2109375 C-96.45638659 52.57957208 -96.1027914 43.97431104 -94.19140625 37.0859375 C-89.91188947 27.75688707 -81.49520333 18.21373481 -72 14 C-71.01 14.33 -70.02 14.66 -69 15 C-69.495 16.11375 -69.99 17.2275 -70.5 18.375 C-72.35582627 23.32095209 -72.32663073 27.78250383 -72 33 C-71.95875 34.155 -71.9175 35.31 -71.875 36.5 C-70.43211669 42.27153324 -67.45378998 47.77760868 -63.01171875 51.80078125 C-60.90702416 53.29529965 -60.90702416 53.29529965 -57.625 52.9375 C-53.70850708 51.9246139 -51.28771686 50.3014018 -48 48 C-44.49668886 50.004709 -40.9954253 52.01294682 -37.49584961 54.02416992 C-36.31050563 54.70477853 -35.12465082 55.38449844 -33.93823242 56.06323242 C-29.94314544 58.34928177 -25.96591739 60.66373308 -22 63 C-20.91710693 63.63421875 -19.83421387 64.2684375 -18.71850586 64.921875 C-17.72085205 65.52644531 -16.72319824 66.13101563 -15.6953125 66.75390625 C-14.80730957 67.28701416 -13.91930664 67.82012207 -13.00439453 68.36938477 C-11 70 -11 70 -10.1875 73.875 C-10.19910156 74.535 -10.21070313 75.195 -10.22265625 75.875 C-9.77179388 80.17796715 -6.7084652 83.75253676 -4 87 C-1.13271366 89.32319869 -1.13271366 89.32319869 2.375 88.9375 C6.13949262 88.34886866 6.13949262 88.34886866 8.0625 85.4375 C12.3698333 81.86332981 16.20186964 82.70980505 21.625 83.01953125 C25.05723294 82.99966879 26.95052912 82.48352637 30 81 C30.680625 80.70480469 31.36125 80.40960938 32.0625 80.10546875 C36.57554069 77.96723375 39.48578724 75.60432078 43 72 C46.09581796 69.90978416 49.28601142 68.2538626 52.8125 67 C55.5970446 65.72706532 55.90113735 64.8173483 57 62 C57.6949651 56.65038492 57.65184874 52.28121994 55.1875 47.4375 C53.05281683 44.85555314 53.05281683 44.85555314 50 43 C50 42.34 50 41.68 50 41 C49.16275391 40.62294922 49.16275391 40.62294922 48.30859375 40.23828125 C41.84326108 36.77041245 35.95734503 31.35929193 31 26 C30.38898438 25.34773438 29.77796875 24.69546875 29.1484375 24.0234375 C24 18.38271912 24 18.38271912 24 15 C23.34 15 22.68 15 22 15 C22 14.34 22 13.68 22 13 C21.47277344 12.7525 20.94554687 12.505 20.40234375 12.25 C16.17919937 10.05259154 12.21652791 7.41227252 8.19140625 4.875 C5.48706742 3.28615956 2.94299878 2.056179 0 1 C0 0.67 0 0.34 0 0 Z " fill="#FCFAFE" transform="translate(189,132)"/>
<path d="M0 0 C0.96067383 0.16097168 1.92134766 0.32194336 2.91113281 0.48779297 C42.71836442 7.29675257 86.81108359 23.83081434 111.15234375 58.0234375 C121.31691468 73.65832686 124.9104001 89.94464509 122.57421875 108.35546875 C117.33277658 132.18312916 99.24861473 150.52269367 79.421875 163.359375 C55.25705712 178.51589121 28.02532466 187.30404238 0 192 C-1.36753418 192.24339111 -1.36753418 192.24339111 -2.76269531 192.49169922 C-32.12445171 197.55245019 -64.69445072 197.21574552 -94 192 C-94.96067383 191.83902832 -95.92134766 191.67805664 -96.91113281 191.51220703 C-136.71836442 184.70324743 -180.81108359 168.16918566 -205.15234375 133.9765625 C-215.31691468 118.34167314 -218.9104001 102.05535491 -216.57421875 83.64453125 C-211.33277658 59.81687084 -193.24861473 41.47730633 -173.421875 28.640625 C-149.25705712 13.48410879 -122.02532466 4.69595762 -94 0 C-93.08831055 -0.16226074 -92.17662109 -0.32452148 -91.23730469 -0.49169922 C-61.87554829 -5.55245019 -29.30554928 -5.21574552 0 0 Z M-161 27 C-162.58554688 27.84691406 -162.58554688 27.84691406 -164.203125 28.7109375 C-184.80606928 40.19896664 -204.04654562 57.56432419 -211.13671875 80.7109375 C-215.11635643 97.90378654 -211.60034109 113.82765148 -202.8125 128.75 C-198.50767482 135.06944535 -193.35188189 140.57177172 -188 146 C-186.93845703 147.08087891 -186.93845703 147.08087891 -185.85546875 148.18359375 C-166.3925961 166.67890486 -137.96726303 177.33111941 -112.31298828 183.44580078 C-110.1081331 183.97409097 -107.91181575 184.52983128 -105.71484375 185.08984375 C-74.49507595 192.81495122 -41.4249316 193.22646973 -9.6875 188.75 C-8.95799133 188.64776123 -8.22848267 188.54552246 -7.47686768 188.44018555 C2.87555986 186.95089823 12.88920449 184.66540827 23 182 C24.36791167 181.65573586 25.73632162 181.31344549 27.10522461 180.97314453 C35.11104735 178.97289543 42.50862052 176.44402345 50 173 C51.17320801 172.46947021 51.17320801 172.46947021 52.37011719 171.92822266 C79.90092801 159.43425879 104.12359741 142.830863 115.90625 113.99609375 C120.15978912 102.34443482 119.67671662 86.47562258 115.38671875 74.9453125 C110.73176052 65.05844347 104.71071531 56.71071531 97 49 C96.17886719 48.17886719 95.35773438 47.35773438 94.51171875 46.51171875 C56.32254154 10.13299142 -3.72010745 -0.47803756 -54.78779602 0.52386475 C-91.6047946 1.51998426 -128.48544521 9.41924788 -161 27 Z " fill="#0B0813" transform="translate(227,84)"/>
<path d="M0 0 C0.81662109 0.19996582 1.63324219 0.39993164 2.47460938 0.60595703 C13.29895532 3.2632852 23.13481278 6.80953451 33 12 C33.67337402 12.3511084 34.34674805 12.7022168 35.04052734 13.06396484 C43.71845873 17.63438247 51.59343265 22.5127793 59 29 C59.77859375 29.63550781 60.5571875 30.27101562 61.359375 30.92578125 C67.00030616 35.6486414 71.09114594 40.78461587 75 47 C75.40089844 47.63035156 75.80179687 48.26070312 76.21484375 48.91015625 C80.23951852 55.57744766 82.52473422 62.21402826 83 70 C83.06445312 70.81082031 83.12890625 71.62164062 83.1953125 72.45703125 C83.93214762 89.23231072 75.93452736 103.73651676 65.0390625 115.86328125 C55.98361147 125.47774687 44.64220328 131.99787285 33 138 C32.35740234 138.33161133 31.71480469 138.66322266 31.05273438 139.00488281 C22.31085178 143.44725931 13.5314344 146.62228796 4 149 C2.62744659 149.35225115 1.25505597 149.7051371 -0.1171875 150.05859375 C-4.0715042 151.06757598 -8.03086159 152.05059805 -12 153 C-12.71752441 153.17225098 -13.43504883 153.34450195 -14.17431641 153.52197266 C-42.95540594 160.20873973 -76.28717211 159.11279822 -105 153 C-105.91539551 152.80744629 -106.83079102 152.61489258 -107.77392578 152.41650391 C-137.47907721 145.98316462 -171.59014591 132.3540286 -189 106 C-197.36339494 92.48785442 -201.15011253 79.59970376 -198.4375 63.5625 C-192.84787928 42.62056485 -176.53466817 27.68041687 -158.50390625 16.97265625 C-139.89852886 6.38547382 -121.00025835 0.05955698 -100 -4 C-99.154375 -4.16661133 -98.30875 -4.33322266 -97.4375 -4.50488281 C-65.47893047 -10.53456605 -31.30665946 -7.97909429 0 0 Z M-180.78125 39.4296875 C-191.28030556 51.59232581 -195.89671636 64.06916107 -195.17919922 79.92236328 C-193.85386714 95.28827061 -184.34729226 106.50361131 -174 117 C-173.35289062 117.66 -172.70578125 118.32 -172.0390625 119 C-143.52381561 145.89647742 -97.72299852 153.21786283 -60.3125 153.25 C-59.08820282 153.25151062 -59.08820282 153.25151062 -57.83917236 153.25305176 C-44.04308036 153.24158565 -30.60449704 152.43803616 -17 150 C-16.1322998 149.8448291 -15.26459961 149.6896582 -14.37060547 149.52978516 C-0.28454266 146.92793473 13.08633494 143.30550052 26 137 C27.24969966 136.41732416 28.49972038 135.83533659 29.75 135.25390625 C49.79650216 125.77294657 67.15112567 112.4536963 76.44921875 91.77734375 C80.30381697 80.86274458 80.95842563 68.40051643 76.30859375 57.63671875 C75.87675781 56.76660156 75.44492187 55.89648438 75 55 C74.53722656 54.03707031 74.07445312 53.07414062 73.59765625 52.08203125 C60.18305917 26.72877076 31.10567424 13.29087083 4.96582031 5.00952148 C-2.16651892 2.84500144 -9.37556646 1.18591817 -16.6875 -0.25 C-17.50557129 -0.41322754 -18.32364258 -0.57645508 -19.16650391 -0.74462891 C-73.24070272 -10.78133037 -141.16936323 -1.59690951 -180.78125 39.4296875 Z " fill="#27173E" transform="translate(238,105)"/>
<path d="M0 0 C11.25790636 7.38077589 20.20231857 19.81008072 24.47265625 32.62109375 C26.44550537 33.36426989 28.45369895 34.01425287 30.47265625 34.62109375 C33.07086891 35.69070387 35.61352383 36.87218043 38.16015625 38.05859375 C39.15499023 38.5081543 39.15499023 38.5081543 40.16992188 38.96679688 C43.49533908 40.51062097 45.94385514 41.99920793 48.47265625 44.62109375 C52.08288724 45.35151228 52.08288724 45.35151228 55.47265625 45.62109375 C55.47265625 46.28109375 55.47265625 46.94109375 55.47265625 47.62109375 C59.37157458 47.87300938 61.54157267 47.35391323 64.86328125 45.3203125 C66.05050781 44.59618164 66.05050781 44.59618164 67.26171875 43.85742188 C68.07382813 43.34630859 68.8859375 42.83519531 69.72265625 42.30859375 C70.96402344 41.55932617 70.96402344 41.55932617 72.23046875 40.79492188 C76.96140952 38.15754187 76.96140952 38.15754187 79.47265625 33.62109375 C78.81265625 33.62109375 78.15265625 33.62109375 77.47265625 33.62109375 C76.80178505 31.99782505 76.13608596 30.37241797 75.47265625 28.74609375 C75.10140625 27.84117187 74.73015625 26.93625 74.34765625 26.00390625 C73.47265625 23.62109375 73.47265625 23.62109375 73.47265625 21.62109375 C77.8287978 22.74124443 80.10305791 24.77048298 82.51953125 28.42578125 C84.39353036 32.74212347 84.19796653 37.04127742 83.47265625 41.62109375 C82.01006292 45.03381153 80.97654223 46.88327913 77.6015625 48.5390625 C76.22237909 49.05267144 74.83099014 49.53460625 73.4296875 49.984375 C69.54684589 51.2476548 67.04435626 52.85882707 64.59765625 56.12109375 C61.89946719 59.29543382 59.35013344 60.19254952 55.47265625 61.62109375 C54.32796875 62.20890625 54.32796875 62.20890625 53.16015625 62.80859375 C47.78297433 64.4342534 41.85156748 64.17389722 36.47265625 62.62109375 C36.24578125 63.21921875 36.01890625 63.81734375 35.78515625 64.43359375 C34.03914483 67.34361278 32.59887896 68.30113305 29.47265625 69.62109375 C25.84771347 69.75290985 23.55294475 69.56572958 20.76171875 67.125 C16.72441432 62.54610595 14.31689865 58.99269272 14.47265625 52.78125 C14.19422257 49.45531088 13.9343457 48.07916897 11.5390625 45.70263672 C8.91682533 43.97680785 6.26398986 42.49440988 3.47265625 41.05859375 C2.53164062 40.53974609 1.590625 40.02089844 0.62109375 39.48632812 C-1.10806131 38.53329958 -2.84566578 37.59533672 -4.59375 36.67749023 C-6.52734375 35.62109375 -6.52734375 35.62109375 -7.52734375 34.62109375 C-7.62802837 32.19281762 -7.66606135 29.79910964 -7.65234375 27.37109375 C-7.65814453 26.36755859 -7.65814453 26.36755859 -7.6640625 25.34375 C-7.65679198 21.64305745 -7.40577876 18.21849428 -6.52734375 14.62109375 C-7.34589844 14.3890625 -8.16445312 14.15703125 -9.0078125 13.91796875 C-13.28459699 12.34206148 -16.96210405 10.24219573 -20.83984375 7.87109375 C-21.93135742 7.24460938 -21.93135742 7.24460938 -23.04492188 6.60546875 C-28.30004411 3.39264472 -28.30004411 3.39264472 -29.5078125 -0.70703125 C-29.51425781 -1.58875 -29.52070313 -2.47046875 -29.52734375 -3.37890625 C-19.50820495 -6.47154858 -8.93151897 -5.20504403 0 0 Z " fill="#8459FA" transform="translate(163.52734375,152.37890625)"/>
<path d="M0 0 C0.76957031 0.54140625 0.76957031 0.54140625 1.5546875 1.09375 C1.5546875 1.75375 1.5546875 2.41375 1.5546875 3.09375 C2.2353125 3.25875 2.9159375 3.42375 3.6171875 3.59375 C7.9647937 5.81380423 10.50139469 9.36565722 13.5546875 13.09375 C14.08473389 12.72950928 14.61478027 12.36526855 15.16088867 11.98999023 C20.91376502 8.08917415 26.79500587 4.53574884 32.8671875 1.15625 C33.74697266 0.65029297 34.62675781 0.14433594 35.53320312 -0.37695312 C36.80647461 -1.08561523 36.80647461 -1.08561523 38.10546875 -1.80859375 C39.24495972 -2.45042603 39.24495972 -2.45042603 40.4074707 -3.10522461 C42.95525276 -4.05568202 44.05090445 -3.8801275 46.5546875 -2.90625 C50.64439653 -0.02800548 54.19772044 3.29322748 56.8671875 7.53125 C59.6978431 11.83036858 63.77247904 14.32933684 67.94921875 17.2265625 C70.8430155 19.30037786 73.172328 21.46493952 75.5546875 24.09375 C74.8946875 24.09375 74.2346875 24.09375 73.5546875 24.09375 C73.8434375 24.79242188 74.1321875 25.49109375 74.4296875 26.2109375 C74.8009375 27.12101562 75.1721875 28.03109375 75.5546875 28.96875 C75.9259375 29.87367188 76.2971875 30.77859375 76.6796875 31.7109375 C77.5546875 34.09375 77.5546875 34.09375 77.5546875 36.09375 C78.2146875 36.09375 78.8746875 36.09375 79.5546875 36.09375 C79.18793124 38.67730563 78.86036505 39.82555202 76.86816406 41.57348633 C74.52225712 43.03348392 72.17525406 44.48649479 69.8046875 45.90625 C68.99257812 46.42123047 68.18046875 46.93621094 67.34375 47.46679688 C66.15652344 48.18899414 66.15652344 48.18899414 64.9453125 48.92578125 C64.22375977 49.36639893 63.50220703 49.8070166 62.75878906 50.26098633 C59.99323885 51.30587908 58.35485595 50.89331543 55.5546875 50.09375 C55.5546875 49.43375 55.5546875 48.77375 55.5546875 48.09375 C53.915 48.155625 53.915 48.155625 52.2421875 48.21875 C48.5546875 48.09375 48.5546875 48.09375 45.5546875 46.09375 C45.5546875 45.43375 45.5546875 44.77375 45.5546875 44.09375 C44.3171875 43.7225 43.0796875 43.35125 41.8046875 42.96875 C30.59814923 39.12701413 23.93538877 35.85515254 18.5546875 25.09375 C17.3491169 23.10012242 16.11967905 21.12073882 14.8671875 19.15625 C14.30644531 18.26035156 13.74570313 17.36445313 13.16796875 16.44140625 C11.66509802 14.09781803 11.66509802 14.09781803 9.84765625 12.40234375 C8.5546875 11.09375 8.5546875 11.09375 8.5546875 9.09375 C7.98621094 8.825625 7.41773438 8.5575 6.83203125 8.28125 C3.6583496 6.62636283 0.80584823 4.57281833 -2.12890625 2.53125 C-8.04914784 -1.14269419 -12.94243921 -1.15647947 -19.7578125 -1.03125 C-20.68916016 -1.02222656 -21.62050781 -1.01320312 -22.58007812 -1.00390625 C-24.8687561 -0.98043263 -27.15689922 -0.94759729 -29.4453125 -0.90625 C-29.22087136 1.92813301 -29.22087136 1.92813301 -27.4453125 5.09375 C-24.12235344 7.6167656 -20.500566 9.51783028 -16.8203125 11.46875 C-15.82773438 12.01402344 -14.83515625 12.55929688 -13.8125 13.12109375 C-11.36586391 14.46203853 -8.90673373 15.78014178 -6.4453125 17.09375 C-6.7753125 23.69375 -7.1053125 30.29375 -7.4453125 37.09375 C-21.29214138 29.60017202 -21.29214138 29.60017202 -22.0703125 27.02734375 C-22.1940625 26.20363281 -22.3178125 25.37992188 -22.4453125 24.53125 C-24.11145645 15.28081878 -25.98261492 9.21655415 -33.4453125 3.09375 C-34.4353125 2.43375 -35.4253125 1.77375 -36.4453125 1.09375 C-36.4453125 0.43375 -36.4453125 -0.22625 -36.4453125 -0.90625 C-25.1469804 -5.67539521 -10.67638522 -6.4705365 0 0 Z " fill="#B393FB" transform="translate(163.4453125,149.90625)"/>
<path d="M0 0 C0.74636719 0.68191406 1.49273437 1.36382812 2.26171875 2.06640625 C3.10089844 2.77925781 3.94007813 3.49210937 4.8046875 4.2265625 C13.6826123 12.27176213 20.14781333 23.42316792 21.53515625 35.43359375 C22.10544005 49.51521671 16.09603336 61.17877434 7.08203125 71.58203125 C-3.2378751 82.61248853 -16.05126463 89.12356214 -29.73828125 95.06640625 C-30.84171875 95.57429688 -31.94515625 96.0821875 -33.08203125 96.60546875 C-62.97587596 108.55023149 -99.58177694 109.1584972 -130.73828125 103.06640625 C-131.46724609 102.93250488 -132.19621094 102.79860352 -132.94726562 102.66064453 C-155.01460164 98.52677709 -176.842147 89.21575326 -192.73828125 73.06640625 C-193.45628906 72.34710938 -194.17429687 71.6278125 -194.9140625 70.88671875 C-204.508901 60.7317296 -209.26812884 49.99086456 -208.98828125 36.0859375 C-207.89838062 22.9219815 -200.73629567 13.21290276 -191.73828125 4.06640625 C-191.06023437 3.37546875 -190.3821875 2.68453125 -189.68359375 1.97265625 C-172.75260703 -14.12775376 -149.21040669 -21.68026636 -126.73828125 -25.93359375 C-126.04798828 -26.06491699 -125.35769531 -26.19624023 -124.64648438 -26.33154297 C-84.88217007 -33.41245109 -31.46721905 -27.30008308 0 0 Z M-162.73828125 -10.93359375 C-163.33092773 -10.64613281 -163.92357422 -10.35867187 -164.53417969 -10.0625 C-173.04130699 -5.88051595 -180.66089756 -1.32202859 -187.73828125 5.06640625 C-188.45628906 5.70320313 -189.17429687 6.34 -189.9140625 6.99609375 C-199.13476925 15.64376223 -204.6046514 26.18963476 -205.23828125 38.87890625 C-204.87072742 53.12161706 -196.45349672 64.41125393 -186.73828125 74.06640625 C-157.01486241 99.78217311 -115.38698503 103.97417905 -77.73828125 102.06640625 C-63.33638008 100.87131956 -49.2697821 98.16379219 -35.73828125 93.06640625 C-35.04976074 92.8152002 -34.36124023 92.56399414 -33.65185547 92.30517578 C-14.08830985 85.10822377 4.94682772 73.86769272 14.07421875 54.31640625 C18.18049783 45.0141559 18.69963766 35.28316316 15.36328125 25.5703125 C6.61089303 5.67569957 -12.44452481 -5.91692973 -31.8671875 -13.79736328 C-43.79802039 -18.38510415 -56.12471654 -21.01010995 -68.73828125 -22.93359375 C-69.42035645 -23.03816895 -70.10243164 -23.14274414 -70.80517578 -23.25048828 C-78.32570301 -24.24222565 -85.9154839 -24.17730387 -93.48828125 -24.18359375 C-94.21960266 -24.18426849 -94.95092407 -24.18494324 -95.70440674 -24.18563843 C-118.61467937 -24.15217405 -141.90781539 -21.0465376 -162.73828125 -10.93359375 Z " fill="#491796" transform="translate(273.73828125,140.93359375)"/>
<path d="M0 0 C10.70924962 -0.45463796 20.91620388 0.01869245 31.5 1.8125 C32.47710937 1.97782227 33.45421875 2.14314453 34.4609375 2.31347656 C54.84242726 5.97965917 76.71899044 14.15726514 90 31 C96.21924592 40.79258459 98.01199773 48.36812243 97 60 C94.09933301 72.56438643 84.82045393 81.95143292 74.3125 88.8125 C61.28923694 96.84306469 47.9888213 101.27766376 33 104 C31.88753906 104.22558594 30.77507812 104.45117188 29.62890625 104.68359375 C11.66726464 107.8714004 -7.23364675 106.77919155 -25 103 C-26.26585937 102.74476563 -27.53171875 102.48953125 -28.8359375 102.2265625 C-42.7531147 98.99207995 -57.48145965 92.84998906 -68 83 C-68.6909375 82.40960938 -69.381875 81.81921875 -70.09375 81.2109375 C-76.77321651 75.15455556 -82.5106859 66.16856626 -83.23828125 56.99609375 C-83.48739804 45.05159945 -80.80672492 37.01356163 -73 28 C-72.48695312 27.40445313 -71.97390625 26.80890625 -71.4453125 26.1953125 C-62.16362349 16.20306357 -47.17963623 8.47413005 -34 5 C-31.82495117 5.45385742 -31.82495117 5.45385742 -30 6 C-31.04172363 6.52001587 -31.04172363 6.52001587 -32.10449219 7.05053711 C-55.0772389 17.69970005 -55.0772389 17.69970005 -73 35 C-73.48339844 35.6909375 -73.96679688 36.381875 -74.46484375 37.09375 C-79.00242652 44.63543882 -79.17982752 52.51203227 -78 61 C-76.57899296 65.17517704 -74.61669255 68.46605824 -72 72 C-71.43152344 72.78890625 -70.86304687 73.5778125 -70.27734375 74.390625 C-63.09420449 83.35811096 -52.57150468 88.88679131 -42 93 C-41.1853125 93.33644531 -40.370625 93.67289062 -39.53125 94.01953125 C-15.16927392 103.58518951 13.70160341 103.31285508 39 98 C40.08925781 97.79503906 41.17851562 97.59007812 42.30078125 97.37890625 C58.12329795 94.00483315 76.95983073 85.09370357 86.25 71.5 C87.20277105 70.0226696 88.11802044 68.52065441 89 67 C89.81210937 65.61554688 89.81210937 65.61554688 90.640625 64.203125 C92.21935898 60.48311965 92.5371324 57.22935576 92.5 53.25 C92.49500488 52.54625244 92.49000977 51.84250488 92.48486328 51.11743164 C92.27592848 44.83425778 90.62524011 40.17753707 87 35 C86.5771875 34.37996094 86.154375 33.75992188 85.71875 33.12109375 C72.25502419 15.62607794 49.37042907 10.19609868 29 6 C28.13044678 5.81679199 27.26089355 5.63358398 26.36499023 5.44482422 C23.32881464 4.87375867 20.3339814 4.73040565 17.25 4.5625 C11.61863985 4.18352308 6.42627472 3.56350289 1 2 C0.505 1.01 0.505 1.01 0 0 Z " fill="#7116FB" transform="translate(173,127)"/>
<path d="M0 0 C5.45015046 3.80627917 10.92110896 9.05214232 14 15 C14.40625 17.5390625 14.40625 17.5390625 14 20 C11.17755886 22.95813543 7.47937618 24.88483966 4 27 C3.36803711 27.39364746 2.73607422 27.78729492 2.08496094 28.19287109 C0.02861776 29.46535089 -2.04416646 30.70552986 -4.125 31.9375 C-4.78113281 32.33936523 -5.43726563 32.74123047 -6.11328125 33.15527344 C-10.97882506 35.94494901 -14.40559839 36.40493998 -20 36 C-20.62648437 34.87980469 -21.25296875 33.75960937 -21.8984375 32.60546875 C-22.72389523 31.13277713 -23.54941954 29.66012282 -24.375 28.1875 C-24.7875 27.44951172 -25.2 26.71152344 -25.625 25.95117188 C-26.02460938 25.23896484 -26.42421875 24.52675781 -26.8359375 23.79296875 C-27.20251465 23.1383667 -27.5690918 22.48376465 -27.94677734 21.80932617 C-28.90206799 20.16823694 -29.9466896 18.5799656 -31 17 C-31 16.01 -31 15.02 -31 14 C-17.81640625 6.67578125 -17.81640625 6.67578125 -15.41455078 5.35400391 C-13.77344395 4.43372297 -12.14699345 3.48691208 -10.53466797 2.51708984 C-9.35541748 1.8183374 -9.35541748 1.8183374 -8.15234375 1.10546875 C-7.44972412 0.6777417 -6.74710449 0.25001465 -6.02319336 -0.19067383 C-3.54451431 -1.18220527 -2.459655 -0.94604597 0 0 Z " fill="#451BE6" transform="translate(210,147)"/>
<path d="M0 0 C5.26630019 3.40554079 10.2703193 6.87668862 15 11 C14.01 11.33 13.02 11.66 12 12 C10.6955472 14.60890561 11.10500556 15.24043381 12 18 C12.99183225 20.3368169 13.99117009 22.67047072 15 25 C12.31204279 26.74211155 9.59722908 28.43703887 6.875 30.125 C6.11445313 30.61871094 5.35390625 31.11242187 4.5703125 31.62109375 C-1.15395127 35.12473795 -1.15395127 35.12473795 -5.046875 34.55078125 C-6.02140625 34.03902344 -6.9959375 33.52726562 -8 33 C-9.31468694 32.38582485 -10.62982263 31.77260972 -11.9453125 31.16015625 C-13.34063439 30.46512303 -14.73383858 29.76582373 -16.125 29.0625 C-16.82753906 28.71509766 -17.53007812 28.36769531 -18.25390625 28.00976562 C-21.7488818 26.25567109 -24.96811297 24.50562685 -28 22 C-23.57529602 18.93375777 -19.08642426 16.0298303 -14.4296875 13.328125 C-13.21611572 12.61523315 -13.21611572 12.61523315 -11.97802734 11.88793945 C-10.3376631 10.92780113 -8.68955031 9.98076964 -7.03369141 9.04760742 C-2.46635226 6.52284992 -2.46635226 6.52284992 0.03125 2.16015625 C0.0209375 1.44730469 0.010625 0.73445312 0 0 Z " fill="#C0A4FC" transform="translate(224,162)"/>
<path d="M0 0 C10.22294173 6.70224458 18.13218463 17.12647794 22.47265625 28.62109375 C22.47265625 29.61109375 22.47265625 30.60109375 22.47265625 31.62109375 C18.57194114 30.16841364 15.06516955 28.3484129 11.45703125 26.27734375 C10.88792023 25.95179001 10.3188092 25.62623627 9.73245239 25.29081726 C7.89383254 24.23771964 6.05807301 23.17976271 4.22265625 22.12109375 C2.95985414 21.39484083 1.69699582 20.66868565 0.43408203 19.94262695 C-2.06644741 18.50394385 -4.56549089 17.0627238 -7.06347656 15.61962891 C-10.06555515 13.88753028 -13.07266932 12.164707 -16.08203125 10.4453125 C-17.60585282 9.56707231 -19.1293258 8.68822682 -20.65234375 7.80859375 C-21.3371582 7.41929687 -22.02197266 7.03 -22.72753906 6.62890625 C-25.81576083 4.82919059 -27.50809039 3.64997379 -29.52734375 0.62109375 C-29.52734375 -0.69890625 -29.52734375 -2.01890625 -29.52734375 -3.37890625 C-19.50820495 -6.47154858 -8.93151897 -5.20504403 0 0 Z " fill="#3610D9" transform="translate(163.52734375,152.37890625)"/>
<path d="M0 0 C5.13841533 1.43201739 7.70097492 3.79087544 10.8125 8.0625 C15.04712278 15.97360043 15.04712278 15.97360043 14.5703125 20.21875 C13.21966197 23.50486881 10.8956358 24.5209321 7.8125 26.0625 C4.12138215 26.26023846 1.9361523 26.04987411 -0.89453125 23.5625 C-4.44046289 19.5593071 -7.0421902 16.06050977 -7.4375 10.625 C-7.05944346 5.23769426 -6.17608623 0.12109973 0 0 Z " fill="#100C27" transform="translate(185.1875,195.9375)"/>
<path d="M0 0 C5.89475423 2.00421644 9.51849584 5.75994652 12.37890625 11.1484375 C13.65320591 14.41758322 13.88019733 17.57406197 14.125 21.0625 C10.84500745 23.702494 8.88131215 25.02198328 4.625 25.25 C-0.90145203 23.37495378 -3.45133035 19.58627802 -6.25 14.625 C-7.16880322 10.85790681 -7.24605088 7.95853421 -6.875 4.0625 C-4.80586084 0.79962671 -3.87688216 0.08428005 0 0 Z " fill="#100D26" transform="translate(124.875,160.9375)"/>
<path d="M0 0 C7.33333333 4 14.66666667 8 22 12 C21.67 18.6 21.34 25.2 21 32 C7.15317112 24.50642202 7.15317112 24.50642202 6.375 21.93359375 C6.25125 21.10988281 6.1275 20.28617188 6 19.4375 C4.59802072 10.47973051 4.59802072 10.47973051 0 3 C0 2.01 0 1.02 0 0 Z " fill="#936CFB" transform="translate(135,155)"/>
<path d="M0 0 C4.01537791 2.17977658 6.8890807 4.66145246 10 8 C10.46277344 8.46921875 10.92554688 8.9384375 11.40234375 9.421875 C16.35337127 14.72748539 23 23.56614825 23 31 C21 30 21 30 18.921875 28.26171875 C15.22622612 25.40104936 11.29722828 23.13641438 7.25 20.8125 C5.71279069 19.92447578 4.17629279 19.03521857 2.640625 18.14453125 C1.96547852 17.75628174 1.29033203 17.36803223 0.59472656 16.96801758 C-1 16 -1 16 -2 15 C-2.4857159 9.6345337 -2.06149392 5.02489144 0 0 Z " fill="#4119E0" transform="translate(163,153)"/>
<path d="M0 0 C4.35614155 1.12015068 6.63040166 3.14938923 9.046875 6.8046875 C10.92087411 11.12102972 10.72531028 15.42018367 10 20 C8.07400712 24.4939834 6.84970261 25.65435826 2.3125 27.5 C1.27416016 27.81710938 1.27416016 27.81710938 0.21484375 28.140625 C-2.40639066 29.15768244 -4.36320965 30.58703104 -6.625 32.25 C-10.55542065 35.01559928 -10.55542065 35.01559928 -14.5625 34.875 C-15.7690625 34.441875 -15.7690625 34.441875 -17 34 C-15.85500131 30.56500392 -15.43024564 30.38336181 -12.40234375 28.73828125 C-11.68369141 28.34189453 -10.96503906 27.94550781 -10.22460938 27.53710938 C-9.46986328 27.13298828 -8.71511719 26.72886719 -7.9375 26.3125 C-7.17888672 25.89677734 -6.42027344 25.48105469 -5.63867188 25.05273438 C-3.76366859 24.02678918 -1.88240657 23.01229756 0 22 C0 20.68 0 19.36 0 18 C1.63631892 16.95107762 3.30485863 15.95093297 5 15 C5.33 14.01 5.66 13.02 6 12 C5.34 12 4.68 12 4 12 C3.3291288 10.3767313 2.66342971 8.75132422 2 7.125 C1.62875 6.22007812 1.2575 5.31515625 0.875 4.3828125 C0 2 0 2 0 0 Z " fill="#8860F5" transform="translate(237,174)"/>
<path d="M0 0 C4.67665363 1.41894877 6.99585826 3.80163581 10.1875 7.4375 C11.04730469 8.40558594 11.90710938 9.37367188 12.79296875 10.37109375 C16.88632385 15.24689548 16.88632385 15.24689548 17.375 18.484375 C17 21 17 21 15.375 22.703125 C12.6031742 24.50845891 9.82889363 26.28439106 7 28 C6.35740234 28.39364746 5.71480469 28.78729492 5.05273438 29.19287109 C2.96345592 30.46192527 0.86050297 31.70410182 -1.25 32.9375 C-1.92289063 33.33936523 -2.59578125 33.74123047 -3.2890625 34.15527344 C-7.36343783 36.46824639 -10.18268407 37.48621978 -15 37 C-15 36.34 -15 35.68 -15 35 C-13.97261719 34.43152344 -12.94523438 33.86304688 -11.88671875 33.27734375 C-4.44462263 29.13694662 2.86985954 24.93865852 9.9609375 20.21484375 C12 19 12 19 14 19 C12.50247405 13.95769744 9.4424273 10.93330661 5.875 7.25 C0 1.10612128 0 1.10612128 0 0 Z " fill="#0D0727" transform="translate(207,146)"/>
<path d="M0 0 C-0.33 3.3 -0.66 6.6 -1 10 C-0.236875 10.20625 0.52625 10.4125 1.3125 10.625 C6.49898594 12.55894391 11.19033084 15.2785146 16 18 C16.09087891 16.98679688 16.09087891 16.98679688 16.18359375 15.953125 C16.26738281 15.06109375 16.35117188 14.1690625 16.4375 13.25 C16.51871094 12.36828125 16.59992188 11.4865625 16.68359375 10.578125 C16.96238465 8.30649548 17.38790577 6.20148177 18 4 C18.66 4 19.32 4 20 4 C19.835 4.969375 19.67 5.93875 19.5 6.9375 C19.32716118 8.29089273 19.1610246 9.64515085 19 11 C18.88962402 11.71897461 18.77924805 12.43794922 18.66552734 13.17871094 C18.44074912 15.64322441 18.42554772 17.58595823 19 20 C21.3296771 22.48638014 24.08811655 23.82652496 27.125 25.3125 C28.64913639 26.11977563 30.17258645 26.92834851 31.6953125 27.73828125 C32.4265332 28.1142041 33.15775391 28.49012695 33.91113281 28.87744141 C36.75082416 30.40349339 39.35801468 32.15567479 42 34 C41.01 34.495 41.01 34.495 40 35 C37.82714844 34.03466797 37.82714844 34.03466797 35.109375 32.4921875 C34.0994751 31.92346924 33.0895752 31.35475098 32.04907227 30.76879883 C30.96037842 30.14384521 29.87168457 29.5188916 28.75 28.875 C27.64003662 28.24424561 26.53007324 27.61349121 25.38647461 26.96362305 C21.91813516 24.98618425 18.45835233 22.99484606 15 21 C13.91025879 20.37464355 12.82051758 19.74928711 11.69775391 19.10498047 C8.64688078 17.35057609 5.60313019 15.58458702 2.5625 13.8125 C1.62825195 13.27286621 0.69400391 12.73323242 -0.26855469 12.17724609 C-1.12739258 11.6714502 -1.98623047 11.1656543 -2.87109375 10.64453125 C-3.99922485 9.98481323 -3.99922485 9.98481323 -5.15014648 9.31176758 C-7 8 -7 8 -9 5 C-9 3.68 -9 2.36 -9 1 C-5.72921858 0.03087958 -3.60964568 0 0 0 Z " fill="#190D44" transform="translate(143,148)"/>
<path d="M0 0 C0.76957031 0.54140625 0.76957031 0.54140625 1.5546875 1.09375 C1.5546875 1.75375 1.5546875 2.41375 1.5546875 3.09375 C2.67423828 3.47273437 2.67423828 3.47273437 3.81640625 3.859375 C12.91790149 7.96218883 18.26848368 19.51065357 22.5546875 28.09375 C23.27734375 30.51171875 23.27734375 30.51171875 23.5546875 32.09375 C20.81378532 29.66817285 19.38927889 27.09255837 17.7421875 23.84375 C15.15837792 18.9545865 12.2246618 15.20062601 8.5546875 11.09375 C8.5546875 10.43375 8.5546875 9.77375 8.5546875 9.09375 C7.98621094 8.825625 7.41773438 8.5575 6.83203125 8.28125 C3.6583496 6.62636283 0.80584823 4.57281833 -2.12890625 2.53125 C-8.04914784 -1.14269419 -12.94243921 -1.15647947 -19.7578125 -1.03125 C-20.68916016 -1.02222656 -21.62050781 -1.01320312 -22.58007812 -1.00390625 C-24.8687561 -0.98043263 -27.15689922 -0.94759729 -29.4453125 -0.90625 C-29.1153125 1.73375 -28.7853125 4.37375 -28.4453125 7.09375 C-29.78428833 6.14331626 -31.11636677 5.18315853 -32.4453125 4.21875 C-33.1878125 3.68507812 -33.9303125 3.15140625 -34.6953125 2.6015625 C-35.2728125 2.10398438 -35.8503125 1.60640625 -36.4453125 1.09375 C-36.4453125 0.43375 -36.4453125 -0.22625 -36.4453125 -0.90625 C-25.1469804 -5.67539521 -10.67638522 -6.4705365 0 0 Z " fill="#A586F4" transform="translate(163.4453125,149.90625)"/>
<path d="M0 0 C3.43740538 0.09045804 4.76708089 0.78596622 7.3125 3.125 C9.3927477 6.66912572 9.38900504 8.95434761 9 13 C8 14 8 14 5.75 14.5 C2.52272877 13.91322341 2.11375721 13.34242755 0.1875 10.8125 C-1.7590655 7.78859007 -2.73093092 5.65465462 -2 2 C-1.34 1.34 -0.68 0.68 0 0 Z " fill="#4520D9" transform="translate(123,167)"/>
<path d="M0 0 C-0.01953125 2.1640625 -0.01953125 2.1640625 -1 5 C-3.34027359 7.15185196 -5.97319544 8.73535809 -8.6875 10.375 C-9.39583984 10.83777344 -10.10417969 11.30054688 -10.83398438 11.77734375 C-14.40869187 13.98884331 -16.22525596 15.04643305 -20.51953125 14.7890625 C-21.33808594 14.52867187 -22.15664062 14.26828125 -23 14 C-21.77603406 10.32810219 -20.91117215 10.09965865 -17.59765625 8.30078125 C-16.70755859 7.81416016 -15.81746094 7.32753906 -14.90039062 6.82617188 C-13.96388672 6.32666016 -13.02738281 5.82714844 -12.0625 5.3125 C-11.12986328 4.80138672 -10.19722656 4.29027344 -9.23632812 3.76367188 C-2.28685122 0 -2.28685122 0 0 0 Z " fill="#0C053B" transform="translate(243,194)"/>
<path d="M0 0 C2.75 -0.3125 2.75 -0.3125 6 0 C8.56801099 2.16253557 9.85355976 3.7221908 10.2421875 7.11328125 C10.24916401 9.07716839 10.13284079 11.04059838 10 13 C7.25 13.3125 7.25 13.3125 4 13 C1.43198901 10.83746443 0.14644024 9.2778092 -0.2421875 5.88671875 C-0.24916401 3.92283161 -0.13284079 1.95940162 0 0 Z " fill="#4520DA" transform="translate(182,204)"/>
<path d="M0 0 C5.77378925 0.4811491 9.95859836 2.18467181 15 5 C14.67 5.99 14.34 6.98 14 8 C12.23050905 8.10815225 10.45912513 8.18566083 8.6875 8.25 C7.70136719 8.29640625 6.71523437 8.3428125 5.69921875 8.390625 C3 8 3 8 1.14453125 6.234375 C0 4 0 4 0 0 Z " fill="#0F054D" transform="translate(202,194)"/>
<path d="M0 0 C0.66 0 1.32 0 2 0 C1.835 0.969375 1.67 1.93875 1.5 2.9375 C1.32716118 4.29089273 1.1610246 5.64515085 1 7 C0.88962402 7.71897461 0.77924805 8.43794922 0.66552734 9.17871094 C0.44074912 11.64322441 0.42554772 13.58595823 1 16 C3.3296771 18.48638014 6.08811655 19.82652496 9.125 21.3125 C10.64913639 22.11977563 12.17258645 22.92834851 13.6953125 23.73828125 C14.4265332 24.1142041 15.15775391 24.49012695 15.91113281 24.87744141 C18.75082416 26.40349339 21.35801468 28.15567479 24 30 C23.34 30.33 22.68 30.66 22 31 C19.47802734 29.82836914 19.47802734 29.82836914 16.3359375 28.03515625 C15.21445313 27.40029297 14.09296875 26.76542969 12.9375 26.11132812 C11.74990125 25.42855715 10.56240253 24.74561216 9.375 24.0625 C8.1801048 23.38272949 6.98479717 22.7036834 5.7890625 22.02539062 C2.85522807 20.35736379 -0.07414509 18.68197204 -3 17 C-2.68985608 14.91631462 -2.3767948 12.83306332 -2.0625 10.75 C-1.88847656 9.58984375 -1.71445313 8.4296875 -1.53515625 7.234375 C-1.1272264 4.76893039 -0.66098697 2.40575438 0 0 Z " fill="#150A43" transform="translate(161,152)"/>
<path d="M0 0 C4.05606165 0.46800711 7.46588679 0.87953208 11 3 C11 3.66 11 4.32 11 5 C12.11955078 5.37898437 12.11955078 5.37898437 13.26171875 5.765625 C22.36321399 9.86843883 27.71379618 21.41690357 32 30 C32.72265625 32.41796875 32.72265625 32.41796875 33 34 C30.25909782 31.57442285 28.83459139 28.99880837 27.1875 25.75 C24.60369042 20.8608365 21.6699743 17.10687601 18 13 C18 12.34 18 11.68 18 11 C17.43152344 10.731875 16.86304688 10.46375 16.27734375 10.1875 C13.1036621 8.53261283 10.25116073 6.47906833 7.31640625 4.4375 C4.94681156 2.96699267 2.61352118 1.95875204 0 1 C0 0.67 0 0.34 0 0 Z " fill="#9875F8" transform="translate(154,148)"/>
<path d="M0 0 C0.99 0 1.98 0 3 0 C5.34914492 2.34914492 5.73140357 3.95679446 6.625 7.125 C7.01558594 8.49011719 7.01558594 8.49011719 7.4140625 9.8828125 C7.70410156 10.93082031 7.70410156 10.93082031 8 12 C4.76865078 15.58768848 1.09815123 17.94918097 -3.0625 20.3125 C-3.68705078 20.68439453 -4.31160156 21.05628906 -4.95507812 21.43945312 C-6.5912651 22.37716113 -8.29341902 23.19751295 -10 24 C-10.99 23.67 -11.98 23.34 -13 23 C-7.06 19.7 -1.12 16.4 5 13 C3.68 10.03 2.36 7.06 1 4 C0.67 2.68 0.34 1.36 0 0 Z " fill="#9975F9" transform="translate(233,174)"/>
<path d="M0 0 C3.87832832 4.4929741 6.36565049 9.29699307 9 14.56054688 C10.92766163 18.30668617 12.78154544 21.17666821 16 24 C13.265625 23.9921875 13.265625 23.9921875 10 23 C8.10325357 20.6008143 6.96443528 17.91820115 5.75 15.125 C5.07942372 13.66867213 4.40759434 12.21292045 3.734375 10.7578125 C3.44788086 10.1095752 3.16138672 9.46133789 2.86621094 8.79345703 C1.9227808 6.73508059 1.9227808 6.73508059 0 4 C0 2.68 0 1.36 0 0 Z " fill="#B89BF9" transform="translate(178,162)"/>
<path d="M0 0 C5.26630019 3.40554079 10.2703193 6.87668862 15 11 C14.01 11.33 13.02 11.66 12 12 C11.67 12.66 11.34 13.32 11 14 C9.33333333 12.33333333 7.66666667 10.66666667 6 9 C5.0925 8.154375 4.185 7.30875 3.25 6.4375 C1.01334894 4.01446135 0.6004681 3.08718925 0 0 Z " fill="#B294F6" transform="translate(224,162)"/>
<path d="M0 0 C2.125 0.375 2.125 0.375 4 1 C3.01 1.33 2.02 1.66 1 2 C1.32960216 7.01535052 1.32960216 7.01535052 4 11 C6.06874034 11.6425235 6.06874034 11.6425235 8 12 C8.33 10.68 8.66 9.36 9 8 C9.042721 9.66611905 9.04063832 11.33382885 9 13 C8 14 8 14 5.75 14.5 C2.52272877 13.91322341 2.11375721 13.34242755 0.1875 10.8125 C-1.7590655 7.78859007 -2.73093092 5.65465462 -2 2 C-1.34 1.34 -0.68 0.68 0 0 Z " fill="#B39BE4" transform="translate(123,167)"/>
<path d="M0 0 C3.68144619 1.97370309 7.34506334 3.97763229 11 6 C11.97582031 6.53753906 12.95164063 7.07507813 13.95703125 7.62890625 C15.30861328 8.40041016 15.30861328 8.40041016 16.6875 9.1875 C17.51636719 9.65542969 18.34523437 10.12335938 19.19921875 10.60546875 C19.79347656 11.06566406 20.38773438 11.52585938 21 12 C21 12.99 21 13.98 21 15 C10.605 9.06 10.605 9.06 0 3 C0 2.01 0 1.02 0 0 Z " fill="#C7AEF9" transform="translate(156,187)"/>
<path d="M0 0 C0.33 0.66 0.66 1.32 1 2 C-0.95519384 3.17192047 -2.9142539 4.3373929 -4.875 5.5 C-5.96554688 6.1496875 -7.05609375 6.799375 -8.1796875 7.46875 C-11 9 -11 9 -13 9 C-12.07933074 4.97207198 -10.40632779 3.31536059 -7.0625 1.125 C-3.42940794 -1.14313598 -3.42940794 -1.14313598 0 0 Z " fill="#7B50F3" transform="translate(238,194)"/>
<path d="M0 0 C4.67710487 1.42163799 7.03768522 3.81643259 10.25 7.4375 C11.12140625 8.40558594 11.9928125 9.37367188 12.890625 10.37109375 C15 13 15 13 16 16 C15.34 16.99 14.68 17.98 14 19 C13.79632813 18.31421875 13.59265625 17.6284375 13.3828125 16.921875 C11.53041109 13.0077613 8.86612679 10.33828636 5.875 7.25 C0 1.10612128 0 1.10612128 0 0 Z " fill="#241B3D" transform="translate(207,146)"/>
<path d="M0 0 C-0.33 1.65 -0.66 3.3 -1 5 C-7.75 7 -7.75 7 -10 7 C-10 7.66 -10 8.32 -10 9 C-12 8 -12 8 -13 6 C-11.21118264 4.99491199 -9.41885304 3.99607264 -7.625 3 C-6.62726563 2.443125 -5.62953125 1.88625 -4.6015625 1.3125 C-2 0 -2 0 0 0 Z " fill="#0C052B" transform="translate(243,194)"/>
<path d="M0 0 C1.65 0 3.3 0 5 0 C4.01 0.33 3.02 0.66 2 1 C2.32960216 6.01535052 2.32960216 6.01535052 5 10 C7.06874034 10.6425235 7.06874034 10.6425235 9 11 C9.33 9.68 9.66 8.36 10 7 C10 8.98 10 10.96 10 13 C7.25 13.3125 7.25 13.3125 4 13 C1.43198901 10.83746443 0.14644024 9.2778092 -0.2421875 5.88671875 C-0.24916401 3.92283161 -0.13284079 1.95940162 0 0 Z " fill="#A589E6" transform="translate(182,204)"/>
<path d="M0 0 C3.65316671 1.24976756 4.78065836 1.67098753 7 5 C7.125 7.6875 7.125 7.6875 7 10 C5.68 10 4.36 10 3 10 C2.01 6.7 1.02 3.4 0 0 Z " fill="#140C4D" transform="translate(237,174)"/>
<path d="M0 0 C0.33 0 0.66 0 1 0 C1.103125 1.0725 1.20625 2.145 1.3125 3.25 C1.99985145 6.99918971 2.80101475 8.10133762 5 11 C4.6875 13.25 4.6875 13.25 4 15 C-0.94080338 10.30021142 -0.94080338 10.30021142 -1.109375 6.59765625 C-0.84113292 4.36348207 -0.49266131 2.19502566 0 0 Z " fill="#1E1932" transform="translate(181,205)"/>
<path d="M0 0 C0.99 0 1.98 0 3 0 C5.34914492 2.34914492 5.73140357 3.95679446 6.625 7.125 C6.88539063 8.03507813 7.14578125 8.94515625 7.4140625 9.8828125 C7.70410156 10.93082031 7.70410156 10.93082031 8 12 C6.5 10.625 6.5 10.625 5 9 C5 8.34 5 7.68 5 7 C4.01 6.67 3.02 6.34 2 6 C0.8125 2.9375 0.8125 2.9375 0 0 Z " fill="#A283EB" transform="translate(233,174)"/>
<path d="M0 0 C5.41390868 0.46671627 9.20517932 1.24297811 14 4 C11 5 11 5 8 4 C8 4.66 8 5.32 8 6 C5.525 5.01 5.525 5.01 3 4 C3 3.34 3 2.68 3 2 C2.01 1.67 1.02 1.34 0 1 C0 0.67 0 0.34 0 0 Z " fill="#9673F2" transform="translate(206,192)"/>
<path d="M0 0 C-3.96 1.98 -7.92 3.96 -12 6 C-12.33 4.68 -12.66 3.36 -13 2 C-11.5882217 1.46605821 -10.17029756 0.94834896 -8.75 0.4375 C-7.96109375 0.14746094 -7.1721875 -0.14257812 -6.359375 -0.44140625 C-4 -1 -4 -1 0 0 Z " fill="#8635FA" transform="translate(143,133)"/>
<path d="M0 0 C0 2.31 0 4.62 0 7 C-1.875 6.8125 -1.875 6.8125 -4 6 C-5.25 3.4375 -5.25 3.4375 -6 1 C-3.92446352 0.4465236 -2.15634036 0 0 0 Z " fill="#3512D1" transform="translate(140,148)"/>
<path d="M0 0 C0 0.66 0 1.32 0 2 C1.32 2.33 2.64 2.66 4 3 C1 5 1 5 -2.1875 4.625 C-3.115625 4.41875 -4.04375 4.2125 -5 4 C-4.67 3.01 -4.34 2.02 -4 1 C-2 0 -2 0 0 0 Z " fill="#1E0F5B" transform="translate(225,204)"/>
<path d="M0 0 C0.86625 0.37125 0.86625 0.37125 1.75 0.75 C0.945625 1.224375 0.14125 1.69875 -0.6875 2.1875 C-3.09753488 3.51900154 -3.09753488 3.51900154 -4.25 4.75 C-4.61760731 7.07817964 -4.95241581 9.4118385 -5.25 11.75 C-5.58 11.75 -5.91 11.75 -6.25 11.75 C-6.73590022 4.46149675 -6.73590022 4.46149675 -4.5 1.1875 C-2.25 -0.25 -2.25 -0.25 0 0 Z " fill="#312A49" transform="translate(124.25,161.25)"/>
<path d="M0 0 C3.82946843 1.45255699 5.12050295 3.42895561 7 7 C6.01 8.485 6.01 8.485 5 10 C4.731875 9.236875 4.46375 8.47375 4.1875 7.6875 C3.04199033 5.09503074 2.00288478 3.91184456 0 2 C0 1.34 0 0.68 0 0 Z " fill="#170D3C" transform="translate(216,155)"/>
<path d="M0 0 C-0.33 1.65 -0.66 3.3 -1 5 C-1.99 5.33 -2.98 5.66 -4 6 C-4 5.01 -4 4.02 -4 3 C-4.66 2.67 -5.32 2.34 -6 2 C-2.25 0 -2.25 0 0 0 Z " fill="#150A49" transform="translate(243,194)"/>
<path d="M0 0 C0.33 0 0.66 0 1 0 C1 1.98 1 3.96 1 6 C-0.98 6 -2.96 6 -5 6 C-5.33 5.01 -5.66 4.02 -6 3 C-3.03 3.495 -3.03 3.495 0 4 C0 2.68 0 1.36 0 0 Z " fill="#B09AE1" transform="translate(191,211)"/>
<path d="M0 0 C2.125 0.375 2.125 0.375 4 1 C3.01 1.33 2.02 1.66 1 2 C1 3.65 1 5.3 1 7 C0.01 7 -0.98 7 -2 7 C-2.125 4.625 -2.125 4.625 -2 2 C-1.34 1.34 -0.68 0.68 0 0 Z " fill="#7E65BD" transform="translate(123,167)"/>
<path d="M0 0 C0.99 0 1.98 0 3 0 C2.67 2.97 2.34 5.94 2 9 C-0.29013653 5.5647952 -0.17842973 4.014669 0 0 Z " fill="#140656" transform="translate(140,148)"/>
</svg>
