<?xml version="1.0" standalone="no"?>
<!DOCTYPE svg PUBLIC "-//W3C//DTD SVG 20010904//EN"
 "http://www.w3.org/TR/2001/REC-SVG-20010904/DTD/svg10.dtd">
<svg version="1.0" xmlns="http://www.w3.org/2000/svg"
 width="250.000000pt" height="200.000000pt" viewBox="0 0 250.000000 200.000000"
 preserveAspectRatio="xMidYMid meet">
<metadata>
Created by potrace 1.16, written by Peter Selinger 2001-2019
</metadata>
<g transform="translate(0.000000,200.000000) scale(0.100000,-0.100000)"
fill="#000000" stroke="none">
<path d="M372 1983 c-45 -22 -110 -98 -117 -137 -3 -17 -4 -409 -3 -872 l3
-841 28 -36 c15 -20 44 -49 64 -64 l36 -28 867 0 867 0 36 28 c20 15 49 44 64
64 l28 36 0 867 0 867 -28 36 c-15 20 -44 49 -64 64 l-36 28 -856 2 c-775 2
-859 1 -889 -14z m1709 -34 c50 -17 105 -74 118 -123 8 -28 11 -161 9 -424
l-3 -384 -955 0 -955 0 -3 384 c-2 263 1 396 9 424 12 47 68 106 114 122 44
15 1620 16 1666 1z m-1445 -1238 c41 -19 84 -63 84 -87 0 -7 -16 -16 -35 -20
-29 -5 -38 -2 -57 21 -31 35 -105 46 -144 21 -71 -47 -72 -203 -1 -247 48 -30
113 -21 148 20 28 34 42 37 77 18 l23 -13 -23 -34 c-62 -92 -215 -106 -303
-29 -66 58 -82 187 -34 280 40 79 170 113 265 70z m406 9 c74 -21 120 -78 133
-162 22 -149 -83 -262 -227 -245 -116 14 -170 74 -176 193 -6 115 37 186 128
212 47 14 97 14 142 2z m357 -137 c24 -76 44 -142 45 -148 1 -5 15 31 30 80
15 50 35 115 45 145 l18 55 56 3 57 3 0 -201 0 -200 -35 0 -35 0 -1 153 0 152
-50 -152 -50 -153 -33 0 -32 0 -47 143 -46 142 0 -142 -1 -143 -40 0 -40 0 0
200 0 200 58 0 58 0 43 -137z m492 -8 l43 -144 38 117 c20 64 40 129 43 145 6
26 9 27 66 27 l59 0 0 -200 0 -200 -40 0 -40 0 0 143 -1 142 -24 -75 c-14 -41
-34 -105 -45 -142 -20 -66 -22 -68 -54 -68 l-34 0 -41 133 c-23 72 -45 142
-49 155 -4 12 -5 -48 -4 -133 l4 -155 -41 0 -41 0 0 200 0 200 58 0 59 0 44
-145z"/>
<path d="M885 1669 c-69 -26 -100 -89 -75 -150 14 -34 59 -60 135 -78 81 -19
105 -32 112 -59 9 -39 -26 -62 -94 -62 -47 0 -59 4 -81 28 -21 21 -35 26 -59
24 -39 -4 -43 -26 -13 -65 27 -34 81 -51 160 -50 81 0 134 22 154 62 39 75 4
148 -81 171 -139 36 -168 52 -155 90 14 46 93 55 140 15 31 -26 66 -32 91 -16
12 8 12 13 -2 35 -10 14 -29 33 -42 42 -31 20 -148 28 -190 13z"/>
<path d="M1210 1465 l0 -205 40 0 39 0 3 73 3 72 85 5 c93 5 118 15 145 56 23
36 24 114 1 149 -28 43 -72 55 -201 55 l-115 0 0 -205z m236 120 c20 -27 17
-72 -6 -95 -16 -16 -33 -20 -85 -20 l-65 0 0 63 c0 35 3 67 8 71 4 4 36 6 71
4 47 -3 67 -9 77 -23z"/>
<path d="M1610 1465 l0 -205 40 0 40 0 0 205 0 205 -40 0 -40 0 0 -205z"/>
<path d="M893 625 c-35 -35 -35 -36 -31 -111 3 -71 6 -78 36 -105 56 -50 144
-33 176 35 33 71 11 173 -45 201 -50 26 -97 19 -136 -20z"/>
</g>
</svg>
